<svg xmlns="http://www.w3.org/2000/svg" xmlns:xlink="http://www.w3.org/1999/xlink" viewBox="0 0 74.59 94.45"><defs><linearGradient id="b" x1="6.51" y1="20.81" x2="69.11" y2="20.81" gradientUnits="userSpaceOnUse"><stop offset=".21" stop-color="#00ffb4"/><stop offset="1" stop-color="#00e6ff"/></linearGradient><linearGradient id="a" x1="6.51" y1="17.81" x2="69.11" y2="17.81" gradientUnits="userSpaceOnUse"><stop offset=".21" stop-color="#0071b4"/><stop offset="1" stop-color="#795dfd"/></linearGradient><linearGradient id="c" x1="7.13" y1="73.79" x2="69.73" y2="73.79" xlink:href="#a"/><linearGradient id="d" x1="7.13" y1="76.79" x2="69.73" y2="76.79" xlink:href="#b"/><linearGradient id="e" x1="1.76" y1="46.75" x2="14.76" y2="46.75" xlink:href="#a"/><linearGradient id="f" x1="59.76" y1="46.75" x2="72.76" y2="46.75" xlink:href="#a"/><linearGradient id="g" x1="43.76" y1="80.25" x2="67.76" y2="80.25" xlink:href="#a"/><linearGradient id="h" x1="8.74" y1="19.25" x2="21.76" y2="19.25" xlink:href="#b"/><linearGradient id="i" x1="28.76" y1="23.06" x2="46.76" y2="23.06" xlink:href="#b"/><linearGradient id="j" x1="28.76" y1="71.23" x2="47.76" y2="71.23" xlink:href="#a"/></defs><path d="M68.13 17.42a4.158 4.158 0 0 0-3.71-1.44l-1.82.24c-2.82-4.77-8.16-9.61-17.46-11.09h-.01c-.03 0-.33-.05-.86-.12-2.62-.35-4.99-.38-7.12-.16-7.84.47-19.67 3.25-27.24 14.79-12.12 18.49 11.65 21.95 16.88 11.29 5.22-10.66 7.55-17.73 17.05-17.57 3.87.61 6.95 1.99 9.21 4.1l-.49.06a4.161 4.161 0 0 0-2.75 6.69l8.2 10.53a4.142 4.142 0 0 0 4.04 1.53c1.53-.28 2.77-1.4 3.22-2.89l3.66-12.07c.41-1.35.1-2.82-.81-3.9Z" style="fill:url(#b)"/><path d="M68.13 14.42a4.158 4.158 0 0 0-3.71-1.44l-1.82.24c-2.82-4.77-8.16-9.61-17.46-11.09h-.01c-.03 0-.33-.05-.86-.12-2.62-.35-4.99-.38-7.12-.16-7.84.47-19.67 3.25-27.24 14.79-12.12 18.49 11.65 21.95 16.88 11.29 5.22-10.66 7.55-17.73 17.05-17.57 3.87.61 6.95 1.99 9.21 4.1l-.49.06a4.161 4.161 0 0 0-2.75 6.69l8.2 10.53a4.142 4.142 0 0 0 4.04 1.53c1.53-.28 2.77-1.4 3.22-2.89l3.66-12.07c.41-1.35.1-2.82-.81-3.9Z" style="fill:url(#a)"/><path d="M49.46 63.68c-5.22 10.66-7.55 17.72-17.04 17.57-3.87-.61-6.95-1.99-9.21-4.1l.49-.06a4.18 4.18 0 0 0 3.32-2.55c.57-1.38.35-2.96-.57-4.14l-8.2-10.53a4.142 4.142 0 0 0-4.04-1.53c-1.53.28-2.77 1.4-3.22 2.89L7.33 73.3c-.41 1.35-.1 2.82.81 3.9a4.158 4.158 0 0 0 3.71 1.44l1.82-.24c2.81 4.77 8.16 9.61 17.46 11.09h.02c.04 0 .34.05.85.11 2.63.35 5 .38 7.13.16 7.83-.47 19.67-3.25 27.23-14.79 12.12-18.49-11.65-21.95-16.88-11.29Z" style="fill:url(#c)"/><path d="M49.46 66.68c-5.22 10.66-7.55 17.72-17.04 17.57-3.87-.61-6.95-1.99-9.21-4.1l.49-.06a4.18 4.18 0 0 0 3.32-2.55c.57-1.38.35-2.96-.57-4.14l-8.2-10.53a4.142 4.142 0 0 0-4.04-1.53c-1.53.28-2.77 1.4-3.22 2.89L7.33 76.3c-.41 1.35-.1 2.82.81 3.9a4.158 4.158 0 0 0 3.71 1.44l1.82-.24c2.81 4.77 8.16 9.61 17.46 11.09h.02c.04 0 .34.05.85.11 2.63.35 5 .38 7.13.16 7.83-.47 19.67-3.25 27.23-14.79 12.12-18.49-11.65-21.95-16.88-11.29Z" style="fill:url(#d)"/><path d="M8.26 53.25c-3.58 0-6.5-2.92-6.5-6.5s2.92-6.5 6.5-6.5 6.5 2.93 6.5 6.5-2.93 6.5-6.5 6.5" style="fill:url(#e)"/><path d="M66.26 53.25c-3.58 0-6.5-2.92-6.5-6.5s2.92-6.5 6.5-6.5 6.5 2.93 6.5 6.5-2.93 6.5-6.5 6.5" style="fill:url(#f)"/><path d="M43.76 91.25s23-8 24-22c0 0-9 16-24 22" style="fill:url(#g)"/><path d="M10.76 30.25s-9-9 11-22c0 0-11 9-11 22" style="fill:url(#h)"/><path d="M28.76 31.25s7-22 18-15c0 0-7-5-18 15" style="fill:url(#i)"/><path d="M28.76 78.49s10 5.76 19-15.24c0 0-7 14.48-19 15.24" style="fill:url(#j)"/></svg>