<svg xmlns="http://www.w3.org/2000/svg" xmlns:xlink="http://www.w3.org/1999/xlink" viewBox="0 0 115.38 95.08"><defs><linearGradient id="a" x1="2.22" y1="38.13" x2="42.38" y2="38.13" gradientUnits="userSpaceOnUse"><stop offset=".21" stop-color="#0071b4"/><stop offset="1" stop-color="#795dfd"/></linearGradient><linearGradient id="b" x1="3.22" y1="35.13" x2="43.38" y2="35.13" gradientUnits="userSpaceOnUse"><stop offset=".21" stop-color="#00ffb4"/><stop offset="1" stop-color="#00e6ff"/></linearGradient><linearGradient id="c" x1="79.61" y1="65.67" x2="113.87" y2="65.67" xlink:href="#a"/><linearGradient id="d" x1="78.31" y1="62.88" x2="112.57" y2="62.88" xlink:href="#b"/><linearGradient id="e" x1="40.58" y1="50.22" x2="82.73" y2="50.22" xlink:href="#b"/><linearGradient id="f" x1="52.73" y1="31.39" x2="72.16" y2="31.39" xlink:href="#a"/><linearGradient id="g" x1="88.27" y1="60.34" x2="100.64" y2="60.34" xlink:href="#a"/><linearGradient id="h" x1="17.68" y1="40.03" x2="31.84" y2="40.03" xlink:href="#a"/><linearGradient id="i" x1="6.15" y1="22.78" x2="29.67" y2="22.78" xlink:href="#a"/><linearGradient id="j" x1="85.44" y1="75.51" x2="109.44" y2="75.51" xlink:href="#a"/></defs><path d="M20.85 9.74C15.23 17.41 2.77 43.2 2.77 43.2s-3.03 6.7 5.18 10.86c8.21 4.16 26.49 14.62 26.49 14.62s6.72 3.54 7.72-.46-1.48-5.42-4.24-7.21c-2.76-1.79-26.38-15.35-26.38-15.35l24.48-24.63s5.71-4.78-1.57-11.3c-7.28-6.52-11.58-2.74-13.59 0" style="fill:url(#a)"/><path d="M21.85 6.74C16.23 14.41 3.77 40.2 3.77 40.2S.74 46.9 8.95 51.06c8.21 4.16 26.49 14.62 26.49 14.62s6.72 3.54 7.72-.46-1.48-5.42-4.24-7.21c-2.76-1.79-26.38-15.35-26.38-15.35l24.48-24.63s5.71-4.78-1.57-11.3c-7.28-6.52-11.58-2.74-13.59 0" style="fill:url(#b)"/><path d="M93.36 91.18c5.73-5.73 19.58-25.83 19.58-25.83s3.43-5.25-2.95-9.82c-6.37-4.58-20.41-15.77-20.41-15.77s-5.2-3.85-6.56-.62c-1.36 3.24.54 4.76 2.63 6.62 2.09 1.87 20.22 16.36 20.22 16.36L82.05 79.68s-5.43 3.28-.15 9.72c5.28 6.44 9.4 3.82 11.45 1.77" style="fill:url(#c)"/><path d="M92.07 88.39c5.73-5.73 19.58-25.83 19.58-25.83s3.43-5.25-2.95-9.82c-6.37-4.58-20.41-15.77-20.41-15.77s-5.2-3.85-6.56-.61c-1.36 3.24.54 4.76 2.63 6.62 2.09 1.87 20.22 16.36 20.22 16.36L80.76 76.9s-5.43 3.28-.15 9.72c5.28 6.44 9.4 3.82 11.45 1.77" style="fill:url(#d)"/><path d="M43.09 87.9c-2.22-1.09-3.14-3.8-2.05-6.02l33.15-67.29c1.09-2.22 3.8-3.14 6.03-2.05 2.22 1.09 3.14 3.81 2.05 6.03L49.12 85.85c-1.09 2.22-3.8 3.14-6.02 2.05" style="fill:url(#e)"/><path d="m52.73 49.55 19.43-36.33S53.31 42.87 52.73 49.55" style="fill:url(#f)"/><path style="fill:url(#g)" d="m89.62 50.67 11.02 9.26L88.27 70l10.29-10.18-8.94-9.15z"/><path style="fill:url(#h)" d="m17.68 42.6 14.16-13.75L19.86 42.6l11.98 8.62-14.16-8.62z"/><path d="M6.15 39.22S23.51 1.57 29.48 6.85C32.15 9.22 6.15 39.22 6.15 39.22" style="fill:url(#i)"/><path d="M109.44 62.88s-27.12 21.64-23.7 24.99c3.41 3.35 23.7-24.99 23.7-24.99" style="fill:url(#j)"/></svg>