<?xml version="1.0" encoding="UTF-8"?><svg id="uuid-36f7f52a-43fa-4dc3-88b6-1350515d3d09" xmlns="http://www.w3.org/2000/svg" viewBox="0 0 1920 800.74"><defs><style>.uuid-28206243-c721-4671-8f10-0ca12609ec33{fill:#8c98a0;}</style></defs><g id="uuid-83a135e8-869b-476b-86ea-52b74299db11"><path class="uuid-28206243-c721-4671-8f10-0ca12609ec33" d="M1541.77,800.44c-6.69-.52-21.96-2.83-28.89-4.7-2.85-.77-5.63-1.5-7.59-3.93v-106.37c32.75,3.46,76.77,17.27,99.5-14.71,7.54-10.61,10.61-23.74,15.25-35.75l-183.88-451.68h130.56l116.16,299.01,106.82-298.75,130.3-.26v1.92l-188.64,489.21c-20.81,56.68-50.03,102.45-111.59,118.6l-41.53,7.42c-11.91-.67-24.7.92-36.48,0Z"/><path class="uuid-28206243-c721-4671-8f10-0ca12609ec33" d="M343.71,236.97v-53.66h126.72v296.11c0,2.34,4.48,16.15,6.05,18.88,10.32,18,30.59,12.49,47.71,10.83v104.45c-10.74,5.85-28.71,7.99-41.2,8.7-40.02,2.3-86.27-4.16-112.35-37.5-5.13-6.56-7.21-12.89-11.15-19.55-.65-1.1-.29-3.92-3.28-2.43-1.52.76-18.24,20.93-23.01,24.96-56.16,47.34-162.43,43.74-224.31,9.16-146.66-81.96-144.72-316.43,3.14-396.69,57.67-31.3,162.77-38.03,212.56,10.8,7.62,7.48,11.61,18.45,19.13,25.95ZM222.32,291.16c-140.33,15.99-118.78,238.31,35.75,213.93,140.16-22.12,112.69-230.84-35.75-213.93Z"/><path class="uuid-28206243-c721-4671-8f10-0ca12609ec33" d="M1388.17,183.3v115h-96v160.03c0,4.84,3.48,20.1,5.41,25.27,12.18,32.65,55.29,27.46,82.91,23.6v113.08c-64.89,11.83-150.7,10.89-188.96-51.9-14.22-23.33-19.28-48.65-22.21-75.57l-.02-194.51h-57.6v-115h276.48Z"/><path class="uuid-28206243-c721-4671-8f10-0ca12609ec33" d="M864.02,175.64v120.74c-5.18-1.79-10.86-3.33-16.35-3.8-53.65-4.61-110.74,5.54-132.95,60.79-1.87,4.65-8.13,22.71-8.13,26.38v234.78h-128.64V183.3h128.64v55.58l13.5-20.07c35.1-41.81,92.02-50.53,143.94-43.18Z"/><path class="uuid-28206243-c721-4671-8f10-0ca12609ec33" d="M1054.09,183.3v294.2c0,1.76,3.76,13.65,4.83,16.26,6.79,16.46,24.01,16.35,39.33,13.45v109.25c-61.32,12.49-139.11,10.92-163.27-58.38-1.93-5.54-7.61-26.07-7.61-30.74V183.3h126.72Z"/><path class="uuid-28206243-c721-4671-8f10-0ca12609ec33" d="M1222.63,1.77c103.35-11.93,111.44,154.63-2.44,143.19-80.15-8.05-83.67-133.25,2.44-143.19Z"/><path class="uuid-28206243-c721-4671-8f10-0ca12609ec33" d="M1041.9,125.13c-68.57,67.42-172.09-36.81-103.07-103.85,68.38-66.43,170.08,37.98,103.07,103.85Z"/></g></svg>