<?xml version="1.0" encoding="utf-8"?>
<!-- Generator: Adobe Illustrator 24.0.1, SVG Export Plug-In . SVG Version: 6.00 Build 0)  -->
<svg version="1.1" id="uuid-1a426f02-319d-4cc6-99cd-aacdbaa9148d"
	 xmlns="http://www.w3.org/2000/svg" xmlns:xlink="http://www.w3.org/1999/xlink" x="0px" y="0px" viewBox="0 0 106.3 73.6"
	 style="enable-background:new 0 0 106.3 73.6;" xml:space="preserve">
<style type="text/css">
	.st0{fill:url(#SVGID_1_);}
	.st1{fill:url(#SVGID_2_);}
	.st2{fill:url(#SVGID_3_);}
	.st3{fill:#FFFFFF;}
	.st4{fill:url(#SVGID_4_);}
	.st5{fill:url(#SVGID_5_);}
</style>
<linearGradient id="SVGID_1_" gradientUnits="userSpaceOnUse" x1="0.8213" y1="39.4842" x2="105.2513" y2="39.4842" gradientTransform="matrix(1 0 0 -1 0 73.6886)">
	<stop  offset="0.21" style="stop-color:#00FFB4"/>
	<stop  offset="1" style="stop-color:#00E6FF"/>
</linearGradient>
<path class="st0" d="M90.8,38.7h-11c2.2-2.5,3.6-5.8,3.6-9.5c0-4.1-1.7-7.7-4.4-10.4c0.3-1.1,0.4-2.3,0.4-3.6
	c0-7.9-6.5-14.4-14.4-14.4h-7c-7.8,0-14.1,6.2-14.4,13.9H30.2c-7.9,0-14.4,6.5-14.4,14.4c0,3.6,1.3,6.9,3.6,9.5h-4.1
	c-7.9,0-14.4,6.5-14.4,14.4s6.5,14.4,14.4,14.4h75.6c7.9,0,14.4-6.5,14.4-14.4S98.8,38.7,90.8,38.7L90.8,38.7z"/>
<linearGradient id="SVGID_2_" gradientUnits="userSpaceOnUse" x1="86.9813" y1="54.5242" x2="106.2513" y2="54.5242" gradientTransform="matrix(1 0 0 -1 0 73.6886)">
	<stop  offset="0.21" style="stop-color:#0071B4"/>
	<stop  offset="1" style="stop-color:#795DFD"/>
</linearGradient>
<path class="st1" d="M103.6,20h-2c0.4-0.5,0.7-1.1,0.7-1.7c0-0.8-0.3-1.4-0.8-1.9c0.1-0.2,0.1-0.4,0.1-0.7c0-1.5-1.2-2.7-2.7-2.7
	h-1.3c-1.4,0-2.6,1.1-2.7,2.6h-2.5c-1.5,0-2.7,1.2-2.7,2.7c0,0.7,0.2,1.3,0.7,1.7h-0.8c-1.5,0-2.7,1.2-2.7,2.7s1.2,2.7,2.7,2.7h13.9
	c1.5,0,2.7-1.2,2.7-2.7S105.1,20,103.6,20L103.6,20z"/>
<linearGradient id="SVGID_3_" gradientUnits="userSpaceOnUse" x1="7.4213" y1="44.0792" x2="26.6913" y2="44.0792" gradientTransform="matrix(1 0 0 -1 0 73.6886)">
	<stop  offset="0.21" style="stop-color:#0071B4"/>
	<stop  offset="1" style="stop-color:#795DFD"/>
</linearGradient>
<path class="st2" d="M24,32.3h-14c-1.5,0-2.7-1.2-2.7-2.7s1.2-2.7,2.7-2.7h14c1.5,0,2.7,1.2,2.7,2.7S25.5,32.3,24,32.3"/>
<path class="st3" d="M99.4,12.4c0,0,2.1-0.9,1.8-4.3c0.3,3,0.3,3.7,2.8,3.8c0,0-2.8,1.8-2.5,4.2C101.5,16,101.5,13.3,99.4,12.4
	 M95.4,18.4c0,0,2.1-0.9,1.8-4.3c0.3,3,0.3,3.7,2.8,3.7c0,0-2.8,1.8-2.5,4.2C97.5,22,97.5,19.2,95.4,18.4"/>
<linearGradient id="SVGID_4_" gradientUnits="userSpaceOnUse" x1="31.9913" y1="1.6836" x2="94.8713" y2="1.6836" gradientTransform="matrix(1 0 0 -1 0 73.6886)">
	<stop  offset="0.21" style="stop-color:#0071B4"/>
	<stop  offset="1" style="stop-color:#795DFD"/>
</linearGradient>
<path class="st4" d="M32,71h62.9C94.9,71,43.3,75.5,32,71"/>
<linearGradient id="SVGID_5_" gradientUnits="userSpaceOnUse" x1="4.4672" y1="17.5742" x2="75.8813" y2="17.5742" gradientTransform="matrix(1 0 0 -1 0 73.6886)">
	<stop  offset="0.21" style="stop-color:#0071B4"/>
	<stop  offset="1" style="stop-color:#795DFD"/>
</linearGradient>
<path class="st5" d="M4.8,47.6c0,0-5,17.9,22.9,16.9c27.9-1,48.2,0,48.2,0S4.8,63.6,4.8,47.6"/>
</svg>
