<?xml version="1.0" encoding="utf-8"?>
<!-- Generator: Adobe Illustrator 24.0.1, SVG Export Plug-In . SVG Version: 6.00 Build 0)  -->
<svg version="1.1" id="Capa_1" xmlns="http://www.w3.org/2000/svg" xmlns:xlink="http://www.w3.org/1999/xlink" x="0px" y="0px"
	 viewBox="0 0 116.5 69.7" style="enable-background:new 0 0 116.5 69.7;" xml:space="preserve">
<style type="text/css">
	.st0{fill:url(#SVGID_1_);}
	.st1{fill:url(#SVGID_2_);}
	.st2{fill:url(#SVGID_3_);}
	.st3{fill:url(#SVGID_4_);}
</style>
<linearGradient id="SVGID_1_" gradientUnits="userSpaceOnUse" x1="0.7776" y1="34.5913" x2="112.6004" y2="34.5913" gradientTransform="matrix(1 0 0 -1 0 69.5138)">
	<stop  offset="0.21" style="stop-color:#0071B4"/>
	<stop  offset="1" style="stop-color:#795DFD"/>
</linearGradient>
<path class="st0" d="M102.2,12.4c-6.4-4.1-14.8-3.8-25.1,0.9l-0.1-0.2c-0.8-1.7-2.5-2.9-4.4-2.9c-1.9-0.1-3.7,1-4.6,2.7l-5.4,10.4
	c-0.7,1.4-0.8,3-0.1,4.4s1.9,2.4,3.4,2.8l11.2,2.5c0.4,0.1,0.7,0.1,1.1,0.1c1.5,0,2.9-0.7,3.9-1.8c1.2-1.5,1.5-3.5,0.7-5.2l-1.7-3.7
	c5.6-2.6,11.6-4.2,15.5-1.7c5.6,3.7,6.2,15.3,5.7,20.3c-0.5,4.8-2.2,11.2-7.2,14.9c-4.1,3-9.9,3.8-17.5,2.3c-9.3-1.8-11.5-6.5-16-18
	c-3-7.8-6.8-17.6-15.1-28.5C40.6,3.7,32.6-0.1,24.2,1C15.1,2.3,6.7,9.5,2.8,19.3c-3.6,9.2-2.4,18.5,3.4,25.5
	c8.4,10.2,18.3,12.2,26.7,11l1.5,3.4c0.8,1.7,2.5,2.9,4.4,2.9H39c1.9,0,3.6-1,4.4-2.7l5.4-10.4c0.7-1.4,0.8-3,0.1-4.4
	s-1.9-2.4-3.4-2.8l-11.2-2.5c-1.8-0.4-3.8,0.2-5,1.7c-1.2,1.4-1.4,3.4-0.7,5.1c-4.6,0-9.8-1.9-14.6-7.7C9.1,32.6,11,25.7,12.1,23
	c2.5-6.4,7.9-11.3,13.5-12c5.9-0.8,10.4,3.4,13.2,7c7.4,9.8,10.8,18.4,13.7,26.1c4.5,11.4,8.3,21.3,23.4,24.2
	c3.1,0.6,5.9,0.9,8.7,0.9c6.5,0,12.1-1.7,16.6-5c6.2-4.6,10.1-12.1,11.2-21.8C112.5,41.4,114.7,20.6,102.2,12.4L102.2,12.4z"/>
<linearGradient id="SVGID_2_" gradientUnits="userSpaceOnUse" x1="18.8765" y1="43.8637" x2="46.8765" y2="43.8637" gradientTransform="matrix(1 0 0 -1 0 69.5138)">
	<stop  offset="0.21" style="stop-color:#0071B4"/>
	<stop  offset="1" style="stop-color:#795DFD"/>
</linearGradient>
<path class="st1" d="M18.9,23.3c0,0,10-23,28,14C46.9,37.3,30.9-3.7,18.9,23.3"/>
<linearGradient id="SVGID_3_" gradientUnits="userSpaceOnUse" x1="67.1365" y1="29.788" x2="100.4208" y2="29.788" gradientTransform="matrix(1 0 0 -1 0 69.5138)">
	<stop  offset="0.21" style="stop-color:#0071B4"/>
	<stop  offset="1" style="stop-color:#795DFD"/>
</linearGradient>
<path class="st2" d="M67.1,39.9c0,0,10.7,23.3,25.7,12.3s3-28,3-28s10,23-9,28C76.9,55.3,67.1,39.9,67.1,39.9"/>
<linearGradient id="SVGID_4_" gradientUnits="userSpaceOnUse" x1="3.7749" y1="34.5813" x2="115.5953" y2="34.5813" gradientTransform="matrix(1 0 0 -1 0 69.5138)">
	<stop  offset="0.21" style="stop-color:#00FFB4"/>
	<stop  offset="1" style="stop-color:#00E6FF"/>
</linearGradient>
<path class="st3" d="M114.8,28.8c-1.4-7.7-4.7-13.2-9.6-16.4c-6.4-4.1-14.8-3.8-25.1,0.9l-0.1-0.2c-0.8-1.7-2.5-2.9-4.4-2.9
	c-1.9-0.1-3.7,1-4.6,2.7l-5.4,10.4c-0.7,1.4-0.8,3-0.1,4.4c0.7,1.4,1.9,2.4,3.4,2.8l11.2,2.5c0.4,0.1,0.7,0.1,1.1,0.1
	c2.8,0,5-2.2,5-5c0-0.7-0.2-1.4-0.4-2.1l-1.7-3.7c5.6-2.6,11.6-4.2,15.5-1.7c5.6,3.7,6.2,15.3,5.7,20.3c-0.6,4.8-2.2,11.2-7.2,14.9
	c-4.1,3-9.9,3.8-17.5,2.3c-9.3-1.8-11.5-6.5-16-18c-3-7.8-6.8-17.6-15.1-28.5C43.6,3.7,35.6-0.1,27.2,1C18.1,2.3,9.7,9.5,5.8,19.3
	c-3.6,9.2-2.4,18.5,3.4,25.5c8.4,10.2,18.3,12.2,26.7,11l1.5,3.4c0.8,1.7,2.5,2.9,4.4,2.9H42c1.9,0,3.6-1,4.4-2.7l5.4-10.4
	c0.7-1.4,0.8-3,0.1-4.4c-0.7-1.4-1.9-2.4-3.4-2.8l-11.2-2.5c-1.8-0.4-3.8,0.2-5,1.7c-1.2,1.4-1.4,3.4-0.7,5.1
	c-4.6,0-9.8-1.9-14.6-7.7C12.1,32.7,14,25.7,15.1,23c2.5-6.4,7.9-11.3,13.5-12c5.9-0.8,10.4,3.4,13.2,7c7.4,9.8,10.8,18.4,13.7,26.1
	c4.5,11.4,8.3,21.3,23.4,24.2c3.1,0.6,5.9,0.9,8.7,0.9c6.5,0,12.1-1.7,16.6-5c6.2-4.6,10.1-12.1,11.2-21.8
	C115.7,39.3,115.8,34,114.8,28.8"/>
</svg>
