<?xml version="1.0" encoding="utf-8"?>
<!-- Generator: Adobe Illustrator 24.0.1, SVG Export Plug-In . SVG Version: 6.00 Build 0)  -->
<svg version="1.1" id="uuid-0249a51f-9112-4a5e-ba78-a87808d32a29"
	 xmlns="http://www.w3.org/2000/svg" xmlns:xlink="http://www.w3.org/1999/xlink" x="0px" y="0px" viewBox="0 0 1020.7 938"
	 style="enable-background:new 0 0 1020.7 938;" xml:space="preserve">
<style type="text/css">
	.st0{fill:none;stroke:url(#SVGID_1_);stroke-width:2;stroke-miterlimit:10;}
	.st1{opacity:0.98;fill:none;stroke:url(#SVGID_2_);stroke-width:1.96;stroke-miterlimit:10;enable-background:new    ;}
	.st2{opacity:0.96;fill:none;stroke:url(#SVGID_3_);stroke-width:1.92;stroke-miterlimit:10;enable-background:new    ;}
	.st3{opacity:0.93;fill:none;stroke:url(#SVGID_4_);stroke-width:1.87;stroke-miterlimit:10;enable-background:new    ;}
	.st4{opacity:0.91;fill:none;stroke:url(#SVGID_5_);stroke-width:1.83;stroke-miterlimit:10;enable-background:new    ;}
	.st5{opacity:0.89;fill:none;stroke:url(#SVGID_6_);stroke-width:1.79;stroke-miterlimit:10;enable-background:new    ;}
	.st6{opacity:0.87;fill:none;stroke:url(#SVGID_7_);stroke-width:1.75;stroke-miterlimit:10;enable-background:new    ;}
	.st7{opacity:0.84;fill:none;stroke:url(#SVGID_8_);stroke-width:1.71;stroke-miterlimit:10;enable-background:new    ;}
	.st8{opacity:0.82;fill:none;stroke:url(#SVGID_9_);stroke-width:1.67;stroke-miterlimit:10;enable-background:new    ;}
	.st9{opacity:0.8;fill:none;stroke:url(#SVGID_10_);stroke-width:1.62;stroke-miterlimit:10;enable-background:new    ;}
	.st10{opacity:0.78;fill:none;stroke:url(#SVGID_11_);stroke-width:1.58;stroke-miterlimit:10;enable-background:new    ;}
	.st11{opacity:0.76;fill:none;stroke:url(#SVGID_12_);stroke-width:1.54;stroke-miterlimit:10;enable-background:new    ;}
	.st12{opacity:0.73;fill:none;stroke:url(#SVGID_13_);stroke-width:1.5;stroke-miterlimit:10;enable-background:new    ;}
	.st13{opacity:0.71;fill:none;stroke:url(#SVGID_14_);stroke-width:1.46;stroke-miterlimit:10;enable-background:new    ;}
	.st14{opacity:0.69;fill:none;stroke:url(#SVGID_15_);stroke-width:1.42;stroke-miterlimit:10;enable-background:new    ;}
	.st15{opacity:0.67;fill:none;stroke:url(#SVGID_16_);stroke-width:1.37;stroke-miterlimit:10;enable-background:new    ;}
	.st16{opacity:0.64;fill:none;stroke:url(#SVGID_17_);stroke-width:1.33;stroke-miterlimit:10;enable-background:new    ;}
	.st17{opacity:0.62;fill:none;stroke:url(#SVGID_18_);stroke-width:1.29;stroke-miterlimit:10;enable-background:new    ;}
	.st18{opacity:0.6;fill:none;stroke:url(#SVGID_19_);stroke-width:1.25;stroke-miterlimit:10;enable-background:new    ;}
	.st19{opacity:0.58;fill:none;stroke:url(#SVGID_20_);stroke-width:1.21;stroke-miterlimit:10;enable-background:new    ;}
	.st20{opacity:0.56;fill:none;stroke:url(#SVGID_21_);stroke-width:1.17;stroke-miterlimit:10;enable-background:new    ;}
	.st21{opacity:0.53;fill:none;stroke:url(#SVGID_22_);stroke-width:1.13;stroke-miterlimit:10;enable-background:new    ;}
	.st22{opacity:0.51;fill:none;stroke:url(#SVGID_23_);stroke-width:1.08;stroke-miterlimit:10;enable-background:new    ;}
	.st23{opacity:0.49;fill:none;stroke:url(#SVGID_24_);stroke-width:1.04;stroke-miterlimit:10;enable-background:new    ;}
	.st24{opacity:0.47;fill:none;stroke:url(#SVGID_25_);stroke-miterlimit:10;enable-background:new    ;}
	.st25{opacity:0.44;fill:none;stroke:url(#SVGID_26_);stroke-width:0.96;stroke-miterlimit:10;enable-background:new    ;}
	.st26{opacity:0.42;fill:none;stroke:url(#SVGID_27_);stroke-width:0.92;stroke-miterlimit:10;enable-background:new    ;}
	.st27{opacity:0.4;fill:none;stroke:url(#SVGID_28_);stroke-width:0.88;stroke-miterlimit:10;enable-background:new    ;}
	.st28{opacity:0.38;fill:none;stroke:url(#SVGID_29_);stroke-width:0.83;stroke-miterlimit:10;enable-background:new    ;}
	.st29{opacity:0.36;fill:none;stroke:url(#SVGID_30_);stroke-width:0.79;stroke-miterlimit:10;enable-background:new    ;}
	.st30{opacity:0.33;fill:none;stroke:url(#SVGID_31_);stroke-width:0.75;stroke-miterlimit:10;enable-background:new    ;}
	.st31{opacity:0.31;fill:none;stroke:url(#SVGID_32_);stroke-width:0.71;stroke-miterlimit:10;enable-background:new    ;}
	.st32{opacity:0.29;fill:none;stroke:url(#SVGID_33_);stroke-width:0.67;stroke-miterlimit:10;enable-background:new    ;}
	.st33{opacity:0.27;fill:none;stroke:url(#SVGID_34_);stroke-width:0.63;stroke-miterlimit:10;enable-background:new    ;}
	.st34{opacity:0.24;fill:none;stroke:url(#SVGID_35_);stroke-width:0.58;stroke-miterlimit:10;enable-background:new    ;}
	.st35{opacity:0.22;fill:none;stroke:url(#SVGID_36_);stroke-width:0.54;stroke-miterlimit:10;enable-background:new    ;}
	.st36{opacity:0.2;fill:none;stroke:url(#SVGID_37_);stroke-width:0.5;stroke-miterlimit:10;enable-background:new    ;}
</style>
<linearGradient id="SVGID_1_" gradientUnits="userSpaceOnUse" x1="-1680.9221" y1="4322.8452" x2="-2183.3074" y2="5150.314" gradientTransform="matrix(0.4549 -0.8905 -0.8905 -0.4549 5609.1948 921.8638)">
	<stop  offset="0" style="stop-color:#7600FF"/>
	<stop  offset="1.000000e-02" style="stop-color:#7702FB"/>
	<stop  offset="0.7" style="stop-color:#D87C48"/>
	<stop  offset="1" style="stop-color:#FFAE00"/>
</linearGradient>
<path class="st0" d="M903.8,208c-15.4-7.3-31.9-12.6-48.6-15.9c-44.2-8.9-106.6,9.7-143.5-17.1c-37.1-26.9-40.2-81-76.4-109.4
	c-28.4-22.3-70.9-14.5-101.3,4.9c-30.4,19.4-53.5,48.3-82,70.5c-42.8,33.5-95.9,51.3-147.2,67.2c-87.9,27.2-173,6.1-238.1,88.2
	c-41,51.7-54,124.3-33.6,187.1c11.3,34.8,34.5,68.1,69,80.1c26,9.1,54.5,5.1,81.8,1s55.8-8.1,81.8,1.2c51.2,18.2,60.9,86.3,50.3,132
	c-10.8,46.6-41.4,84.9-36.6,134.9c9.6,100.1,146.6,97,216,83.5c55.1-10.8,110.8-27.3,155.3-61.5s76.3-89.4,70-145.2
	c-3.7-32.6-19.5-62.4-30.9-93.2c-11.4-30.8-18.2-66.2-3.9-95.7c18-37.5,63.3-53,104.7-57.6s84.8-2.3,122.6-19.8
	c65.6-30.4,91.9-123.4,52.1-183.7C950.4,236.7,928.5,219.8,903.8,208L903.8,208z"/>
<linearGradient id="SVGID_2_" gradientUnits="userSpaceOnUse" x1="-1977.7294" y1="4343.7764" x2="-2435.8894" y2="5246.0063" gradientTransform="matrix(0.4234 -0.8504 -0.8509 -0.4224 5494.7432 634.2592)">
	<stop  offset="0" style="stop-color:#7600FF"/>
	<stop  offset="1.000000e-02" style="stop-color:#7702FB"/>
	<stop  offset="0.7" style="stop-color:#D87C48"/>
	<stop  offset="1" style="stop-color:#FFAE00"/>
</linearGradient>
<path class="st1" d="M71.9,296.4c-19.9,23.9-34,52.9-40.6,83.7c-7.2,34-5.6,69.9,5.3,103c11.3,34.2,34.1,67,68.1,79.1
	c25.6,9.1,53.6,5.4,80.5,1.5c6.3-0.9,12.6-1.8,18.9-2.5c20.9-2.4,42-3,61.7,4c50.5,17.8,60.7,83.9,51,128.4
	c-5.4,24.6-16.4,46.9-24.5,70.1c-6.9,19.5-11.7,39.5-9.4,62c3.9,37.7,25.9,60.7,55.3,74c47.4,21.4,114.1,17.8,156.1,10.4
	c54.3-9.5,109.6-24.7,154.1-58.1c1.7-1.2,3.3-2.5,4.9-3.8c42-33.6,71.5-86.1,65.9-139.5c-3.5-32.2-18.9-61.7-30-92.1
	c-11.1-30.5-17.7-65.3-3.7-94.6c1.9-3.9,4.1-7.6,6.5-11.1c20.6-29.2,59.9-42.1,96.2-46.5c40.7-4.9,83.4-3.1,120.7-20.5
	c44.9-21.1,71.7-71.3,71.1-120.4c-0.3-22.1-6.2-43.9-18.4-62.6c-14.8-22.7-36.4-39.7-60.8-51.6c-15.2-7.3-31.4-12.6-47.8-16.1
	c-43.5-9.1-104.9,8.4-141.4-18.1C674.7,148.7,671,95.8,635.1,68c-28.2-21.8-70.2-14.3-100.3,4.7c-30.1,19-53,47.5-81,69.8
	c-27.1,21.7-58.1,37.1-90.4,49.7c-18,7-36.3,13.1-54.5,18.9c-56.4,17.9-112.1,15.5-161.9,32.8C120.1,253.3,95,268.7,71.9,296.4
	L71.9,296.4z"/>
<linearGradient id="SVGID_3_" gradientUnits="userSpaceOnUse" x1="-2315.2559" y1="4382.7573" x2="-2721.8657" y2="5360.5171" gradientTransform="matrix(0.3874 -0.8013 -0.8023 -0.3853 5373.2329 340.6597)">
	<stop  offset="0" style="stop-color:#7600FF"/>
	<stop  offset="1.000000e-02" style="stop-color:#7702FB"/>
	<stop  offset="0.7" style="stop-color:#D87C48"/>
	<stop  offset="1" style="stop-color:#FFAE00"/>
</linearGradient>
<path class="st2" d="M77,296.4c-20.3,23.1-35.4,51.8-42.3,82.8c-7.6,34-5.9,70.4,5.3,103.7c11.3,33.6,33.8,65.9,67.1,78
	c25.1,9.1,52.7,5.7,79.1,2.1c6.2-0.8,12.4-1.7,18.6-2.3c20.6-2.2,41.4-2.7,60.8,4.1c49.8,17.4,60.4,81.5,51.7,124.8
	c-4.9,24-15.2,45.7-22.8,68.4c-6.4,19.1-10.9,38.8-8.5,60.8c4,37,25.6,59.7,54.4,73.1c46.3,21.5,111.3,18.6,152.5,12.2
	c53.4-8.3,108.5-22.2,152.9-54.6c1.7-1.2,3.3-2.4,4.9-3.7c42.1-32.7,72-84.6,66.7-137.8c-3.1-31.8-18.2-60.9-29-91
	s-17.2-64.5-3.5-93.4c1.8-3.9,4-7.5,6.4-11c20.2-29,58.7-42,94.4-46.7c39.9-5.2,82-3.9,118.7-21.1c44.6-21.2,71.7-70.8,71.2-119.8
	c-0.2-22-6-43.7-18-62.4c-14.6-22.6-35.9-39.9-60.1-51.9c-14.9-7.3-30.9-12.6-47.1-16.2c-42.8-9.4-103.1,7.1-139.4-19
	c-36.3-26.2-40.7-77.9-76.2-105.1c-28.1-21.4-69.4-14.1-99.2,4.6c-29.8,18.7-52.5,46.7-80,69c-26.7,21.8-57,37.7-88.7,50.6
	c-17.7,7.2-35.8,13.5-53.8,19.4c-55.8,18.2-111.4,16.1-161.1,32.3C125.2,255.1,100.5,269.8,77,296.4L77,296.4z"/>
<linearGradient id="SVGID_4_" gradientUnits="userSpaceOnUse" x1="-2680.1677" y1="4438.3838" x2="-3027.5977" y2="5492.6938" gradientTransform="matrix(0.3557 -0.761 -0.7625 -0.3523 5258.6982 52.6573)">
	<stop  offset="0" style="stop-color:#7600FF"/>
	<stop  offset="1.000000e-02" style="stop-color:#7702FB"/>
	<stop  offset="0.7" style="stop-color:#D87C48"/>
	<stop  offset="1" style="stop-color:#FFAE00"/>
</linearGradient>
<path class="st3" d="M82.2,296.4c-20.8,22.3-36.7,50.7-44,81.8c-8,34.1-6.2,70.8,5.3,104.4c11.3,33.1,33.4,64.8,66.1,76.9
	c24.7,9.1,51.8,6,77.8,2.7c6.1-0.8,12.2-1.5,18.4-2.2c20.3-2,40.8-2.4,60,4.2c49,17,60.2,79.1,52.4,121.2
	c-4.3,23.3-14.1,44.5-21.1,66.7c-6,18.7-10.1,38-7.5,59.7c4.2,36.2,25.4,58.8,53.5,72.2c45.2,21.6,108.5,19.4,148.9,14
	c52.5-7.1,107.3-19.6,151.7-51.1c1.7-1.2,3.3-2.4,4.9-3.6c42.1-31.8,72.3-83.1,67.5-136c-2.9-31.3-17.5-60.2-28-89.9
	s-16.7-63.7-3.3-92.2c1.8-3.8,3.9-7.5,6.2-10.9c19.7-28.7,57.4-41.8,92.5-46.8c39.2-5.5,80.7-4.5,116.8-21.8
	c44.4-21.2,71.6-70.4,71.4-119.2c-0.1-21.9-5.8-43.5-17.7-62.3c-14.4-22.6-35.4-40-59.4-52.1c-14.6-7.4-30.4-12.7-46.3-16.4
	c-42.2-9.6-101.3,5.8-137.3-20c-36-25.9-40.9-76.4-76.2-103c-27.9-20.9-68.7-13.9-98.2,4.4c-29.5,18.3-52,45.8-79,68.2
	c-26.3,21.9-55.8,38.2-87,51.6c-17.4,7.4-35.3,13.9-53.2,19.9c-55.2,18.4-110.7,16.6-160.3,31.9C130.4,257,105.9,270.9,82.2,296.4
	L82.2,296.4z"/>
<linearGradient id="SVGID_5_" gradientUnits="userSpaceOnUse" x1="-3061.3088" y1="4539.2173" x2="-3341.4888" y2="5671.6172" gradientTransform="matrix(0.3238 -0.7206 -0.7044 -0.311 5127.8628 -242.8628)">
	<stop  offset="0" style="stop-color:#7600FF"/>
	<stop  offset="1.000000e-02" style="stop-color:#7702FB"/>
	<stop  offset="0.7" style="stop-color:#D87C48"/>
	<stop  offset="1" style="stop-color:#FFAE00"/>
</linearGradient>
<path class="st4" d="M87.4,296.4c-21.2,21.6-38.1,49.6-45.7,80.8c-8.3,34.2-6.5,71.2,5.2,105s33,63.8,65.2,75.8
	c24.3,9.1,50.9,6.3,76.5,3.3c6-0.7,12-1.4,18.1-2c20-1.8,40.2-2.1,59.1,4.3c48.3,16.6,59.9,76.7,53.1,117.7
	c-3.8,22.7-12.9,43.3-19.4,65.1c-5.5,18.3-9.3,37.2-6.6,58.5c4.4,35.5,25.1,57.8,52.6,71.3c44.2,21.7,105.7,20.2,145.3,15.8
	c51.6-5.8,106.1-17.1,150.5-47.6c1.7-1.1,3.3-2.3,4.9-3.5c42.2-30.9,72.7-81.7,68.3-134.2c-2.6-30.9-16.8-59.4-27-88.8
	c-10.1-29.4-16.1-62.8-3.1-91.1c1.8-3.8,3.8-7.4,6.1-10.7c19.3-28.4,56.2-41.7,90.7-47c38.5-5.9,79.3-5.3,114.8-22.5
	c44.1-21.3,71.6-70,71.6-118.6c0-21.8-5.6-43.4-17.3-62.1c-14.2-22.6-34.9-40.2-58.7-52.4c-14.3-7.4-29.8-12.8-45.5-16.5
	c-41.4-9.9-99.6,4.5-135.2-21c-35.6-25.5-41.1-75-76-100.8c-27.7-20.5-67.9-13.7-97.1,4.3c-29.1,17.9-51.5,45-78,67.4
	c-25.9,22-54.7,38.8-85.4,52.5c-17.1,7.6-34.8,14.3-52.5,20.4c-54.6,18.7-110,17.2-159.4,31.4C135.6,258.8,111.3,272,87.4,296.4
	L87.4,296.4z"/>
<linearGradient id="SVGID_6_" gradientUnits="userSpaceOnUse" x1="-3563.3188" y1="4640.5288" x2="-3767.4988" y2="5853.459" gradientTransform="matrix(0.2878 -0.6709 -0.6643 -0.2778 5013.8911 -533.0825)">
	<stop  offset="0" style="stop-color:#7600FF"/>
	<stop  offset="1.000000e-02" style="stop-color:#7702FB"/>
	<stop  offset="0.7" style="stop-color:#D87C48"/>
	<stop  offset="1" style="stop-color:#FFAE00"/>
</linearGradient>
<path class="st5" d="M92.5,296.3c-21.7,20.9-39.4,48.5-47.4,79.9c-8.7,34.3-6.8,71.7,5.2,105.7c11.3,32,32.6,62.7,64.2,74.7
	c23.8,9.1,50,6.6,75.2,3.9c5.9-0.6,11.8-1.3,17.8-1.8c19.7-1.6,39.6-1.8,58.2,4.5c47.5,16.1,59.7,74.3,53.8,114.1
	c-3.3,22-11.8,42.1-17.7,63.4c-5,17.9-8.5,36.5-5.7,57.3c4.6,34.8,24.9,56.9,51.7,70.3c43.1,21.8,102.9,21,141.7,17.5
	c50.8-4.6,105-14.5,149.3-44.2c1.7-1.1,3.3-2.2,4.9-3.4c42.3-30.1,73.1-80.2,69.1-132.4c-2.3-30.5-16.2-58.7-26-87.7
	s-15.6-62-2.8-89.9c1.7-3.8,3.7-7.3,6-10.6c18.9-28.2,55-41.5,88.8-47.1c37.8-6.2,77.9-6,112.9-23.1c43.8-21.4,71.5-69.5,71.8-118
	c0.1-21.7-5.4-43.2-16.9-62c-13.9-22.6-34.4-40.3-58-52.7c-14.1-7.4-29.3-12.8-44.8-16.7c-40.7-10.2-97.8,3.2-133.2-22
	c-35.2-25.1-41.3-73.4-76-98.7c-27.5-20.1-67.2-13.4-96,4.1c-28.8,17.6-51,44.2-77,66.6c-25.5,22.1-53.5,39.3-83.7,53.4
	c-16.8,7.9-34.3,14.7-51.9,20.9c-54,19.1-109.2,17.7-158.6,31C140.7,260.6,116.7,273.1,92.5,296.3L92.5,296.3z"/>
<linearGradient id="SVGID_7_" gradientUnits="userSpaceOnUse" x1="-4072.4895" y1="4803.1694" x2="-4190.8599" y2="6100.4497" gradientTransform="matrix(0.2557 -0.6301 -0.6147 -0.2405 4890.6694 -825.0649)">
	<stop  offset="0" style="stop-color:#7600FF"/>
	<stop  offset="1.000000e-02" style="stop-color:#7702FB"/>
	<stop  offset="0.7" style="stop-color:#D87C48"/>
	<stop  offset="1" style="stop-color:#FFAE00"/>
</linearGradient>
<path class="st6" d="M97.7,296.3c-22.2,20.1-40.8,47.4-49.1,78.9c-9,34.4-7,72.1,5.2,106.4C65.1,513,86,543.2,117,555.2
	c23.4,9.1,49.1,6.9,73.8,4.5c5.8-0.6,11.6-1.2,17.5-1.6c19.4-1.5,39-1.6,57.3,4.6c46.8,15.7,59.4,71.9,54.4,110.5
	c-2.8,21.3-10.6,40.9-16,61.7c-4.6,17.5-7.6,35.7-4.7,56.2c4.8,34.1,24.7,55.9,50.8,69.4c42,21.9,100.1,21.9,138.1,19.3
	c49.9-3.3,103.8-12,148.1-40.7c1.7-1.1,3.3-2.2,4.9-3.3c42.3-29.2,73.5-78.7,69.9-130.6c-2.1-30.1-15.5-57.9-25-86.6
	c-9.5-28.7-15.1-61.2-2.6-88.7c1.7-3.7,3.6-7.2,5.8-10.5c18.5-27.9,53.8-41.4,87-47.2c37.1-6.5,76.5-6.8,110.9-23.8
	c43.5-21.5,71.5-69.1,72-117.5c0.2-21.6-5.2-43.1-16.6-61.8c-13.7-22.6-34-40.4-57.3-52.9c-13.8-7.4-28.8-12.9-44-16.9
	c-40-10.5-96.1,1.9-131.1-22.9c-34.8-24.8-41.6-71.9-75.9-96.5c-27.3-19.6-66.5-13.2-95,4c-28.5,17.2-50.5,43.4-76,65.8
	c-25.1,22.2-52.4,39.9-82,54.3c-16.5,8.1-33.8,15.1-51.2,21.4c-53.4,19.3-108.5,18.3-157.8,30.5C145.9,262.4,122,274.2,97.7,296.3
	L97.7,296.3z"/>
<linearGradient id="SVGID_8_" gradientUnits="userSpaceOnUse" x1="-4656.1875" y1="5008.8511" x2="-4677.3071" y2="6396.3911" gradientTransform="matrix(0.2234 -0.5891 -0.5739 -0.2069 4775.3984 -1113.86)">
	<stop  offset="0" style="stop-color:#7600FF"/>
	<stop  offset="1.000000e-02" style="stop-color:#7702FB"/>
	<stop  offset="0.7" style="stop-color:#D87C48"/>
	<stop  offset="1" style="stop-color:#FFAE00"/>
</linearGradient>
<path class="st7" d="M102.9,296.3c-22.7,19.4-42.1,46.3-50.8,77.9c-9.4,34.5-7.3,72.6,5.2,107c11.2,30.9,31.8,60.6,62.3,72.6
	c23,9,48.2,7.2,72.5,5c5.7-0.5,11.4-1,17.2-1.4c19.1-1.3,38.4-1.3,56.5,4.7c46.1,15.3,59.2,69.5,55.1,106.9
	c-2.2,20.7-9.4,39.7-14.3,60.1c-4.1,17.1-6.8,35-3.8,55c5,33.4,24.4,55,49.8,68.5c40.9,22,97.3,22.7,134.5,21.1
	c49-2.1,102.7-9.5,146.9-37.2c1.7-1,3.3-2.1,4.9-3.2c42.4-28.3,73.9-77.2,70.7-128.8c-1.8-29.6-14.8-57.2-24-85.5
	c-9.2-28.3-14.6-60.4-2.4-87.6c1.6-3.7,3.5-7.1,5.7-10.4c18-27.7,52.6-41.2,85.1-47.4c36.4-6.9,75.1-7.5,109-24.5
	c43.2-21.6,71.4-68.6,72.2-116.9c0.3-21.5-5-42.9-16.2-61.7c-13.5-22.6-33.5-40.6-56.6-53.2c-13.5-7.4-28.3-12.9-43.2-17
	c-39.3-10.8-94.3,0.7-129-23.9c-34.5-24.4-41.8-70.4-75.8-94.4c-27.2-19.2-65.7-13-93.9,3.8c-28.2,16.8-50,42.6-75,65
	c-24.8,22.3-51.2,40.4-80.3,55.2c-16.2,8.3-33.3,15.5-50.6,21.9c-52.8,19.6-107.8,18.8-156.9,30
	C151.1,264.2,127.4,275.4,102.9,296.3L102.9,296.3z"/>
<linearGradient id="SVGID_9_" gradientUnits="userSpaceOnUse" x1="-5319.6475" y1="5304.3857" x2="-5229.4878" y2="6791.3052" gradientTransform="matrix(0.1908 -0.5477 -0.5234 -0.1694 4651.4556 -1406.1119)">
	<stop  offset="0" style="stop-color:#7600FF"/>
	<stop  offset="1.000000e-02" style="stop-color:#7702FB"/>
	<stop  offset="0.7" style="stop-color:#D87C48"/>
	<stop  offset="1" style="stop-color:#FFAE00"/>
</linearGradient>
<path class="st8" d="M108,296.3c-23.2,18.6-43.5,45.2-52.5,77c-9.7,34.6-7.6,73,5.2,107.7c11.2,30.3,31.4,59.5,61.3,71.5
	c22.5,9,47.3,7.6,71.2,5.6c5.6-0.4,11.2-0.9,16.9-1.2c18.8-1.1,37.8-1,55.6,4.8c45.3,14.9,58.9,67.1,55.8,103.3
	c-1.7,20-8.3,38.5-12.6,58.4c-3.6,16.7-6,34.2-2.8,53.8c5.2,32.6,24.2,54,48.9,67.6c39.8,22,94.6,21.9,131,22.9
	c48.2,1.3,101.5-7,145.7-33.7c1.7-1,3.3-2,4.9-3.1c42.5-27.4,74.2-75.7,71.5-127c-1.6-29.2-14.2-56.4-23-84.4
	c-8.8-28-14.1-59.5-2.2-86.4c1.6-3.6,3.5-7,5.5-10.3c17.6-27.4,51.4-41.1,83.3-47.5c35.7-7.2,73.7-8.3,107-25.1
	c42.9-21.7,71.4-68.2,72.3-116.3c0.4-21.4-4.8-42.8-15.8-61.5c-13.3-22.5-33-40.7-55.8-53.5c-13.2-7.4-27.8-13-42.5-17.2
	c-38.6-11-92.6-0.6-127-24.9c-34.1-24.1-42-68.9-75.7-92.3c-27-18.7-65-12.8-92.8,3.7c-27.8,16.5-49.5,41.7-74,64.2
	c-24.4,22.4-50.1,41-78.7,56.1c-15.9,8.5-32.8,15.9-49.9,22.4c-52.2,19.9-107.1,19.4-156.1,29.6C156.2,266.1,132.7,276.4,108,296.3
	L108,296.3z"/>
<linearGradient id="SVGID_10_" gradientUnits="userSpaceOnUse" x1="-6199.2715" y1="5708.8062" x2="-5979.7515" y2="7308.9058" gradientTransform="matrix(0.155 -0.4964 -0.4816 -0.1352 4535.9419 -1697.5266)">
	<stop  offset="0" style="stop-color:#7600FF"/>
	<stop  offset="1.000000e-02" style="stop-color:#7702FB"/>
	<stop  offset="0.7" style="stop-color:#D87C48"/>
	<stop  offset="1" style="stop-color:#FFAE00"/>
</linearGradient>
<path class="st9" d="M113.2,296.2c-23.8,17.9-44.8,44.1-54.1,76c-10.1,34.7-7.9,73.5,5.1,108.4c11.1,29.8,31,58.4,60.3,70.4
	c22.1,9,46.4,7.9,69.9,6.2c5.5-0.4,11-0.8,16.6-1.1c18.5-0.9,37.2-0.7,54.7,5c44.6,14.5,58.7,64.7,56.5,99.8
	c-1.2,19.4-7.1,37.3-10.9,56.7c-3.2,16.3-5.1,33.4-1.9,52.7c5.3,31.9,23.9,53.1,48,66.7c38.8,22.1,91.8,22.6,127.4,24.7
	c47.3,2.8,100.3-4.5,144.5-30.2c1.7-1,3.3-2,4.9-3c42.5-26.5,74.6-74.2,72.2-125.2c-1.3-28.8-13.5-55.6-22-83.3
	c-8.5-27.7-13.6-58.7-2-85.2c1.6-3.6,3.4-7,5.4-10.2c17.2-27.1,50.1-40.9,81.4-47.7c34.9-7.5,72.3-9.1,105.1-25.8
	c42.7-21.8,71.3-67.8,72.5-115.7c0.5-21.3-4.6-42.6-15.5-61.4c-13.1-22.5-32.5-40.8-55.1-53.8c-13-7.4-27.2-13.1-41.7-17.4
	c-37.9-11.3-90.8-1.9-124.9-25.9c-33.7-23.8-42.2-67.4-75.6-90.1c-26.8-18.3-64.2-12.6-91.8,3.5c-27.5,16.1-49,40.9-73,63.5
	c-24,22.5-48.9,41.5-77,57c-15.7,8.7-32.3,16.3-49.3,22.9c-51.6,20.1-106.4,19.9-155.3,29.1C161.4,267.9,138,277.5,113.2,296.2
	L113.2,296.2z"/>
<linearGradient id="SVGID_11_" gradientUnits="userSpaceOnUse" x1="-7099.0986" y1="6269.4673" x2="-6725.6885" y2="8003.4175" gradientTransform="matrix(0.1221 -0.4539 -0.439 -0.1004 4419.1265 -1987.6599)">
	<stop  offset="0" style="stop-color:#7600FF"/>
	<stop  offset="1.000000e-02" style="stop-color:#7702FB"/>
	<stop  offset="0.7" style="stop-color:#D87C48"/>
	<stop  offset="1" style="stop-color:#FFAE00"/>
</linearGradient>
<path class="st10" d="M118.3,296.2c-24.3,17.2-46.1,43.1-55.8,75c-10.4,34.7-8.2,73.9,5.1,109c11.1,29.2,30.6,57.4,59.4,69.3
	c21.7,9,45.5,8.2,68.5,6.8c5.4-0.3,10.9-0.7,16.3-0.9c18.1-0.7,36.6-0.4,53.9,5.1c43.9,14.1,58.4,62.3,57.2,96.2
	c-0.7,18.7-5.9,36.2-9.2,55.1c-2.7,15.9-4.3,32.7-1,51.5c5.5,31.2,23.7,52.1,47.1,65.8c37.7,22.2,89,25.2,123.8,26.5
	c46.5,1.7,99.1-1.9,143.3-26.8c1.7-0.9,3.3-1.9,4.9-2.9c42.6-25.7,75-72.8,73-123.4c-1.1-28.3-12.8-54.9-21-82.2
	c-8.2-27.3-13.1-57.9-1.7-84c1.5-3.5,3.3-6.9,5.3-10c16.8-26.9,48.9-40.8,79.6-47.9c34.2-7.8,70.9-9.8,103.1-26.5
	c42.4-22,71.3-67.3,72.7-115.1c0.6-21.2-4.4-42.5-15.1-61.2c-12.9-22.5-32-41-54.4-54c-12.7-7.4-26.7-13.1-40.9-17.5
	c-37.2-11.6-89-3.2-122.8-26.9c-33.4-23.4-42.5-65.9-75.5-88c-26.7-17.8-63.5-12.4-90.7,3.4c-27.2,15.7-48.5,40.1-72,62.7
	c-23.6,22.6-47.8,42.1-75.3,57.9c-15.4,8.9-31.8,16.7-48.6,23.4c-51,20.4-105.7,20.5-154.4,28.7
	C166.5,269.7,143.2,278.6,118.3,296.2L118.3,296.2z"/>
<linearGradient id="SVGID_12_" gradientUnits="userSpaceOnUse" x1="-8164.7031" y1="7120.4224" x2="-7602.5137" y2="9018.9619" gradientTransform="matrix(8.904297e-02 -0.4105 -0.3854 -6.296731e-02 4292.5962 -2280.3538)">
	<stop  offset="0" style="stop-color:#7600FF"/>
	<stop  offset="1.000000e-02" style="stop-color:#7702FB"/>
	<stop  offset="0.7" style="stop-color:#D87C48"/>
	<stop  offset="1" style="stop-color:#FFAE00"/>
</linearGradient>
<path class="st11" d="M123.5,296.2c-24.9,16.4-47.5,42-57.5,74c-10.8,34.8-8.5,74.4,5.1,109.7c11.1,28.7,30.2,56.3,58.4,68.2
	c21.2,9,44.6,8.5,67.2,7.4c5.3-0.2,10.6-0.5,16-0.7c17.8-0.5,35.9-0.2,53,5.2c43.2,13.7,58.2,59.8,57.9,92.6
	c-0.2,18-4.8,35-7.5,53.4c-2.3,15.5-3.5,31.9,0,50.3c5.7,30.5,23.4,51.2,46.1,64.9c36.6,22.3,86.3,26.1,120.2,28.3
	c45.7,3,98,0.6,142.1-23.3c1.7-0.9,3.3-1.8,4.9-2.8c42.7-24.8,75.3-71.3,73.8-121.6c-0.8-27.9-12.1-54.1-20-81.1
	c-7.9-27-12.6-57.1-1.5-82.9c1.5-3.5,3.2-6.8,5.2-9.9c16.4-26.6,47.7-40.6,77.7-48c33.5-8.2,69.6-10.6,101.2-27.2
	c42.1-22.1,71.2-66.9,72.9-114.6c0.7-21.1-4.2-42.3-14.8-61.1c-12.7-22.5-31.6-41.1-53.7-54.3c-12.4-7.4-26.2-13.2-40.2-17.7
	c-36.5-11.8-87.3-4.5-120.8-27.8c-33-23.1-42.7-64.4-75.4-85.8c-26.5-17.4-62.8-12.1-89.7,3.2c-26.9,15.4-48,39.3-71,61.9
	c-23.2,22.8-46.6,42.6-73.6,58.9c-15.1,9.1-31.3,17.1-48,23.9c-50.5,20.7-105,21-153.6,28.2C171.7,271.6,148.5,279.7,123.5,296.2
	L123.5,296.2z"/>
<linearGradient id="SVGID_13_" gradientUnits="userSpaceOnUse" x1="-9357.2324" y1="8345.75" x2="-8554.832" y2="10454.0293" gradientTransform="matrix(5.577498e-02 -0.3658 -0.3397 -2.772748e-02 4173.0908 -2571.3398)">
	<stop  offset="0" style="stop-color:#7600FF"/>
	<stop  offset="1.000000e-02" style="stop-color:#7702FB"/>
	<stop  offset="0.7" style="stop-color:#D87C48"/>
	<stop  offset="1" style="stop-color:#FFAE00"/>
</linearGradient>
<path class="st12" d="M128.7,296.2c-25.5,15.7-48.8,40.9-59.2,73.1c-11.1,34.9-8.8,74.8,5.1,110.4c11,28.2,29.9,55.2,57.4,67.2
	c20.8,9,43.7,8.8,65.9,8c5.2-0.2,10.5-0.4,15.7-0.5c17.5-0.4,35.3,0.1,52.1,5.3c42.4,13.2,57.9,57.4,58.6,89
	c0.4,17.4-3.6,33.8-5.8,51.7c-1.8,15.1-2.7,31.1,0.9,49.1c5.9,29.8,23.2,50.2,45.2,64c35.6,22.3,83.5,27,116.6,30.1
	c44.9,4.2,96.8,3.1,140.9-19.8c1.7-0.9,3.3-1.8,4.9-2.7c42.7-24,75.7-69.8,74.6-119.8c-0.6-27.5-11.5-53.4-19-80
	c-7.5-26.6-12.1-56.2-1.3-81.7c1.5-3.4,3.1-6.7,5-9.8c16-26.4,46.5-40.5,75.9-48.1c32.8-8.5,68.2-11.4,99.2-27.8
	c41.8-22.2,71.2-66.5,73.1-114c0.8-21-4-42.1-14.4-60.9c-12.5-22.5-31.1-41.2-53-54.6c-12.2-7.4-25.7-13.2-39.4-17.9
	c-35.8-12.1-85.5-5.8-118.7-28.8c-32.6-22.7-42.9-62.9-75.3-83.7C607.4,77,571.7,82,545.1,97c-26.6,15-47.5,38.5-70,61.1
	c-22.8,22.9-45.5,43.1-72,59.8c-14.8,9.3-30.8,17.4-47.3,24.4c-49.8,21-104.2,21.6-152.8,27.7C176.9,273.4,153.7,280.7,128.7,296.2
	L128.7,296.2z"/>
<linearGradient id="SVGID_14_" gradientUnits="userSpaceOnUse" x1="-10301.9141" y1="10005.3994" x2="-9181.8936" y2="12387.9307" gradientTransform="matrix(2.336434e-02 -0.3292 -0.3013 7.500604e-03 4059.8904 -2860.616)">
	<stop  offset="0" style="stop-color:#7600FF"/>
	<stop  offset="1.000000e-02" style="stop-color:#7702FB"/>
	<stop  offset="0.7" style="stop-color:#D87C48"/>
	<stop  offset="1" style="stop-color:#FFAE00"/>
</linearGradient>
<path class="st13" d="M133.8,296.1c-26.1,14.9-50.2,39.8-60.9,72.1c-11.5,35-9.1,75.3,5,111c11,27.6,29.5,54.2,56.5,66.1
	c20.4,9,42.8,9.1,64.6,8.5c5.1-0.1,10.3-0.3,15.5-0.3c17.2-0.2,34.7,0.4,51.3,5.4c41.7,12.8,57.7,55,59.2,85.4
	c0.9,16.7-2.5,32.5-4,50.1c-1.3,14.7-1.9,30.3,1.8,48c6.1,29,23,49.2,44.3,63.1c34.5,22.4,80.8,27.8,113,31.9
	c44.1,5.5,95.7,5.7,139.7-16.3c1.7-0.8,3.3-1.7,4.9-2.6c42.7-23.1,76-68.3,75.4-118c-0.3-27-10.8-52.6-18-78.9
	c-7.2-26.2-11.6-55.4-1.1-80.5c1.4-3.4,3-6.6,4.9-9.7c15.5-26.1,45.3-40.3,74-48.3c32.1-8.8,66.8-12.1,97.3-28.5
	c41.5-22.3,71.1-66,73.3-113.4c0.9-20.9-3.8-42-14-60.8c-12.3-22.4-30.6-41.3-52.2-54.8c-11.9-7.4-25.1-13.3-38.7-18
	c-35.1-12.3-83.8-7.1-116.6-29.8c-32.2-22.3-43.2-61.3-75.2-81.5c-26.2-16.5-61.3-11.7-87.5,2.9c-26.2,14.6-46.9,37.7-69,60.3
	c-22.4,23-44.3,43.7-70.3,60.7c-14.5,9.6-30.3,17.8-46.7,24.9c-49.3,21.2-103.5,22.1-151.9,27.3C182,275.2,159,281.7,133.8,296.1
	L133.8,296.1z"/>
<linearGradient id="SVGID_15_" gradientUnits="userSpaceOnUse" x1="-11473.9121" y1="12882.5254" x2="-9921.4521" y2="15624.2637" gradientTransform="matrix(-9.918370e-03 -0.2798 -0.2487 4.247040e-02 3934.2419 -3152.3276)">
	<stop  offset="0" style="stop-color:#7600FF"/>
	<stop  offset="1.000000e-02" style="stop-color:#7702FB"/>
	<stop  offset="0.7" style="stop-color:#D87C48"/>
	<stop  offset="1" style="stop-color:#FFAE00"/>
</linearGradient>
<path class="st14" d="M139,296.1c-26.7,14.2-51.5,38.7-62.6,71.1C64.6,402.3,67,443,81.4,479c10.9,27.1,29.1,53.1,55.5,65
	c19.9,9,41.9,9.4,63.2,9.1c5-0.1,10.1-0.2,15.2-0.2c16.9,0,34.1,0.7,50.4,5.6c41,12.4,57.4,52.6,59.9,81.8
	c1.4,16.1-1.3,31.3-2.3,48.4c-0.9,14.3-1,29.6,2.8,46.8c6.3,28.3,22.7,48.3,43.4,62.2c33.4,22.5,78,28.7,109.4,33.7
	c43.3,6.8,94.5,8.2,138.5-12.8c1.7-0.8,3.3-1.6,4.9-2.5c42.8-22.2,76.4-66.8,76.2-116.2c-0.1-26.6-10.1-51.9-17-77.8
	c-6.9-25.9-11-54.6-0.9-79.4c1.4-3.3,3-6.5,4.7-9.5c15.1-25.9,44.1-40.2,72.2-48.5c31.3-9.1,65.4-12.9,95.3-29.2
	c41.2-22.4,71.1-65.6,73.4-112.8c1-20.9-3.6-41.8-13.7-60.6c-12.1-22.4-30.1-41.4-51.5-55.1c-11.6-7.4-24.6-13.3-37.9-18.2
	c-34.4-12.6-82-8.4-114.6-30.8c-31.9-22-43.4-59.8-75.1-79.4c-26-16-60.5-11.5-86.5,2.8c-25.9,14.2-46.4,36.9-68,59.5
	c-22,23.1-43.2,44.2-68.6,61.6c-14.2,9.8-29.8,18.2-46,25.4c-48.7,21.5-102.8,22.7-151.1,26.8C187.2,277,164.2,282.8,139,296.1
	L139,296.1z"/>
<linearGradient id="SVGID_16_" gradientUnits="userSpaceOnUse" x1="-11377.7676" y1="16691.2383" x2="-9239.4678" y2="19877.9785" gradientTransform="matrix(-4.262402e-02 -0.2362 -0.2094 7.834156e-02 3820.3733 -3443.6567)">
	<stop  offset="0" style="stop-color:#7600FF"/>
	<stop  offset="1.000000e-02" style="stop-color:#7702FB"/>
	<stop  offset="0.7" style="stop-color:#D87C48"/>
	<stop  offset="1" style="stop-color:#FFAE00"/>
</linearGradient>
<path class="st15" d="M144.2,296.1c-27.4,13.4-52.9,37.6-64.3,70.2c-12.2,35.2-9.8,76.2,5,112.4c10.8,26.5,28.7,52,54.5,63.9
	c19.5,9,41,9.7,61.9,9.7c4.9,0,9.9,0,14.9,0c16.6,0.2,33.5,1,49.5,5.7c40.2,12,57.1,50.2,60.6,78.3c1.9,15.4-0.1,30.2-0.6,46.7
	c-0.4,13.9-0.2,28.8,3.7,45.6c6.4,27.6,22.5,47.3,42.5,61.3c32.4,22.6,75.3,29.6,105.8,35.4c42.5,8.1,93.4,10.7,137.3-9.4
	c1.7-0.8,3.3-1.5,4.9-2.3c42.9-21.4,76.7-65.3,77-114.4c0.1-26.2-9.4-51.1-16-76.7c-6.6-25.5-10.5-53.8-0.6-78.2
	c1.3-3.3,2.9-6.4,4.6-9.4c14.7-25.6,42.8-40,70.3-48.6c30.6-9.5,64-13.7,93.3-29.8c40.9-22.5,71-65.2,73.6-112.2
	c1.1-20.8-3.4-41.7-13.3-60.5c-11.8-22.4-29.6-41.5-50.8-55.4c-11.3-7.4-24.1-13.4-37.1-18.4c-33.7-12.9-80.2-9.6-112.5-31.7
	c-31.5-21.6-43.7-58.3-75-77.2c-25.8-15.6-59.8-11.3-85.4,2.6c-25.6,13.9-45.9,36.1-67,58.7c-21.6,23.2-42,44.8-67,62.5
	c-13.9,10-29.3,18.6-45.4,25.9c-48.1,21.8-102.1,23.2-150.3,26.4C192.4,278.9,169.4,283.8,144.2,296.1L144.2,296.1z"/>
<linearGradient id="SVGID_17_" gradientUnits="userSpaceOnUse" x1="-9186.3154" y1="21763.5898" x2="-6323.9258" y2="25400.6094" gradientTransform="matrix(-7.628276e-02 -0.1957 -0.1598 0.1132 3697.4795 -3733.4102)">
	<stop  offset="0" style="stop-color:#7600FF"/>
	<stop  offset="1.000000e-02" style="stop-color:#7702FB"/>
	<stop  offset="0.7" style="stop-color:#D87C48"/>
	<stop  offset="1" style="stop-color:#FFAE00"/>
</linearGradient>
<path class="st16" d="M149.3,296.1c-28,12.6-54.2,36.5-66,69.2c-12.5,35.3-10.1,76.6,5,113c10.8,26,28.3,51,53.5,62.8
	c19.1,9,40,10,60.6,10.3c4.8,0.1,9.7,0.1,14.6,0.2c16.3,0.3,32.9,1.2,48.7,5.8c39.5,11.5,56.9,47.8,61.3,74.7
	c2.4,14.7,1,29,1.1,45.1c0,13.5,0.6,28,4.6,44.5c6.6,26.9,22.2,46.4,41.5,60.4c31.3,22.7,72.5,30.5,102.2,37.2
	c41.7,9.5,92.2,13.3,136.1-5.9c1.7-0.7,3.3-1.5,4.9-2.2c42.9-20.5,77.1-63.8,77.8-112.6c0.4-25.7-8.8-50.4-15-75.6
	c-6.3-25.2-10-53-0.4-77c1.3-3.2,2.8-6.3,4.5-9.3c14.3-25.3,41.6-39.9,68.5-48.7c29.9-9.8,62.6-14.4,91.4-30.5
	c40.7-22.7,71-64.7,73.8-111.7c1.2-20.7-3.2-41.5-12.9-60.3c-11.6-22.4-29.2-41.6-50.1-55.6c-11.1-7.4-23.6-13.4-36.4-18.5
	c-33-13.1-78.5-10.9-110.4-32.7c-31.1-21.3-43.9-56.8-74.9-75.1c-25.7-15.2-59-11.1-84.3,2.5c-25.3,13.5-45.4,35.3-66,58
	c-21.2,23.4-40.9,45.3-65.3,63.4c-13.7,10.2-28.8,19-44.8,26.4c-47.5,22-101.4,23.8-149.4,25.9C197.5,280.7,174.5,284.8,149.3,296.1
	L149.3,296.1z"/>
<linearGradient id="SVGID_18_" gradientUnits="userSpaceOnUse" x1="-3164.6973" y1="25748.793" x2="369.9424" y2="29600.1016" gradientTransform="matrix(-0.1108 -0.1543 -0.1227 0.1549 3585.8757 -4029.4407)">
	<stop  offset="0" style="stop-color:#7600FF"/>
	<stop  offset="1.000000e-02" style="stop-color:#7702FB"/>
	<stop  offset="0.7" style="stop-color:#D87C48"/>
	<stop  offset="1" style="stop-color:#FFAE00"/>
</linearGradient>
<path class="st17" d="M154.5,296c-28.7,11.8-55.6,35.4-67.7,68.2c-12.9,35.4-10.4,77.1,5,113.7c10.7,25.5,27.9,49.9,52.6,61.8
	c18.6,9,39.1,10.3,59.2,10.9c4.7,0.1,9.5,0.2,14.3,0.4c16,0.5,32.3,1.5,47.8,5.9c38.8,11.1,56.6,45.3,62,71.1
	c3,14.1,2.2,27.8,2.8,43.4c0.5,13.1,1.4,27.3,5.6,43.3c6.8,26.2,22,45.4,40.6,59.5c30.2,22.8,69.8,31.4,98.7,39
	c40.9,10.8,91.1,15.8,134.9-2.4c1.7-0.7,3.3-1.4,4.9-2.2c43-19.6,77.4-62.3,78.6-110.8c0.6-25.3-8.1-49.6-14-74.5
	c-5.9-24.8-9.5-52.1-0.2-75.9c1.3-3.2,2.7-6.3,4.3-9.2c13.8-25.1,40.4-39.8,66.6-48.9c29.2-10.1,61.2-15.2,89.4-31.2
	c40.4-22.8,70.9-64.3,74-111.1c1.3-20.6-3-41.4-12.6-60.2c-11.4-22.4-28.7-41.8-49.4-55.9c-10.8-7.4-23-13.5-35.6-18.7
	c-32.3-13.4-76.7-12.2-108.4-33.7c-30.8-20.9-44.1-55.3-74.8-72.9c-25.5-14.7-58.3-10.8-83.3,2.3c-24.9,13.2-44.9,34.5-65,57.2
	s-39.7,45.9-63.6,64.3c-13.4,10.4-28.3,19.4-44.1,26.9c-46.9,22.3-100.7,24.3-148.6,25.4C202.7,282.5,179.7,285.7,154.5,296
	L154.5,296z"/>
<linearGradient id="SVGID_19_" gradientUnits="userSpaceOnUse" x1="4087.5337" y1="27644.0918" x2="7898.7017" y2="31212.1836" gradientTransform="matrix(-0.143 -0.1094 -7.073643e-02 0.1851 3460.5999 -4316.0166)">
	<stop  offset="0" style="stop-color:#7600FF"/>
	<stop  offset="1.000000e-02" style="stop-color:#7702FB"/>
	<stop  offset="0.7" style="stop-color:#D87C48"/>
	<stop  offset="1" style="stop-color:#FFAE00"/>
</linearGradient>
<path class="st18" d="M159.7,296c-29.4,10.9-56.9,34.4-69.4,67.3c-13.3,35.4-10.8,77.5,4.9,114.4c10.6,24.9,27.5,48.8,51.6,60.7
	c18.2,9,38.2,10.7,57.9,11.5c4.6,0.2,9.3,0.3,14,0.5c15.7,0.7,31.7,1.8,46.9,6c38,10.7,56.3,42.9,62.7,67.5
	c3.5,13.4,3.3,26.5,4.5,41.7c1,12.7,2.2,26.5,6.5,42.1c7,25.4,21.8,44.5,39.7,58.5c29.2,22.8,67,32.3,95.1,40.8
	c40.1,12.2,89.9,18.4,133.7,1.1c1.7-0.7,3.3-1.3,4.9-2c43.1-18.7,77.8-60.8,79.4-109c0.8-24.9-7.4-48.9-13-73.4
	c-5.6-24.5-9-51.3,0-74.7c1.2-3.2,2.6-6.2,4.2-9.1c13.4-24.8,39.2-39.6,64.8-49c28.5-10.5,59.8-16,87.5-31.8
	c40.1-22.9,70.9-63.9,74.2-110.5c1.4-20.5-2.8-41.2-12.2-60c-11.2-22.3-28.2-41.9-48.7-56.2c-10.6-7.4-22.5-13.5-34.8-18.8
	c-31.6-13.6-74.9-13.5-106.3-34.7c-30.4-20.6-44.4-53.7-74.7-70.8c-25.3-14.2-57.6-10.6-82.2,2.2c-24.6,12.8-44.4,33.7-64,56.4
	s-38.6,46.4-61.9,65.3c-13.1,10.6-27.8,19.8-43.5,27.4c-46.3,22.5-100,24.9-147.8,25C207.8,284.3,184.8,286.7,159.7,296L159.7,296z"
	/>
<linearGradient id="SVGID_20_" gradientUnits="userSpaceOnUse" x1="10475.54" y1="24920.709" x2="14064.6309" y2="27803.4902" gradientTransform="matrix(-0.1779 -6.663258e-02 -2.633367e-02 0.2251 3342.6133 -4610.771)">
	<stop  offset="0" style="stop-color:#7600FF"/>
	<stop  offset="1.000000e-02" style="stop-color:#7702FB"/>
	<stop  offset="0.7" style="stop-color:#D87C48"/>
	<stop  offset="1" style="stop-color:#FFAE00"/>
</linearGradient>
<path class="st19" d="M164.8,296c-30.1,10-58.3,33.3-71,66.3c-13.6,35.5-11.1,78,4.9,115c10.5,24.4,27.1,47.8,50.6,59.6
	c17.8,9,37.3,11,56.6,12.1c4.5,0.3,9.1,0.5,13.7,0.7c15.4,0.9,31.1,2,46.1,6.2c37.3,10.3,56.1,40.5,63.4,64
	c4,12.7,4.5,25.3,6.2,40.1c1.4,12.3,3,25.7,7.4,41c7.1,24.7,21.5,43.5,38.8,57.6c28.1,22.9,64.3,33.3,91.5,42.6
	c39.4,13.5,88.7,20.9,132.5,4.5c1.7-0.6,3.3-1.3,4.9-1.9c43.1-17.9,78.1-59.3,80.2-107.2c1.1-24.4-6.7-48.1-12-72.3
	c-5.3-24.2-8.5-50.5,0.2-73.5c1.2-3.1,2.5-6.1,4.1-9c13-24.6,38-39.5,62.9-49.2c27.8-10.8,58.4-16.8,85.5-32.5
	c39.8-23,70.8-63.4,74.4-109.9c1.5-20.4-2.6-41-11.8-59.9c-11-22.3-27.7-42-47.9-56.5c-10.3-7.4-22-13.6-34.1-19
	c-30.9-13.9-73.2-14.8-104.2-35.7c-30-20.2-44.6-52.2-74.6-68.6c-25.2-13.8-56.8-10.4-81.2,2c-24.3,12.4-43.9,32.9-63,55.6
	c-20,23.7-37.5,46.9-60.2,66.2c-12.8,10.8-27.3,20.2-42.8,27.9c-45.7,22.8-99.3,25.4-146.9,24.5C213,286.1,190,287.6,164.8,296
	L164.8,296z"/>
<linearGradient id="SVGID_21_" gradientUnits="userSpaceOnUse" x1="13351.4775" y1="21184.3809" x2="16485.9277" y2="23333.002" gradientTransform="matrix(-0.2088 -2.249764e-02 2.034686e-02 0.2536 3221.7412 -4895.7139)">
	<stop  offset="0" style="stop-color:#7600FF"/>
	<stop  offset="1.000000e-02" style="stop-color:#7702FB"/>
	<stop  offset="0.7" style="stop-color:#D87C48"/>
	<stop  offset="1" style="stop-color:#FFAE00"/>
</linearGradient>
<path class="st20" d="M170,296c-30.8,9.1-59.6,32.2-72.7,65.3c-14,35.6-11.4,78.4,4.9,115.7c10.5,23.9,26.7,46.7,49.7,58.5
	c17.3,9,36.4,11.3,55.3,12.6c4.4,0.3,8.9,0.6,13.4,0.9c15.1,1,30.5,2.3,45.2,6.3c36.6,9.8,55.8,38,64.1,60.4
	c4.5,12,5.7,24.1,7.9,38.4c1.9,11.9,3.8,25,8.4,39.8c7.3,24,21.3,42.6,37.9,56.7c27,23,61.5,34.2,87.9,44.4
	c38.6,14.9,87.6,23.4,131.3,8c1.7-0.6,3.3-1.2,4.9-1.8c43.2-17,78.4-57.9,80.9-105.5c1.3-24-6.1-47.4-11-71.2
	c-5-23.8-8-49.7,0.5-72.3c1.1-3.1,2.5-6,3.9-8.8c12.6-24.3,36.8-39.3,61-49.3c27-11.1,57-17.5,83.6-33.2
	c39.5-23.2,70.8-63,74.6-109.3c1.6-20.3-2.4-40.9-11.5-59.7c-10.8-22.3-27.3-42.1-47.2-56.7c-10-7.4-21.4-13.6-33.3-19.2
	c-30.2-14.1-71.4-16.1-102.2-36.6c-29.6-19.9-44.8-50.7-74.5-66.5c-25-13.3-56.1-10.2-80.1,1.9c-24,12.1-43.3,32.1-62,54.8
	c-19.6,23.9-36.3,47.5-58.6,67.1c-12.5,11-26.8,20.6-42.2,28.4c-45.1,23.1-98.5,26-146.1,24C218.2,288,195.1,288.5,170,296L170,296z
	"/>
<linearGradient id="SVGID_22_" gradientUnits="userSpaceOnUse" x1="14350.6045" y1="17125.5137" x2="17032.9844" y2="18679.7031" gradientTransform="matrix(-0.2391 2.054181e-02 6.543474e-02 0.2955 3102.1738 -5192.2271)">
	<stop  offset="0" style="stop-color:#7600FF"/>
	<stop  offset="1.000000e-02" style="stop-color:#7702FB"/>
	<stop  offset="0.7" style="stop-color:#D87C48"/>
	<stop  offset="1" style="stop-color:#FFAE00"/>
</linearGradient>
<path class="st21" d="M175.2,295.9c-31.5,8.2-61,31.1-74.4,64.4C86.4,396,89,439.2,105.6,476.7c10.4,23.3,26.4,45.6,48.7,57.4
	c16.9,8.9,35.5,11.6,53.9,13.2c4.3,0.4,8.7,0.7,13.1,1.1c14.8,1.2,29.9,2.6,44.3,6.4c35.8,9.4,55.5,35.6,64.8,56.8
	c5,11.4,6.8,22.9,9.6,36.7c2.3,11.5,4.7,24.2,9.3,38.6c7.5,23.3,21,41.6,36.9,55.8c25.9,23.1,58.8,35.2,84.3,46.2
	c37.8,16.3,86.4,26,130.1,11.5c1.7-0.5,3.3-1.1,4.9-1.7c43.3-16.1,78.7-56.4,81.7-103.7c1.5-23.6-5.4-46.6-10-70.1
	c-4.7-23.5-7.5-48.8,0.7-71.2c1.1-3,2.4-5.9,3.8-8.7c12.2-24,35.5-39.1,59.2-49.5c26.3-11.4,55.6-18.3,81.6-33.8
	c39.2-23.3,70.7-62.5,74.7-108.8c1.7-20.2-2.2-40.7-11.1-59.6c-10.6-22.3-26.8-42.1-46.5-57c-9.8-7.4-20.9-13.7-32.6-19.3
	c-29.5-14.4-69.7-17.4-100.1-37.6c-29.2-19.5-45.1-49.1-74.4-64.3c-24.9-12.9-55.3-10-79,1.7c-23.7,11.7-42.8,31.3-61,54
	c-19.2,24-35.2,48-56.9,68c-12.2,11.2-26.3,20.9-41.5,28.9c-44.5,23.3-97.8,26.5-145.3,23.6C223.3,289.8,200.2,289.4,175.2,295.9
	L175.2,295.9z"/>
<linearGradient id="SVGID_23_" gradientUnits="userSpaceOnUse" x1="13824.2559" y1="14582.0527" x2="16135.8857" y2="15696.8828" gradientTransform="matrix(-0.2727 6.350996e-02 0.1099 0.3235 2983.8694 -5476.4321)">
	<stop  offset="0" style="stop-color:#7600FF"/>
	<stop  offset="1.000000e-02" style="stop-color:#7702FB"/>
	<stop  offset="0.7" style="stop-color:#D87C48"/>
	<stop  offset="1" style="stop-color:#FFAE00"/>
</linearGradient>
<path class="st22" d="M180.3,295.9c-32.2,7.3-62.3,30-76.1,63.4c-14.7,35.8-12.1,79.4,4.9,117c10.3,22.8,26,44.6,47.7,56.3
	c16.5,8.9,34.6,11.9,52.6,13.8c4.2,0.5,8.5,0.8,12.8,1.3c14.5,1.4,29.2,2.9,43.5,6.5c35.1,9,55.2,33.2,65.5,53.2
	c5.5,10.7,8,21.7,11.3,35.1c2.8,11.1,5.5,23.4,10.2,37.5c7.7,22.5,20.8,40.7,36,54.9c24.8,23.2,56,36.1,80.7,48
	c37,17.8,85.3,28.5,128.9,15c1.7-0.5,3.3-1.1,4.9-1.6c43.3-15.2,79-54.9,82.5-101.9c1.7-23.1-4.7-45.9-9-69c-4.3-23.1-7-48,0.9-70
	c1.1-3,2.3-5.8,3.7-8.6c11.8-23.8,34.3-39,57.3-49.6c25.6-11.8,54.2-19.1,79.7-34.5c38.9-23.5,70.7-62.1,74.9-108.2
	c1.8-20.1-2-40.6-10.8-59.4c-10.4-22.3-26.3-42.2-45.8-57.3c-9.5-7.3-20.4-13.7-31.8-19.5c-28.8-14.6-67.9-18.6-98-38.6
	c-28.9-19.2-45.3-47.6-74.3-62.2c-24.7-12.4-54.6-9.8-78,1.6c-23.3,11.3-42.3,30.5-60,53.2c-18.8,24.1-34,48.6-55.2,68.9
	c-11.9,11.5-25.8,21.3-40.9,29.4c-44,23.6-97.1,27.1-144.4,23.1C228.5,291.6,205.4,290.2,180.3,295.9L180.3,295.9z"/>
<linearGradient id="SVGID_24_" gradientUnits="userSpaceOnUse" x1="13022.1152" y1="12603.959" x2="15044.5439" y2="13396.7393" gradientTransform="matrix(-0.3116 0.1086 0.1555 0.3588 2865.5972 -5767.5386)">
	<stop  offset="0" style="stop-color:#7600FF"/>
	<stop  offset="1.000000e-02" style="stop-color:#7702FB"/>
	<stop  offset="0.7" style="stop-color:#D87C48"/>
	<stop  offset="1" style="stop-color:#FFAE00"/>
</linearGradient>
<path class="st23" d="M185.5,295.9c-32.9,6.3-63.6,28.9-77.8,62.4c-15,35.9-12.5,79.9,4.8,117.7c10.2,22.3,25.6,43.5,46.8,55.3
	c16,8.9,33.7,12.2,51.3,14.4c4.1,0.5,8.3,1,12.5,1.5c14.2,1.6,28.6,3.2,42.6,6.7c34.4,8.6,54.9,30.7,66.1,49.6
	c6,10,9.1,20.5,13,33.4c3.2,10.7,6.3,22.7,11.2,36.3c7.8,21.8,20.5,39.7,35.1,54c23.8,23.3,53.3,37.1,77.1,49.8
	c36.2,19.2,84.1,31.1,127.7,18.5c1.7-0.5,3.3-1,4.9-1.5c43.4-14.3,79.3-53.4,83.3-100.1c1.9-22.7-4-45.1-8-67.9
	c-4-22.8-6.5-47.2,1.1-68.8c1-2.9,2.2-5.8,3.5-8.5c11.3-23.5,33.1-38.9,55.5-49.8c24.9-12.1,52.8-19.9,77.7-35.2
	c38.6-23.6,70.7-61.7,75.1-107.6c1.9-20-1.8-40.4-10.4-59.3c-10.2-22.2-25.9-42.3-45.1-57.6c-9.2-7.3-19.9-13.8-31-19.7
	c-28.1-14.9-66.1-19.9-96-39.6c-28.5-18.8-45.6-46.1-74.2-60c-24.5-12-53.9-9.6-76.9,1.4c-23,11-41.8,29.7-59,52.4
	c-18.4,24.3-32.8,49.2-53.6,69.8c-11.6,11.7-25.3,21.7-40.2,29.9c-43.4,23.8-96.4,27.6-143.6,22.7
	C233.6,293.4,210.5,291.1,185.5,295.9L185.5,295.9z"/>
<linearGradient id="SVGID_25_" gradientUnits="userSpaceOnUse" x1="12305.8438" y1="10880.3848" x2="14101.6436" y2="11431.585" gradientTransform="matrix(-0.3385 0.1494 0.2034 0.4021 2742.803 -6064.8662)">
	<stop  offset="0" style="stop-color:#7600FF"/>
	<stop  offset="1.000000e-02" style="stop-color:#7702FB"/>
	<stop  offset="0.7" style="stop-color:#D87C48"/>
	<stop  offset="1" style="stop-color:#FFAE00"/>
</linearGradient>
<path class="st24" d="M190.6,295.9c-33.6,5.3-65,27.8-79.5,61.4c-15.4,36-12.8,80.3,4.8,118.4c10.1,21.8,25.2,42.4,45.8,54.2
	c15.6,8.9,32.8,12.5,50,15c4,0.6,8.1,1.1,12.3,1.6c13.9,1.8,28,3.4,41.7,6.8c33.6,8.2,54.6,28.3,66.8,46
	c6.5,9.3,10.3,19.3,14.7,31.7c3.7,10.3,7.1,21.9,12.1,35.1c8,21.1,20.3,38.8,34.2,53.1c22.7,23.4,50.5,38.1,73.5,51.5
	c35.3,20.7,83,33.6,126.4,21.9c1.7-0.5,3.3-0.9,4.9-1.4c43.5-13.5,79.6-51.9,84.1-98.3c2.1-22.3-3.4-44.4-7.1-66.8
	c-3.7-22.4-6-46.3,1.3-67.7c1-2.9,2.1-5.7,3.4-8.3c10.9-23.3,31.9-38.7,53.6-49.9c24.2-12.4,51.3-20.7,75.8-35.8
	c38.3-23.7,70.6-61.2,75.3-107c2-19.9-1.6-40.2-10-59.1c-10-22.2-25.4-42.4-44.4-57.8c-9-7.3-19.4-13.8-30.3-19.8
	c-27.4-15.1-64.4-21.2-93.9-40.6c-28.1-18.5-45.8-44.6-74.1-57.9c-24.4-11.5-53.1-9.3-75.8,1.3c-22.7,10.6-41.2,28.9-58,51.7
	c-17.9,24.4-31.7,49.7-51.9,70.7c-11.3,11.9-24.8,22.1-39.6,30.4c-42.8,24.1-95.7,28.2-142.8,22.2
	C238.8,295.2,215.6,291.9,190.6,295.9L190.6,295.9z"/>
<linearGradient id="SVGID_26_" gradientUnits="userSpaceOnUse" x1="11472.2842" y1="9901.0547" x2="13085.9043" y2="10265.334" gradientTransform="matrix(-0.3729 0.1932 0.2479 0.4347 2624.6992 -6353.3228)">
	<stop  offset="0" style="stop-color:#7600FF"/>
	<stop  offset="1.000000e-02" style="stop-color:#7702FB"/>
	<stop  offset="0.7" style="stop-color:#D87C48"/>
	<stop  offset="1" style="stop-color:#FFAE00"/>
</linearGradient>
<path class="st25" d="M195.8,295.8c-34.3,4.3-66.4,26.7-81.2,60.5c-15.7,36-13.2,80.8,4.8,119c10,21.2,24.8,41.4,44.8,53.1
	c15.2,8.9,31.9,12.8,48.6,15.6c4,0.7,7.9,1.2,12,1.8c13.6,2,27.4,3.7,40.9,6.9c32.9,7.8,54.3,25.9,67.5,42.5
	c6.9,8.7,11.4,18.1,16.4,30.1c4.1,9.8,7.9,21.1,13,33.9c8.2,20.4,20,37.8,33.2,52.2c21.6,23.5,47.8,39.1,69.9,53.3
	c34.5,22.1,81.8,36.2,125.2,25.4c1.7-0.4,3.3-0.8,5-1.3c43.5-12.6,79.9-50.4,84.9-96.5c2.3-21.8-2.7-43.6-6.1-65.7
	c-3.4-22.1-5.4-45.5,1.5-66.5c0.9-2.8,2-5.6,3.2-8.2c10.5-23,30.7-38.6,51.8-50.1c23.4-12.7,49.9-21.5,73.8-36.5
	c38-23.9,70.6-60.8,75.5-106.4c2.1-19.8-1.4-40.1-9.7-59c-9.8-22.2-24.9-42.5-43.7-58.1c-8.7-7.3-18.8-13.9-29.5-20
	c-26.7-15.4-62.6-22.5-91.8-41.5c-27.8-18.1-46-43-74-55.8c-24.2-11-52.4-9.1-74.8,1.1c-22.4,10.2-40.7,28.1-57,50.9
	c-17.5,24.5-30.5,50.3-50.2,71.7c-11.1,12.1-24.3,22.5-38.9,30.9c-42.2,24.3-95,28.8-142,21.7C244,297.1,220.8,292.7,195.8,295.8
	L195.8,295.8z"/>
<linearGradient id="SVGID_27_" gradientUnits="userSpaceOnUse" x1="10741.7939" y1="9179.0781" x2="12204.1836" y2="9394.498" gradientTransform="matrix(-0.4062 0.2364 0.2914 0.4668 2507.1072 -6641.1714)">
	<stop  offset="0" style="stop-color:#7600FF"/>
	<stop  offset="1.000000e-02" style="stop-color:#7702FB"/>
	<stop  offset="0.7" style="stop-color:#D87C48"/>
	<stop  offset="1" style="stop-color:#FFAE00"/>
</linearGradient>
<path class="st26" d="M201,295.8c-35,3.2-67.7,25.6-82.9,59.5c-16.1,36.1-13.6,81.3,4.8,119.7c9.9,20.7,24.4,40.3,43.9,52
	c14.7,8.9,31,13.2,47.3,16.1c3.9,0.7,7.7,1.4,11.7,2c13.2,2.2,26.8,4,40,7c32.2,7.4,53.9,23.5,68.2,38.9c7.4,8,12.6,16.9,18.1,28.4
	c4.6,9.5,8.7,20.4,14,32.8c8.3,19.7,19.8,36.9,32.3,51.3c20.5,23.6,45,40.1,66.3,55.1c33.6,23.6,80.7,38.7,124,28.9
	c1.7-0.4,3.3-0.8,5-1.2c43.6-11.7,80.2-48.9,85.7-94.7c2.6-21.4-2-42.9-5.1-64.6c-3.1-21.7-4.9-44.7,1.8-65.3c0.9-2.8,2-5.5,3.1-8.1
	c10.1-22.8,29.5-38.4,49.9-50.2c22.7-13.1,48.5-22.3,71.9-37.2c37.7-24,70.5-60.4,75.7-105.9c2.2-19.7-1.2-39.9-9.3-58.8
	c-9.5-22.2-24.5-42.6-42.9-58.4c-8.5-7.2-18.3-13.9-28.7-20.2c-26-15.6-60.9-23.8-89.8-42.5c-27.4-17.8-46.3-41.5-73.9-53.6
	c-24.1-10.6-51.6-8.9-73.7,1c-22,9.9-40.2,27.3-56,50.1c-17.1,24.7-29.4,50.8-48.5,72.6c-10.8,12.3-23.8,22.9-38.3,31.4
	c-41.6,24.6-94.3,29.3-141.1,21.3C249.1,298.9,225.9,293.5,201,295.8L201,295.8z"/>
<linearGradient id="SVGID_28_" gradientUnits="userSpaceOnUse" x1="10122.7422" y1="8509.46" x2="11455.4824" y2="8603.5391" gradientTransform="matrix(-0.4387 0.2792 0.3397 0.5068 2385.0974 -6936.0605)">
	<stop  offset="0" style="stop-color:#7600FF"/>
	<stop  offset="1.000000e-02" style="stop-color:#7702FB"/>
	<stop  offset="0.7" style="stop-color:#D87C48"/>
	<stop  offset="1" style="stop-color:#FFAE00"/>
</linearGradient>
<path class="st27" d="M206.1,295.8c-35.7,2.1-69,24.5-84.6,58.5c-16.5,36.2-14,81.8,4.7,120.4c9.8,20.2,24,39.2,42.9,50.9
	c14.3,8.9,30.1,13.5,46,16.7c3.8,0.8,7.5,1.5,11.4,2.2c12.9,2.3,26.2,4.3,39.1,7.1c31.4,7,53.6,21,68.9,35.3
	c7.9,7.4,13.7,15.7,19.8,26.7c5,9,9.5,19.6,14.9,31.6c8.5,18.9,19.6,36,31.4,50.4c19.5,23.7,42.2,41.1,62.8,56.9
	c32.8,25.1,79.5,41.3,122.8,32.4c1.7-0.3,3.3-0.7,5-1.1c43.7-10.8,80.5-47.4,86.5-92.9c2.8-21-1.3-42.1-4.1-63.5
	c-2.7-21.4-4.4-43.9,2-64.2c0.9-2.7,1.9-5.4,3-8c9.7-22.5,28.3-38.3,48.1-50.4c22-13.4,47.1-23.1,69.9-37.8
	c37.4-24.2,70.4-59.9,75.8-105.3c2.3-19.6-1-39.8-8.9-58.6c-9.3-22.2-24-42.6-42.2-58.6c-8.2-7.2-17.8-13.9-28-20.3
	c-25.3-15.9-59.1-25.1-87.7-43.5c-27-17.4-46.5-39.9-73.8-51.4c-23.9-10.1-50.9-8.7-72.7,0.8c-21.7,9.5-39.7,26.5-55,49.3
	c-16.7,24.8-28.2,51.4-46.9,73.5c-10.5,12.5-23.3,23.3-37.6,31.9c-41,24.8-93.6,29.9-140.3,20.8C254.3,300.7,231,294.3,206.1,295.8
	L206.1,295.8z"/>
<linearGradient id="SVGID_29_" gradientUnits="userSpaceOnUse" x1="9563.6865" y1="8111.2129" x2="10782.0664" y2="8104.7627" gradientTransform="matrix(-0.4789 0.3273 0.3825 0.538 2269.6543 -7224.1045)">
	<stop  offset="0" style="stop-color:#7600FF"/>
	<stop  offset="1.000000e-02" style="stop-color:#7702FB"/>
	<stop  offset="0.7" style="stop-color:#D87C48"/>
	<stop  offset="1" style="stop-color:#FFAE00"/>
</linearGradient>
<path class="st28" d="M211.3,295.8c-36.3,1-70.4,23.5-86.2,57.6c-16.8,36.3-14.4,82.2,4.7,121c9.7,19.7,23.6,38.1,41.9,49.9
	c13.9,8.9,29.2,13.8,44.6,17.3c3.7,0.8,7.4,1.6,11.1,2.3c12.6,2.5,25.6,4.6,38.3,7.3c30.7,6.5,53.3,18.7,69.6,31.7
	c8.4,6.7,14.9,14.5,21.6,25.1c5.5,8.7,10.3,18.8,15.8,30.4c8.7,18.2,19.3,35,30.5,49.5c18.4,23.8,39.4,42.2,59.2,58.7
	c31.9,26.6,78.4,43.8,121.6,35.8c1.7-0.3,3.3-0.6,5-1c43.8-9.8,80.8-45.9,87.3-91.1c3-20.5-0.7-41.4-3.1-62.4c-2.4-21-3.9-43,2.2-63
	c0.8-2.7,1.8-5.3,2.8-7.9c9.2-22.2,27-38.1,46.2-50.5c21.3-13.7,45.7-23.9,68-38.5c37-24.4,70.4-59.5,76-104.7
	c2.4-19.5-0.8-39.6-8.6-58.5c-9.1-22.2-23.6-42.7-41.5-58.9c-8-7.2-17.3-14-27.2-20.5c-24.6-16.1-57.3-26.4-85.7-44.5
	c-26.6-17.1-46.8-38.4-73.7-49.3c-23.8-9.6-50.2-8.5-71.6,0.7c-21.4,9.1-39.1,25.8-54,48.5c-16.3,24.9-27.1,51.9-45.2,74.4
	c-10.2,12.7-22.8,23.6-37,32.4c-40.4,25.1-92.8,30.4-139.5,20.4C259.5,302.6,236.2,295.1,211.3,295.8L211.3,295.8z"/>
<linearGradient id="SVGID_30_" gradientUnits="userSpaceOnUse" x1="9091.7852" y1="7697.2842" x2="10206.8955" y2="7606.6846" gradientTransform="matrix(-0.5103 0.3695 0.4305 0.5772 2147.7642 -7518.1206)">
	<stop  offset="0" style="stop-color:#7600FF"/>
	<stop  offset="1.000000e-02" style="stop-color:#7702FB"/>
	<stop  offset="0.7" style="stop-color:#D87C48"/>
	<stop  offset="1" style="stop-color:#FFAE00"/>
</linearGradient>
<path class="st29" d="M216.5,295.7c-37-0.1-71.7,22.4-87.9,56.6c-17.1,36.4-14.8,82.7,4.7,121.7c9.6,19.2,23.2,37.1,41,48.8
	c13.4,8.9,28.2,14.1,43.3,17.9c3.6,0.9,7.2,1.7,10.8,2.5c12.3,2.7,25,4.8,37.4,7.4c30,6.1,52.9,16.3,70.3,28.2
	c8.8,6,16,13.3,23.3,23.4c5.9,8.2,11.1,18.1,16.8,29.3c8.8,17.5,19.1,34.1,29.6,48.6c17.3,23.9,36.5,43.2,55.6,60.5
	c31,28.2,77.2,46.4,120.4,39.3c1.7-0.3,3.3-0.6,5-0.9c43.8-9,81-44.5,88-89.3c3.2-20.1,0-40.6-2.1-61.3c-2.1-20.7-3.4-42.2,2.4-61.8
	c0.8-2.7,1.7-5.2,2.7-7.8c8.8-22,25.8-38,44.4-50.7c20.6-14,44.3-24.7,66-39.2c36.7-24.5,70.3-59.1,76.2-104.1
	c2.5-19.4-0.6-39.5-8.2-58.4c-8.9-22.1-23.2-42.8-40.8-59.2c-7.7-7.2-16.8-14-26.4-20.7c-23.9-16.4-55.6-27.7-83.6-45.4
	c-26.3-16.7-47-36.9-73.6-47.2c-23.6-9.2-49.4-8.3-70.5,0.5c-21.1,8.7-38.6,25-53,47.7c-15.9,25.1-25.9,52.5-43.5,75.3
	c-9.9,13-22.3,24-36.3,32.9c-39.9,25.3-92.1,31-138.6,19.9C264.6,304.4,241.4,295.8,216.5,295.7L216.5,295.7z"/>
<linearGradient id="SVGID_31_" gradientUnits="userSpaceOnUse" x1="8676.999" y1="7374.9482" x2="9696.8877" y2="7213.6548" gradientTransform="matrix(-0.5414 0.4114 0.4785 0.616 2025.7441 -7811.689)">
	<stop  offset="0" style="stop-color:#7600FF"/>
	<stop  offset="1.000000e-02" style="stop-color:#7702FB"/>
	<stop  offset="0.7" style="stop-color:#D87C48"/>
	<stop  offset="1" style="stop-color:#FFAE00"/>
</linearGradient>
<path class="st30" d="M221.6,295.7c-37.6-1.3-73.1,21.3-89.6,55.6c-17.5,36.5-15.2,83.2,4.7,122.4c9.5,18.7,22.8,36,40,47.7
	c13,8.9,27.3,14.4,42,18.5c3.5,1,7,1.9,10.5,2.7c12,2.9,24.4,5.1,36.5,7.5c29.2,5.7,52.6,13.9,71,24.6c9.3,5.4,17.2,12.1,25,21.7
	c6.4,7.8,11.9,17.3,17.7,28.1c9,16.8,18.8,33.1,28.7,47.7c16.2,24,33.7,44.2,52,62.3c30,29.7,76.1,48.9,119.2,42.8
	c1.7-0.2,3.3-0.5,5-0.8c43.9-8.1,81.3-43,88.8-87.5c3.3-19.7,0.7-39.9-1.1-60.2c-1.8-20.3-2.9-41.4,2.7-60.7
	c0.8-2.6,1.6-5.2,2.6-7.6c8.4-21.7,24.6-37.8,42.5-50.8c19.9-14.4,42.9-25.5,64.1-39.9c36.4-24.7,70.3-58.6,76.4-103.5
	c2.6-19.3-0.4-39.3-7.8-58.2c-8.7-22.1-22.7-42.8-40.1-59.4c-7.5-7.1-16.2-14.1-25.7-20.8c-23.2-16.6-53.8-28.9-81.5-46.4
	c-25.9-16.4-47.3-35.3-73.5-45c-23.5-8.7-48.7-8-69.5,0.4c-20.7,8.4-38,24.2-52,46.9c-15.4,25.2-24.8,53-41.8,76.2
	c-9.6,13.2-21.8,24.4-35.7,33.5c-39.3,25.6-91.4,31.5-137.8,19.4C269.8,306.2,246.6,296.6,221.6,295.7L221.6,295.7z"/>
<linearGradient id="SVGID_32_" gradientUnits="userSpaceOnUse" x1="8330.9521" y1="7188.6436" x2="9262.4824" y2="6967.9536" gradientTransform="matrix(-0.5724 0.453 0.5203 0.6467 1909.2675 -8097.9858)">
	<stop  offset="0" style="stop-color:#7600FF"/>
	<stop  offset="1.000000e-02" style="stop-color:#7702FB"/>
	<stop  offset="0.7" style="stop-color:#D87C48"/>
	<stop  offset="1" style="stop-color:#FFAE00"/>
</linearGradient>
<path class="st31" d="M226.8,295.7c-38.2-2.5-74.4,20.2-91.3,54.7c-17.9,36.6-15.6,83.7,4.7,123c9.3,18.1,22.5,34.9,39,46.6
	c12.6,8.9,26.4,14.7,40.7,19.1c3.4,1,6.8,2,10.2,2.9c11.7,3.1,23.8,5.4,35.7,7.6c28.5,5.4,52.3,11.5,71.6,21
	c9.8,4.8,18.3,10.9,26.7,20.1c6.8,7.5,12.7,16.5,18.6,26.9c9.1,16.1,18.6,32.2,27.7,46.8c15.1,24.1,30.8,45.2,48.4,64.1
	c29,31.2,74.9,51.6,118,46.3c1.7-0.2,3.3-0.4,5-0.7c44-7.2,81.5-41.5,89.6-85.7c3.5-19.2,1.4-39.1-0.1-59.1
	c-1.5-20-2.4-40.6,2.9-59.5c0.7-2.6,1.5-5.1,2.4-7.5c8-21.5,23.4-37.7,40.7-51c19.1-14.7,41.4-26.3,62.1-40.5
	c36.1-24.9,70.2-58.2,76.6-102.9c2.7-19.2-0.2-39.1-7.5-58c-8.5-22.1-22.3-42.9-39.3-59.7c-7.2-7.1-15.7-14.1-24.9-21
	c-22.6-16.8-52.1-30.2-79.5-47.4c-25.5-16-47.5-33.8-73.4-42.9c-23.3-8.2-47.9-7.8-68.4,0.2c-20.4,8-37.5,23.4-51,46.2
	c-15,25.4-23.6,53.6-40.2,77.1c-9.3,13.4-21.3,24.8-35,34c-38.7,25.8-90.7,32.1-137,19C275,308.1,251.8,297.3,226.8,295.7
	L226.8,295.7z"/>
<linearGradient id="SVGID_33_" gradientUnits="userSpaceOnUse" x1="7996.2598" y1="6931.8882" x2="8844.3691" y2="6661.708" gradientTransform="matrix(-0.611 0.5008 0.5681 0.6851 1788.9758 -8392.3936)">
	<stop  offset="0" style="stop-color:#7600FF"/>
	<stop  offset="1.000000e-02" style="stop-color:#7702FB"/>
	<stop  offset="0.7" style="stop-color:#D87C48"/>
	<stop  offset="1" style="stop-color:#FFAE00"/>
</linearGradient>
<path class="st32" d="M232,295.7c-38.9-3.7-75.8,19.1-93,53.7c-18.2,36.6-16,84.2,4.6,123.7c9.2,17.6,22.1,33.9,38.1,45.5
	c12.1,8.8,25.5,15,39.3,19.7c3.3,1.1,6.6,2.1,9.9,3.1c11.4,3.3,23.2,5.7,34.8,7.8c27.7,5,51.9,9.2,72.3,17.4
	c10.3,4.1,19.5,9.7,28.4,18.4c7.3,7,13.5,15.8,19.6,25.8c9.3,15.4,18.3,31.2,26.8,45.8c14,24.2,28,46.3,44.8,65.9
	c28.1,32.7,73.8,54.1,116.8,49.8c1.7-0.2,3.3-0.4,5-0.6c44-6.3,81.7-40,90.4-83.9c3.7-18.8,2-38.4,0.9-58
	c-1.1-19.6-1.9-39.8,3.1-58.3c0.7-2.5,1.4-5,2.3-7.4c7.5-21.2,22.2-37.5,38.8-51.1c18.4-15,40-27.1,60.2-41.2
	c35.8-25.1,70.2-57.8,76.8-102.4c2.8-19.1,0-39-7.1-57.9c-8.3-22.1-21.9-43-38.6-60c-7-7.1-15.2-14.2-24.2-21.1
	c-21.9-17.1-50.3-31.5-77.4-48.4c-25.2-15.7-47.8-32.2-73.3-40.7c-23.2-7.7-47.2-7.6-67.3,0.1c-20.1,7.6-37,22.6-50,45.4
	c-14.6,25.5-22.5,54.1-38.5,78.1c-9.1,13.6-20.8,25.2-34.4,34.5c-38.1,26-90,32.6-136.1,18.5C280.1,309.9,257,298.1,232,295.7
	L232,295.7z"/>
<linearGradient id="SVGID_34_" gradientUnits="userSpaceOnUse" x1="7734.0044" y1="6794.8467" x2="8503.04" y2="6483.9507" gradientTransform="matrix(-0.6417 0.5421 0.6094 0.7157 1672.89 -8678.5596)">
	<stop  offset="0" style="stop-color:#7600FF"/>
	<stop  offset="1.000000e-02" style="stop-color:#7702FB"/>
	<stop  offset="0.7" style="stop-color:#D87C48"/>
	<stop  offset="1" style="stop-color:#FFAE00"/>
</linearGradient>
<path class="st33" d="M237.1,295.6c-39.5-4.9-77.1,18-94.7,52.7c-18.6,36.7-16.5,84.8,4.6,124.4c9.1,17.1,21.7,32.8,37.1,44.4
	c11.7,8.8,24.6,15.3,38,20.2c3.2,1.2,6.4,2.2,9.6,3.2c11.1,3.5,22.5,6,33.9,7.9c27,4.5,51.6,6.8,73,13.8
	c10.8,3.5,20.6,8.5,30.1,16.7c7.7,6.7,14.3,15,20.5,24.6c9.5,14.7,18,30.3,25.9,44.9c12.9,24.3,25.1,47.3,41.2,67.7
	c27.1,34.3,72.6,56.7,115.6,53.2c1.7-0.1,3.3-0.3,5-0.5c44.1-5.4,82-38.6,91.2-82.1c3.9-18.4,2.7-37.6,1.9-56.9
	c-0.8-19.3-1.4-38.9,3.3-57.2c0.6-2.5,1.3-4.9,2.2-7.3c7.1-20.9,21-37.4,37-51.3c17.7-15.4,38.6-27.9,58.2-41.9
	c35.4-25.2,70.2-57.3,76.9-101.8c2.9-19.1,0.2-38.8-6.7-57.8c-8.1-22.1-21.4-43-37.9-60.3c-6.7-7.1-14.7-14.2-23.4-21.3
	c-21.2-17.3-48.5-32.8-75.3-49.3c-24.8-15.3-48-30.6-73.2-38.6c-23-7.2-46.5-7.4-66.3-0.1c-19.8,7.3-36.4,21.8-49,44.6
	c-14.1,25.6-21.3,54.6-36.8,79c-8.8,13.8-20.3,25.5-33.7,35c-37.6,26.2-89.3,33.2-135.3,18C285.3,311.7,262.2,298.7,237.1,295.6
	L237.1,295.6z"/>
<linearGradient id="SVGID_35_" gradientUnits="userSpaceOnUse" x1="7483.022" y1="6630.877" x2="8176.7422" y2="6287.2168" gradientTransform="matrix(-0.6723 0.5832 0.657 0.7539 1551.1296 -8971.3857)">
	<stop  offset="0" style="stop-color:#7600FF"/>
	<stop  offset="1.000000e-02" style="stop-color:#7702FB"/>
	<stop  offset="0.7" style="stop-color:#D87C48"/>
	<stop  offset="1" style="stop-color:#FFAE00"/>
</linearGradient>
<path class="st34" d="M242.3,295.6c-40-6.2-78.5,16.9-96.4,51.8c-18.9,36.8-16.9,85.3,4.6,125c9,16.6,21.3,31.7,36.1,43.4
	c11.3,8.8,23.7,15.6,36.7,20.8c3.1,1.2,6.2,2.4,9.3,3.4c10.8,3.7,21.9,6.3,33,8c26.3,4.1,51.3,4.5,73.7,10.2
	c11.2,2.9,21.8,7.4,31.8,15.1c8.1,6.3,15.1,14.3,21.4,23.4c9.6,13.9,17.8,29.3,25,44c11.8,24.4,22.2,48.3,37.6,69.4
	c26,35.8,71.5,59.2,114.4,56.7c1.7-0.1,3.3-0.2,5-0.4c44.2-4.5,82.2-37.1,92-80.3c4.1-18,3.4-36.9,2.9-55.8
	c-0.5-18.9-0.9-38.1,3.5-56c0.6-2.4,1.3-4.8,2-7.2c6.7-20.7,19.8-37.2,35.1-51.4c17-15.7,37.2-28.7,56.3-42.5
	c35.1-25.4,70.1-56.9,77.1-101.2c3-19,0.4-38.7-6.4-57.6c-7.9-22-21-43-37.2-60.5c-6.5-7-14.2-14.2-22.6-21.5
	c-20.5-17.5-46.8-34.1-73.2-50.3c-24.4-15-48.3-29.1-73.1-36.4c-22.8-6.8-45.7-7.2-65.2-0.2c-19.5,6.9-35.9,21-48,43.8
	c-13.7,25.8-20.2,55.2-35.1,79.9c-8.5,14-19.8,25.9-33.1,35.5c-37,26.5-88.6,33.7-134.5,17.6C290.5,313.5,267.5,299.5,242.3,295.6
	L242.3,295.6z"/>
<linearGradient id="SVGID_36_" gradientUnits="userSpaceOnUse" x1="7237.4775" y1="6461.0981" x2="7859.3975" y2="6091.8979" gradientTransform="matrix(-0.7103 0.6309 0.7048 0.7918 1430.8083 -9265.3535)">
	<stop  offset="0" style="stop-color:#7600FF"/>
	<stop  offset="1.000000e-02" style="stop-color:#7702FB"/>
	<stop  offset="0.7" style="stop-color:#D87C48"/>
	<stop  offset="1" style="stop-color:#FFAE00"/>
</linearGradient>
<path class="st35" d="M247.5,295.6c-40.6-7.4-79.8,15.8-98.1,50.8c-19.3,36.9-17.4,85.8,4.6,125.7c8.9,16.1,20.9,30.7,35.2,42.3
	c10.8,8.8,22.8,16,35.4,21.4c3,1.3,6,2.5,9,3.6c10.5,3.8,21.3,6.5,32.2,8.1c25.5,3.7,51,2.2,74.4,6.7c11.7,2.3,22.9,6.2,33.5,13.4
	c8.6,5.9,15.9,13.5,22.4,22.2c9.7,13.3,17.5,28.4,24,43.1c10.8,24.5,19.3,49.3,34,71.2c25,37.3,70.3,61.8,113.2,60.2
	c1.7-0.1,3.3-0.2,5-0.3c44.2-3.7,82.4-35.6,92.8-78.5c4.3-17.5,4.1-36.1,3.9-54.7c-0.2-18.6-0.3-37.3,3.8-54.8
	c0.5-2.4,1.2-4.7,1.9-7c6.3-20.4,18.5-37.1,33.3-51.6c16.3-16,35.7-29.5,54.3-43.2c34.7-25.7,70.1-56.5,77.3-100.6
	c3.1-18.9,0.6-38.5-6-57.5c-7.7-22-20.6-43.1-36.5-60.8c-6.3-7-13.7-14.3-21.9-21.6c-19.8-17.7-45-35.4-71.2-51.3
	c-24-14.6-48.5-27.5-73-34.3c-22.7-6.2-45-6.9-64.2-0.4c-19.1,6.5-35.3,20.3-47,43c-13.2,26-19,55.7-33.5,80.8
	c-8.2,14.2-19.3,26.3-32.4,36c-36.4,26.7-87.9,34.3-133.6,17.1C295.6,315.3,272.7,300.2,247.5,295.6L247.5,295.6z"/>
<linearGradient id="SVGID_37_" gradientUnits="userSpaceOnUse" x1="7061.2021" y1="6375.4131" x2="7614.7222" y2="5987.293" gradientTransform="matrix(-0.7408 0.6717 0.7456 0.8223 1315.0526 -9551.3477)">
	<stop  offset="0" style="stop-color:#7600FF"/>
	<stop  offset="1.000000e-02" style="stop-color:#7702FB"/>
	<stop  offset="0.7" style="stop-color:#D87C48"/>
	<stop  offset="1" style="stop-color:#FFAE00"/>
</linearGradient>
<path class="st36" d="M234.4,538.7c10.2,4,20.7,6.8,31.3,8.2c37.2,5,76.9-5.4,110.3,14.8c22.7,13.7,36.7,38.7,46.4,63.3
	c9.7,24.5,16.4,50.3,30.4,73c24.9,40.3,72.7,66.3,117,63.5c44.3-2.8,82.6-34.2,93.6-76.8c9.5-36.5,0.1-78.1,10.6-114.2
	c12.3-42.4,49.4-69.8,83.8-95.6c34.4-25.8,70-56,77.5-100c6.9-40.6-12.5-85-41.4-118.4c-58.4-67.6-219.2-172.4-272.2-64.6
	c-12.8,26.1-17.9,56.3-31.8,81.7c-29.8,54.4-102.5,77.9-164.6,53.1c-24.5-9.8-47.3-26-72.7-31.4c-41.1-8.7-81.2,14.8-99.8,49.8
	c-19.6,37-17.9,86.4,4.5,126.4C174.3,502,202.7,526.2,234.4,538.7L234.4,538.7z"/>
</svg>
