<?xml version="1.0" encoding="utf-8"?>
<!-- Generator: Adobe Illustrator 26.2.1, SVG Export Plug-In . SVG Version: 6.00 Build 0)  -->
<svg version="1.1" xmlns="http://www.w3.org/2000/svg" xmlns:xlink="http://www.w3.org/1999/xlink" x="0px" y="0px"
	 viewBox="0 0 263 266" style="enable-background:new 0 0 263 266;" xml:space="preserve">
<style type="text/css">
	.st0{fill:url(#SVGID_1_);}
	.st1{fill:url(#SVGID_00000003784377807620535270000011787336575289278118_);}
	.st2{fill:#F4F4F7;}
	.st3{opacity:0.1;}
	.st4{clip-path:url(#SVGID_00000098931616310189020700000013867279106509967767_);}
	.st5{fill:#F5F5F7;}
	.st6{clip-path:url(#SVGID_00000057108847294199612340000011496192469718666399_);}
	.st7{fill:none;stroke:#67738F;stroke-width:2;stroke-miterlimit:10;}
	.st8{clip-path:url(#SVGID_00000047751494860998401490000005906037315211094702_);}
	.st9{fill:#67738F;}
	.st10{fill:none;stroke:#F75A88;stroke-width:2;stroke-linejoin:round;stroke-miterlimit:10;}
	.st11{fill:#04518D;}
	.st12{fill:#05ABEB;}
	.st13{clip-path:url(#SVGID_00000126297090067363247940000003322121929027236760_);}
	.st14{clip-path:url(#SVGID_00000148660398127845419770000010177985694111484828_);}
	.st15{clip-path:url(#SVGID_00000145022004420170793490000013010242663297357748_);}
	.st16{clip-path:url(#SVGID_00000129887517294026863030000007299672278077914034_);}
	.st17{fill:url(#SVGID_00000125605244838009967400000015388727063815921302_);}
	.st18{fill:url(#SVGID_00000130624513774701393530000016808317083724127621_);}
	.st19{fill:#FFFFFF;}
	.st20{opacity:0.15;fill:#26C6DA;}
	.st21{fill:#EFEFEF;}
	.st22{fill:url(#SVGID_00000021116278475123551820000014742012719635416229_);}
	.st23{fill:url(#SVGID_00000023245807654178024240000015829997184875018927_);}
	.st24{fill:url(#SVGID_00000139287117630214315290000017926814528746704272_);}
	.st25{fill:url(#SVGID_00000119817658140695687880000017786362603274881932_);}
	.st26{fill:url(#SVGID_00000137828019473499736240000014419556604892983685_);}
	.st27{fill:url(#SVGID_00000003795106625701836310000005522894719732183684_);}
	.st28{fill:url(#SVGID_00000150082316599977037280000018328185776073668738_);}
	.st29{fill:url(#SVGID_00000150094197698495672090000005050510180003751838_);}
	.st30{fill:url(#SVGID_00000093858929765344327850000005092906509028072068_);}
	.st31{fill:#26C6DA;}
	.st32{fill:#AEFDF1;}
	.st33{fill:url(#SVGID_00000015351597257215547690000006547143031807803318_);}
	.st34{fill:#4562FF;}
	.st35{fill:#4712CC;}
	.st36{fill:none;stroke:#535353;stroke-miterlimit:10;}
	.st37{fill:#666666;}
	.st38{fill:none;stroke:#F4F4F4;stroke-width:2.1558;stroke-miterlimit:10;}
	.st39{fill:none;stroke:#F4F4F4;stroke-width:4;stroke-miterlimit:10;}
	.st40{fill:url(#SVGID_00000140009505757236017450000006710769110743053209_);}
	.st41{fill:url(#SVGID_00000124871541197229447790000010671796892685220505_);}
	.st42{fill:url(#SVGID_00000119103422380669795070000016252873426480175519_);}
	.st43{fill:url(#SVGID_00000028284510020482190570000008271982311326992022_);}
	.st44{fill:url(#SVGID_00000159468218653875360860000004807357553312955818_);}
	.st45{fill:url(#SVGID_00000096773478707623408200000012425653001907254185_);}
	.st46{fill:url(#SVGID_00000111882747068610701770000004452091461324742802_);}
	.st47{fill:url(#SVGID_00000012458965163938799110000002725498679261739944_);}
	.st48{fill:#016FFF;}
	.st49{fill:none;stroke:#FFFFFF;stroke-miterlimit:10;}
	.st50{fill:#EAEDF5;}
	.st51{clip-path:url(#SVGID_00000111176808364933832280000004091799231523365311_);}
	.st52{clip-path:url(#SVGID_00000155856961457052305460000009490639231529888173_);}
	.st53{clip-path:url(#SVGID_00000044159560866080871270000002221209103663295915_);}
	.st54{clip-path:url(#SVGID_00000097497849916530964410000004366380213786373789_);}
	.st55{fill:url(#SVGID_00000146494123834612560080000005572001196101477255_);}
	.st56{fill:url(#SVGID_00000046319205828646981400000010218205365846992007_);}
	.st57{fill:url(#SVGID_00000011717940853736675800000002954234318073773974_);}
	.st58{fill:url(#SVGID_00000098924178255495720740000017113764546068297395_);}
	.st59{fill:url(#SVGID_00000046310909442948497880000016620932134485622200_);}
	.st60{fill:url(#SVGID_00000157284659578855915380000018023143213201004679_);}
	.st61{fill:url(#SVGID_00000089532898328384427360000004603408225865946004_);}
	.st62{fill:url(#SVGID_00000172415170389628841760000015954308836692183426_);}
	.st63{fill:url(#SVGID_00000140716874471939457840000006268337661121779902_);}
	.st64{fill:none;stroke:#F4F4F4;stroke-width:2.1643;stroke-miterlimit:10;}
	.st65{fill-rule:evenodd;clip-rule:evenodd;fill:#4562FF;}
	.st66{fill:#2FD3CF;}
	.st67{fill:url(#SVGID_00000076568305210990140980000008331423310519255724_);}
	.st68{fill:url(#SVGID_00000109018644944163901510000001983635747940696453_);}
	.st69{fill:url(#SVGID_00000166656817441219319800000009298873549369032091_);}
	.st70{fill:url(#SVGID_00000047779525877665388440000005182007219770199461_);}
	.st71{fill:url(#SVGID_00000174589747369563060150000012342713873623608709_);}
</style>
<g id="Capa_2">
</g>
<g id="Capa_1">
</g>
<g id="Capa_3">
	<g>
		<image style="overflow:visible;opacity:0.1;" width="263" height="266" xlink:href="9DD67304089DAF07.png" >
		</image>
		<g>
			
				<linearGradient id="SVGID_1_" gradientUnits="userSpaceOnUse" x1="-324.4421" y1="1502.0439" x2="-74.0269" y2="1502.0439" gradientTransform="matrix(0.9944 -0.1056 0.1056 0.9944 167.2831 -1384.203)">
				<stop  offset="0" style="stop-color:#4712CC"/>
				<stop  offset="0.1399" style="stop-color:#4721D6"/>
				<stop  offset="0.5058" style="stop-color:#4645EC"/>
				<stop  offset="0.8056" style="stop-color:#455AFA"/>
				<stop  offset="1" style="stop-color:#4562FF"/>
			</linearGradient>
			<path class="st0" d="M88.9,250.4c-18.1-24.8-2.2-53.9,22.8-56.5c0.4,0,0.9,0,1.3-0.1l7.1-33.9l3.8-17.8l-18.1,1.9l-35.2,3.7
				c-4.4,19.8-26,33.8-49.9,23.1c-3.9-1.7-7.3-4.5-9.8-7.9c-18.1-24.8-2.3-53.9,22.8-56.6c15-1.6,28.7,6.8,34.6,19.7l35.1-3.7
				l18.1-1.9l-7.5-16.6L99.7,71.7c-0.3,0-0.6,0.1-0.9,0.1c-25,2.7-46.6-22.4-34.2-50.5c1.7-3.9,4.5-7.3,8-9.9
				c24.8-18.1,53.9-2.2,56.5,22.8c1.1,10.7-2.8,20.8-9.9,27.8l14.8,33l7.4,16.6l13.5-12.2l26.5-24c-1.9-3.6-3.1-7.7-3.6-12
				c-2.7-25,22.4-46.6,50.5-34.2c3.9,1.7,7.3,4.5,9.9,8c18.1,24.8,2.2,53.9-22.8,56.5c-6.5,0.7-12.8-0.5-18.4-3.2l-27.5,24.9
				L156,127.8l15.8,9.1l31.8,18.3c9.5-7.6,23.2-10.3,38-3.6c3.9,1.8,7.3,4.5,9.8,8c17.8,24.8,2,53.7-22.9,56.3
				c-18.8,2-35.6-11.6-37.6-30.4c-0.4-4.2-0.1-8.3,0.9-12.1L161,155.7l-15.8-9.1l-3.8,17.8l-7.4,34.9c8.2,5.4,14.1,14.4,15.2,24.9
				c2.7,25-22.4,46.6-50.5,34.2C94.8,256.7,91.4,253.9,88.9,250.4z"/>
		</g>
	</g>
</g>
</svg>
