<?xml version="1.0" encoding="UTF-8"?><svg id="uuid-8527083e-0712-4f63-8d49-75a3b3723205" xmlns="http://www.w3.org/2000/svg" viewBox="0 0 213.83 213.83"><defs><style>.uuid-bed06531-5408-46a4-9d97-c297e664c0b3{fill:none;stroke:#fff;stroke-miterlimit:10;}</style></defs><line class="uuid-bed06531-5408-46a4-9d97-c297e664c0b3" x1="108.89" x2="108.89" y2="30.32"/><line class="uuid-bed06531-5408-46a4-9d97-c297e664c0b3" x1="90.29" y1="1.28" x2="95.56" y2="31.15"/><line class="uuid-bed06531-5408-46a4-9d97-c297e664c0b3" x1="72.2" y1="5.77" x2="82.57" y2="34.27"/><line class="uuid-bed06531-5408-46a4-9d97-c297e664c0b3" x1="55.17" y1="13.34" x2="70.33" y2="39.6"/><line class="uuid-bed06531-5408-46a4-9d97-c297e664c0b3" x1="39.7" y1="23.75" x2="59.19" y2="46.98"/><line class="uuid-bed06531-5408-46a4-9d97-c297e664c0b3" x1="26.28" y1="36.68" x2="49.51" y2="56.17"/><line class="uuid-bed06531-5408-46a4-9d97-c297e664c0b3" x1="15.31" y1="51.75" x2="41.57" y2="66.91"/><line class="uuid-bed06531-5408-46a4-9d97-c297e664c0b3" x1="7.12" y1="68.49" x2="35.62" y2="78.87"/><line class="uuid-bed06531-5408-46a4-9d97-c297e664c0b3" x1="1.97" y1="86.41" x2="31.83" y2="91.67"/><line class="uuid-bed06531-5408-46a4-9d97-c297e664c0b3" y1="104.94" x2="30.32" y2="104.94"/><line class="uuid-bed06531-5408-46a4-9d97-c297e664c0b3" x1="1.28" y1="123.54" x2="31.15" y2="118.27"/><line class="uuid-bed06531-5408-46a4-9d97-c297e664c0b3" x1="5.77" y1="141.63" x2="34.27" y2="131.26"/><line class="uuid-bed06531-5408-46a4-9d97-c297e664c0b3" x1="13.34" y1="158.67" x2="39.6" y2="143.5"/><line class="uuid-bed06531-5408-46a4-9d97-c297e664c0b3" x1="23.75" y1="174.13" x2="46.98" y2="154.64"/><line class="uuid-bed06531-5408-46a4-9d97-c297e664c0b3" x1="36.68" y1="187.55" x2="56.17" y2="164.32"/><line class="uuid-bed06531-5408-46a4-9d97-c297e664c0b3" x1="51.75" y1="198.52" x2="66.91" y2="172.26"/><line class="uuid-bed06531-5408-46a4-9d97-c297e664c0b3" x1="68.49" y1="206.71" x2="78.87" y2="178.22"/><line class="uuid-bed06531-5408-46a4-9d97-c297e664c0b3" x1="86.41" y1="211.87" x2="91.67" y2="182"/><line class="uuid-bed06531-5408-46a4-9d97-c297e664c0b3" x1="104.94" y1="213.83" x2="104.94" y2="183.51"/><line class="uuid-bed06531-5408-46a4-9d97-c297e664c0b3" x1="123.54" y1="212.55" x2="118.27" y2="182.69"/><line class="uuid-bed06531-5408-46a4-9d97-c297e664c0b3" x1="141.63" y1="208.06" x2="131.26" y2="179.56"/><line class="uuid-bed06531-5408-46a4-9d97-c297e664c0b3" x1="158.67" y1="200.5" x2="143.5" y2="174.23"/><line class="uuid-bed06531-5408-46a4-9d97-c297e664c0b3" x1="174.13" y1="190.09" x2="154.64" y2="166.86"/><line class="uuid-bed06531-5408-46a4-9d97-c297e664c0b3" x1="187.55" y1="177.15" x2="164.32" y2="157.66"/><line class="uuid-bed06531-5408-46a4-9d97-c297e664c0b3" x1="198.52" y1="162.08" x2="172.26" y2="146.92"/><line class="uuid-bed06531-5408-46a4-9d97-c297e664c0b3" x1="206.71" y1="145.34" x2="178.21" y2="134.97"/><line class="uuid-bed06531-5408-46a4-9d97-c297e664c0b3" x1="211.87" y1="127.43" x2="182" y2="122.16"/><line class="uuid-bed06531-5408-46a4-9d97-c297e664c0b3" x1="213.83" y1="108.89" x2="183.51" y2="108.89"/><line class="uuid-bed06531-5408-46a4-9d97-c297e664c0b3" x1="212.55" y1="90.29" x2="182.69" y2="95.56"/><line class="uuid-bed06531-5408-46a4-9d97-c297e664c0b3" x1="208.06" y1="72.2" x2="179.56" y2="82.58"/><line class="uuid-bed06531-5408-46a4-9d97-c297e664c0b3" x1="200.5" y1="55.17" x2="174.23" y2="70.33"/><line class="uuid-bed06531-5408-46a4-9d97-c297e664c0b3" x1="190.09" y1="39.7" x2="166.86" y2="59.2"/><line class="uuid-bed06531-5408-46a4-9d97-c297e664c0b3" x1="177.15" y1="26.28" x2="157.66" y2="49.51"/><line class="uuid-bed06531-5408-46a4-9d97-c297e664c0b3" x1="162.08" y1="15.31" x2="146.92" y2="41.57"/><line class="uuid-bed06531-5408-46a4-9d97-c297e664c0b3" x1="145.34" y1="7.12" x2="134.97" y2="35.62"/><line class="uuid-bed06531-5408-46a4-9d97-c297e664c0b3" x1="127.43" y1="1.97" x2="122.16" y2="31.83"/></svg>