<?xml version="1.0" encoding="utf-8"?>
<!-- Generator: Adobe Illustrator 24.0.1, SVG Export Plug-In . SVG Version: 6.00 Build 0)  -->
<svg version="1.1" id="uuid-3afc00fc-14f7-4c4b-a1c0-282ea96a4da7"
	 xmlns="http://www.w3.org/2000/svg" xmlns:xlink="http://www.w3.org/1999/xlink" x="0px" y="0px" viewBox="0 0 184.3 181.4"
	 style="enable-background:new 0 0 184.3 181.4;" xml:space="preserve">
<style type="text/css">
	.st0{fill:#00FFFF;}
</style>
<path class="st0" d="M116.6,161.7c3.9-12.6-3.1-25.9-15.7-29.8c-0.3-0.1-0.6-0.1-0.9-0.2l-0.3-24.1l-0.2-12.7l12.1,3.8l23.5,7.3
	c0.2,9.9,6.7,19.1,16.7,22.2c12.6,3.9,25.9-3.1,29.8-15.7s-3.1-25.9-15.6-29.8c-10-3.1-20.5,0.7-26.3,8.8l-23.5-7.3l-12.1-3.8
	l7.4-10.3l14.2-20c0.2,0.1,0.4,0.2,0.6,0.2c12.5,3.9,25.9-3.1,29.8-15.7S153,8.8,140.5,4.9C127.9,1,114.6,8,110.7,20.5
	c-2.2,7.2-0.9,14.6,3,20.4L99.1,61.4l-7.3,10.3l-7.6-10.2l-14.9-20c1.8-2.2,3.2-4.8,4.1-7.7C77.3,21.3,70.3,8,57.8,4.1
	S31.9,7.2,28,19.7s3.1,25.9,15.6,29.8c4.4,1.4,8.8,1.4,13,0.3L72,70.6l7.6,10.2l-12,4.1L43.4,93c-2.8-3.3-6.6-5.9-11-7.3
	c-12.5-3.9-25.9,3.1-29.8,15.7s3.1,25.9,15.6,29.8C30.8,135,44.1,128,48,115.5c0.9-2.8,1.2-5.6,1-8.4l23.4-7.9l12-4.1l0.2,12.7
	l0.3,24.8c-6.4,2.6-11.6,7.9-13.8,15c-3.9,12.6,3.1,25.9,15.7,29.8S112.7,174.3,116.6,161.7L116.6,161.7z"/>
</svg>
