<?xml version="1.0" encoding="utf-8"?>
<!-- Generator: Adobe Illustrator 24.0.1, SVG Export Plug-In . SVG Version: 6.00 Build 0)  -->
<svg version="1.1" id="uuid-7d379821-7e46-4ae5-876c-2fa78df71efe"
	 xmlns="http://www.w3.org/2000/svg" xmlns:xlink="http://www.w3.org/1999/xlink" x="0px" y="0px" viewBox="0 0 1468.5 1267"
	 style="enable-background:new 0 0 1468.5 1267;" xml:space="preserve">
<style type="text/css">
	.st0{fill:none;stroke:url(#SVGID_1_);stroke-width:2;stroke-miterlimit:10;}
	.st1{opacity:0.98;fill:none;stroke:url(#SVGID_2_);stroke-width:2;stroke-miterlimit:10;enable-background:new    ;}
	.st2{opacity:0.96;fill:none;stroke:url(#SVGID_3_);stroke-width:2;stroke-miterlimit:10;enable-background:new    ;}
	.st3{opacity:0.94;fill:none;stroke:url(#SVGID_4_);stroke-width:2;stroke-miterlimit:10;enable-background:new    ;}
	.st4{opacity:0.92;fill:none;stroke:url(#SVGID_5_);stroke-width:2;stroke-miterlimit:10;enable-background:new    ;}
	.st5{opacity:0.9;fill:none;stroke:url(#SVGID_6_);stroke-width:2;stroke-miterlimit:10;enable-background:new    ;}
	.st6{opacity:0.87;fill:none;stroke:url(#SVGID_7_);stroke-width:2;stroke-miterlimit:10;enable-background:new    ;}
	.st7{opacity:0.85;fill:none;stroke:url(#SVGID_8_);stroke-width:2;stroke-miterlimit:10;enable-background:new    ;}
	.st8{opacity:0.83;fill:none;stroke:url(#SVGID_9_);stroke-width:2;stroke-miterlimit:10;enable-background:new    ;}
	.st9{opacity:0.81;fill:none;stroke:url(#SVGID_10_);stroke-width:2;stroke-miterlimit:10;enable-background:new    ;}
	.st10{opacity:0.79;fill:none;stroke:url(#SVGID_11_);stroke-width:2;stroke-miterlimit:10;enable-background:new    ;}
	.st11{opacity:0.77;fill:none;stroke:url(#SVGID_12_);stroke-width:2;stroke-miterlimit:10;enable-background:new    ;}
	.st12{opacity:0.75;fill:none;stroke:url(#SVGID_13_);stroke-width:2;stroke-miterlimit:10;enable-background:new    ;}
	.st13{opacity:0.73;fill:none;stroke:url(#SVGID_14_);stroke-width:2;stroke-miterlimit:10;enable-background:new    ;}
	.st14{opacity:0.71;fill:none;stroke:url(#SVGID_15_);stroke-width:2;stroke-miterlimit:10;enable-background:new    ;}
	.st15{opacity:0.69;fill:none;stroke:url(#SVGID_16_);stroke-width:2;stroke-miterlimit:10;enable-background:new    ;}
	.st16{opacity:0.67;fill:none;stroke:url(#SVGID_17_);stroke-width:2;stroke-miterlimit:10;enable-background:new    ;}
	.st17{opacity:0.65;fill:none;stroke:url(#SVGID_18_);stroke-width:2;stroke-miterlimit:10;enable-background:new    ;}
	.st18{opacity:0.63;fill:none;stroke:url(#SVGID_19_);stroke-width:2;stroke-miterlimit:10;enable-background:new    ;}
	.st19{opacity:0.6;fill:none;stroke:url(#SVGID_20_);stroke-width:2;stroke-miterlimit:10;enable-background:new    ;}
	.st20{opacity:0.58;fill:none;stroke:url(#SVGID_21_);stroke-width:2;stroke-miterlimit:10;enable-background:new    ;}
	.st21{opacity:0.56;fill:none;stroke:url(#SVGID_22_);stroke-width:2;stroke-miterlimit:10;enable-background:new    ;}
	.st22{opacity:0.54;fill:none;stroke:url(#SVGID_23_);stroke-width:2;stroke-miterlimit:10;enable-background:new    ;}
	.st23{opacity:0.52;fill:none;stroke:url(#SVGID_24_);stroke-width:2;stroke-miterlimit:10;enable-background:new    ;}
	.st24{opacity:0.5;fill:none;stroke:url(#SVGID_25_);stroke-width:2;stroke-miterlimit:10;enable-background:new    ;}
	.st25{opacity:0.48;fill:none;stroke:url(#SVGID_26_);stroke-width:2;stroke-miterlimit:10;enable-background:new    ;}
	.st26{opacity:0.46;fill:none;stroke:url(#SVGID_27_);stroke-width:2;stroke-miterlimit:10;enable-background:new    ;}
	.st27{opacity:0.44;fill:none;stroke:url(#SVGID_28_);stroke-width:2;stroke-miterlimit:10;enable-background:new    ;}
	.st28{opacity:0.42;fill:none;stroke:url(#SVGID_29_);stroke-width:2;stroke-miterlimit:10;enable-background:new    ;}
	.st29{opacity:0.4;fill:none;stroke:url(#SVGID_30_);stroke-width:2;stroke-miterlimit:10;enable-background:new    ;}
	.st30{opacity:0.38;fill:none;stroke:url(#SVGID_31_);stroke-width:2;stroke-miterlimit:10;enable-background:new    ;}
	.st31{opacity:0.35;fill:none;stroke:url(#SVGID_32_);stroke-width:2;stroke-miterlimit:10;enable-background:new    ;}
	.st32{opacity:0.33;fill:none;stroke:url(#SVGID_33_);stroke-width:2;stroke-miterlimit:10;enable-background:new    ;}
	.st33{opacity:0.31;fill:none;stroke:url(#SVGID_34_);stroke-width:2;stroke-miterlimit:10;enable-background:new    ;}
	.st34{opacity:0.29;fill:none;stroke:url(#SVGID_35_);stroke-width:2;stroke-miterlimit:10;enable-background:new    ;}
	.st35{opacity:0.27;fill:none;stroke:url(#SVGID_36_);stroke-width:2;stroke-miterlimit:10;enable-background:new    ;}
	.st36{opacity:0.25;fill:none;stroke:url(#SVGID_37_);stroke-width:2;stroke-miterlimit:10;enable-background:new    ;}
</style>
<linearGradient id="SVGID_1_" gradientUnits="userSpaceOnUse" x1="-269.8513" y1="164.8047" x2="1141.582" y2="315.55" gradientTransform="matrix(0.9943 -0.1063 0.1063 0.9943 277.462 424.0918)">
	<stop  offset="0" style="stop-color:#0027F1;stop-opacity:0"/>
	<stop  offset="0" style="stop-color:#0026F0;stop-opacity:3.000000e-02"/>
	<stop  offset="6.000000e-02" style="stop-color:#001FF0;stop-opacity:0.26"/>
	<stop  offset="0.12" style="stop-color:#0019F0;stop-opacity:0.46"/>
	<stop  offset="0.17" style="stop-color:#0014EF;stop-opacity:0.62"/>
	<stop  offset="0.23" style="stop-color:#0010EF;stop-opacity:0.76"/>
	<stop  offset="0.29" style="stop-color:#000DEF;stop-opacity:0.87"/>
	<stop  offset="0.36" style="stop-color:#000BEF;stop-opacity:0.94"/>
	<stop  offset="0.42" style="stop-color:#000AEF;stop-opacity:0.99"/>
	<stop  offset="0.5" style="stop-color:#000AEF"/>
	<stop  offset="1" style="stop-color:#00A8FF"/>
</linearGradient>
<path class="st0" d="M1442.5,967c-3.7-26.6-11-53-21-77.8c-26.4-66-104.7-132.3-101.1-204c3.6-72.1,72.2-122.9,78.5-195.1
	c4.9-56.7-41.9-106-93.7-129.4c-51.8-23.4-109.9-29-163.7-47.3c-89.3-30.4-162.9-93.8-236.3-153.1C818.9,90.7,712.5,11.7,594.9,25.7
	C491.3,38,397,128,390.4,234.1c-3.3,53.1,12.5,105.5,20.8,158.1s8.4,110.5-22.1,154.4c-32.7,47-92.3,66.2-148.4,78.2
	s-115.6,21.4-160.3,57.1c-123.8,99-1.6,277,76,356.8c61.8,63.4,131.4,122.6,215.1,151.8c83.7,29.2,183.7,23.6,251.9-32.9
	c39.9-33,65.5-79.6,96.3-121.1c30.8-41.5,71.6-81,122.9-87.7c65.1-8.5,124.5,37.8,166.2,88.5c41.6,50.7,76.2,109.9,131.8,144.7
	c96.6,60.3,242,14.9,287.1-89.6C1444.9,1053,1448.3,1009.6,1442.5,967L1442.5,967z"/>
<linearGradient id="SVGID_2_" gradientUnits="userSpaceOnUse" x1="-264.8195" y1="340.1987" x2="1161.0143" y2="433.3668" gradientTransform="matrix(0.967 -7.559898e-02 7.239211e-02 0.9673 269.5789 276.9017)">
	<stop  offset="0" style="stop-color:#012BF1;stop-opacity:3.000000e-02"/>
	<stop  offset="5.000000e-02" style="stop-color:#0024F0;stop-opacity:0.22"/>
	<stop  offset="0.11" style="stop-color:#001DF0;stop-opacity:0.41"/>
	<stop  offset="0.17" style="stop-color:#0018EF;stop-opacity:0.59"/>
	<stop  offset="0.23" style="stop-color:#0013EF;stop-opacity:0.73"/>
	<stop  offset="0.29" style="stop-color:#000FEF;stop-opacity:0.83"/>
	<stop  offset="0.35" style="stop-color:#000DEF;stop-opacity:0.91"/>
	<stop  offset="0.42" style="stop-color:#000BEF;stop-opacity:0.96"/>
	<stop  offset="0.5" style="stop-color:#000BEF;stop-opacity:0.97"/>
	<stop  offset="0.71" style="stop-color:#004CF6;stop-opacity:0.97"/>
	<stop  offset="0.78" style="stop-color:#005DF7;stop-opacity:0.98"/>
	<stop  offset="0.92" style="stop-color:#008AFC;stop-opacity:0.99"/>
	<stop  offset="1" style="stop-color:#00A8FF"/>
</linearGradient>
<path class="st1" d="M394.4,241c-2.5,52.3,12.9,103.6,21.5,155.3c2.7,16.3,4.5,33,4.9,49.7c0.8,36.4-5.3,72.5-25.6,102.2
	c-31.8,46.4-89.7,65.8-144.5,78.2c-54.8,12.3-113.1,21.9-157.1,57.3C44.3,723,34,774.8,44.3,828c15.1,78.5,75.3,160,121,207.4
	c60.7,62.7,129.7,121.1,212.3,149.4c62.7,21.6,134.9,23.3,195.3-1.6c19.2-7.9,37.1-18.5,53.3-31.9c39-32.3,64.1-78.1,94.2-118.8
	c30.1-40.8,70-79.4,120.1-86.3c39.7-5.5,77.4,10,110.1,34.4c19.6,14.7,37.4,32.5,52.7,50.8c41.1,49.2,75.1,106.7,129.7,140.7
	c9.5,5.9,19.5,10.7,29.9,14.7c92.5,34.8,211.5-10,252-101.2c17-38.2,21-80.5,15.8-122.2c-3.3-26-10-51.8-19.5-76
	c-13.7-35.6-42.6-71.4-65.3-108.1c-18.6-30.1-33.1-60.8-31.5-92.7c3.6-71,71.2-121.1,75.5-192.2c1.1-18.1-4-35.2-11.8-51.5
	c-8.6-17.8-20.8-34.7-35.3-49c-14.2-14.1-31-26.3-49.2-34.8c-50.4-23.4-107.3-28.5-159.9-46.4c-87.3-29.7-159.2-91.6-231.1-149.3
	C818.1,95.7,714,18.8,599.2,32.4C495.6,44.8,399.3,134.8,394.4,241L394.4,241z"/>
<linearGradient id="SVGID_3_" gradientUnits="userSpaceOnUse" x1="-240.278" y1="522.0877" x2="1197.0721" y2="556.7393" gradientTransform="matrix(0.9489 -4.557922e-02 3.928575e-02 0.9492 256.8541 127.1632)">
	<stop  offset="0" style="stop-color:#022FF2;stop-opacity:6.000000e-02"/>
	<stop  offset="3.000000e-02" style="stop-color:#012AF1;stop-opacity:0.17"/>
	<stop  offset="9.000000e-02" style="stop-color:#0122F0;stop-opacity:0.37"/>
	<stop  offset="0.16" style="stop-color:#011CF0;stop-opacity:0.55"/>
	<stop  offset="0.22" style="stop-color:#0116EF;stop-opacity:0.69"/>
	<stop  offset="0.29" style="stop-color:#0112EF;stop-opacity:0.8"/>
	<stop  offset="0.35" style="stop-color:#010FEF;stop-opacity:0.88"/>
	<stop  offset="0.42" style="stop-color:#010DEF;stop-opacity:0.93"/>
	<stop  offset="0.5" style="stop-color:#010DEF;stop-opacity:0.94"/>
	<stop  offset="0.71" style="stop-color:#004AF6;stop-opacity:0.94"/>
	<stop  offset="0.78" style="stop-color:#005BF7;stop-opacity:0.95"/>
	<stop  offset="0.91" style="stop-color:#0087FB;stop-opacity:0.98"/>
	<stop  offset="1" style="stop-color:#01A9FF"/>
</linearGradient>
<path class="st2" d="M398.2,247.8c-1.8,51.4,13.4,101.6,22.2,152.5c2.7,16,4.7,32.5,5.2,48.9c1.1,35.8-4.9,71.4-24.5,100.5
	c-30.8,45.8-87.3,65.3-140.8,78.1c-53.4,12.7-110.7,22.6-154.1,57.3c-48.5,38.8-59.5,89.3-50,141.5
	c13.7,77.1,72.3,157.8,117.1,204.9c59.6,62.1,127.9,119.4,209.7,147.3c62.1,21.1,133.1,22.3,192.9-2.5c18.9-7.8,36.6-18.4,52.5-31.6
	c38.2-31.8,62.7-76.4,92.3-116.4c29.5-40,68.5-77.8,117.5-84.8c38.8-5.5,75.6,9.3,107.8,32.9c19.2,14.1,36.7,31.4,51.8,49.2
	c40.4,47.7,74,103.6,127.5,136.6c9.3,5.8,19,10.5,29.2,14.2c90.7,34,206.8-9.3,247.3-97.9c17-37.3,21.5-78.4,16.8-119
	c-2.9-25.3-9.2-50.5-17.9-74.4c-12.9-34.9-40.5-70-62.5-106.2c-17.9-29.6-31.8-60-30.3-91.2c3.6-69.9,70.3-119.4,72.5-189.2
	c0.5-18.5-5.9-35.5-14.2-52.2c-9.3-18.4-21.2-36-35.5-51.4c-14-15.1-30.3-28.5-49.2-37.5c-48.9-23.4-104.7-28.1-155.9-45.6
	c-85.2-29-155.5-89.3-225.7-145.5c-82.6-65.8-184.4-140.4-296.4-127C500,51.7,401.8,141.5,398.2,247.8L398.2,247.8z"/>
<linearGradient id="SVGID_4_" gradientUnits="userSpaceOnUse" x1="-201.7705" y1="708.554" x2="1244.0001" y2="683.9236" gradientTransform="matrix(0.9299 -1.541928e-02 6.005945e-03 0.93 244.6209 -22.2725)">
	<stop  offset="0" style="stop-color:#0233F2;stop-opacity:8.000000e-02"/>
	<stop  offset="1.000000e-02" style="stop-color:#0131F1;stop-opacity:0.12"/>
	<stop  offset="8.000000e-02" style="stop-color:#0128F1;stop-opacity:0.33"/>
	<stop  offset="0.15" style="stop-color:#0120F0;stop-opacity:0.51"/>
	<stop  offset="0.21" style="stop-color:#0119EF;stop-opacity:0.66"/>
	<stop  offset="0.28" style="stop-color:#0114EF;stop-opacity:0.77"/>
	<stop  offset="0.35" style="stop-color:#0110EF;stop-opacity:0.85"/>
	<stop  offset="0.42" style="stop-color:#010EEF;stop-opacity:0.9"/>
	<stop  offset="0.5" style="stop-color:#010EEF;stop-opacity:0.92"/>
	<stop  offset="0.71" style="stop-color:#0048F5;stop-opacity:0.92"/>
	<stop  offset="0.78" style="stop-color:#0058F6;stop-opacity:0.93"/>
	<stop  offset="0.9" style="stop-color:#0084FB;stop-opacity:0.97"/>
	<stop  offset="1" style="stop-color:#01AAFF"/>
</linearGradient>
<path class="st3" d="M402.1,254.8c-1.1,50.5,13.8,99.9,22.7,149.7c2.7,15.8,4.8,31.9,5.5,47.9c1.2,35.2-4.4,70.1-23.3,98.9
	c-29.7,45.2-84.8,64.9-137,78.1c-52.2,13-108.2,23.3-151,57.4C71.3,725,59.9,774.4,68.5,825.6c12.3,75.9,69.2,155.6,113.4,202.5
	c58.5,61.5,126.3,117.9,207,144.9c61.4,20.5,131.5,21.4,190.3-3.4c18.6-7.8,36-18.2,51.6-31.4c37.3-31.2,61.5-74.9,90.3-114.1
	c28.9-39.2,67-76.3,114.8-83.4c37.9-5.6,74,8.6,105.3,31.2c18.9,13.6,36,30.3,51,47.5c39.7,46.2,72.9,100.4,125.5,132.6
	c9.2,5.6,18.8,10.1,28.6,13.8c88.8,33,202.3-8.8,242.5-94.7c17-36.2,21.9-76.2,18.1-115.9c-2.5-24.8-8.4-49.3-16.6-72.7
	c-12.1-34.1-38.5-68.8-59.5-104.2c-17.1-29.2-30.5-59-29-89.9c3.4-68.8,69.2-117.8,69.4-186.2c0.1-18.9-7.8-35.8-16.7-52.9
	c-10-18.9-21.6-37.5-35.6-53.7c-13.7-16-29.7-30.7-49-40.1c-47.5-23.3-101.9-27.7-152-44.8c-83.1-28.5-151.8-87.1-220.5-141.5
	c-80.7-64-180-136.4-289.4-123.3C504.5,58.5,404.3,148.4,402.1,254.8L402.1,254.8z"/>
<linearGradient id="SVGID_5_" gradientUnits="userSpaceOnUse" x1="-155.5897" y1="905.2049" x2="1295.1466" y2="820.7026" gradientTransform="matrix(0.8999 1.492188e-02 -2.733025e-02 0.8997 237.8607 -168.2146)">
	<stop  offset="0" style="stop-color:#0336F3;stop-opacity:0.11"/>
	<stop  offset="6.000000e-02" style="stop-color:#022DF2;stop-opacity:0.29"/>
	<stop  offset="0.13" style="stop-color:#0224F1;stop-opacity:0.47"/>
	<stop  offset="0.2" style="stop-color:#011DF1;stop-opacity:0.62"/>
	<stop  offset="0.28" style="stop-color:#0117F0;stop-opacity:0.74"/>
	<stop  offset="0.35" style="stop-color:#0113F0;stop-opacity:0.82"/>
	<stop  offset="0.42" style="stop-color:#0110F0;stop-opacity:0.87"/>
	<stop  offset="0.5" style="stop-color:#0110F0;stop-opacity:0.89"/>
	<stop  offset="0.71" style="stop-color:#0047F5;stop-opacity:0.89"/>
	<stop  offset="0.77" style="stop-color:#0057F6;stop-opacity:0.91"/>
	<stop  offset="0.9" style="stop-color:#0182FA;stop-opacity:0.95"/>
	<stop  offset="1" style="stop-color:#02ABFF"/>
</linearGradient>
<path class="st4" d="M406,261.7c-0.3,49.6,14.4,97.9,23.4,146.8c2.9,15.3,4.9,31.2,5.6,47.1c1.5,34.5-3.8,68.9-22.2,97.4
	c-28.8,44.7-82.2,64.5-133.3,77.9c-51,13.3-105.7,23.8-147.9,57.4c-47,37.4-58.8,85.8-51.2,136c11.2,74.5,66,153.4,109.6,200
	c57.4,60.8,124.5,116.3,204.4,142.6c60.7,19.9,129.9,20.4,187.7-4.2c18.4-7.8,35.5-18.2,50.8-31.2c36.4-30.7,60.1-73.4,88.4-111.8
	c28.2-38.4,65.3-74.8,112.1-81.9c37-5.6,72.2,7.8,103,29.7c18.5,13,35.3,29.2,50,45.9c39,44.5,71.8,97.3,123.4,128.5
	c8.9,5.5,18.4,9.9,28.1,13.6c87,32.2,197.7-8.2,237.7-91.4c16.8-35.1,22.5-74,19.2-112.7c-2.1-24.2-7.4-48.2-15.1-71.1
	c-11.2-33.4-36.4-67.4-56.4-102.5c-16.4-28.8-29.3-58.1-27.7-88.5c3.4-67.7,67.9-116.3,66.4-183.1c-0.4-19.2-9.9-36.2-19.3-53.6
	c-10.7-19.5-22.1-39-35.8-56.2c-13.4-17-29-32.9-49-42.9c-46.2-23.1-99.4-27.1-148.2-44c-81.1-27.8-148.1-84.8-215.3-137.7
	C815.5,109.9,718.5,39.6,611.8,52.4C509.1,65.2,406.7,155,406,261.7L406,261.7z"/>
<linearGradient id="SVGID_6_" gradientUnits="userSpaceOnUse" x1="-84.5942" y1="1102.0814" x2="1367.4858" y2="957.3786" gradientTransform="matrix(0.8788 4.513535e-02 -6.062902e-02 0.878 226.662 -316.8049)">
	<stop  offset="0" style="stop-color:#043AF3;stop-opacity:0.14"/>
	<stop  offset="4.000000e-02" style="stop-color:#0334F2;stop-opacity:0.24"/>
	<stop  offset="0.12" style="stop-color:#0229F1;stop-opacity:0.43"/>
	<stop  offset="0.19" style="stop-color:#0220F1;stop-opacity:0.59"/>
	<stop  offset="0.27" style="stop-color:#0119F0;stop-opacity:0.71"/>
	<stop  offset="0.35" style="stop-color:#0114F0;stop-opacity:0.79"/>
	<stop  offset="0.42" style="stop-color:#0111F0;stop-opacity:0.84"/>
	<stop  offset="0.5" style="stop-color:#0111F0;stop-opacity:0.86"/>
	<stop  offset="0.71" style="stop-color:#0045F5;stop-opacity:0.86"/>
	<stop  offset="0.77" style="stop-color:#0055F6;stop-opacity:0.88"/>
	<stop  offset="0.89" style="stop-color:#017FFA;stop-opacity:0.94"/>
	<stop  offset="1" style="stop-color:#02ACFF"/>
</linearGradient>
<path class="st5" d="M409.9,268.7c0.4,48.6,14.8,96.2,24.1,144.1c2.9,15.1,5.1,30.7,5.9,46.3c1.6,34-3.3,67.7-21,95.8
	c-27.8,44-79.7,64.2-129.4,77.9c-49.7,13.7-103.3,24.5-144.8,57.5c-46.3,36.8-58.5,84-51.9,133.3c9.9,73.3,62.9,151.4,105.7,197.4
	c56.2,60.3,122.7,114.8,201.6,140.3c60,19.3,128.2,19.5,185.2-5.1c18.1-7.8,34.9-18.1,50.1-31c35.5-30.1,58.8-71.8,86.3-109.3
	c27.7-37.5,63.8-73.3,109.3-80.5c36-5.8,70.4,7.1,100.7,28.1c18.1,12.6,34.7,28.1,49,44.2c38.4,43,70.8,94.2,121.2,124.5
	c8.8,5.2,17.9,9.6,27.5,13.2c85.2,31.4,193-7.7,232.9-88.1c16.8-34,23-71.8,20.4-109.6c-1.6-23.6-6.4-47-13.6-69.3
	c-10.4-32.7-34.4-66.2-53.4-100.5c-15.6-28.2-27.9-57.1-26.4-87c3.4-66.4,66.6-114.7,63.4-180.1c-1-19.6-11.6-36.4-21.8-54.2
	c-11.2-20-22.5-40.4-35.9-58.5c-13.2-17.8-28.4-35.1-49-45.6c-44.8-22.9-96.7-26.7-144.4-43c-79-27.1-144.5-82.5-210-133.8
	c-77-60.3-171.6-128.2-275.6-115.7C513.4,72.1,409.1,161.8,409.9,268.7L409.9,268.7z"/>
<linearGradient id="SVGID_7_" gradientUnits="userSpaceOnUse" x1="4.7805" y1="1300.6852" x2="1454.2335" y2="1095.7407" gradientTransform="matrix(0.8567 7.555203e-02 -9.394557e-02 0.8551 215.9891 -465.2511)">
	<stop  offset="0" style="stop-color:#053EF3;stop-opacity:0.17"/>
	<stop  offset="1.000000e-02" style="stop-color:#043CF2;stop-opacity:0.2"/>
	<stop  offset="0.1" style="stop-color:#032FF1;stop-opacity:0.39"/>
	<stop  offset="0.18" style="stop-color:#0325F1;stop-opacity:0.55"/>
	<stop  offset="0.26" style="stop-color:#021DF0;stop-opacity:0.67"/>
	<stop  offset="0.34" style="stop-color:#0217F0;stop-opacity:0.76"/>
	<stop  offset="0.42" style="stop-color:#0214F0;stop-opacity:0.82"/>
	<stop  offset="0.5" style="stop-color:#0213F0;stop-opacity:0.83"/>
	<stop  offset="0.71" style="stop-color:#0043F5;stop-opacity:0.83"/>
	<stop  offset="0.77" style="stop-color:#0053F6;stop-opacity:0.86"/>
	<stop  offset="0.88" style="stop-color:#017DFA;stop-opacity:0.92"/>
	<stop  offset="1" style="stop-color:#02ADFF"/>
</linearGradient>
<path class="st6" d="M413.9,275.5c1.1,47.7,15.3,94.2,24.8,141.2c3,14.8,5.2,30.1,6,45.3c1.9,33.3-2.7,66.4-19.9,94.2
	c-26.8,43.4-77.1,63.8-125.7,77.9c-48.4,14-100.8,25.2-141.6,57.5C111.9,728,99.2,774,105,822.5c8.6,71.9,59.7,149.2,102.1,194.9
	c55.1,59.6,121.1,113.3,199,137.9c59.2,18.8,126.6,18.5,182.6-6c17.8-7.8,34.4-18.1,49.3-30.8c34.7-29.5,57.4-70.3,84.4-107
	c27-36.7,62.3-71.6,106.7-79c35.2-5.9,68.8,6.4,98.2,26.6c17.7,12.1,34,27,48.1,42.5c37.7,41.5,69.7,91.1,119.2,120.4
	c8.6,5.1,17.5,9.3,26.8,12.7c83.3,30.5,188.3-7,228.2-84.8c16.8-33,23.4-69.6,21.5-106.3c-1.2-23-5.6-45.9-12.2-67.7
	c-9.6-32.1-32.3-64.8-50.5-98.8c-14.9-27.8-26.7-56.2-25.2-85.6c3.4-65.3,65.1-113.1,60.4-177.3c-1.5-20-13.7-36.7-24.2-54.9
	c-11.9-20.5-22.9-41.9-36-61c-12.9-18.8-27.7-37.3-48.9-48.4c-43.4-22.6-94.1-26.2-140.5-42.2C1017,281.3,953,227.6,889,177.8
	C814,119.5,721.7,53.5,620.4,65.8C518,78.7,411.5,168.4,413.9,275.5L413.9,275.5z"/>
<linearGradient id="SVGID_8_" gradientUnits="userSpaceOnUse" x1="114.1561" y1="1502.0831" x2="1556.7242" y2="1237.1705" gradientTransform="matrix(0.8333 0.1057 -0.1268 0.8306 205.7728 -612.8866)">
	<stop  offset="0" style="stop-color:#0542F4;stop-opacity:0.19"/>
	<stop  offset="7.000000e-02" style="stop-color:#0436F2;stop-opacity:0.35"/>
	<stop  offset="0.16" style="stop-color:#032AF1;stop-opacity:0.51"/>
	<stop  offset="0.25" style="stop-color:#0220F1;stop-opacity:0.64"/>
	<stop  offset="0.34" style="stop-color:#0219F0;stop-opacity:0.73"/>
	<stop  offset="0.42" style="stop-color:#0215F0;stop-opacity:0.79"/>
	<stop  offset="0.5" style="stop-color:#0214F0;stop-opacity:0.81"/>
	<stop  offset="0.71" style="stop-color:#0041F5;stop-opacity:0.81"/>
	<stop  offset="0.77" style="stop-color:#0050F6;stop-opacity:0.83"/>
	<stop  offset="0.88" style="stop-color:#017AFA;stop-opacity:0.91"/>
	<stop  offset="1" style="stop-color:#03AEFF"/>
</linearGradient>
<path class="st7" d="M417.7,282.4c1.6,46.8,15.8,92.3,25.3,138.5c3,14.5,5.3,29.6,6.3,44.5c2.1,32.7-2.2,65.3-18.8,92.6
	c-25.8,42.7-74.7,63.4-121.9,77.8c-47.1,14.2-98.4,25.8-138.5,57.7c-44.8,35.6-57.9,80.4-53,127.9c7.4,70.7,56.6,147,98.2,192.5
	c54,58.9,119.3,111.6,196.4,135.6c58.5,18.2,124.9,17.5,180.1-6.8c17.5-7.8,33.8-17.9,48.5-30.5c33.8-28.9,56-68.8,82.3-104.7
	c26.3-35.9,60.7-70.1,104-77.7c34.2-5.9,67,5.6,95.9,24.9c17.4,11.5,33.3,25.9,47.1,40.8c37.1,40,68.6,87.9,117,116.4
	c8.5,4.9,17.3,9,26.3,12.3c81.5,29.7,183.7-6.4,223.4-81.5c16.8-31.9,24-67.4,22.6-103.1c-0.8-22.3-4.7-44.7-10.7-66
	c-8.8-31.4-30.3-63.6-47.5-96.8c-14.2-27.3-25.5-55.2-23.8-84.2c3.4-64.2,63.6-111.6,57.4-174.2c-2.1-20.5-15.6-37-26.7-55.6
	c-12.6-21-23.4-43.4-36.2-63.3c-12.6-19.7-27-39.5-48.9-51c-42.1-22.3-91.5-25.8-136.7-41.4c-74.8-25.9-137.1-77.9-199.6-126.2
	C813,124.7,723.2,60.9,624.5,72.9C522.3,85.5,413.7,175.1,417.7,282.4L417.7,282.4z"/>
<linearGradient id="SVGID_9_" gradientUnits="userSpaceOnUse" x1="247.6097" y1="1704.061" x2="1678.748" y2="1379.8782" gradientTransform="matrix(0.8087 0.1356 -0.1592 0.8048 196.046 -760.1224)">
	<stop  offset="0" style="stop-color:#0646F4;stop-opacity:0.22"/>
	<stop  offset="4.000000e-02" style="stop-color:#053EF3;stop-opacity:0.31"/>
	<stop  offset="0.14" style="stop-color:#0430F2;stop-opacity:0.47"/>
	<stop  offset="0.24" style="stop-color:#0324F1;stop-opacity:0.61"/>
	<stop  offset="0.33" style="stop-color:#021CF0;stop-opacity:0.7"/>
	<stop  offset="0.42" style="stop-color:#0217F0;stop-opacity:0.76"/>
	<stop  offset="0.5" style="stop-color:#0216F0;stop-opacity:0.78"/>
	<stop  offset="0.71" style="stop-color:#003FF4;stop-opacity:0.78"/>
	<stop  offset="0.77" style="stop-color:#004EF5;stop-opacity:0.81"/>
	<stop  offset="0.87" style="stop-color:#0178F9;stop-opacity:0.89"/>
	<stop  offset="1" style="stop-color:#03AFFF"/>
</linearGradient>
<path class="st8" d="M421.5,289.4c2.3,45.9,16.3,90.5,26,135.7c3,14.2,5.5,28.9,6.6,43.7c2.3,32.1-1.6,64.1-17.5,91.1
	c-24.8,42.2-72.2,63-118.1,77.8c-45.9,14.5-95.9,26.4-135.5,57.8c-44,34.9-57.7,78.5-53.7,125.2c6,69.3,53.4,144.9,94.4,190
	c52.9,58.4,117.7,110.1,193.7,133.4c57.8,17.7,123.1,16.6,177.5-7.7c17.3-7.7,33.3-17.8,47.7-30.3c32.9-28.4,54.7-67.1,80.4-102.3
	c25.8-35.2,59.2-68.5,101.2-76.2c33.3-6,65.2,4.9,93.6,23.3c17,11.1,32.6,24.8,46.3,39.2c36.4,38.5,67.5,84.8,114.9,112.3
	c8.2,4.8,16.8,8.8,25.8,12.1c79.6,28.9,179.2-5.9,218.6-78.2c16.8-30.8,24.4-65.2,23.8-100c-0.3-21.8-3.8-43.4-9.2-64.4
	c-7.9-30.7-28.2-62.3-44.5-94.9c-13.4-26.8-24.1-54.4-22.6-82.7c3.4-63.1,61.9-110.3,54.4-171.2c-2.6-21-17.5-37.3-29.3-56.3
	c-13.3-21.5-23.8-44.9-36.3-65.8c-12.2-20.7-26.3-41.6-48.8-53.7c-40.8-22.1-88.9-25.2-132.7-40.5
	c-72.7-25.2-133.4-75.6-194.4-122.3C812.3,129.8,724.9,68.1,629.1,79.9C526.7,92.4,416.2,181.8,421.5,289.4L421.5,289.4z"/>
<linearGradient id="SVGID_10_" gradientUnits="userSpaceOnUse" x1="403.9496" y1="1868.8993" x2="1818.8157" y2="1486.5988" gradientTransform="matrix(0.7926 0.1672 -0.1952 0.7969 183.2316 -913.9877)">
	<stop  offset="0" style="stop-color:#074AF5;stop-opacity:0.25"/>
	<stop  offset="0" style="stop-color:#0649F4;stop-opacity:0.26"/>
	<stop  offset="0.11" style="stop-color:#0537F3;stop-opacity:0.43"/>
	<stop  offset="0.22" style="stop-color:#0329F1;stop-opacity:0.57"/>
	<stop  offset="0.32" style="stop-color:#021FF0;stop-opacity:0.67"/>
	<stop  offset="0.41" style="stop-color:#0219F0;stop-opacity:0.73"/>
	<stop  offset="0.5" style="stop-color:#0217F0;stop-opacity:0.75"/>
	<stop  offset="0.71" style="stop-color:#003DF4;stop-opacity:0.75"/>
	<stop  offset="0.77" style="stop-color:#004CF5;stop-opacity:0.78"/>
	<stop  offset="0.87" style="stop-color:#0175F9;stop-opacity:0.87"/>
	<stop  offset="1" style="stop-color:#04AFFF"/>
</linearGradient>
<path class="st9" d="M425.5,296.2c2.9,44.9,16.8,88.6,26.7,132.9c3.2,14,5.6,28.4,6.7,42.7c2.5,31.4-1.2,62.9-16.4,89.4
	c-23.8,41.6-69.6,62.7-114.4,77.7c-44.5,14.9-93.4,27-132.3,57.8c-43.3,34.2-57.5,76.8-54.2,122.5c4.8,68.1,50.3,142.7,90.7,187.5
	c51.8,57.7,115.9,108.5,191.1,131.1c57.1,17.1,121.5,15.6,175.1-8.6c17-7.7,32.7-17.8,47-30.1c32.1-27.7,53.4-65.6,78.4-100
	c25.1-34.4,57.7-67,98.6-74.7c32.5-6,63.4,4.2,91.1,21.8c16.6,10.5,31.8,23.7,45.3,37.5c35.8,37,66.4,81.6,112.7,108.4
	c8.1,4.7,16.4,8.5,25.2,11.6c77.8,28.1,174.5-5.3,213.8-74.9c16.8-29.9,24.9-63,24.9-96.8c0.1-21.1-2.9-42.3-7.8-62.7
	c-7.1-30-26.2-61-41.6-93.1c-12.7-26.3-22.9-53.4-21.4-81.4c3.4-61.9,60.1-108.8,51.4-168.2c-3.2-21.4-19.5-37.5-31.8-57
	c-14-22.1-24.2-46.3-36.4-68.1c-11.9-21.5-25.8-43.7-48.8-56.4c-39.5-21.6-86.3-24.8-128.9-39.6c-70.7-24.5-129.7-73.4-189-118.4
	C811.5,134.2,726.3,74.7,633.2,86.2C531.2,99.1,418.5,188.3,425.5,296.2L425.5,296.2z"/>
<linearGradient id="SVGID_11_" gradientUnits="userSpaceOnUse" x1="581.6227" y1="2066.429" x2="1975.1598" y2="1627.6516" gradientTransform="matrix(0.7652 0.1963 -0.2267 0.7677 174.5742 -1059.574)">
	<stop  offset="0" style="stop-color:#084DF5;stop-opacity:0.28"/>
	<stop  offset="8.000000e-02" style="stop-color:#063EF3;stop-opacity:0.4"/>
	<stop  offset="0.2" style="stop-color:#052EF2;stop-opacity:0.54"/>
	<stop  offset="0.31" style="stop-color:#0321F0;stop-opacity:0.64"/>
	<stop  offset="0.41" style="stop-color:#031AF0;stop-opacity:0.7"/>
	<stop  offset="0.5" style="stop-color:#0318F0;stop-opacity:0.72"/>
	<stop  offset="0.71" style="stop-color:#003CF4;stop-opacity:0.72"/>
	<stop  offset="0.76" style="stop-color:#004BF5;stop-opacity:0.76"/>
	<stop  offset="0.87" style="stop-color:#0174F9;stop-opacity:0.86"/>
	<stop  offset="1" style="stop-color:#04B0FF"/>
</linearGradient>
<path class="st10" d="M429.3,303.2c3.6,44,17.3,86.7,27.4,130.1c3.2,13.7,5.8,27.8,7,41.9c2.7,30.8-0.7,61.6-15.2,87.8
	c-22.9,41-67.1,62.3-110.5,77.7c-43.4,15.3-91,27.7-129.3,57.9c-42.6,33.6-57.3,74.9-54.9,119.7c3.4,66.7,47.3,140.5,86.8,185.1
	c50.7,57,114.1,107,188.3,128.8c56.3,16.6,119.9,14.7,172.5-9.5c16.7-7.7,32.2-17.7,46.2-29.9c31.2-27.1,52.1-64.1,76.4-97.5
	c24.4-33.6,56.2-65.5,95.9-73.3c31.5-6.2,61.8,3.4,88.8,20.1c16.2,10,31.2,22.6,44.4,35.9c35.1,35.5,65.3,78.5,110.7,104.2
	c7.9,4.5,16.2,8.2,24.5,11.2c76,27.1,170-4.8,209-71.6c16.8-28.8,25.5-60.8,26.2-93.6c0.5-20.5-2.1-41.1-6.3-61
	c-6.3-29.3-24.1-59.7-38.6-91.2c-11.9-25.9-21.6-52.5-20.1-80c3.4-60.8,58.2-107.3,48.4-165.2c-3.7-21.9-21.4-37.8-34.2-57.7
	c-14.5-22.6-24.7-47.8-36.4-70.5c-11.6-22.5-25.1-45.9-48.8-59c-38.2-21.4-83.7-24.4-125.1-38.8c-68.5-24-126-71.1-183.8-114.5
	c-67.8-51-150.5-108.2-241-97C535.6,105.9,420.7,195,429.3,303.2L429.3,303.2z"/>
<linearGradient id="SVGID_12_" gradientUnits="userSpaceOnUse" x1="789.4265" y1="2233.696" x2="2156.3545" y2="1740.6354" gradientTransform="matrix(0.746 0.2277 -0.2604 0.7465 162.5919 -1209.0015)">
	<stop  offset="0" style="stop-color:#0851F5;stop-opacity:0.31"/>
	<stop  offset="4.000000e-02" style="stop-color:#0749F4;stop-opacity:0.36"/>
	<stop  offset="0.17" style="stop-color:#0535F2;stop-opacity:0.5"/>
	<stop  offset="0.29" style="stop-color:#0426F1;stop-opacity:0.61"/>
	<stop  offset="0.41" style="stop-color:#031DF1;stop-opacity:0.67"/>
	<stop  offset="0.5" style="stop-color:#031AF1;stop-opacity:0.69"/>
	<stop  offset="0.71" style="stop-color:#003AF4;stop-opacity:0.69"/>
	<stop  offset="0.76" style="stop-color:#0049F5;stop-opacity:0.73"/>
	<stop  offset="0.86" style="stop-color:#0171F9;stop-opacity:0.84"/>
	<stop  offset="1" style="stop-color:#04B1FF"/>
</linearGradient>
<path class="st11" d="M433.3,310c4.1,43,17.8,84.8,27.9,127.3c3.3,13.4,5.8,27.3,7.1,41.1c2.9,30.1-0.1,60.5-14.1,86.3
	c-21.9,40.4-64.5,61.9-106.8,77.5s-88.5,28.2-126.2,57.9c-41.8,33-57,73.1-55.5,117c2.1,65.5,44.1,138.4,83,182.6
	c49.6,56.4,112.5,105.5,185.7,126.4c55.6,16,118.2,13.7,169.9-10.4c16.4-7.7,31.6-17.5,45.3-29.6c30.4-26.6,50.7-62.6,74.4-95.2
	c23.8-32.7,54.5-64,93.1-71.8c30.5-6.3,60,2.7,86.4,18.6c15.8,9.5,30.4,21.5,43.4,34.2c34.4,34,64.2,75.3,108.5,100.3
	c7.7,4.4,15.8,7.9,24,11c74.1,26.3,165.3-4.1,204.2-68.2c16.8-27.8,25.9-58.6,27.3-90.4c1-19.9-1.1-39.9-4.8-59.3
	c-5.5-28.6-22.1-58.5-35.6-89.4c-11.2-25.3-20.3-51.5-18.8-78.5c3.3-59.7,56.3-105.7,45.3-162.3c-4.2-22.3-23.3-38.1-36.7-58.4
	c-15.2-23-25.1-49.3-36.6-72.9c-11.4-23.4-24.4-48.1-48.6-61.8c-36.8-20.8-81.1-23.8-121.2-37.9c-66.4-23.3-122.5-68.8-178.6-110.7
	c-65.9-49.2-146.3-104.2-234-93.3C540.2,112.8,422.9,201.7,433.3,310L433.3,310z"/>
<linearGradient id="SVGID_13_" gradientUnits="userSpaceOnUse" x1="1019.6384" y1="2389.7854" x2="2354.5908" y2="1845.2072" gradientTransform="matrix(0.7252 0.2588 -0.2936 0.7234 151.2592 -1357.6462)">
	<stop  offset="0" style="stop-color:#0955F6;stop-opacity:0.33"/>
	<stop  offset="0.13" style="stop-color:#063DF3;stop-opacity:0.47"/>
	<stop  offset="0.27" style="stop-color:#042AF2;stop-opacity:0.58"/>
	<stop  offset="0.4" style="stop-color:#031FF1;stop-opacity:0.64"/>
	<stop  offset="0.5" style="stop-color:#031BF1;stop-opacity:0.67"/>
	<stop  offset="0.71" style="stop-color:#0038F4;stop-opacity:0.67"/>
	<stop  offset="0.76" style="stop-color:#0047F5;stop-opacity:0.71"/>
	<stop  offset="0.86" style="stop-color:#026FF9;stop-opacity:0.82"/>
	<stop  offset="1" style="stop-color:#04B0FE"/>
	<stop  offset="1" style="stop-color:#05B2FF"/>
</linearGradient>
<path class="st12" d="M437.1,317c4.7,42.1,18.2,83,28.6,124.5c3.3,13.2,5.9,26.6,7.4,40.1c3.2,29.6,0.4,59.3-12.9,84.7
	c-20.8,39.7-62.1,61.5-103,77.5c-40.8,15.9-86,28.9-123,58.1c-41.1,32.3-56.7,71.4-56.2,114.2c0.8,64.1,41,136.2,79.3,180.1
	c48.5,55.8,110.7,103.8,183,124.2c54.9,15.5,116.6,12.7,167.4-11.2c16.2-7.7,31.1-17.5,44.5-29.5c29.5-26,49.3-61,72.5-92.9
	c23.1-31.9,53-62.3,90.4-70.4c29.7-6.3,58.2,2.1,84,17c15.5,9,29.7,20.5,42.5,32.6c33.8,32.5,63.1,72.2,106.4,96.2
	c7.5,4.2,15.3,7.7,23.4,10.5c72.3,25.5,160.8-3.6,199.6-64.9c16.8-26.7,26.4-56.4,28.4-87.3c1.4-19.3-0.3-38.8-3.4-57.7
	c-4.7-27.9-20-57.1-32.7-87.5c-10.4-24.9-19-50.7-17.5-77.1c3.3-58.6,54.2-104.4,42.3-159.3c-4.9-22.9-25.2-38.4-39.3-59.2
	c-15.9-23.6-25.5-50.7-36.7-75.2c-11.1-24.4-23.7-50.1-48.6-64.5c-35.6-20.4-78.5-23.4-117.4-37.1
	c-64.4-22.7-118.8-66.6-173.3-106.8c-64-47.3-141.9-100.1-227-89.4C544.5,119.5,425.2,208.1,437.1,317L437.1,317z"/>
<linearGradient id="SVGID_14_" gradientUnits="userSpaceOnUse" x1="1258.2527" y1="2511.5378" x2="2555.8479" y2="1918.8258" gradientTransform="matrix(0.7028 0.2894 -0.3294 0.7079 141.5469 -1508.5319)">
	<stop  offset="0" style="stop-color:#0A59F6;stop-opacity:0.36"/>
	<stop  offset="8.000000e-02" style="stop-color:#084AF4;stop-opacity:0.43"/>
	<stop  offset="0.24" style="stop-color:#0531F2;stop-opacity:0.54"/>
	<stop  offset="0.39" style="stop-color:#0322F1;stop-opacity:0.61"/>
	<stop  offset="0.5" style="stop-color:#031DF1;stop-opacity:0.64"/>
	<stop  offset="0.71" style="stop-color:#0036F3;stop-opacity:0.64"/>
	<stop  offset="0.76" style="stop-color:#0045F4;stop-opacity:0.68"/>
	<stop  offset="0.86" style="stop-color:#026DF8;stop-opacity:0.8"/>
	<stop  offset="0.99" style="stop-color:#04ADFE;stop-opacity:0.99"/>
	<stop  offset="1" style="stop-color:#05B3FF"/>
</linearGradient>
<path class="st13" d="M441,323.9c5.2,41.1,18.8,81.1,29.3,121.6c3.4,12.9,6,26,7.5,39.3c3.3,28.9,1,58.1-11.8,83.1
	c-19.9,39.2-59.5,61.1-99.3,77.4c-39.5,16.2-83.6,29.6-120,58.1c-40.3,31.6-56.4,69.6-56.8,111.5c-0.5,62.9,37.8,134,75.5,177.7
	c47.4,55.1,109,102.3,180.4,121.9c54.2,14.8,114.8,11.8,164.8-12.1c15.9-7.5,30.5-17.4,43.8-29.2c28.6-25.3,47.9-59.5,70.4-90.5
	c22.5-31.1,51.4-60.8,87.7-68.9c28.8-6.4,56.4,1.2,81.6,15.5c15.1,8.5,29,19.3,41.5,31c33.1,30.8,62.1,69,104.4,92.2
	c7.4,4.1,14.9,7.4,22.9,10.1c70.4,24.7,156.2-3,194.8-61.6c16.8-25.6,26.8-54.2,29.6-84.1c1.6-18.6,0.7-37.5-1.9-55.9
	c-3.8-27.3-17.9-55.9-29.7-85.6c-9.7-24.4-17.8-49.7-16.3-75.8c3.3-57.5,52.1-102.9,39.5-156.3c-5.6-23.3-27.3-38.8-41.8-59.9
	c-16.6-24.1-25.9-52.2-36.8-77.7c-10.7-25.3-23-52.3-48.6-67.3c-34.4-20-75.9-22.9-113.6-36.3c-62.3-22.1-115.1-64.2-168.1-103
	C808,153.9,732.3,103.1,650,113.5C548.9,126.3,427.4,214.8,441,323.9L441,323.9z"/>
<linearGradient id="SVGID_15_" gradientUnits="userSpaceOnUse" x1="1528.0405" y1="2638.3813" x2="2783.0496" y2="2001.4781" gradientTransform="matrix(0.6786 0.3193 -0.3608 0.6812 131.2393 -1655.4017)">
	<stop  offset="0" style="stop-color:#0B5DF6;stop-opacity:0.39"/>
	<stop  offset="0" style="stop-color:#0A5CF5;stop-opacity:0.39"/>
	<stop  offset="0.2" style="stop-color:#073AF3;stop-opacity:0.51"/>
	<stop  offset="0.37" style="stop-color:#0425F1;stop-opacity:0.58"/>
	<stop  offset="0.5" style="stop-color:#041EF1;stop-opacity:0.61"/>
	<stop  offset="0.71" style="stop-color:#0034F3;stop-opacity:0.61"/>
	<stop  offset="0.76" style="stop-color:#0043F4;stop-opacity:0.66"/>
	<stop  offset="0.85" style="stop-color:#026BF8;stop-opacity:0.78"/>
	<stop  offset="0.98" style="stop-color:#04ABFE;stop-opacity:0.97"/>
	<stop  offset="1" style="stop-color:#05B4FF"/>
</linearGradient>
<path class="st14" d="M445,330.7c5.6,40.1,19.2,79.2,30,118.9c3.4,12.5,6.2,25.5,7.8,38.5c3.6,28.4,1.4,56.8-10.5,81.5
	c-18.9,38.6-57,60.7-95.5,77.4s-81.1,30.1-116.8,58.2c-39.6,31.1-56.2,67.8-57.4,108.8c-1.8,61.6,34.8,131.8,71.6,175.2
	c46.3,54.4,107.3,100.7,177.8,119.6c53.4,14.2,113.1,10.8,162.3-13c15.6-7.5,30-17.4,43-29c27.8-24.8,46.6-57.9,68.5-88.2
	c21.9-30.3,49.9-59.2,85.1-67.5c27.8-6.6,54.8,0.5,79.3,13.8c14.7,7.9,28.4,18.2,40.7,29.3c32.5,29.3,61,65.9,102.2,88.2
	c7.1,3.8,14.7,7.1,22.2,9.7c68.6,23.8,151.6-2.5,190-58.4c16.8-24.7,27.3-52.1,30.7-80.8c2.1-18.1,1.5-36.4-0.4-54.2
	c-3-26.6-15.8-54.5-26.7-83.8c-9-24-16.4-48.8-14.9-74.2c3.3-56.3,49.9-101.4,36.4-153.3c-6.2-23.8-29.2-39-44.2-60.5
	c-17.3-24.7-26.3-53.7-37-80c-10.4-26.2-22.3-54.5-48.5-69.9c-33.1-19.6-73.3-22.5-109.6-35.3c-60.3-21.4-111.4-62.1-162.9-99.2
	c-60.4-43.6-133.7-92.1-213.3-82.1C553.4,133.1,429.6,221.4,445,330.7L445,330.7z"/>
<linearGradient id="SVGID_16_" gradientUnits="userSpaceOnUse" x1="1800.7001" y1="2727.8757" x2="3007.9087" y2="2051.4036" gradientTransform="matrix(0.653 0.3482 -0.3954 0.6618 122.7282 -1804.1766)">
	<stop  offset="0" style="stop-color:#0B61F7;stop-opacity:0.42"/>
	<stop  offset="0.12" style="stop-color:#0849F4;stop-opacity:0.48"/>
	<stop  offset="0.34" style="stop-color:#052BF2;stop-opacity:0.56"/>
	<stop  offset="0.5" style="stop-color:#0420F1;stop-opacity:0.58"/>
	<stop  offset="0.71" style="stop-color:#0032F3;stop-opacity:0.58"/>
	<stop  offset="0.76" style="stop-color:#0041F4;stop-opacity:0.63"/>
	<stop  offset="0.85" style="stop-color:#0269F8;stop-opacity:0.76"/>
	<stop  offset="0.98" style="stop-color:#05A9FD;stop-opacity:0.96"/>
	<stop  offset="1" style="stop-color:#06B5FF"/>
</linearGradient>
<path class="st15" d="M448.8,337.7c6.2,39.2,19.7,77.4,30.5,116.2c3.4,12.2,6.3,24.8,8.1,37.5c3.8,27.7,1.9,55.6-9.5,80
	c-17.9,37.9-54.4,60.3-91.8,77.3c-37,16.8-78.6,30.8-113.7,58.2c-38.8,30.4-55.9,66-58.1,106c-3.2,60.3,31.6,129.6,67.8,172.7
	c45.2,53.7,105.6,99.2,175.1,117.3c52.7,13.7,111.5,9.9,159.7-13.8c15.3-7.5,29.5-17.3,42.2-28.8c26.8-24.2,45.3-56.4,66.4-85.9
	c21.2-29.5,48.4-57.7,82.3-66c26.8-6.6,53-0.1,76.8,12.3c14.4,7.5,27.7,17.1,39.7,27.7c31.8,27.8,60,62.7,100.1,84.1
	c7,3.7,14.2,6.8,21.6,9.5c66.8,23,147.1-1.9,185.2-55.1c16.8-23.6,27.8-49.9,31.8-77.7c2.5-17.4,2.5-35.2,1-52.6
	c-2.2-25.9-13.7-53.3-23.7-81.9c-8.2-23.6-15.2-47.8-13.7-72.9c3.3-55.2,47.7-100,33.4-150.3c-6.8-24.4-31.1-39.3-46.7-61.2
	c-17.9-25.2-26.8-55.1-37.1-82.5c-10.1-27.1-21.6-56.6-48.5-72.6c-31.9-19-70.7-22.1-105.7-34.5C964,280,914.4,241,864.5,205.4
	c-58.6-41.8-129.4-88.1-206.3-78.2C558,139.9,431.7,227.8,448.8,337.7L448.8,337.7z"/>
<linearGradient id="SVGID_17_" gradientUnits="userSpaceOnUse" x1="2096.123" y1="2778.9829" x2="3251.4924" y2="2067.5884" gradientTransform="matrix(0.6344 0.381 -0.4295 0.6403 110.5757 -1954.2183)">
	<stop  offset="0" style="stop-color:#0C64F7;stop-opacity:0.44"/>
	<stop  offset="0" style="stop-color:#0B62F6;stop-opacity:0.45"/>
	<stop  offset="0.29" style="stop-color:#0632F2;stop-opacity:0.53"/>
	<stop  offset="0.5" style="stop-color:#0421F1;stop-opacity:0.56"/>
	<stop  offset="0.71" style="stop-color:#0031F3;stop-opacity:0.56"/>
	<stop  offset="0.76" style="stop-color:#0040F4;stop-opacity:0.61"/>
	<stop  offset="0.85" style="stop-color:#0268F7;stop-opacity:0.74"/>
	<stop  offset="0.97" style="stop-color:#05A8FD;stop-opacity:0.95"/>
	<stop  offset="1" style="stop-color:#06B6FF"/>
</linearGradient>
<path class="st16" d="M452.8,344.6c6.6,38.2,20.3,75.5,31.2,113.3c3.6,11.9,6.4,24.2,8.2,36.7c4,27.1,2.5,54.5-8.2,78.4
	c-16.8,37.4-51.9,60-87.9,77.3c-35.8,17.1-76.2,31.5-110.7,58.4c-38.1,29.7-55.6,64.4-58.6,103.4c-4.4,59,28.5,127.4,64.1,170.3
	c44.1,53.1,103.8,97.7,172.5,114.9c52.1,13.2,109.9,8.9,157.3-14.8c15.1-7.5,28.9-17.1,41.4-28.5c26-23.6,44-54.8,64.5-83.4
	c20.5-28.8,46.8-56.2,79.6-64.7c26-6.7,51.2-1,74.5,10.7c14,7,27,16.2,38.8,26c31.2,26.2,58.9,59.6,97.9,80.1
	c6.8,3.6,13.8,6.6,21.1,9c64.9,22.2,142.6-1.4,180.4-51.8c16.8-22.6,28.4-47.7,33-74.5c2.9-16.8,3.3-34,2.5-51
	c-1.4-25.2-11.6-51.9-20.8-80.1c-7.5-23-14-46.8-12.5-71.5c3.3-54.1,45.3-98.5,30.4-147.3c-7.5-24.8-33-39.6-49.2-61.9
	c-18.6-25.6-27.3-56.6-37.3-84.8c-9.9-28.1-21.1-58.8-48.4-75.3c-30.7-18.6-68.1-21.5-101.9-33.7c-56-20.1-104.1-57.4-152.3-91.4
	c-56.7-39.9-125.2-84-199.4-74.5C562.3,146.6,433.7,234.4,452.8,344.6L452.8,344.6z"/>
<linearGradient id="SVGID_18_" gradientUnits="userSpaceOnUse" x1="2389.7017" y1="2833.0862" x2="3488.9575" y2="2092.2083" gradientTransform="matrix(0.6056 0.4076 -0.4621 0.6172 102.9778 -2100.6101)">
	<stop  offset="0" style="stop-color:#0D68F8;stop-opacity:0.47"/>
	<stop  offset="4.000000e-02" style="stop-color:#0B5FF7;stop-opacity:0.48"/>
	<stop  offset="0.31" style="stop-color:#0633F2;stop-opacity:0.51"/>
	<stop  offset="0.5" style="stop-color:#0423F1;stop-opacity:0.53"/>
	<stop  offset="0.71" style="stop-color:#002FF3;stop-opacity:0.53"/>
	<stop  offset="0.76" style="stop-color:#003EF4;stop-opacity:0.58"/>
	<stop  offset="0.85" style="stop-color:#0266F7;stop-opacity:0.72"/>
	<stop  offset="0.97" style="stop-color:#06A5FD;stop-opacity:0.94"/>
	<stop  offset="1" style="stop-color:#07B6FF"/>
</linearGradient>
<path class="st17" d="M456.6,351.4c7,37.3,20.7,73.6,31.9,110.5c3.6,11.6,6.6,23.7,8.5,35.8c4.1,26.4,3,53.3-7.1,76.8
	c-15.9,36.8-49.3,59.6-84.2,77.1c-34.4,17.4-73.7,32.1-107.5,58.5c-37.3,29.2-55.5,62.6-59.2,100.7c-5.8,57.7,25.3,125.2,60.3,167.8
	c43,52.5,102.1,96,169.7,112.6c51.4,12.6,108.2,7.9,154.7-15.6c14.8-7.5,28.4-17.1,40.7-28.4c25.2-23,42.6-53.3,62.6-81.1
	c20-27.9,45.2-54.5,77-63.1c25.1-6.7,49.6-1.6,72.2,9.2c13.6,6.4,26.3,15.1,37.8,24.4c30.5,24.7,57.8,56.4,95.9,76
	c6.6,3.4,13.4,6.3,20.5,8.6c63.1,21.2,138.1-0.8,175.6-48.5c17-21.5,28.8-45.5,34.1-71.4c3.3-16.2,4.2-32.9,4-49.3
	c-0.5-24.7-9.6-50.7-17.8-78.2c-6.7-22.6-12.6-46-11.1-70c3.3-53,42.9-97,27.4-144.4c-8.4-25.3-34.9-39.9-51.8-62.6
	c-19.3-26.2-27.7-58.1-37.4-87.1c-9.6-29-20.4-60.8-48.4-78.1c-29.5-18.1-65.3-21.1-98.1-32.9c-54-19.5-100.4-55.2-147.1-87.5
	c-54.9-38.1-121-80-192.5-70.7C566.9,153.5,435.8,241,456.6,351.4L456.6,351.4z"/>
<linearGradient id="SVGID_19_" gradientUnits="userSpaceOnUse" x1="2698.877" y1="2841.8831" x2="3738.7" y2="2077.031" gradientTransform="matrix(0.5838 0.4383 -0.4934 0.5924 91.4501 -2248.4622)">
	<stop  offset="0" style="stop-color:#0D6CF8;stop-opacity:0.5"/>
	<stop  offset="8.000000e-02" style="stop-color:#0B5CF6;stop-opacity:0.5"/>
	<stop  offset="0.33" style="stop-color:#0533F3;stop-opacity:0.5"/>
	<stop  offset="0.5" style="stop-color:#0424F2;stop-opacity:0.5"/>
	<stop  offset="0.71" style="stop-color:#002DF3;stop-opacity:0.5"/>
	<stop  offset="0.76" style="stop-color:#003CF4;stop-opacity:0.56"/>
	<stop  offset="0.84" style="stop-color:#0264F7;stop-opacity:0.7"/>
	<stop  offset="0.97" style="stop-color:#06A4FD;stop-opacity:0.93"/>
	<stop  offset="1" style="stop-color:#07B7FF"/>
</linearGradient>
<path class="st18" d="M460.6,358.4c7.5,36.3,21.2,71.8,32.6,107.7c3.7,11.4,6.7,23.1,8.8,34.9c4.4,25.8,3.6,52.1-6,75.2
	c-14.9,36.2-46.8,59.2-80.4,77.1c-33.1,17.8-71.2,32.7-104.4,58.5c-36.6,28.5-55.2,60.8-59.9,97.9c-7.1,56.4,22.3,123,56.4,165.3
	c41.9,51.8,100.4,94.5,167.1,110.4c50.7,12.1,106.6,7,152-16.4c14.5-7.5,27.8-17,39.9-28.1c24.4-22.5,41.2-51.8,60.5-78.8
	c19.3-27.1,43.7-53,74.2-61.8c24.1-6.8,47.8-2.5,69.7,7.5c13.2,5.9,25.6,14,36.8,22.6c29.9,23.1,56.7,53.3,93.7,72.1
	c6.4,3.3,13.2,6,19.9,8.4c61.2,20.4,133.6-0.3,170.8-45.2c17-20.5,29.3-43.3,35.3-68.2c3.7-15.6,5.2-31.6,5.3-47.5
	c0.3-24-7.5-49.5-14.8-76.4c-6-22.1-11.4-45.1-9.9-68.6c3.3-51.9,40.5-95.5,24.4-141.4c-9-25.8-37-40.1-54.2-63.3
	c-19.9-26.7-28.1-59.6-37.5-89.6c-9.3-30-19.7-63-48.4-80.7c-28.2-17.5-62.7-20.5-94.2-32.1c-51.9-18.8-96.7-52.9-141.9-83.7
	c-53-36.2-116.8-75.9-185.6-67C571.2,160.3,437.8,247.6,460.6,358.4L460.6,358.4z"/>
<linearGradient id="SVGID_20_" gradientUnits="userSpaceOnUse" x1="2990.0854" y1="2814.3181" x2="3967.9148" y2="2031.0802" gradientTransform="matrix(0.5603 0.468 -0.5298 0.5738 82.5189 -2397.8779)">
	<stop  offset="0" style="stop-color:#0E70F8;stop-opacity:0.53"/>
	<stop  offset="0.1" style="stop-color:#0B5BF6;stop-opacity:0.51"/>
	<stop  offset="0.34" style="stop-color:#0633F3;stop-opacity:0.48"/>
	<stop  offset="0.5" style="stop-color:#0525F2;stop-opacity:0.47"/>
	<stop  offset="0.71" style="stop-color:#012BF2;stop-opacity:0.47"/>
	<stop  offset="0.76" style="stop-color:#013AF3;stop-opacity:0.53"/>
	<stop  offset="0.84" style="stop-color:#0362F7;stop-opacity:0.68"/>
	<stop  offset="0.96" style="stop-color:#06A2FD;stop-opacity:0.92"/>
	<stop  offset="1" style="stop-color:#07B8FF"/>
</linearGradient>
<path class="st19" d="M464.4,365.2c7.8,35.3,21.6,69.9,33.1,104.9c3.7,11.1,6.8,22.5,8.9,34.1c4.5,25.2,4.1,50.8-4.8,73.7
	c-14,35.6-44.4,58.8-76.6,77c-31.9,18.1-68.8,33.3-101.4,58.6c-35.9,27.8-54.9,59-60.4,95.2c-8.4,55.2,19.2,120.8,52.7,162.9
	c40.8,51.1,98.6,93,164.4,108.1c49.9,11.5,104.8,6,149.6-17.4c14.2-7.5,27.3-16.8,39-27.8c23.4-21.8,39.9-50.1,58.6-76.4
	c18.8-26.3,42.2-51.5,71.5-60.3c23.3-6.8,46-3.2,67.4,5.9c12.7,5.5,24.9,12.9,36,21c29.2,21.6,55.6,50.1,91.6,67.9
	c6.3,3.2,12.7,5.8,19.3,7.9c59.5,19.6,129.2,0.4,166.2-41.9c17-19.5,29.7-41.1,36.4-64.9c4.1-15.1,6-30.5,6.8-45.9
	c1.1-23.3-5.5-48.1-11.9-74.5c-5.2-21.6-10-44.1-8.6-67.3c3.2-50.7,37.9-94,21.4-138.4c-9.9-26.2-38.9-40.4-56.7-64
	c-20.7-27.1-28.5-61-37.5-91.9c-9-30.8-19-65.1-48.2-83.4c-27-17-60.1-20.1-90.4-31.1c-49.9-18.2-93-50.7-136.6-79.9
	c-51.2-34.2-112.6-71.8-178.6-63.1C575.8,167.2,439.7,254.3,464.4,365.2L464.4,365.2z"/>
<linearGradient id="SVGID_21_" gradientUnits="userSpaceOnUse" x1="3278.4526" y1="2734.7612" x2="4192.5869" y2="1938.6737" gradientTransform="matrix(0.5428 0.503 -0.5652 0.5533 70.1877 -2549.3308)">
	<stop  offset="0" style="stop-color:#0F74F9;stop-opacity:0.56"/>
	<stop  offset="0.12" style="stop-color:#0B5BF6;stop-opacity:0.52"/>
	<stop  offset="0.35" style="stop-color:#0635F3;stop-opacity:0.46"/>
	<stop  offset="0.5" style="stop-color:#0527F2;stop-opacity:0.44"/>
	<stop  offset="0.71" style="stop-color:#0129F2;stop-opacity:0.44"/>
	<stop  offset="0.75" style="stop-color:#0138F3;stop-opacity:0.5"/>
	<stop  offset="0.84" style="stop-color:#0360F7;stop-opacity:0.66"/>
	<stop  offset="0.96" style="stop-color:#06A0FC;stop-opacity:0.91"/>
	<stop  offset="1" style="stop-color:#08B9FF"/>
</linearGradient>
<path class="st20" d="M468.2,372.2c8.2,34.4,22.2,67.9,33.8,102.1c3.7,10.8,7,21.9,9.2,33.1c4.8,24.5,4.5,49.7-3.7,72.1
	c-13,34.9-41.8,58.4-72.9,77c-30.7,18.4-66.3,34-98.2,58.6c-35.1,27.1-54.7,57.3-61.1,92.5c-9.7,53.8,16,118.6,48.9,160.4
	c39.7,50.4,97,91.4,161.8,105.7c49.2,11,103.1,5.1,147-18.2c14-7.4,26.7-16.8,38.4-27.7c22.6-21.2,38.6-48.6,56.6-74.1
	c18.1-25.5,40.5-50,68.8-58.9c22.3-7,44.2-3.8,65.1,4.4c12.5,4.9,24.2,11.8,35.1,19.3c28.5,20.1,54.5,47,89.4,64
	c6,3,12.3,5.5,18.8,7.5c57.7,18.8,124.7,1,161.4-38.6c17.1-18.5,30.3-38.9,37.5-61.8c4.5-14.4,7-29.3,8.4-44.2
	c1.9-22.6-3.4-46.8-8.9-72.6c-4.5-21.1-8.8-43.1-7.3-65.8c3.2-49.6,35.5-92.3,18.4-135.3c-10.7-26.7-40.8-40.7-59.2-64.7
	c-21.4-27.7-28.9-62.5-37.7-94.4c-8.6-31.8-18.5-67.1-48.2-86.2c-25.8-16.4-57.5-19.6-86.4-30.3c-47.8-17.5-89.3-48.4-131.4-76
	c-49.3-32.5-108.4-67.8-171.8-59.5C580.2,173.9,441.5,260.7,468.2,372.2L468.2,372.2z"/>
<linearGradient id="SVGID_22_" gradientUnits="userSpaceOnUse" x1="3558.8872" y1="2674.1921" x2="4408.457" y2="1870.5503" gradientTransform="matrix(0.5165 0.53 -0.5991 0.5315 61.8023 -2696.3496)">
	<stop  offset="0" style="stop-color:#1077F9;stop-opacity:0.58"/>
	<stop  offset="0.14" style="stop-color:#0C5AF6;stop-opacity:0.52"/>
	<stop  offset="0.36" style="stop-color:#0635F3;stop-opacity:0.45"/>
	<stop  offset="0.5" style="stop-color:#0528F2;stop-opacity:0.42"/>
	<stop  offset="0.71" style="stop-color:#0128F2;stop-opacity:0.42"/>
	<stop  offset="0.75" style="stop-color:#0137F3;stop-opacity:0.48"/>
	<stop  offset="0.84" style="stop-color:#035FF6;stop-opacity:0.64"/>
	<stop  offset="0.95" style="stop-color:#069FFC;stop-opacity:0.89"/>
	<stop  offset="1" style="stop-color:#08BAFF"/>
</linearGradient>
<path class="st21" d="M472.2,379.1c8.6,33.4,22.6,66.2,34.5,99.3c3.8,10.5,7.1,21.4,9.3,32.3c5.1,24,5.1,48.5-2.5,70.4
	c-11.9,34.4-39.3,57.9-69,76.8c-29.3,18.6-63.8,34.5-95.2,58.8c-34.4,26.6-54.5,55.5-61.6,89.7c-11.1,52.6,12.9,116.4,45.1,157.9
	c38.6,49.7,95.2,89.9,159.2,103.4c48.5,10.3,101.5,4.1,144.5-19.2c13.7-7.4,26.2-16.7,37.5-27.4c21.8-20.5,37.3-47.1,54.7-71.6
	c17.4-24.7,39-48.4,66.2-57.4c21.4-7.1,42.6-4.5,62.7,2.7c12.1,4.4,23.6,10.7,34.1,17.7c27.9,18.6,53.4,43.8,87.4,59.9
	c5.9,2.7,12.1,5.2,18.2,7.1c55.8,17.9,120.3,1.5,156.6-35.3c17.1-17.4,30.8-36.7,38.8-58.6c5.1-13.7,7.9-28.2,9.7-42.6
	c2.9-21.9-1.4-45.5-5.9-70.8c-3.8-20.7-7.5-42.2-6-64.4c3.2-48.5,32.9-90.8,15.3-132.3c-11.5-27.1-42.7-41-61.8-65.3
	c-21.9-28.2-29.3-64-37.8-96.7c-8.4-32.7-17.8-69.3-48.2-88.9c-24.7-15.9-54.9-19.2-82.6-29.5c-45.6-16.8-85.8-46-126.2-72.2
	c-47.5-30.5-104.1-63.7-164.8-55.8C584.7,180.7,443.4,267.3,472.2,379.1L472.2,379.1z"/>
<linearGradient id="SVGID_23_" gradientUnits="userSpaceOnUse" x1="3824.9204" y1="2563.3623" x2="4609.7319" y2="1757.2778" gradientTransform="matrix(0.4959 0.5627 -0.6318 0.5082 50.1966 -2845.6711)">
	<stop  offset="0" style="stop-color:#107BFA;stop-opacity:0.61"/>
	<stop  offset="0.15" style="stop-color:#0B5CF6;stop-opacity:0.53"/>
	<stop  offset="0.37" style="stop-color:#0637F3;stop-opacity:0.43"/>
	<stop  offset="0.5" style="stop-color:#052AF2;stop-opacity:0.39"/>
	<stop  offset="0.71" style="stop-color:#0126F2;stop-opacity:0.39"/>
	<stop  offset="0.75" style="stop-color:#0135F3;stop-opacity:0.45"/>
	<stop  offset="0.84" style="stop-color:#035DF6;stop-opacity:0.62"/>
	<stop  offset="0.95" style="stop-color:#079DFC;stop-opacity:0.88"/>
	<stop  offset="1" style="stop-color:#09BBFF"/>
</linearGradient>
<path class="st22" d="M476,386.1c8.9,32.6,23.1,64.2,35.2,96.6c3.8,10.3,7.1,20.8,9.6,31.5c5.2,23.3,5.6,47.3-1.4,68.9
	c-11,33.8-36.7,57.5-65.3,76.8c-28.1,18.9-61.4,35.2-92.1,58.8c-33.6,25.9-54.2,53.7-62.3,87c-12.5,51.4,9.9,114.2,41.4,155.5
	c37.5,49,93.4,88.2,156.4,101.1c47.8,9.7,99.9,3.2,141.9-20c13.4-7.4,25.6-16.6,36.7-27.3c21-20,35.9-45.5,52.6-69.3
	c16.7-23.8,37.5-46.8,63.4-56c20.5-7.1,40.8-5.3,60.3,1.2c11.6,3.8,22.9,9.6,33.1,16c27.3,17.1,52.3,40.7,85.2,55.9
	c5.8,2.6,11.6,4.9,17.5,6.8c54,17.1,115.9,2.1,151.8-32.1c17.3-16.4,31.2-34.5,39.9-55.5c5.3-13.2,8.8-27,11.2-40.8
	c3.7-21.2,0.7-44.2-3-68.9c-3-20.1-6.3-41.4-4.8-63c3.2-47.4,30.3-89.2,12.3-129.4c-12.3-27.5-44.8-41.2-64.2-66
	c-22.6-28.8-29.7-65.3-37.9-99.2c-8.1-33.7-17.3-71.4-48.1-91.5c-23.4-15.3-52.3-18.8-78.8-28.6c-43.6-16.3-82.1-43.8-121-68.4
	c-45.8-28.8-100-59.6-157.8-51.9C589.1,187.6,445.1,274,476,386.1L476,386.1z"/>
<linearGradient id="SVGID_24_" gradientUnits="userSpaceOnUse" x1="4074.6338" y1="2440.2061" x2="4795.3057" y2="1636.347" gradientTransform="matrix(0.4739 0.5941 -0.6629 0.484 38.7 -2994.1814)">
	<stop  offset="0" style="stop-color:#117FFA;stop-opacity:0.64"/>
	<stop  offset="0.19" style="stop-color:#0B58F6;stop-opacity:0.51"/>
	<stop  offset="0.38" style="stop-color:#0737F3;stop-opacity:0.4"/>
	<stop  offset="0.5" style="stop-color:#062BF2;stop-opacity:0.36"/>
	<stop  offset="0.71" style="stop-color:#0124F2;stop-opacity:0.36"/>
	<stop  offset="0.75" style="stop-color:#0133F3;stop-opacity:0.43"/>
	<stop  offset="0.83" style="stop-color:#035BF6;stop-opacity:0.6"/>
	<stop  offset="0.95" style="stop-color:#079CFC;stop-opacity:0.87"/>
	<stop  offset="1" style="stop-color:#09BCFF"/>
</linearGradient>
<path class="st23" d="M480,392.9c9.3,31.6,23.6,62.3,35.9,93.7c3.8,10,7.3,20.1,9.9,30.5c5.5,22.7,6.2,46-0.1,67.3
	c-10,33.1-34.2,57.1-61.5,76.7c-26.8,19.3-58.9,35.9-88.9,58.9c-32.9,25.3-54,51.9-63,84.2c-13.8,50,6.7,112.1,37.5,153
	c36.4,48.4,91.8,86.7,153.8,98.9c47,9.2,98.2,2.2,139.4-20.8c13.2-7.4,25.1-16.6,35.9-27c20.1-19.5,34.5-44,50.7-67
	c16.2-23,35.9-45.2,60.7-54.5c19.6-7.3,39-6,57.9-0.4c11.2,3.4,22.2,8.5,32.2,14.4c26.6,15.5,51.2,37.5,83.1,51.8
	c5.5,2.5,11.2,4.7,17,6.4c52.1,16.2,111.5,2.7,147-28.8c17.4-15.3,31.8-32.3,41-52.3c5.8-12.6,9.7-25.9,12.6-39.2
	c4.5-20.5,2.7-42.9,0-67.1c-2.3-19.7-4.9-40.4-3.6-61.5c3.2-46.2,27.7-87.5,9.3-126.4c-13.3-27.9-46.7-41.5-66.7-66.8
	c-23.3-29.2-30.3-66.8-38.1-101.5c-7.8-34.5-16.6-73.4-48.1-94.2c-22.2-14.7-49.7-18.2-74.9-27.7c-41.5-15.6-78.4-41.5-115.6-64.4
	c-43.8-26.8-95.8-55.6-151-48.2C593.6,194.3,446.9,280.6,480,392.9L480,392.9z"/>
<linearGradient id="SVGID_25_" gradientUnits="userSpaceOnUse" x1="4307.5688" y1="2308.4929" x2="4965.9556" y2="1510.3616" gradientTransform="matrix(0.4507 0.6243 -0.6925 0.4588 27.3674 -3141.6125)">
	<stop  offset="0" style="stop-color:#1283FA;stop-opacity:0.67"/>
	<stop  offset="0.21" style="stop-color:#0B57F5;stop-opacity:0.5"/>
	<stop  offset="0.39" style="stop-color:#0738F3;stop-opacity:0.38"/>
	<stop  offset="0.5" style="stop-color:#062DF2;stop-opacity:0.33"/>
	<stop  offset="0.71" style="stop-color:#0122F1;stop-opacity:0.33"/>
	<stop  offset="0.75" style="stop-color:#0131F2;stop-opacity:0.4"/>
	<stop  offset="0.83" style="stop-color:#035AF6;stop-opacity:0.57"/>
	<stop  offset="0.94" style="stop-color:#079AFB;stop-opacity:0.85"/>
	<stop  offset="1" style="stop-color:#09BDFF"/>
</linearGradient>
<path class="st24" d="M483.9,399.8c9.6,30.7,24.1,60.5,36.4,91c4,9.6,7.4,19.6,10,29.7c5.6,22.1,6.7,44.8,1,65.8
	c-9,32.6-31.8,56.7-57.8,76.7c-25.6,19.6-56.4,36.4-85.9,59c-32.2,24.7-53.8,50.1-63.6,81.5c-15.1,48.8,3.6,109.9,33.7,150.5
	c35.3,47.8,90,85.2,151.1,96.6c46.3,8.6,96.4,1.2,136.8-21.8c12.9-7.4,24.5-16.4,35.2-26.7c19.2-18.8,33.1-42.5,48.6-64.7
	c15.5-22.3,34.4-43.7,57.9-53.1c18.6-7.4,37.3-6.8,55.5-1.9c11,2.9,21.5,7.4,31.2,12.7c25.9,14,50.1,34.4,81.1,47.8
	c5.3,2.3,10.8,4.4,16.4,6c50.3,15.3,107.1,3.3,142.2-25.3c17.4-14.2,32.2-30.1,42.2-49c6.3-11.9,10.7-24.7,14.1-37.5
	c5.3-20,4.8-41.6,3-65.2c-1.5-19.2-3.7-39.5-2.2-60.1c3.2-45.1,25.1-85.9,6.3-123.4c-14.1-28.4-48.6-41.8-69.2-67.5
	c-24-29.7-30.7-68.4-38.2-104c-7.5-35.5-16-75.5-48.1-97c-21.1-14.1-47.1-17.8-71.1-26.8c-39.5-14.9-74.7-39.2-110.4-60.5
	c-42.1-25.1-91.5-51.5-144-44.4C598,201.1,448.5,287.3,483.9,399.8L483.9,399.8z"/>
<linearGradient id="SVGID_26_" gradientUnits="userSpaceOnUse" x1="4514.0625" y1="2163.1772" x2="5110.9956" y2="1375.6482" gradientTransform="matrix(0.4268 0.6529 -0.7286 0.4389 18.5023 -3290.0483)">
	<stop  offset="0" style="stop-color:#1387FB;stop-opacity:0.69"/>
	<stop  offset="0.23" style="stop-color:#0C57F6;stop-opacity:0.49"/>
	<stop  offset="0.4" style="stop-color:#0739F3;stop-opacity:0.35"/>
	<stop  offset="0.5" style="stop-color:#062EF2;stop-opacity:0.31"/>
	<stop  offset="0.71" style="stop-color:#0120F1;stop-opacity:0.31"/>
	<stop  offset="0.75" style="stop-color:#012FF2;stop-opacity:0.37"/>
	<stop  offset="0.83" style="stop-color:#0457F5;stop-opacity:0.55"/>
	<stop  offset="0.94" style="stop-color:#0797FB;stop-opacity:0.84"/>
	<stop  offset="1" style="stop-color:#0ABDFF"/>
</linearGradient>
<path class="st25" d="M487.7,406.7c10,29.7,24.7,58.6,37.1,88.1c4,9.3,7.5,19,10.3,28.9c5.9,21.4,7.3,43.7,2.1,64.1
	c-7.9,32.1-29.2,56.3-54,76.6c-24.2,19.9-54,37.1-82.7,59c-31.2,24-53.4,48.4-64.1,78.9c-16.4,47.4,0.5,107.7,30,148.1
	c34.4,47.1,88.4,83.6,148.5,94.2c45.6,8.1,94.8,0.3,134.2-22.6c12.6-7.3,24-16.3,34.4-26.6c18.4-18.2,31.8-41,46.7-62.3
	c14.9-21.5,32.9-42.2,55.3-51.6c17.7-7.4,35.6-7.5,53.1-3.6c10.5,2.3,20.8,6.3,30.4,11.1c25.2,12.5,49,31.2,78.9,43.7
	c5.2,2.2,10.5,4.1,15.9,5.8c48.5,14.5,102.9,4,137.5-22.1c17.5-13.3,32.7-27.9,43.3-45.9c6.7-11.4,11.6-23.6,15.6-35.9
	c6.3-19.3,6.8-40.4,5.9-63.3c-0.8-18.8-2.5-38.5-1-58.8c3.2-44,22.3-84.2,3.3-120.4c-15.1-28.6-50.5-42.2-71.6-68.2
	c-24.7-30.3-31.1-69.7-38.4-106.3c-7.1-36.4-15.3-77.4-47.9-99.6c-19.9-13.6-44.5-17.3-67.3-26c-37.4-14.4-71-37-105.2-56.7
	C798,212.2,750.8,188,701,194.7C602.5,208,450.2,293.9,487.7,406.7L487.7,406.7z"/>
<linearGradient id="SVGID_27_" gradientUnits="userSpaceOnUse" x1="4706.9194" y1="2016.533" x2="5245.1172" y2="1242.2896" gradientTransform="matrix(0.402 0.6801 -0.7636 0.4179 9.6598 -3437.4546)">
	<stop  offset="0" style="stop-color:#138BFB;stop-opacity:0.72"/>
	<stop  offset="1.000000e-02" style="stop-color:#1288FA;stop-opacity:0.71"/>
	<stop  offset="0.24" style="stop-color:#0B58F6;stop-opacity:0.48"/>
	<stop  offset="0.41" style="stop-color:#073BF3;stop-opacity:0.33"/>
	<stop  offset="0.5" style="stop-color:#0630F3;stop-opacity:0.28"/>
	<stop  offset="0.71" style="stop-color:#011EF1;stop-opacity:0.28"/>
	<stop  offset="0.75" style="stop-color:#012DF2;stop-opacity:0.35"/>
	<stop  offset="0.83" style="stop-color:#0454F5;stop-opacity:0.53"/>
	<stop  offset="0.93" style="stop-color:#0793FB;stop-opacity:0.81"/>
	<stop  offset="1" style="stop-color:#0ABEFF"/>
</linearGradient>
<path class="st26" d="M491.7,413.6c10.3,28.9,25.1,56.7,37.8,85.3c4.1,9,7.7,18.5,10.4,27.9c6,20.8,7.8,42.5,3.3,62.6
	c-7,31.4-26.7,55.9-50.3,76.6c-23,20.1-51.5,37.8-79.6,59.2c-30.7,23.3-53.4,46.6-64.8,76.2c-17.8,46.2-2.6,105.5,26.2,145.5
	c33.3,46.4,86.6,82.1,145.7,91.9c44.9,7.5,93.1-0.7,131.8-23.6c12.3-7.3,23.6-16.3,33.6-26.3c17.5-17.5,30.5-39.3,44.7-60
	c14.2-20.7,31.2-40.7,52.6-50.3c16.8-7.5,33.8-8.2,50.8-5.2c10.1,1.9,20.1,5.2,29.5,9.5c24.5,11,48.1,28.1,76.8,39.7
	c5.1,2.1,10.1,3.8,15.3,5.3c46.6,13.7,98.6,4.7,132.7-18.8c17.7-12.2,33.3-25.8,44.4-42.7c7.1-10.7,12.5-22.3,17-34.1
	c7.1-18.6,8.9-39,8.9-61.5c0-18.4-1.1-37.7,0.3-57.3c3.2-42.9,19.7-82.6,0.3-117.4c-16.2-29-52.5-42.5-74.2-68.9
	c-25.3-30.8-31.5-71.2-38.5-108.6c-6.8-37.4-14.8-79.4-47.9-102.3c-18.8-12.9-41.9-16.8-63.3-25.2c-35.2-13.7-67.4-34.7-99.9-52.9
	c-38.4-21.4-83-43.3-130.1-36.8C606.9,214.8,451.5,300.6,491.7,413.6L491.7,413.6z"/>
<linearGradient id="SVGID_28_" gradientUnits="userSpaceOnUse" x1="4857.5815" y1="1830.8529" x2="5340.0029" y2="1072.0654" gradientTransform="matrix(0.3815 0.7145 -0.7976 0.3957 -1.608 -3588.0173)">
	<stop  offset="0" style="stop-color:#148EFB;stop-opacity:0.75"/>
	<stop  offset="2.000000e-02" style="stop-color:#138AFA;stop-opacity:0.73"/>
	<stop  offset="0.24" style="stop-color:#0C5AF6;stop-opacity:0.47"/>
	<stop  offset="0.41" style="stop-color:#083CF3;stop-opacity:0.31"/>
	<stop  offset="0.5" style="stop-color:#0731F3;stop-opacity:0.25"/>
	<stop  offset="0.71" style="stop-color:#011DF1;stop-opacity:0.25"/>
	<stop  offset="0.75" style="stop-color:#012BF2;stop-opacity:0.32"/>
	<stop  offset="0.82" style="stop-color:#0452F5;stop-opacity:0.5"/>
	<stop  offset="0.93" style="stop-color:#0890FA;stop-opacity:0.78"/>
	<stop  offset="1" style="stop-color:#0BBFFF"/>
</linearGradient>
<path class="st27" d="M495.5,420.6c10.5,27.9,25.6,54.9,38.5,82.5c4.1,8.8,7.8,17.8,10.7,27.1c6.3,20.1,8.2,41.2,4.4,61
	c-6,30.8-24.1,55.5-46.4,76.6c-21.8,20.4-49,38.4-76.6,59.2c-29.9,22.7-53.1,44.8-65.5,73.4c-19.2,44.8-5.6,103.3,22.3,143.1
	c32.2,45.8,84.8,80.5,143.1,89.6c44.1,7,91.5-1.6,129.2-24.4c12.1-7.3,23-16.2,32.7-26.2c16.7-17,29.2-37.8,42.7-57.5
	c13.6-19.9,29.7-39,49.9-48.8c15.9-7.5,32.1-9,48.5-6.7c9.9,1.4,19.5,4.1,28.5,7.8c24,9.5,47,24.9,74.7,35.6
	c4.8,1.9,9.7,3.6,14.7,4.9c44.8,12.9,94.4,5.3,127.9-15.5c17.8-11.1,33.7-23.6,45.6-39.6c7.5-10.1,13.4-21.2,18.5-32.5
	c8.1-17.9,11-37.8,11.9-59.6c0.7-17.8,0.1-36.7,1.6-55.9c3-41.8,17-80.8-2.6-114.4c-17.1-29.3-54.5-42.7-76.7-69.6
	c-26-31.2-31.9-72.7-38.6-111.1c-6.6-38.4-14.2-81.5-47.9-105.1c-17.5-12.3-39.3-16.3-59.5-24.4c-33.1-13-63.7-32.5-94.7-49
	c-36.6-19.5-78.9-39.2-123.3-33.1C611.4,221.5,453,307.4,495.5,420.6L495.5,420.6z"/>
<linearGradient id="SVGID_29_" gradientUnits="userSpaceOnUse" x1="5023.8662" y1="1686.403" x2="5453.5596" y2="944.8307" gradientTransform="matrix(0.3557 0.7388 -0.8303 0.3732 -10.6357 -3733.4968)">
	<stop  offset="0" style="stop-color:#1592FC;stop-opacity:0.78"/>
	<stop  offset="1.000000e-02" style="stop-color:#148EFB;stop-opacity:0.76"/>
	<stop  offset="0.25" style="stop-color:#0D5DF7;stop-opacity:0.47"/>
	<stop  offset="0.41" style="stop-color:#083DF4;stop-opacity:0.29"/>
	<stop  offset="0.5" style="stop-color:#0732F3;stop-opacity:0.22"/>
	<stop  offset="0.71" style="stop-color:#011BF1;stop-opacity:0.22"/>
	<stop  offset="0.75" style="stop-color:#0129F2;stop-opacity:0.29"/>
	<stop  offset="0.82" style="stop-color:#044FF5;stop-opacity:0.47"/>
	<stop  offset="0.92" style="stop-color:#078CFA;stop-opacity:0.76"/>
	<stop  offset="1" style="stop-color:#0BC0FF"/>
</linearGradient>
<path class="st28" d="M499.5,427.4c10.8,27.1,26,53,39,79.7c4.1,8.5,7.9,17.3,11,26.3c6.4,19.6,8.8,40,5.6,59.3
	c-5.1,30.1-21.6,55.1-42.7,76.4c-20.5,20.7-46.6,39-73.4,59.3c-29.2,22.1-52.9,43-66,70.7c-20.5,43.6-8.8,101.1,18.5,140.7
	c31.1,45.1,83.1,78.9,140.4,87.4c43.4,6.4,89.9-2.6,126.7-25.2c11.8-7.3,22.5-16,32.1-25.9c15.9-16.3,27.8-36.3,40.7-55.2
	c13-19,28.2-37.5,47.3-47.3c14.9-7.7,30.3-9.7,46-8.4c9.5,0.8,18.8,3,27.5,6.2c23.3,7.9,45.9,21.8,72.6,31.6
	c4.7,1.6,9.3,3.3,14.1,4.5c42.9,12.1,90.1,6.2,123.1-12.2c17.9-10,34.2-21.4,46.7-36.3c7.9-9.5,14.4-20,20-30.8
	c8.9-17.3,13-36.6,14.8-57.8c1.4-17.4,1.5-35.8,2.9-54.5c3-40.5,14.2-79.2-5.8-111.5c-18.2-29.6-56.4-43-79.2-70.3
	c-26.7-31.8-32.3-74.1-38.6-113.4c-6.3-39.2-13.7-83.4-47.8-107.7c-16.4-11.6-36.7-15.9-55.6-23.4c-31.1-12.5-60-30.1-89.4-45.2
	c-34.7-17.7-74.7-35.2-116.3-29.3C615.8,228.5,454.4,314.1,499.5,427.4L499.5,427.4z"/>
<linearGradient id="SVGID_30_" gradientUnits="userSpaceOnUse" x1="5141.6392" y1="1507.2731" x2="5521.543" y2="784.6768" gradientTransform="matrix(0.3339 0.7708 -0.8618 0.3503 -22.0418 -3882.697)">
	<stop  offset="0" style="stop-color:#1696FC;stop-opacity:0.81"/>
	<stop  offset="0.24" style="stop-color:#0E61F7;stop-opacity:0.48"/>
	<stop  offset="0.41" style="stop-color:#0840F4;stop-opacity:0.27"/>
	<stop  offset="0.5" style="stop-color:#0734F3;stop-opacity:0.19"/>
	<stop  offset="0.71" style="stop-color:#0119F0;stop-opacity:0.19"/>
	<stop  offset="0.75" style="stop-color:#0127F1;stop-opacity:0.26"/>
	<stop  offset="0.82" style="stop-color:#044CF4;stop-opacity:0.44"/>
	<stop  offset="0.92" style="stop-color:#0788F9;stop-opacity:0.73"/>
	<stop  offset="1" style="stop-color:#0BC1FF"/>
</linearGradient>
<path class="st29" d="M503.3,434.4c11,26.2,26.6,51.1,39.7,76.8c4.2,8.2,8.1,16.7,11.1,25.3c6.7,18.9,9.3,38.9,6.7,57.8
	c-4.1,29.6-19.2,54.7-38.9,76.4c-19.2,21.1-44.1,39.6-70.3,59.3c-28.4,21.5-52.7,41.2-66.7,67.9c-22.1,42.2-11.9,98.9,14.8,138.1
	c30.1,44.4,81.4,77.4,137.8,85.1c42.7,5.9,88.1-3.6,124.1-26.2c11.5-7.3,21.9-15.9,31.2-25.6c15.1-15.8,26.4-34.7,38.8-52.9
	c12.3-18.2,26.7-35.9,44.5-45.9c14.1-7.8,28.6-10.4,43.7-9.9c9,0.3,18.1,2.1,26.6,4.4c22.6,6.4,44.8,18.6,70.4,27.7
	c4.4,1.5,9,3,13.6,4.2c41.1,11.2,85.9,6.8,118.4-8.9c18.1-8.9,34.8-19.2,47.9-33.1c8.4-8.9,15.3-18.8,21.5-29.2
	c9.9-16.6,15.2-35.2,17.8-55.9c2.2-16.8,2.7-34.8,4.1-53c3-39.5,11.5-77.4-8.6-108.5c-19.3-29.7-58.4-43.3-81.6-71
	c-27.3-32.3-32.7-75.6-38.8-115.9c-6-40.1-13.2-85.3-47.8-110.4c-15.2-11.1-34-15.5-51.8-22.6c-29-11.8-56.3-27.8-84.2-41.2
	c-32.9-15.8-70.4-31.1-109.3-25.6C620.3,235.4,455.6,321.1,503.3,434.4L503.3,434.4z"/>
<linearGradient id="SVGID_31_" gradientUnits="userSpaceOnUse" x1="5244.7446" y1="1334.9893" x2="5578.1035" y2="632.1299" gradientTransform="matrix(0.3114 0.8016 -0.8922 0.3269 -33.4892 -4031.0371)">
	<stop  offset="0" style="stop-color:#169AFD;stop-opacity:0.83"/>
	<stop  offset="0.23" style="stop-color:#0E67F7;stop-opacity:0.5"/>
	<stop  offset="0.41" style="stop-color:#0943F4;stop-opacity:0.26"/>
	<stop  offset="0.5" style="stop-color:#0735F3;stop-opacity:0.17"/>
	<stop  offset="0.71" style="stop-color:#0117F0;stop-opacity:0.17"/>
	<stop  offset="0.75" style="stop-color:#0125F1;stop-opacity:0.24"/>
	<stop  offset="0.81" style="stop-color:#044AF4;stop-opacity:0.42"/>
	<stop  offset="0.91" style="stop-color:#0885F9;stop-opacity:0.7"/>
	<stop  offset="1" style="stop-color:#0CC2FF"/>
</linearGradient>
<path class="st30" d="M507.1,441.3c11.2,25.3,27,49.3,40.4,74.1c4.2,7.9,8.2,16,11.4,24.5c6.8,18.4,9.9,37.7,7.9,56.2
	c-3,29-16.6,54.2-35.2,76.3s-41.6,40.3-67.3,59.5c-27.7,20.8-52.5,39.5-67.3,65.2c-23.4,41-14.9,96.7,11,135.6
	c29,43.7,79.7,75.8,135.2,82.7c42.1,5.2,86.4-4.5,121.6-27c11.2-7.3,21.4-15.9,30.4-25.5c14.2-15.1,25.1-33.1,36.7-50.5
	c11.6-17.4,25.1-34.4,41.8-44.4c13.2-7.8,26.8-11.2,41.4-11.5c8.6-0.1,17.3,1,25.8,2.7c21.9,4.9,43.7,15.5,68.4,23.6
	c4.2,1.4,8.6,2.7,13,3.8c39.3,10.3,81.6,7.8,113.6-5.6c18.4-7.7,35.2-17,49-30c8.8-8.2,16.3-17.7,22.9-27.4
	c10.7-15.9,17.3-34,20.8-54c2.9-16.4,4-33.8,5.5-51.6c3-38.4,8.8-75.5-11.6-105.5c-20.5-29.9-60.3-43.6-84.2-71.6
	c-27.9-32.9-33.1-77.1-38.9-118.2s-12.6-87.3-47.7-113.1c-14.1-10.4-31.4-14.9-47.9-21.8c-27-11.1-52.6-25.6-78.9-37.4
	c-31-14-66.2-27-102.5-21.9C624.7,242.2,456.7,328,507.1,441.3L507.1,441.3z"/>
<linearGradient id="SVGID_32_" gradientUnits="userSpaceOnUse" x1="5333.75" y1="1164.7246" x2="5623.4062" y2="482.9335" gradientTransform="matrix(0.2885 0.8314 -0.9309 0.3067 -42.0611 -4180.0259)">
	<stop  offset="0" style="stop-color:#179EFD;stop-opacity:0.86"/>
	<stop  offset="0.21" style="stop-color:#1070F8;stop-opacity:0.54"/>
	<stop  offset="0.4" style="stop-color:#0A47F4;stop-opacity:0.25"/>
	<stop  offset="0.5" style="stop-color:#0837F3;stop-opacity:0.14"/>
	<stop  offset="0.71" style="stop-color:#0115F0;stop-opacity:0.14"/>
	<stop  offset="0.75" style="stop-color:#0123F1;stop-opacity:0.21"/>
	<stop  offset="0.81" style="stop-color:#0447F4;stop-opacity:0.39"/>
	<stop  offset="0.91" style="stop-color:#0782F9;stop-opacity:0.68"/>
	<stop  offset="1" style="stop-color:#0CC3FF"/>
</linearGradient>
<path class="st31" d="M511.1,448.1c11.5,24.4,27.5,47.4,41.1,71.4c4.4,7.7,8.4,15.5,11.5,23.6c7.1,17.7,10.4,36.4,9,54.7
	c-2.1,28.4-14.1,53.8-31.4,76.3s-39.3,41-64.1,59.6c-26.8,20.1-52.3,37.7-67.8,62.5c-24.8,39.6-18.1,94.5,7.1,133.1
	c27.9,43,77.9,74.2,132.5,80.4c41.4,4.7,84.8-5.5,119-27.8c11-7.1,20.8-15.8,29.7-25.2c13.4-14.4,23.7-31.6,34.8-48.2
	c11.1-16.7,23.6-32.9,39-43c12.2-7.9,25.1-11.9,38.9-13c8.2-0.7,16.6-0.1,24.8,1.1c21.2,3.4,42.6,12.3,66.2,19.6
	c4.1,1.2,8.2,2.5,12.3,3.4c37.4,9.5,77.4,8.6,108.8-2.3c18.5-6.4,35.8-14.8,50.1-26.8c9.2-7.7,17.3-16.4,24.4-25.8
	c11.6-15.2,19.3-32.6,23.7-52.2c3.7-15.9,5.3-33,6.7-50.3c3-37.3,6.2-73.7-14.7-102.5c-20.8-28.8-62.2-43.8-86.7-72.3
	c-28.6-33.3-33.6-78.6-39-120.5c-5.5-42.1-12.2-89-47.7-115.9c-13-9.9-28.8-14.5-44.1-21c-24.9-10.4-49-23.3-73.7-33.6
	c-29.2-12.1-61.9-22.9-95.6-18.1C629.2,249.1,457.8,335,511.1,448.1L511.1,448.1z"/>
<linearGradient id="SVGID_33_" gradientUnits="userSpaceOnUse" x1="5413.2861" y1="1006.1276" x2="5662.772" y2="344.5101" gradientTransform="matrix(0.2654 0.86 -0.9592 0.283 -53.8681 -4327.1841)">
	<stop  offset="0" style="stop-color:#18A2FD;stop-opacity:0.89"/>
	<stop  offset="0.17" style="stop-color:#127BF9;stop-opacity:0.61"/>
	<stop  offset="0.39" style="stop-color:#0A4BF4;stop-opacity:0.25"/>
	<stop  offset="0.5" style="stop-color:#0838F3;stop-opacity:0.11"/>
	<stop  offset="0.71" style="stop-color:#0113F0;stop-opacity:0.11"/>
	<stop  offset="0.74" style="stop-color:#0120F1;stop-opacity:0.18"/>
	<stop  offset="0.81" style="stop-color:#0444F4;stop-opacity:0.36"/>
	<stop  offset="0.9" style="stop-color:#077FF9;stop-opacity:0.65"/>
	<stop  offset="1" style="stop-color:#0CC4FF"/>
</linearGradient>
<path class="st32" d="M514.9,455.1c11.8,23.6,27.9,45.5,41.6,68.5c4.4,7.4,8.5,14.9,11.8,22.7c7.3,17.1,11,35.2,10.3,53
	c-1.1,27.8-11.5,53.4-27.5,76.2c-15.5,21.9-36.7,41.5-61,59.6c-26.2,19.5-52.1,35.8-68.5,59.7c-26.2,38.4-21.1,92.2,3.4,130.7
	c26.8,42.3,76.2,72.6,129.9,78.1c40.5,4.1,83.1-6.4,116.4-28.8c10.7-7.1,20.3-15.6,28.9-24.9c12.6-13.8,22.5-30.1,32.7-45.9
	c10.4-15.9,22.1-31.4,36.4-41.5c11.2-7.9,23.3-12.6,36.6-14.7c7.9-1.2,15.9-1.2,23.8-0.5c20.5,1.9,41.5,9.2,64.1,15.5
	c4,1.1,7.8,2.1,11.8,3c35.6,8.6,73.3,9.6,104.1,1c18.6-5.2,36.3-12.6,51.4-23.7c9.6-7,18.2-15.2,25.8-24.1
	c12.5-14.5,21.4-31.4,26.7-50.3c4.4-15.5,6.6-32.1,7.9-48.9c3-36.2,3.4-71.8-17.7-99.4c-22.9-30.1-64.1-44.1-89.2-73
	c-29.3-33.8-34.1-80-39.2-123c-5.1-43-11.8-90.8-47.7-118.5c-11.9-9.2-26.2-14-40.1-20.1c-22.7-9.9-45.3-21.1-68.5-29.7
	c-27.4-10.3-57.8-18.8-88.6-14.4C633.6,255.9,458.8,342.1,514.9,455.1L514.9,455.1z"/>
<linearGradient id="SVGID_34_" gradientUnits="userSpaceOnUse" x1="5437.7681" y1="825.9263" x2="5649.6743" y2="185.292" gradientTransform="matrix(0.2446 0.8973 -0.9962 0.2618 -64.01 -4479.5078)">
	<stop  offset="0" style="stop-color:#19A5FE;stop-opacity:0.92"/>
	<stop  offset="0.1" style="stop-color:#158EFB;stop-opacity:0.74"/>
	<stop  offset="0.37" style="stop-color:#0B52F6;stop-opacity:0.27"/>
	<stop  offset="0.5" style="stop-color:#083AF4;stop-opacity:8.000000e-02"/>
	<stop  offset="0.71" style="stop-color:#0112F0;stop-opacity:8.000000e-02"/>
	<stop  offset="0.74" style="stop-color:#011FF1;stop-opacity:0.15"/>
	<stop  offset="0.81" style="stop-color:#0442F4;stop-opacity:0.33"/>
	<stop  offset="0.9" style="stop-color:#087BF8;stop-opacity:0.63"/>
	<stop  offset="1" style="stop-color:#0DC4FF"/>
</linearGradient>
<path class="st33" d="M518.9,461.9c11.9,22.7,28.5,43.7,42.3,65.8c4.4,7.1,8.5,14.4,12.1,21.9c7.5,16.4,11.4,34,11.4,51.5
	c-0.1,27.3-9,53-23.8,76.2c-14.2,22.2-34.2,42.2-57.9,59.7c-25.3,18.9-51.9,34-69.2,57c-27.5,37-24.1,90-0.4,128.2
	c25.9,41.6,74.5,71.1,127.1,75.9c39.9,3.6,81.5-7.4,114-29.6c10.4-7.1,19.9-15.5,28.1-24.8c11.8-13.2,21.1-28.5,30.8-43.4
	c9.7-15.1,20.4-29.7,33.7-40.1c10.4-8.1,21.6-13.4,34.2-16.2c7.5-1.6,15.2-2.3,22.9-2.2c19.9,0.4,40.4,6,61.9,11.5
	c3.7,1,7.5,1.8,11.2,2.7c33.7,7.8,68.9,10.7,99.3,4.2c18.8-4,36.7-10.4,52.5-20.4c10-6.4,19.2-14.1,27.3-22.5
	c13.4-13.8,23.4-30,29.7-48.5c5.2-15.1,7.8-31.1,9.3-47.4c3-34.9,0.7-69.9-20.7-96.6c-24.2-30.1-66-44.4-91.6-73.8
	c-30-34.4-34.5-81.5-39.3-125.3c-4.8-43.8-11.5-92.6-47.5-121.2c-10.7-8.5-23.6-13.6-36.3-19.2c-20.7-9.2-41.6-18.8-63.1-25.9
	c-25.5-8.4-53.6-14.7-81.6-10.5C638.1,262.8,459.7,349.2,518.9,461.9L518.9,461.9z"/>
<linearGradient id="SVGID_35_" gradientUnits="userSpaceOnUse" x1="5499.8364" y1="678.5733" x2="5676.5312" y2="60.1696" gradientTransform="matrix(0.221 0.9239 -1.0324 0.2404 -72.9803 -4626.5054)">
	<stop  offset="0" style="stop-color:#19A9FE;stop-opacity:0.94"/>
	<stop  offset="0.33" style="stop-color:#0D5EF7;stop-opacity:0.34"/>
	<stop  offset="0.5" style="stop-color:#083BF4;stop-opacity:6.000000e-02"/>
	<stop  offset="0.71" style="stop-color:#0110EF;stop-opacity:6.000000e-02"/>
	<stop  offset="0.74" style="stop-color:#011DF0;stop-opacity:0.13"/>
	<stop  offset="0.81" style="stop-color:#0440F3;stop-opacity:0.31"/>
	<stop  offset="0.89" style="stop-color:#0778F8;stop-opacity:0.6"/>
	<stop  offset="1" style="stop-color:#0DC5FF"/>
</linearGradient>
<path class="st34" d="M522.8,468.8c12.2,21.9,29,41.8,43,62.9c4.5,6.8,8.6,13.7,12.2,21c7.7,15.8,11.9,32.9,12.6,49.9
	c1,26.6-6.6,52.6-20,76c-13,22.5-31.9,42.7-54.8,59.7c-24.7,18.2-51.8,32.2-69.7,54.2c-29,35.6-27.3,87.8-4.2,125.7
	c24.8,41,72.7,69.6,124.5,73.6c39.2,3,79.7-8.4,111.4-30.5c10.1-7.1,19.3-15.3,27.3-24.5c11-12.5,19.7-27,28.8-41.1
	c9.2-14.2,18.9-28.2,31-38.6c9.5-8.2,19.9-14.1,31.8-17.8c7.1-2.2,14.5-3.4,21.9-3.8c19.2-1.1,39.3,2.9,59.9,7.4
	c3.6,0.8,7.1,1.6,10.7,2.3c31.9,7,64.7,11.6,94.5,7.5c18.9-2.6,37.3-8.2,53.7-17.3c10.4-5.8,20-12.9,28.8-20.8
	c14.4-13,25.5-28.8,32.7-46.6c5.9-14.5,9.2-30.1,10.5-46c3-33.8-2.1-67.9-23.7-93.6c-25.5-30.1-68.1-44.7-94.1-74.5
	c-30.7-34.9-34.9-83-39.5-127.8s-11.2-94.1-47.5-124c-9.6-7.9-21-13.2-32.5-18.4c-18.6-8.5-37.9-16.4-57.9-22.1
	c-23.7-6.6-49.3-10.7-74.8-6.8C642.6,269.8,460.6,356.5,522.8,468.8L522.8,468.8z"/>
<linearGradient id="SVGID_36_" gradientUnits="userSpaceOnUse" x1="5556.2129" y1="537.5251" x2="5700.3345" y2="-58.6924" gradientTransform="matrix(0.1972 0.9497 -1.0679 0.2186 -82.0732 -4772.9473)">
	<stop  offset="0" style="stop-color:#1AADFF;stop-opacity:0.97"/>
	<stop  offset="0.2" style="stop-color:#137FFA;stop-opacity:0.59"/>
	<stop  offset="0.5" style="stop-color:#093DF4;stop-opacity:3.000000e-02"/>
	<stop  offset="0.71" style="stop-color:#010EEF;stop-opacity:3.000000e-02"/>
	<stop  offset="0.74" style="stop-color:#011BF0;stop-opacity:0.1"/>
	<stop  offset="0.8" style="stop-color:#043DF3;stop-opacity:0.28"/>
	<stop  offset="0.89" style="stop-color:#0875F7;stop-opacity:0.57"/>
	<stop  offset="0.99" style="stop-color:#0DC1FE;stop-opacity:0.97"/>
	<stop  offset="1" style="stop-color:#0EC6FF"/>
</linearGradient>
<path class="st35" d="M526.7,475.8c12.3,21.2,29.5,39.9,43.7,60.1c4.5,6.4,8.8,13.2,12.5,20.1c7.9,15.2,12.5,31.6,13.7,48.4
	c1.9,26-4.1,52.2-16.3,76c-11.8,22.7-29.5,43.4-51.6,59.9c-24,17.5-51.6,30.4-70.3,51.6c-30.4,34.2-30.3,85.6-7.9,123.3
	c23.8,40.1,71.1,67.9,121.9,71.2c38.5,2.5,78.1-9.3,108.9-31.4c9.9-7.1,18.8-15.3,26.6-24.4c10.1-11.9,18.4-25.5,26.8-38.8
	c8.5-13.4,17.4-26.7,28.4-37.3c8.5-8.2,18.1-14.8,29.5-19.5c6.8-2.7,13.8-4.5,21-5.5c18.6-2.6,38.2-0.3,57.8,3.4
	c3.4,0.7,6.7,1.2,10,1.9c30.1,6.2,60.3,12.7,89.7,10.8c19-1.2,37.8-5.9,54.8-14.1c10.8-5.2,21-11.6,30.3-19
	c15.2-12.3,27.5-27.5,35.6-44.8c6.6-14.1,10.4-29.2,11.8-44.5c3-32.7-4.7-65.9-26.7-90.5c-26.8-30-70-44.9-96.7-75.2
	c-31.2-35.3-35.3-84.4-39.6-130.1c-4.2-45.8-11.1-95.6-47.5-126.7c-8.5-7.3-18.4-12.6-28.6-17.5c-16.6-7.9-34.2-14.2-52.7-18.1
	c-21.8-4.7-45.1-6.4-67.8-3C647,277,461.1,363.9,526.7,475.8L526.7,475.8z"/>
<linearGradient id="SVGID_37_" gradientUnits="userSpaceOnUse" x1="5556.1509" y1="392.537" x2="5670.0864" y2="-181.2558" gradientTransform="matrix(0.1754 0.9845 -1.0928 0.1947 -95.7101 -4923.1987)">
	<stop  offset="0" style="stop-color:#1BB1FF"/>
	<stop  offset="0.71" style="stop-color:#010CEF;stop-opacity:0"/>
	<stop  offset="0.74" style="stop-color:#0119F0;stop-opacity:7.000000e-02"/>
	<stop  offset="0.8" style="stop-color:#043BF3;stop-opacity:0.25"/>
	<stop  offset="0.88" style="stop-color:#0872F7;stop-opacity:0.55"/>
	<stop  offset="0.99" style="stop-color:#0DBDFE;stop-opacity:0.95"/>
	<stop  offset="1" style="stop-color:#0EC7FF"/>
</linearGradient>
<path class="st36" d="M684,948.2c9.6-7.1,18.2-15.2,25.8-24.1c26.2-31.5,39.6-74.1,77.5-93.1c25.8-13,57-11.5,85.2-6.2
	c28.2,5.2,55.9,14,84.9,14.1c51.5,0.4,103.1-28.8,126.2-71.2c23-42.5,16.3-95.9-16.7-130.7c-28.2-29.9-71.9-45.2-99.2-75.9
	c-31.9-35.9-35.8-85.9-39.7-132.6c-4-46.7-11.2-97-47.4-129.3c-33.4-29.9-85.6-37.7-133.1-30.3c-96.2,14.8-285.9,102.3-217.1,213.7
	c16.6,27,41.5,49,57,76.6c32.9,58.9,12.5,139.6-46.3,182.5c-23.1,17-51.4,28.5-71,48.9c-31.8,32.9-33.3,83.4-11.8,120.8
	c22.7,39.5,69.3,66.4,119.2,68.9C615.5,982.3,654.1,970.2,684,948.2L684,948.2z"/>
</svg>
