<?xml version="1.0" encoding="utf-8"?>
<!-- Generator: Adobe Illustrator 24.0.1, SVG Export Plug-In . SVG Version: 6.00 Build 0)  -->
<svg version="1.1" id="uuid-20981872-ec6f-4306-9e08-c4c6f62bd525"
	 xmlns="http://www.w3.org/2000/svg" xmlns:xlink="http://www.w3.org/1999/xlink" x="0px" y="0px" viewBox="0 0 107.7 107.7"
	 style="enable-background:new 0 0 107.7 107.7;" xml:space="preserve">
<style type="text/css">
	.st0{fill:#FFFFFF;}
</style>
<path class="st0" d="M43,91.9c3.3,6.5,9.2,11.7,16.8,13.9c14.4,4.1,29.5-4.3,33.6-18.7c2.3-8.2,0.6-16.7-4-23.2
	c7.3-3.1,13.2-9.4,15.6-17.6c4.1-14.4-4.3-29.5-18.7-33.6c-7.6-2.2-15.3-0.9-21.6,3C61.4,9.2,55.5,4,47.9,1.9
	C33.5-2.3,18.4,6.1,14.3,20.5c-2.4,8.2-0.6,16.7,4,23.2C11,46.8,5,53.1,2.7,61.3C-1.4,75.7,7,90.8,21.4,94.9
	C29,97.1,36.7,95.7,43,91.9L43,91.9z"/>
</svg>
