<?xml version="1.0" encoding="UTF-8"?><svg id="uuid-b74b701c-ed7a-41dd-8131-6a9aff40774b" xmlns="http://www.w3.org/2000/svg" viewBox="0 0 337.87 211.35"><defs><style>.uuid-a1857cb7-47b9-446c-a7fb-41d0f2cf344c{fill:none;stroke:#fff;stroke-miterlimit:10;}</style></defs><path class="uuid-a1857cb7-47b9-446c-a7fb-41d0f2cf344c" d="m337.37,165.43c0,25.09-75.41,45.42-168.43,45.42S.5,190.51.5,165.43s75.41-45.42,168.44-45.42,168.43,20.34,168.43,45.42Z"/><path class="uuid-a1857cb7-47b9-446c-a7fb-41d0f2cf344c" d="m337.37,105.68c0,25.09-75.41,45.42-168.43,45.42S.5,130.76.5,105.68s75.41-45.42,168.44-45.42,168.43,20.34,168.43,45.42Z"/><path class="uuid-a1857cb7-47b9-446c-a7fb-41d0f2cf344c" d="m337.37,45.92c0,25.09-75.41,45.42-168.43,45.42S.5,71.01.5,45.92,75.91.5,168.94.5s168.43,20.34,168.43,45.42Z"/></svg>