<svg xmlns="http://www.w3.org/2000/svg" xmlns:xlink="http://www.w3.org/1999/xlink" viewBox="0 0 84.04 84.69"><defs><linearGradient id="a" x1="11.96" y1="75.44" x2="81.96" y2="75.44" gradientUnits="userSpaceOnUse"><stop offset=".21" stop-color="#0071b4"/><stop offset="1" stop-color="#795dfd"/></linearGradient><linearGradient id="c" x1="14.96" y1="38.44" x2="65.96" y2="38.44" xlink:href="#a"/><linearGradient id="d" x1="22.96" y1="25.44" x2="56.96" y2="25.44" xlink:href="#a"/><linearGradient id="b" x1="26.96" y1="12.44" x2="49.96" y2="12.44" gradientUnits="userSpaceOnUse"><stop offset=".21" stop-color="#00ffb4"/><stop offset="1" stop-color="#00e6ff"/></linearGradient><linearGradient id="e" x1="4.96" y1="63.44" x2="65.96" y2="63.44" xlink:href="#a"/><linearGradient id="f" x1="16.96" y1="51.44" x2="77.96" y2="51.44" xlink:href="#b"/><linearGradient id="g" x1="44.96" y1="16.44" x2="60.53" y2="16.44" xlink:href="#a"/><linearGradient id="h" x1="2.93" y1="55.44" x2="14.96" y2="55.44" xlink:href="#a"/><linearGradient id="i" x1="16.94" y1="41.32" x2="36.96" y2="41.32" xlink:href="#a"/><linearGradient id="j" x1="13.94" y1="78.32" x2="33.96" y2="78.32" xlink:href="#a"/></defs><path d="M76.96 80.44h-60c-2.75 0-5-2.25-5-5s2.25-5 5-5h60c2.75 0 5 2.25 5 5s-2.25 5-5 5" style="fill:url(#a)"/><path d="M60.96 43.44h-41c-2.75 0-5-2.25-5-5s2.25-5 5-5h41c2.75 0 5 2.25 5 5s-2.25 5-5 5" style="fill:url(#c)"/><path d="M51.96 30.44h-24c-2.75 0-5-2.25-5-5s2.25-5 5-5h24c2.75 0 5 2.25 5 5s-2.25 5-5 5" style="fill:url(#d)"/><path d="M44.96 17.44h-13c-2.75 0-5-2.25-5-5s2.25-5 5-5h13c2.75 0 5 2.25 5 5s-2.25 5-5 5" style="fill:url(#b)"/><path d="M60.96 68.44h-51c-2.75 0-5-2.25-5-5s2.25-5 5-5h51c2.75 0 5 2.25 5 5s-2.25 5-5 5" style="fill:url(#e)"/><path d="M72.96 56.44h-51c-2.75 0-5-2.25-5-5s2.25-5 5-5h51c2.75 0 5 2.25 5 5s-2.25 5-5 5" style="fill:url(#f)"/><path d="M44.96 2.44s13 3 7 14c0 0 10.73 2 6.86 14 0 0 6.14-8-4.86-15 0 0 5-11-9-13" style="fill:url(#g)"/><path d="M14.96 46.44s-3 7.9 0 8.95c0 0-12 .05-12 9.05 0 0-1-8.65 9-10.32l3-7.68Z" style="fill:url(#h)"/><path d="M16.95 40.3s-.5.6 5.41.6 14.6 1 14.6 1-20.01 1.74-20.01-1.6" style="fill:url(#i)"/><path d="M13.95 77.3s-.5.6 5.41.6 14.6 1 14.6 1-20.01 1.74-20.01-1.6" style="fill:url(#j)"/></svg>