<?xml version="1.0" encoding="utf-8"?>
<!-- Generator: Adobe Illustrator 24.0.1, SVG Export Plug-In . SVG Version: 6.00 Build 0)  -->
<svg version="1.1" id="uuid-7a7b900b-ed96-4551-8a94-5e9a8d56ad05"
	 xmlns="http://www.w3.org/2000/svg" xmlns:xlink="http://www.w3.org/1999/xlink" x="0px" y="0px" viewBox="0 0 1496.1 623.9"
	 style="enable-background:new 0 0 1496.1 623.9;" xml:space="preserve">
<style type="text/css">
	.st0{fill:#8C98A0;}
</style>
<g id="uuid-abc0f667-b5e3-46a8-9f6e-d36a58d8c02b">
	<path class="st0" d="M1166,596.2c-4.8-0.4-15.7-2-20.7-3.4c-2-0.6-4-1.1-5.5-2.8v-76.3c23.5,2.5,55,12.4,71.3-10.6
		c5.4-7.6,7.6-17,10.9-25.6l-131.9-324h93.6l83.3,214.4l76.6-214.2l93.4-0.2v1.3l-135.3,350.9c-14.9,40.6-35.9,73.5-80.1,85.1
		l-29.8,5.3C1183.5,595.7,1174.4,596.9,1166,596.2L1166,596.2z"/>
	<path class="st0" d="M306.7,192.1v-38.5h90.9V366c0,1.7,3.2,11.6,4.3,13.5c7.4,12.9,21.9,8.9,34.2,7.8v74.9
		c-7.7,4.2-20.5,5.8-29.6,6.2c-28.7,1.6-61.8-3-80.6-26.9c-3.6-4.7-5.2-9.2-8-14c-0.5-0.8-0.2-2.8-2.3-1.7
		c-1.1,0.6-13.1,15-16.5,17.9c-40.2,34-116.5,31.4-160.8,6.5C33,391.5,34.5,223.3,140.5,165.8c41.4-22.5,116.8-27.3,152.5,7.8
		C298.4,178.8,301.3,186.7,306.7,192.1L306.7,192.1z M219.6,231c-100.6,11.4-85.2,170.9,25.6,153.4
		C345.8,368.6,326.1,218.9,219.6,231z"/>
	<path class="st0" d="M1055.7,153.6v82.5h-68.8v114.7c0,3.5,2.5,14.4,3.8,18.1c8.7,23.4,39.7,19.7,59.4,16.9V467
		c-46.6,8.4-108.1,7.8-135.5-37.3c-10.2-16.7-13.8-34.9-15.9-54.3V236h-41.3v-82.5L1055.7,153.6L1055.7,153.6z"/>
	<path class="st0" d="M679.8,148.1v86.6c-3.7-1.2-7.8-2.4-11.7-2.7c-38.5-3.3-79.4,3.9-95.3,43.6c-1.3,3.4-5.9,16.3-5.9,18.9v168.4
		h-92.3V153.6h92.3v39.8l9.7-14.4C601.8,149.1,642.7,142.8,679.8,148.1L679.8,148.1z"/>
	<path class="st0" d="M816.2,153.6v211c0,1.2,2.7,9.8,3.5,11.6c4.9,11.8,17.2,11.7,28.2,9.6v78.4c-44,8.9-99.8,7.9-117.1-41.9
		c-1.3-3.9-5.5-18.7-5.5-22.1V153.5L816.2,153.6L816.2,153.6z"/>
	<path class="st0" d="M937.1,23.4c74.1-8.5,79.9,110.9-1.7,102.7C877.8,120.3,875.3,30.6,937.1,23.4z"/>
	<path class="st0" d="M807.4,111.9c-49.2,48.4-123.4-26.4-73.9-74.5C782.6-10.2,855.4,64.7,807.4,111.9z"/>
</g>
</svg>
