<?xml version="1.0" encoding="utf-8"?>
<!-- Generator: Adobe Illustrator 24.0.1, SVG Export Plug-In . SVG Version: 6.00 Build 0)  -->
<svg version="1.1" id="Capa_1" xmlns="http://www.w3.org/2000/svg" xmlns:xlink="http://www.w3.org/1999/xlink" x="0px" y="0px"
	 viewBox="0 0 100.6 103.1" style="enable-background:new 0 0 100.6 103.1;" xml:space="preserve">
<style type="text/css">
	.st0{fill:url(#SVGID_1_);}
	.st1{fill:url(#SVGID_2_);}
	.st2{fill:url(#SVGID_3_);}
	.st3{fill:url(#SVGID_4_);}
	.st4{fill:url(#SVGID_5_);}
	.st5{fill:url(#SVGID_6_);}
</style>
<linearGradient id="SVGID_1_" gradientUnits="userSpaceOnUse" x1="0.1793" y1="51.8902" x2="99.6993" y2="51.8902" gradientTransform="matrix(1 0 0 -1 0 103.5606)">
	<stop  offset="0.21" style="stop-color:#00FFB4"/>
	<stop  offset="1" style="stop-color:#00E6FF"/>
</linearGradient>
<path class="st0" d="M91.8,39.5c-4.2,0-7.7,3.4-7.8,7.6l-31.6-1.5l-3.1-29.2c4.1-0.3,7.3-3.6,7.3-7.8s-3.5-7.8-7.8-7.8
	S41,4.3,41,8.7s3.4,7.7,7.6,7.8l-1.3,28.9l-29-1.4c-1.8-2.5-4.7-4.1-8.1-4.1c-5.5,0-10,4.5-10,10s4.5,10,10,10
	c3.8,0,7.1-2.1,8.8-5.2l28-3l-1.3,27.9c-3.8,2.1-6.4,6.1-6.4,10.7c0,6.7,5.5,12.2,12.2,12.2s12.2-5.4,12.2-12.2
	c0-5.1-3.2-9.5-7.7-11.3l-2.9-28l31.1-3.3c0.3,4.1,3.6,7.3,7.8,7.3s7.8-3.5,7.8-7.8S96.2,39.5,91.8,39.5L91.8,39.5z"/>
<linearGradient id="SVGID_2_" gradientUnits="userSpaceOnUse" x1="21.8993" y1="73.6252" x2="47.0993" y2="73.6252" gradientTransform="matrix(1 0 0 -1 0 103.5606)">
	<stop  offset="0.21" style="stop-color:#0071B4"/>
	<stop  offset="1" style="stop-color:#795DFD"/>
</linearGradient>
<path class="st1" d="M42.7,17.3c-2.4,0-4.3,2-4.3,4.4c0,1.9,1.2,3.5,2.8,4.1l-2,10.5l-8.6,1.8c0-2.3-2-4.2-4.3-4.2s-4.3,2-4.3,4.3
	s2,4.3,4.3,4.3c1.9,0,3.6-1.3,4.1-3H41L42.1,26c0.2,0,0.4,0.1,0.6,0.1c2.4,0,4.3-1.9,4.3-4.3S45.1,17.3,42.7,17.3L42.7,17.3z"/>
<linearGradient id="SVGID_3_" gradientUnits="userSpaceOnUse" x1="62.7517" y1="34.1652" x2="93.1493" y2="34.1652" gradientTransform="matrix(1 0 0 -1 0 103.5606)">
	<stop  offset="0.21" style="stop-color:#0071B4"/>
	<stop  offset="1" style="stop-color:#795DFD"/>
</linearGradient>
<path class="st2" d="M88.8,57.3c-2.1,0-3.9,1.5-4.3,3.5l-20.9-4.6l2.6,17.6c-2.3,0.5-3.8,2.8-3.3,5.2c0.4,2,2.2,3.4,4.2,3.4
	c2.4,0,4.3-1.9,4.3-4.3s-1.9-4.3-4.3-4.3l0.9-11.7h16.4c0.2,2.2,2.1,3.9,4.3,3.9c2.4,0,4.3-1.9,4.3-4.3
	C93.1,59.2,91.2,57.3,88.8,57.3L88.8,57.3z"/>
<linearGradient id="SVGID_4_" gradientUnits="userSpaceOnUse" x1="54.9293" y1="75.5552" x2="93.1593" y2="75.5552" gradientTransform="matrix(1 0 0 -1 0 103.5606)">
	<stop  offset="0.21" style="stop-color:#0071B4"/>
	<stop  offset="1" style="stop-color:#795DFD"/>
</linearGradient>
<path class="st3" d="M85.2,35.4c0.8,1.1,2.1,1.9,3.6,1.9c2.4,0,4.3-1.9,4.3-4.3s-1.9-4.4-4.3-4.4s-4.3,2-4.3,4.4
	c0,0.7,0.2,1.4,0.5,2l-24,1.1L57.7,24c0.5,0.2,1,0.3,1.5,0.3c2.4,0,4.3-2,4.3-4.4s-2-4.3-4.3-4.3s-4.3,1.9-4.3,4.3
	c0,1.5,0.7,2.8,1.8,3.5l0.5,16.9L85.2,35.4L85.2,35.4z"/>
<linearGradient id="SVGID_5_" gradientUnits="userSpaceOnUse" x1="21.8993" y1="33.6352" x2="42.7493" y2="33.6352" gradientTransform="matrix(1 0 0 -1 0 103.5606)">
	<stop  offset="0.21" style="stop-color:#0071B4"/>
	<stop  offset="1" style="stop-color:#795DFD"/>
</linearGradient>
<path class="st4" d="M30.4,61.5c-0.5-1.9-2.2-3.3-4.2-3.3c-2.4,0-4.3,2-4.3,4.3c0,2.4,2,4.3,4.3,4.3c2.1,0,3.8-1.4,4.2-3.4l7,1.8
	l0.5,7.7c-0.1,0-0.3,0-0.4,0c-2.4,0-4.3,1.9-4.3,4.3s2,4.3,4.3,4.3s4.3-1.9,4.3-4.3c0-1.6-0.9-3.1-2.3-3.8l3.1-13.6
	C42.7,59.9,30.4,61.5,30.4,61.5z"/>
<linearGradient id="SVGID_6_" gradientUnits="userSpaceOnUse" x1="41.3717" y1="29.3302" x2="51.0093" y2="29.3302" gradientTransform="matrix(1 0 0 -1 0 103.5606)">
	<stop  offset="0.21" style="stop-color:#0071B4"/>
	<stop  offset="1" style="stop-color:#795DFD"/>
</linearGradient>
<path class="st5" d="M48.8,52.8l-1.2,26.2c0,0-9.8,9-4.9,16.5c0,0,2.6-13.8,8.3-15.1C50.7,62.2,48.8,52.8,48.8,52.8"/>
</svg>
