<?xml version="1.0" encoding="UTF-8"?>
<svg id="Layer_1" xmlns="http://www.w3.org/2000/svg" version="1.1" viewBox="0 0 394 116.9">
  <!-- Generator: Adobe Illustrator 29.1.0, SVG Export Plug-In . SVG Version: 2.1.0 Build 142)  -->
  <defs>
    <style>
      .st0 {
        fill: #fff;
      }
    </style>
  </defs>
  <path class="st0" d="M309.2,98.8h4.3s3.3-11.4,19.3-18.8c0,0-12.4,1-23.6,18.8Z"/>
  <path class="st0" d="M339.2,98.6h4.3s24.4-11.4,7.9-26.9c0,0,9.7,16.1-12.2,26.9Z"/>
  <path class="st0" d="M392.7,41.2c-6.8-11.6-26.1-2.4-26.1-2.4,34-4.9,19.1,22.2,19.1,22.2-10.4,24.1-50.1,55.9-50.1,55.9,24.5-13.3,43.7-37.4,43.7-37.4,20.7-25.3,13.3-38.2,13.3-38.2Z"/>
  <path class="st0" d="M358.9,21s-4.3,8,7.9,20.2c0,0-7.7-13.7-7.9-20.2Z"/>
  <path class="st0" d="M345.7,14.7l4.4,1.8s6-1.4,10.4.8c0,0-.4-5.9-14.9-2.5Z"/>
  <path class="st0" d="M339.5,8.6l5.2,1.4s8.3-2.5,16,1c0,0-6.4-7.4-21.3-2.4Z"/>
  <path class="st0" d="M305.5,70.2s7.5-5.1,6.6-20.4c0,0-3.9,15.7-6.6,20.4Z"/>
  <path class="st0" d="M323.9,41.2c-30.5,6.7-18.9,21-18.9,21-3.9-13.5,18.9-21,18.9-21Z"/>
  <path class="st0" d="M306.1,65.9s-4,1.5-8.8,4c-2.1-3.2-12.7-21.2,11.7-34,0,0,10.1-5.7,20.4-4,3.3,5.5,7,9.2,9.9,11.6-.9,6-4.3,15.1-15.2,24,0,0-6.4-2.2-9.3-5.3,0,0,1.7,5.5,9.3,7.6,0,0,13.9-8.3,17.3-24.7,1.7,1.2,2.8,1.8,2.8,1.8,9.1-2.7,9.5-11.2,9.5-11.2-2.9,6.7-9.7,9.2-9.7,9.2-.8-.4-1.6-1-2.3-1.5.4-2.5.5-5.1.4-7.9,0,0-3-5.1-10.8-6.6-3.2-6.8-4.6-13-4.6-13l-5.4-2c6.2-17.8,35.9-9,35.9-9-5.2-6.5-19.7-4.7-19.7-4.7-20.7,2.5-19.7,14.3-19.7,14.3,2.1,2.4,5.8,3.5,5.8,3.5,1.1,4,2.5,7.4,4.1,10.5-5-.1-11.4,1.1-19.5,5,0,0-30,12.8-11.3,36.7-10.5,5.7-24.1,16.5-6.6,28.6,0,0-16-15.7,16-32.9ZM339.4,36.5s.4,1.9.2,5c-2.5-2.5-4.6-5.5-6.3-8.6,2.1.8,4.2,2,6.2,3.6Z"/>
  <path class="st0" d="M333.4,69.2c3.7-11,13.9-9.2,13.9-9.2,9.1,3.1,1.4,13.7,1.4,13.7,10.4-10.4-.2-16.1-.2-16.1-13.5-2.4-17,10.2-17,10.2-2.7,10.6,8.3,11.2,8.3,11.2-8.7-3.5-6.4-9.8-6.4-9.8Z"/>
  <path class="st0" d="M93.7,47.8v-.4l-2.1-.7c-.7-.2-.8-.8-.8-4.2v-3h2c1.6,2.1,3.9,5.4,5.6,8.2.6,0,1.3-.1,1.9-.1s1.2,0,1.8.1v-.4c-1.5-.3-1.6-.4-3.1-2.7l-3.6-5.3c2.4-.4,4.2-1.6,4.2-4.2s-2.2-4-5.6-4-3.3.2-4.7.2-2.6-.1-3.6-.2v.4l2.2.7c.6.2.6.4.6,2.8v9.4c0,2-.1,2.1-.8,2.3l-2,.7v.4c1.2-.1,2.7-.2,4.1-.2s2.6.1,3.8.2ZM90.9,32.3c.8,0,1.6,0,2.4,0,2.4,0,4,1,4,3.3s-2.2,3.2-4.6,3.2h-1.8v-6.5Z"/>
  <path class="st0" d="M122.8,38.9c0-4.7-3.1-8.1-7.8-8.1s-8.5,3.6-8.5,8.8,2.7,8.5,8,8.5,8.2-4.1,8.2-9.2ZM114.8,47.2c-3.8,0-5.7-3.5-5.7-8.9s1.9-6.7,5.5-6.7,5.5,4.1,5.5,8.4-1.4,7.1-5.3,7.1Z"/>
  <path class="st0" d="M18.3,81.5h0c4.9-.6,9.6-3.1,9.6-7.5,0-6.3-5.6-8.7-11.2-8.7s-7,.4-9.1.4-4.8-.2-7.6-.4v.7l4.4,1.5c1.2.4,1.3.7,1.3,5.7v18.9c0,4-.2,4.2-1.7,4.7l-4,1.4v.7c2.4-.2,4.4-.4,6.9-.4s7.3.4,11.3.4c7.5,0,11.3-4.1,11.3-8.9s-6-8.1-11.2-8.5ZM10.1,73.4c0-2.4,0-3.9.2-6.3,1.8-.1,2.9-.1,4.6-.1,4.4,0,8.1,1.8,8.1,7s-5.3,6.5-8.8,6.5h-4v-7.1ZM14.2,97.2c-1.3,0-2.6-.1-4-.2-.1-1.6-.2-3.2-.2-4.8v-9.9h3.7c5.9,0,10.7,1.9,10.7,7.6s-5.2,7.3-10.3,7.3Z"/>
  <path class="st0" d="M57.4,64.7c-10.6,0-17.1,7.3-17.1,17.7s5.4,17.1,16.3,17.1,16.6-8.2,16.6-18.6-6.2-16.3-15.8-16.3ZM57.1,97.8c-7.6,0-11.5-7.1-11.5-17.9s3.9-13.5,11.2-13.5,11,8.3,11,17.1-2.8,14.3-10.8,14.3Z"/>
  <path class="st0" d="M190.9,64.3h-1.2c-3.8,9.4-9.4,21.5-14,32.2-1.3.7-2.7,1.3-4,1.7v.7c1.9-.2,3.9-.4,5.8-.4s4.1.2,6.2.4v-.7l-4.5-1.6c.7-2.9,1.6-6,3-8.7,2.2,0,4.3-.1,6.5-.1s4.4,0,6.6.1c.7,1.6,2.4,6.5,3,8.7-1.6.6-3.8,1.3-5.1,1.6v.7c2.4-.2,4.7-.4,7-.4s5.5.2,8.3.4v-.7l-4.4-1.5c-4.5-10.6-9.2-21.5-13.3-32.4ZM183,85.7l6-13.9,5.8,13.9h-11.8Z"/>
  <path class="st0" d="M239,92.7l-7.2-10.8c4.8-.8,8.6-3.3,8.6-8.6s-4.5-8.1-11.4-8.1-6.7.4-9.4.4-5.3-.2-7.2-.4v.7l4.4,1.5c1.2.4,1.3.7,1.3,5.7v18.9c0,4-.2,4.2-1.7,4.7l-4,1.4v.7c2.5-.2,5.5-.4,8.2-.4s5.3.2,7.6.4v-.7l-4.2-1.4c-1.4-.4-1.5-1.6-1.5-8.4v-6h4c3.2,4.2,7.9,10.9,11.3,16.6,1.3-.1,2.6-.2,3.9-.2s2.5.1,3.7.2v-.7c-2.9-.5-3.2-.9-6.2-5.4ZM225.9,80.6h-3.6v-13.1c1.6,0,3.1,0,4.8,0,4.9,0,8.1,2,8.1,6.6s-4.5,6.5-9.4,6.5Z"/>
  <path class="st0" d="M10.9,47.1c-.6,0-1.9-.2-2.6-.6l-.9-3.3h-.4l-.4,4.2c1.5.6,2.6.7,3.8.7,5.1,0,6.8-2.6,6.8-4.8,0-5.4-8.1-4.3-8.1-8.4s1.5-3,3.1-3,1.7.2,2.6.5l1,2.9h.3l.2-3.5c-1.1-.5-2.7-.8-3.8-.8-2.8,0-5.7,1.5-5.7,4.7,0,4.9,8.1,4.6,8.1,8.2s-1.9,3.3-4,3.3Z"/>
  <path class="st0" d="M34.5,46.3c-.3.3-.6.3-3.4.3s-2.4,0-3.6-.1c0-1.1-.1-2.3-.1-3.5v-3.5h2.7c3.1,0,3.4,0,3.7.6l.7,2h.4c0-1.1,0-2.1,0-3.1s0-1.9,0-2.9h-.4l-.7,1.8c-.2.6-.5.6-3.7.6h-2.7v-3.2c0-1.1,0-2,.1-2.9,1,0,2.1,0,3.7,0,3,0,3.2,0,3.4.7l.7,1.9h.4c0-.6,0-1.5,0-1.9s0-1.3,0-2c-2.3.1-4.7.2-7.2.2s-3.9-.1-6.1-.2v.4l2.2.7c.6.2.6.4.6,2.8v9.4c0,2-.1,2.1-.8,2.3l-2,.7v.4c1.9-.1,4.3-.2,6.6-.2s5.4.1,6.8.2v-2c0-.8.1-1.5.2-2.3h-.4c-.5,1.5-.7,2.4-1.1,2.7Z"/>
  <path class="st0" d="M50.6,48.1c1.7,0,3.9-.4,4.9-.7,0-.5,0-.9,0-1.2v-4c0-.5,0-.8.5-1l1.6-.8v-.4c-1.1,0-2.3.2-3.4.2s-2.5-.2-3.7-.2v.4l1.6.6c1.2.4,1.3.6,1.3,1v3.7c0,.2,0,.6,0,1-.9.3-1.9.4-3,.4-3.9,0-6.5-3.1-6.5-7.5s3.1-7.7,6.7-7.7,2.6.2,2.8.6c.4.5.9,1.9,1.2,3h.4c0-.7,0-1.5,0-2.3s0-1.3,0-2c-1.1-.2-2.3-.4-3.7-.4-4.6,0-10.1,3-10.1,8.9s3.6,8.3,9.5,8.3Z"/>
  <path class="st0" d="M74.2,31.2v.4l1.4.4c.7.2,1.1.4,1.1.9.2,1.8.2,5.9.2,9.1s-1.6,4.8-4.3,4.8c-4.1,0-4.9-2.2-4.9-5.5s0-6.2,0-7.7c0-.9.3-1,1.7-1.6l1.2-.4v-.4c-1.4.1-2.7.2-4.1.2s-2.4-.1-3.7-.2v.4l1.9.7c.7.3.8.8.8,3v7.3c0,4,2.6,5.6,6.4,5.6s6.3-1.9,6.4-6.9c0-4.6,0-6.7,0-8.2,0-.5.4-.8,1.1-1.1l1.1-.4v-.4c-1,.1-2,.2-3,.2s-2.3-.1-3.4-.2Z"/>
  <path class="st0" d="M131,34.9c0-1.7,1.5-3,3.1-3s1.7.2,2.6.5l1,2.9h.3l.2-3.5c-1.1-.5-2.7-.8-3.8-.8-2.8,0-5.7,1.5-5.7,4.7,0,4.9,8.1,4.6,8.1,8.2s-1.9,3.3-4,3.3-1.9-.2-2.6-.6l-.9-3.3h-.4l-.4,4.2c1.5.6,2.6.7,3.8.7,5.1,0,6.8-2.6,6.8-4.8,0-5.4-8.1-4.3-8.1-8.4Z"/>
  <path class="st0" d="M128.2,56l-6.9,7.2h2.2l7.9-5.2s3.1-2,1.4-3.6c-1.7-1.6-4.5,1.7-4.5,1.7Z"/>
  <path class="st0" d="M107.2,94c-.9,2.1-1.3,2.5-3.9,2.5h-10.2v-23c0-5.3.2-5.7,1.3-6.1l4.8-1.5v-.7c-3.2.2-5.8.4-8.4.4s-5.2-.2-7.7-.4v.7l4.4,1.5c1.2.4,1.3.7,1.3,5.7v18.9c0,4-.2,4.2-1.7,4.7l-4,1.4v.7c3.6-.2,7.2-.4,10.8-.4s10.2.2,15.2.4l.4-8.4h-.6l-1.6,3.6Z"/>
  <path class="st0" d="M117,65.3v.7l4.4,1.5c1,.4,1,.7,1.2,5.7,0,3.1.2,6.3.2,9.5s-.1,6.3-.2,9.5c0,4-.2,4.2-1.5,4.7l-4,1.4v.7c2.4-.2,5.4-.4,8-.4s5.3.2,7.8.4v-.7l-4-1.4c-1.3-.5-1.5-.7-1.5-4.7,0-3.1-.2-6.3-.2-9.5s.1-6.3.2-9.5c.1-4.9.2-5.3,1.2-5.7l4.4-1.5v-.7c-2.6.2-5.2.4-7.8.4s-5.5-.2-8-.4Z"/>
  <path class="st0" d="M173.5,65.3c-1.6.2-3.1.4-4.8.4s-4-.2-6-.4v.7c2.3.7,3.9,1.3,3.9,1.9s-.2,1.2-.5,2.1c-1.8,5.8-4.8,13.3-8,21-2.5-5.5-9.2-21.8-9.2-22.9s.5-.8,2.9-1.5l1.8-.5v-.7c-2.2.2-4.4.4-6.6.4s-4.9-.2-7.3-.4v.7l1.5.5c1.7.6,2,.7,2.9,2.7,3.3,7.6,8.6,20.8,12,30.3h1.2c4.8-13.1,8.9-23.4,12.2-30.6.8-1.8,1.6-2.4,3.8-2.9v-.7Z"/>
</svg>