<?xml version="1.0" encoding="UTF-8"?>
<svg id="Capa_1" xmlns="http://www.w3.org/2000/svg" version="1.1" viewBox="0 0 1920 557.2">
  <!-- Generator: Adobe Illustrator 29.1.0, SVG Export Plug-In . SVG Version: 2.1.0 Build 142)  -->
  <defs>
    <style>
      .st0 {
        mix-blend-mode: multiply;
        opacity: .2;
      }

      .st1 {
        isolation: isolate;
      }

      .st2 {
        fill: #fff;
      }
    </style>
  </defs>
  <g class="st1">
    <g id="Capa_11" data-name="Capa_1">
      <g>
        <g>
          <g>
            <path class="st2" d="M279.5,340.3c-1.7-.8-3-2.1-4.7-3-3-12.7-3.8-25,6.8-35.9,32.1-33,64.3-66,96.4-99,20.3-20.7,20.3-24.5-1.3-45.3-8.9-8.9-15.2-7.6-23.7.8-37.6,39.3-76.1,77.8-113.3,117.6-5.9,6.3-11,16.9-11,25.8-1.3,44.4-.4,88.8,0,133.2,0,4.2,1.3,8.9,1.7,13.1,1.7.8,3,1.7,4.7,2.5,46.5-46.9,93.5-93.5,140-140.4,1.7,1.3,3.4,2.5,5.1,3.8-3.4,19.9-11.4,38.9-25,53.7-33,35.9-66.4,71.5-101.9,104.5-19.9,18.2-30.9,37.6-26.2,64.3.8,4.7,3.4,9.3,5.1,14,4.2-2.1,9.7-3,13.1-5.9,43.1-42.7,86.3-85.4,128.6-128.6,23.3-24.1,39.3-52.4,48.6-85,9.3-32.6,10.6-64.7.8-97.3-2.1-7.2-6.3-16.5-12.3-18.6-4.7-1.7-13.5,5.1-18.6,10.2-17.8,17.8-34.7,36.4-52,54.1-19.9,20.7-40.2,41-60.1,61.3h-.8ZM61.7,217.6c3.8,3.4,7.6,6.3,11,9.7,33.4,34.3,66.8,69.4,101.1,103.2,6.3,6.3,15.2,9.7,22.8,14.4,1.3-8,3.4-15.6,4.2-23.7.8-6.8,1.3-14,0-20.3-1.3-6.8-3.4-14.8-8-19.5-38.5-40.6-77.8-80.4-117.1-120.5-12.7-12.7-18.6-12.3-30.5,1.7-19.5,22.4-35.1,46.5-41.9,76.1-2.5,11.4-3,18.6,5.9,27.5,44.8,45.3,88.8,91.8,134.1,137,13.1,13.1,11.8,27.5,8.5,46.5-14.4-14-26.6-25.8-38.5-37.6-32.1-33-63.9-66.4-95.6-99.4-3.8-3.8-9.3-5.9-15.6-9.7-.8,5.9-1.7,8-1.3,9.7,9.3,40.2,27.1,75.7,56.2,105.3,41.9,42.3,84.2,84.2,126.5,126.5,3.8,3.8,8,7.2,14.8,12.7,1.7-7.6,3.4-11.8,3.4-16.1,0-44.4,0-88.8-.8-133.2,0-8.5-4.2-18.6-10.2-24.5-42.3-44.4-85-88-128.6-131.1-11.8-11.8-14-21.1,0-34.3l-.4-.4ZM279.5,126.7c-2.1,4.2-3,7.2-5.1,9.3-17.8,17.8-35.1,36.4-53.7,53.3-3,2.5-13.5,2.1-16.9-1.3-17.3-15.6-33.8-33-50.3-49.5-8-8-7.2-14.4.8-22.4,25.8-25.4,51.2-50.8,76.1-77,11.4-11.8,9.3-17.8-5.1-32.6-10.2-10.2-17.3-7.6-26.2,1.3-33.8,34.3-68.1,68.1-102.3,102.3-16.9,16.9-16.9,20.7,0,38.1,34.3,34.7,68.9,68.5,102.8,103.6,10.6,11,17.8,11,28.3,0,35.1-37.2,71.1-74,107.4-110.4,9.3-9.3,8.5-16.5,0-25-20.3-20.3-41-40.6-60.9-61.3-9.3-9.7-17.3-9.3-26.2.8-18.2,19.9-37.2,39.8-56.2,59.2-12.3,12.3-4.2,20.3,4.7,28.8,8.5,8.5,16.5,17.3,28.8,4.7,10.2-10.6,20.3-21.1,31.3-30.9,3-2.5,9.7-3.8,13.5-2.1,4.2,1.7,6.3,7.2,9.3,11.4v-.4Z"/>
            <path class="st2" d="M279.5,340.3c19.9-20.3,40.2-41,60.1-61.3,17.3-18.2,34.3-36.8,52-54.1,5.1-5.1,14-11.8,18.6-10.2,5.5,2.1,10.2,11.4,12.3,18.6,9.7,32.1,8.5,64.7-.8,97.3-9.3,32.6-25.4,60.9-48.6,85-42.3,43.1-85.4,85.9-128.6,128.6-3.4,3.4-8.5,4.2-13.1,5.9-1.7-4.7-4.2-9.3-5.1-14-4.7-26.6,6.3-45.7,26.2-64.3,35.5-33,68.9-68.5,101.9-104.5,13.5-14.8,21.6-33.4,25-53.7-1.7-1.3-3.4-2.5-5.1-3.8-46.5,46.9-93.5,93.5-140,140.4-1.7-.8-3-1.7-4.7-2.5-.8-4.2-1.7-8.9-1.7-13.1,0-44.4-.8-88.8,0-133.2,0-8.9,5.1-19.5,11-25.8,37.2-39.8,75.7-78.2,113.3-117.6,8-8.5,14.8-9.3,23.7-.8,21.1,20.7,21.6,24.5,1.3,45.3-32.1,33-64.3,66-96.4,99-10.6,11-9.7,22.8-6.8,35.9,1.7.8,3,2.1,4.7,3h.8Z"/>
            <path class="st2" d="M61.7,217.6c-14.4,13.1-11.8,22.4,0,34.3,43.6,43.1,86.3,87.1,128.6,131.1,5.9,5.9,10.2,16.1,10.2,24.5,1.3,44.4.8,88.8.8,133.2s-1.7,8.5-3.4,16.1c-6.8-5.5-11-8.9-14.8-12.7-42.3-42.3-84.6-84.2-126.5-126.5-29.6-28.8-47.4-64.3-56.7-104.5,0-1.7.4-3.8,1.3-9.7,6.3,3.8,12.3,5.9,15.6,9.7,32.1,33,63.9,66.4,95.6,99.4,11.8,12.3,24.1,23.7,38.5,37.6,3-19.5,4.7-33.4-8.5-46.5-44.8-45.3-88.8-91.8-134.1-137-8.5-8.9-8.5-16.1-5.5-27.5,6.8-29.6,22.4-53.7,41.9-76.1,12.3-14,17.8-14.8,30.5-1.7,39.3,39.8,78.7,79.9,117.1,120.5,4.7,4.7,6.3,12.7,8,19.5,1.3,6.3.8,13.5,0,20.3-.8,8-2.5,15.6-4.2,23.7-7.6-4.7-16.5-8.5-22.8-14.4-33.8-34.3-67.2-68.9-101.1-103.2-3.4-3.4-6.8-5.9-11-9.7l.4-.4Z"/>
            <path class="st2" d="M279.5,126.7c-3-3.8-5.5-9.3-9.3-11.4-3.8-1.7-10.6-.4-13.5,2.1-11,9.7-21.1,20.3-31.3,30.9-12.3,12.7-19.9,3.8-28.8-4.7s-16.5-16.5-4.7-28.8c19-19.5,38.1-39.3,56.2-59.2,8.9-9.7,16.9-10.2,26.2-.8,20.3,20.7,40.6,41,60.9,61.3,8.9,8.5,9.3,15.6,0,25-36.4,36.4-71.9,73.2-107.4,110.4-10.6,11-17.8,11-28.3,0-33.8-35.1-68.5-68.9-102.8-103.6-17.3-17.3-17.3-21.1,0-38.1,34.3-33.8,68.5-67.7,102.3-101.9,8.9-8.9,16.1-11.4,26.2-1.3,14.8,14.8,16.5,20.7,5.1,32.6-25,25.8-50.3,51.6-76.1,77-8,8-8.9,14.4-.8,22.4,16.9,16.5,33,33.8,50.3,49.5,3.4,3,14,3.8,16.9,1.3,18.6-16.9,35.9-35.1,53.7-53.3,2.1-2.1,3-5.5,5.1-9.3Z"/>
          </g>
          <g class="st0">
            <g>
              <path class="st2" d="M279.5,340.3c-1.7-.8-3-2.1-4.7-3-3-12.7-3.8-25,6.8-35.9,32.1-33,64.3-66,96.4-99,20.3-20.7,20.3-24.5-1.3-45.3-8.9-8.9-15.2-7.6-23.7.8-37.6,39.3-76.1,77.8-113.3,117.6-5.9,6.3-11,16.9-11,25.8-1.3,44.4-.4,88.8,0,133.2,0,4.2,1.3,8.9,1.7,13.1,1.7.8,3,1.7,4.7,2.5,46.5-46.9,93.5-93.5,140-140.4,1.7,1.3,3.4,2.5,5.1,3.8-3.4,19.9-11.4,38.9-25,53.7-33,35.9-66.4,71.5-101.9,104.5-19.9,18.2-30.9,37.6-26.2,64.3.8,4.7,3.4,9.3,5.1,14,4.2-2.1,9.7-3,13.1-5.9,43.1-42.7,86.3-85.4,128.6-128.6,23.3-24.1,39.3-52.4,48.6-85,9.3-32.6,10.6-64.7.8-97.3-2.1-7.2-6.3-16.5-12.3-18.6-4.7-1.7-13.5,5.1-18.6,10.2-17.8,17.8-34.7,36.4-52,54.1-19.9,20.7-40.2,41-60.1,61.3h-.8ZM61.7,217.6c3.8,3.4,7.6,6.3,11,9.7,33.4,34.3,66.8,69.4,101.1,103.2,6.3,6.3,15.2,9.7,22.8,14.4,1.3-8,3.4-15.6,4.2-23.7.8-6.8,1.3-14,0-20.3-1.3-6.8-3.4-14.8-8-19.5-38.5-40.6-77.8-80.4-117.1-120.5-12.7-12.7-18.6-12.3-30.5,1.7-19.5,22.4-35.1,46.5-41.9,76.1-2.5,11.4-3,18.6,5.9,27.5,44.8,45.3,88.8,91.8,134.1,137,13.1,13.1,11.8,27.5,8.5,46.5-14.4-14-26.6-25.8-38.5-37.6-32.1-33-63.9-66.4-95.6-99.4-3.8-3.8-9.3-5.9-15.6-9.7-.8,5.9-1.7,8-1.3,9.7,9.3,40.2,27.1,75.7,56.2,105.3,41.9,42.3,84.2,84.2,126.5,126.5,3.8,3.8,8,7.2,14.8,12.7,1.7-7.6,3.4-11.8,3.4-16.1,0-44.4,0-88.8-.8-133.2,0-8.5-4.2-18.6-10.2-24.5-42.3-44.4-85-88-128.6-131.1-11.8-11.8-14-21.1,0-34.3l-.4-.4ZM279.5,126.7c-2.1,4.2-3,7.2-5.1,9.3-17.8,17.8-35.1,36.4-53.7,53.3-3,2.5-13.5,2.1-16.9-1.3-17.3-15.6-33.8-33-50.3-49.5-8-8-7.2-14.4.8-22.4,25.8-25.4,51.2-50.8,76.1-77,11.4-11.8,9.3-17.8-5.1-32.6-10.2-10.2-17.3-7.6-26.2,1.3-33.8,34.3-68.1,68.1-102.3,102.3-16.9,16.9-16.9,20.7,0,38.1,34.3,34.7,68.9,68.5,102.8,103.6,10.6,11,17.8,11,28.3,0,35.1-37.2,71.1-74,107.4-110.4,9.3-9.3,8.5-16.5,0-25-20.3-20.3-41-40.6-60.9-61.3-9.3-9.7-17.3-9.3-26.2.8-18.2,19.9-37.2,39.8-56.2,59.2-12.3,12.3-4.2,20.3,4.7,28.8,8.5,8.5,16.5,17.3,28.8,4.7,10.2-10.6,20.3-21.1,31.3-30.9,3-2.5,9.7-3.8,13.5-2.1,4.2,1.7,6.3,7.2,9.3,11.4v-.4Z"/>
              <path class="st2" d="M279.5,340.3c19.9-20.3,40.2-41,60.1-61.3,17.3-18.2,34.3-36.8,52-54.1,5.1-5.1,14-11.8,18.6-10.2,5.5,2.1,10.2,11.4,12.3,18.6,9.7,32.1,8.5,64.7-.8,97.3-9.3,32.6-25.4,60.9-48.6,85-42.3,43.1-85.4,85.9-128.6,128.6-3.4,3.4-8.5,4.2-13.1,5.9-1.7-4.7-4.2-9.3-5.1-14-4.7-26.6,6.3-45.7,26.2-64.3,35.5-33,68.9-68.5,101.9-104.5,13.5-14.8,21.6-33.4,25-53.7-1.7-1.3-3.4-2.5-5.1-3.8-46.5,46.9-93.5,93.5-140,140.4-1.7-.8-3-1.7-4.7-2.5-.8-4.2-1.7-8.9-1.7-13.1,0-44.4-.8-88.8,0-133.2,0-8.9,5.1-19.5,11-25.8,37.2-39.8,75.7-78.2,113.3-117.6,8-8.5,14.8-9.3,23.7-.8,21.1,20.7,21.6,24.5,1.3,45.3-32.1,33-64.3,66-96.4,99-10.6,11-9.7,22.8-6.8,35.9,1.7.8,3,2.1,4.7,3h.8Z"/>
              <path class="st2" d="M61.7,217.6c-14.4,13.1-11.8,22.4,0,34.3,43.6,43.1,86.3,87.1,128.6,131.1,5.9,5.9,10.2,16.1,10.2,24.5,1.3,44.4.8,88.8.8,133.2s-1.7,8.5-3.4,16.1c-6.8-5.5-11-8.9-14.8-12.7-42.3-42.3-84.6-84.2-126.5-126.5-29.6-28.8-47.4-64.3-56.7-104.5,0-1.7.4-3.8,1.3-9.7,6.3,3.8,12.3,5.9,15.6,9.7,32.1,33,63.9,66.4,95.6,99.4,11.8,12.3,24.1,23.7,38.5,37.6,3-19.5,4.7-33.4-8.5-46.5-44.8-45.3-88.8-91.8-134.1-137-8.5-8.9-8.5-16.1-5.5-27.5,6.8-29.6,22.4-53.7,41.9-76.1,12.3-14,17.8-14.8,30.5-1.7,39.3,39.8,78.7,79.9,117.1,120.5,4.7,4.7,6.3,12.7,8,19.5,1.3,6.3.8,13.5,0,20.3-.8,8-2.5,15.6-4.2,23.7-7.6-4.7-16.5-8.5-22.8-14.4-33.8-34.3-67.2-68.9-101.1-103.2-3.4-3.4-6.8-5.9-11-9.7l.4-.4Z"/>
              <path class="st2" d="M279.5,126.7c-3-3.8-5.5-9.3-9.3-11.4-3.8-1.7-10.6-.4-13.5,2.1-11,9.7-21.1,20.3-31.3,30.9-12.3,12.7-19.9,3.8-28.8-4.7s-16.5-16.5-4.7-28.8c19-19.5,38.1-39.3,56.2-59.2,8.9-9.7,16.9-10.2,26.2-.8,20.3,20.7,40.6,41,60.9,61.3,8.9,8.5,9.3,15.6,0,25-36.4,36.4-71.9,73.2-107.4,110.4-10.6,11-17.8,11-28.3,0-33.8-35.1-68.5-68.9-102.8-103.6-17.3-17.3-17.3-21.1,0-38.1,34.3-33.8,68.5-67.7,102.3-101.9,8.9-8.9,16.1-11.4,26.2-1.3,14.8,14.8,16.5,20.7,5.1,32.6-25,25.8-50.3,51.6-76.1,77-8,8-8.9,14.4-.8,22.4,16.9,16.5,33,33.8,50.3,49.5,3.4,3,14,3.8,16.9,1.3,18.6-16.9,35.9-35.1,53.7-53.3,2.1-2.1,3-5.5,5.1-9.3Z"/>
            </g>
          </g>
        </g>
        <g>
          <path class="st2" d="M1136,292l-28.8-31.7c13.5-16.5,22-37.6,22-60.5,0-54.1-45.7-98.1-101.9-98.1s-101.9,44-101.9,98.1,45.7,98.1,101.9,98.1,39.8-5.9,55.8-16.1l29.6,32.1,24.1-22h-.8ZM1026.8,264.1c-35.5,0-64.3-29.2-64.3-64.7s28.8-64.7,64.3-64.7,64.3,29.2,64.3,64.7-3.4,23.7-9.3,33.8l-26.2-28.3-24.1,22,26.6,29.2c-9.3,5.5-19.9,8.5-31.7,8.5l.4-.4Z"/>
          <path class="st2" d="M1386.8,200.7c0-54.1,45.3-98.1,101.5-98.5,56.2,0,102.3,44.4,102.3,99s-46.1,98.1-101.9,98.1-101.5-44-101.5-98.5h-.4ZM1488.3,265.4c35.9,0,64.3-27.5,64.7-64.3,0-36.4-27.5-65.1-63.4-65.6-36.4,0-65.6,28.3-65.6,64.7s28.3,64.7,64.3,64.7v.4Z"/>
          <path class="st2" d="M883.5,183.4v30.5h-104v51.2h115v31.3h-150.6V105.1h148.4v30.9h-112.5v47.4h104-.4Z"/>
          <path class="st2" d="M1706.9,297.1c11.4-27.1,21.6-52,32.1-77.4,14.8-35.1,29.6-70.2,44-105.3,3.4-8,7.2-10.6,15.6-10.2,11.8.8,23.3,0,35.5,0,27.1,63.9,53.7,127.3,81.2,192.4h-36.4c-2.5,0-5.5-3.8-6.8-6.3-5.1-11.8-9.7-23.7-14.8-35.9h-88.8c-2.5,0-5.9,3.4-6.8,5.9-4.7,10.2-8,20.7-12.7,30.5-1.3,2.5-5.5,5.5-8.5,5.5-10.6.8-21.1,0-33.8,0v.8ZM1844.8,224c-11.4-27.5-22.4-54.6-34.3-83.7-11.8,29.6-22.8,56.2-34.3,83.7h68.5Z"/>
          <path class="st2" d="M537.1,273.9c6.3-10.2,11.4-18.2,16.5-27.1,22.4,11.8,45.7,20.3,70.6,20.3s17.8-.8,26.2-3.4c10.2-3,15.6-10.6,16.1-21.6,0-11-7.2-16.1-16.1-18.6-16.9-5.1-34.3-9.3-51.6-14.4-6.8-2.1-13.5-4.2-20.3-6.8-24.1-10.2-33.4-23.3-33-45.7.4-23.7,12.7-39.3,33.8-46.9,41-14.8,80.4-7.2,119.7,12.7-5.5,9.7-10.2,18.6-14.8,27.1-15.6-4.7-30-10.6-45.3-14-10.2-2.1-21.1-2.1-31.7-1.3-5.5,0-11,3-15.6,5.9-11.8,8.5-10.6,24.1,3,29.6,13.1,5.5,27.1,8.9,40.6,13.1,11.4,3.8,23.3,6.8,34.7,11,19.9,7.6,33.4,20.7,33.8,43.6.4,23.7-9.3,42.3-31.3,51.2-47.4,19.5-91.8,9.3-135.8-15.2l.4.4Z"/>
          <path class="st2" d="M1171.1,104.7h35.9v11.8c0,33.4-.4,66.8.4,100.7,1.3,38.1,35.1,59.2,70.2,44.8,19.5-8,27.5-24.5,27.9-44.4.8-33,.4-66.4.8-99.4v-13.5h35.1c0,2.1.8,5.1.8,7.6v97.3c0,9.7-.8,19.5-3,28.8-10.2,43.6-47.8,66.8-96.8,59.6-41-5.9-63.4-28.3-69.4-69.4-1.3-7.2-1.7-14.8-1.7-22.4v-101.9l-.4.4Z"/>
          <path class="st2" d="M1636.3,104.7h34.3v191.6h-34.3V104.7Z"/>
        </g>
        <g>
          <path class="st2" d="M1265,458.7h-15.2c-1.7,0-3.8-2.1-5.1-3.4-14-19-27.9-37.6-41.4-56.7-.8-1.3-2.1-2.5-3.8-5.1v65.6h-16.5v-91.8h16.1c1.3,0,3,1.7,4.2,3,14,19,27.9,37.6,41.9,56.7,1.3,1.7,2.1,3,4.2,5.5v-65.1h16.5v91.4h-.8Z"/>
          <path class="st2" d="M1583,425.7c7.2,11,14.4,21.6,22,33h-18.2c-1.3,0-3-1.7-3.8-3-5.5-8-11-16.5-16.5-24.5-1.3-1.7-3.8-3-5.5-3h-21.6v30.5h-16.9v-92.2c18.6.4,36.8,0,55,2.1,14.8,1.3,22.4,9.7,24.1,24.1,1.7,15.2-3.8,26.2-16.5,32.1-.4,0-1.3.4-2.1,1.3v-.4ZM1539.8,412.6c11,0,21.1.4,31.7,0,8.5-.4,12.3-5.5,12.7-14.4,0-8.9-3.4-14.8-11.8-15.6-10.6-.8-21.6,0-32.6,0v30.5-.4Z"/>
          <path class="st2" d="M636.5,412.6c0-25.8,21.6-46.9,48.6-46.9s48.6,21.1,48.6,47.4-22,46.9-48.6,46.5c-26.6,0-48.2-21.1-48.2-46.9h-.4ZM685.1,443.9c17.3,0,30.5-13.5,30.5-30.9s-13.1-30.9-30.5-30.9-31.3,13.5-30.9,30.9c0,17.3,13.5,30.9,30.9,30.9Z"/>
          <path class="st2" d="M1063.6,412.6c0-25.8,21.6-46.9,48.6-46.9s48.6,21.1,48.6,47.4-22,46.5-48.6,46.5-48.2-21.1-48.2-46.9h-.4ZM1111.9,443.9c17.3,0,30.5-13.5,30.9-30.9,0-17.3-13.1-30.9-30.5-31.3-17.3,0-31.3,13.5-31.3,30.9s13.5,30.9,30.9,30.9v.4Z"/>
          <path class="st2" d="M1667.1,365.6c26.6,0,48.2,21.1,48.2,47.4s-22,46.9-48.6,46.9-48.6-21.1-48.6-47.4,22-46.5,49.1-46.5v-.4ZM1667.1,443.9c17.3,0,30.5-13.5,30.5-30.9s-13.5-30.9-30.9-30.9-30.9,14-30.9,31.3,14,30.5,31.3,30.5h0Z"/>
          <path class="st2" d="M1495,378.7c-4.2,3.4-8,6.8-12.3,10.2-7.6-5.9-17.3-8.9-27.9-7.2-15.6,2.5-27.5,16.9-25.8,32.6,1.3,16.9,14.4,29.2,30.5,28.8,6.3,0,12.7-2.5,19-4.2,3-.8,4.7-3,4.2-6.3v-11.4h-22v-13.5h38.1v35.9c0,1.3-.8,2.5-1.7,3.4-19,14.8-51.6,19.5-72.7-2.5-12.7-13.1-16.5-29.2-11-46.5,5.5-17.8,19-27.5,36.4-31.3,16.5-3.4,31.7.4,45.3,11.8v.4Z"/>
          <path class="st2" d="M541.8,447.7c3-4.7,5.5-8.9,8-12.7,10.6,5.5,21.6,9.7,33.8,9.7s8.5-.4,12.7-1.7c4.7-1.3,7.6-5.1,7.6-10.2s-3.4-7.6-7.6-8.9c-8-2.5-16.5-4.7-24.5-6.8-3.4-.8-6.3-2.1-9.7-3.4-11.4-5.1-16.1-11-15.6-22,0-11,6.3-18.2,16.1-22.4,15.6-6.8,41.9-3.4,57.1,6.8-2.1,4.2-4.7,8.5-6.8,12.7-7.2-2.1-14.4-5.1-21.6-6.8-5.1-1.3-10.2-.8-15.2-.4-2.5,0-5.5,1.3-7.6,3-5.5,4.2-5.1,11.4,1.3,14.4,6.3,2.5,13.1,4.2,19.5,6.3,5.5,1.7,11,3.4,16.5,5.5,9.3,3.8,16.1,9.7,16.1,20.7s-4.2,20.3-14.8,24.5c-22.4,9.3-44,4.2-64.7-7.2l-.4-1.3Z"/>
          <path class="st2" d="M1361,374.5c-3,5.5-5.5,9.7-7.2,13.1-10.2-2.5-19.5-5.1-29.2-6.8-4.2-.8-8.9,0-13.1,1.7-3.8,1.3-6.3,4.7-6.3,8.9s3,5.9,6.3,7.2c8.5,2.5,16.9,5.1,25.4,7.6s8.9,3,12.7,5.1c8,3.8,12.7,10.2,12.7,19.5s-3,17.8-11.4,22.4c-6.3,3.4-13.1,5.5-20.3,6.3-14.8,1.7-29.2-1.7-42.3-8.5-1.7-.8-3.4-2.1-5.5-3.4,2.5-4.2,5.1-8.5,7.6-12.7,11,5.5,22,9.7,33.8,9.7s8.9-.8,13.1-2.1c5.1-1.7,7.2-5.5,7.2-10.6s-3.4-6.8-7.2-8c-8.5-2.5-16.9-4.7-25-7.2-4.2-1.3-8.9-3-12.7-4.7-7.6-3.8-12.3-9.7-12.3-18.2s3-16.9,11.4-22c12.3-7.2,26.2-7.2,39.8-4.7,7.6,1.7,14.8,4.7,22.8,7.2h-.4Z"/>
          <path class="st2" d="M1860,430.8v27.9h-16.9v-92.6c18.2.8,36.8.8,54.6,3,14,1.7,20.3,10.6,22,24.5,2.5,22-8,35.5-30.5,36.8-7.6.4-15.6,0-23.3,0h-5.9v.4ZM1860.4,416.4c10.2-.4,20.3,0,30-1.7,8.5-.8,12.3-6.8,12.7-15.2,0-8.9-3.4-15.2-12.3-16.5-10.2-1.3-20.3-1.3-30.5-1.7v35.1Z"/>
          <path class="st2" d="M899.5,366.9h16.5v50.3c0,4.7-.4,9.3-1.7,13.5-4.7,20.7-22.8,31.7-46.1,28.3-19.5-3-31.3-13.5-33-33-1.7-19.5,0-39.3,0-59.2h16.5v53.7c.4,18.2,16.9,28.3,33.4,21.6,9.3-3.8,13.1-11.8,13.5-21.1.4-15.6,0-31.7,0-47.4v-6.8h.8Z"/>
          <path class="st2" d="M1736.9,366.9h16.9v53.7c.4,14.4,9.7,23.3,23.7,23.3s22.8-8.9,23.3-22.8c.4-15.6,0-31.7,0-47.4v-6.3h16.9v50.3c0,4.7-.4,9.3-1.7,13.5-4.7,20.7-22.4,31.7-45.7,28.3-21.1-3-33.4-16.1-34.3-38.1-.4-17.8,0-35.5,0-54.1l.8-.4Z"/>
          <path class="st2" d="M979.5,458.7h-16.9v-76.5h-29.2v-14.8h74.9v14.4h-28.8v77Z"/>
          <path class="st2" d="M772.3,443.4h48.2v15.2h-64.7v-91.4h16.5v76.1h0Z"/>
          <path class="st2" d="M1041.7,458.7h-16.5v-91.4h16.5v91.4Z"/>
        </g>
      </g>
    </g>
  </g>
</svg>