<?xml version="1.0" encoding="utf-8"?>
<!-- Generator: Adobe Illustrator 24.0.1, SVG Export Plug-In . SVG Version: 6.00 Build 0)  -->
<svg version="1.1" id="Capa_2" xmlns="http://www.w3.org/2000/svg" xmlns:xlink="http://www.w3.org/1999/xlink" x="0px" y="0px"
	 viewBox="0 0 935.4 935.4" style="enable-background:new 0 0 935.4 935.4;" xml:space="preserve">
<style type="text/css">
	.st0{opacity:0.5;}
	.st1{fill:none;stroke:url(#SVGID_1_);stroke-miterlimit:10;}
	.st2{fill:none;stroke:#14B5F4;stroke-width:0.77;stroke-miterlimit:10;}
	.st3{fill:none;stroke:#18AEED;stroke-width:0.75;stroke-miterlimit:10;}
	.st4{fill:none;stroke:#1CA7E7;stroke-width:0.72;stroke-miterlimit:10;}
	.st5{fill:none;stroke:#20A0E0;stroke-width:0.69;stroke-miterlimit:10;}
	.st6{fill:none;stroke:#2499D9;stroke-width:0.67;stroke-miterlimit:10;}
	.st7{fill:none;stroke:#2892D3;stroke-width:0.64;stroke-miterlimit:10;}
	.st8{fill:none;stroke:#2C8ACC;stroke-width:0.62;stroke-miterlimit:10;}
	.st9{fill:none;stroke:#3083C5;stroke-width:0.59;stroke-miterlimit:10;}
	.st10{fill:none;stroke:#347CBF;stroke-width:0.57;stroke-miterlimit:10;}
	.st11{fill:none;stroke:#3875B8;stroke-width:0.54;stroke-miterlimit:10;}
	.st12{fill:none;stroke:#3C6EB1;stroke-width:0.52;stroke-miterlimit:10;}
	.st13{fill:none;stroke:#4067AB;stroke-width:0.49;stroke-miterlimit:10;}
	.st14{fill:none;stroke:#4460A4;stroke-width:0.47;stroke-miterlimit:10;}
	.st15{fill:none;stroke:#48599D;stroke-width:0.44;stroke-miterlimit:10;}
	.st16{fill:none;stroke:#4C5297;stroke-width:0.42;stroke-miterlimit:10;}
	.st17{fill:none;stroke:#504B90;stroke-width:0.39;stroke-miterlimit:10;}
	.st18{fill:none;stroke:#544389;stroke-width:0.37;stroke-miterlimit:10;}
	.st19{fill:none;stroke:#583C83;stroke-width:0.34;stroke-miterlimit:10;}
	.st20{fill:none;stroke:#5C357C;stroke-width:0.31;stroke-miterlimit:10;}
	.st21{fill:none;stroke:#602E75;stroke-width:0.29;stroke-miterlimit:10;}
	.st22{fill:none;stroke:#64276F;stroke-width:0.26;stroke-miterlimit:10;}
	.st23{fill:none;stroke:#682068;stroke-width:0.24;stroke-miterlimit:10;}
	.st24{fill:none;stroke:url(#SVGID_2_);stroke-miterlimit:10;}
	.st25{opacity:0.52;}
	.st26{opacity:0.98;fill:none;stroke:url(#SVGID_3_);stroke-width:1.04;stroke-miterlimit:10;enable-background:new    ;}
	.st27{opacity:0.55;}
	.st28{opacity:0.97;fill:none;stroke:url(#SVGID_4_);stroke-width:1.07;stroke-miterlimit:10;enable-background:new    ;}
	.st29{opacity:0.57;}
	.st30{opacity:0.95;fill:none;stroke:url(#SVGID_5_);stroke-width:1.11;stroke-miterlimit:10;enable-background:new    ;}
	.st31{opacity:0.6;}
	.st32{opacity:0.93;fill:none;stroke:url(#SVGID_6_);stroke-width:1.15;stroke-miterlimit:10;enable-background:new    ;}
	.st33{opacity:0.62;}
	.st34{opacity:0.91;fill:none;stroke:url(#SVGID_7_);stroke-width:1.18;stroke-miterlimit:10;enable-background:new    ;}
	.st35{opacity:0.64;}
	.st36{opacity:0.9;fill:none;stroke:url(#SVGID_8_);stroke-width:1.22;stroke-miterlimit:10;enable-background:new    ;}
	.st37{opacity:0.67;}
	.st38{opacity:0.88;fill:none;stroke:url(#SVGID_9_);stroke-width:1.26;stroke-miterlimit:10;enable-background:new    ;}
	.st39{opacity:0.69;}
	.st40{opacity:0.86;fill:none;stroke:url(#SVGID_10_);stroke-width:1.29;stroke-miterlimit:10;enable-background:new    ;}
	.st41{opacity:0.71;}
	.st42{opacity:0.85;fill:none;stroke:url(#SVGID_11_);stroke-width:1.33;stroke-miterlimit:10;enable-background:new    ;}
	.st43{opacity:0.74;}
	.st44{opacity:0.83;fill:none;stroke:url(#SVGID_12_);stroke-width:1.37;stroke-miterlimit:10;enable-background:new    ;}
	.st45{opacity:0.76;}
	.st46{opacity:0.81;fill:none;stroke:url(#SVGID_13_);stroke-width:1.41;stroke-miterlimit:10;enable-background:new    ;}
	.st47{opacity:0.79;}
	.st48{opacity:0.79;fill:none;stroke:url(#SVGID_14_);stroke-width:1.44;stroke-miterlimit:10;enable-background:new    ;}
	.st49{opacity:0.81;}
	.st50{opacity:0.78;fill:none;stroke:url(#SVGID_15_);stroke-width:1.48;stroke-miterlimit:10;enable-background:new    ;}
	.st51{opacity:0.83;}
	.st52{opacity:0.76;fill:none;stroke:url(#SVGID_16_);stroke-width:1.52;stroke-miterlimit:10;enable-background:new    ;}
	.st53{opacity:0.86;}
	.st54{opacity:0.74;fill:none;stroke:url(#SVGID_17_);stroke-width:1.55;stroke-miterlimit:10;enable-background:new    ;}
	.st55{opacity:0.88;}
	.st56{opacity:0.73;fill:none;stroke:url(#SVGID_18_);stroke-width:1.59;stroke-miterlimit:10;enable-background:new    ;}
	.st57{opacity:0.9;}
	.st58{opacity:0.71;fill:none;stroke:url(#SVGID_19_);stroke-width:1.63;stroke-miterlimit:10;enable-background:new    ;}
	.st59{opacity:0.93;}
	.st60{opacity:0.69;fill:none;stroke:url(#SVGID_20_);stroke-width:1.66;stroke-miterlimit:10;enable-background:new    ;}
	.st61{opacity:0.95;}
	.st62{opacity:0.67;fill:none;stroke:url(#SVGID_21_);stroke-width:1.7;stroke-miterlimit:10;enable-background:new    ;}
	.st63{opacity:0.98;}
	.st64{opacity:0.66;fill:none;stroke:url(#SVGID_22_);stroke-width:1.74;stroke-miterlimit:10;enable-background:new    ;}
	.st65{opacity:0.64;fill:none;stroke:url(#SVGID_23_);stroke-width:1.78;stroke-miterlimit:10;enable-background:new    ;}
	.st66{opacity:0.49;}
	.st67{fill:none;stroke:url(#SVGID_24_);stroke-width:0.99;stroke-miterlimit:10;}
	.st68{opacity:0.47;}
	.st69{fill:none;stroke:url(#SVGID_25_);stroke-width:0.95;stroke-miterlimit:10;}
	.st70{opacity:0.45;}
	.st71{fill:none;stroke:url(#SVGID_26_);stroke-width:0.91;stroke-miterlimit:10;}
	.st72{opacity:0.42;}
	.st73{fill:none;stroke:url(#SVGID_27_);stroke-width:0.88;stroke-miterlimit:10;}
	.st74{opacity:0.4;}
	.st75{fill:none;stroke:url(#SVGID_28_);stroke-width:0.84;stroke-miterlimit:10;}
	.st76{opacity:0.38;}
	.st77{fill:none;stroke:url(#SVGID_29_);stroke-width:0.8;stroke-miterlimit:10;}
	.st78{opacity:0.35;}
	.st79{fill:none;stroke:url(#SVGID_30_);stroke-width:0.77;stroke-miterlimit:10;}
	.st80{opacity:0.33;}
	.st81{fill:none;stroke:url(#SVGID_31_);stroke-width:0.73;stroke-miterlimit:10;}
	.st82{opacity:0.3;}
	.st83{fill:none;stroke:url(#SVGID_32_);stroke-width:0.7;stroke-miterlimit:10;}
	.st84{opacity:0.28;}
	.st85{fill:none;stroke:url(#SVGID_33_);stroke-width:0.66;stroke-miterlimit:10;}
	.st86{opacity:0.26;}
	.st87{fill:none;stroke:url(#SVGID_34_);stroke-width:0.62;stroke-miterlimit:10;}
	.st88{opacity:0.23;}
	.st89{fill:none;stroke:url(#SVGID_35_);stroke-width:0.59;stroke-miterlimit:10;}
	.st90{opacity:0.21;}
	.st91{fill:none;stroke:url(#SVGID_36_);stroke-width:0.55;stroke-miterlimit:10;}
	.st92{opacity:0.19;}
	.st93{fill:none;stroke:url(#SVGID_37_);stroke-width:0.51;stroke-miterlimit:10;}
	.st94{opacity:0.16;}
	.st95{fill:none;stroke:url(#SVGID_38_);stroke-width:0.48;stroke-miterlimit:10;}
	.st96{opacity:0.14;}
	.st97{fill:none;stroke:url(#SVGID_39_);stroke-width:0.44;stroke-miterlimit:10;}
	.st98{opacity:0.12;}
	.st99{fill:none;stroke:url(#SVGID_40_);stroke-width:0.4;stroke-miterlimit:10;}
	.st100{opacity:9.000000e-02;}
	.st101{fill:none;stroke:url(#SVGID_41_);stroke-width:0.37;stroke-miterlimit:10;}
	.st102{opacity:7.000000e-02;}
	.st103{fill:none;stroke:url(#SVGID_42_);stroke-width:0.33;stroke-miterlimit:10;}
	.st104{opacity:5.000000e-02;}
	.st105{fill:none;stroke:url(#SVGID_43_);stroke-width:0.29;stroke-miterlimit:10;}
	.st106{opacity:2.000000e-02;}
	.st107{fill:none;stroke:url(#SVGID_44_);stroke-width:0.26;stroke-miterlimit:10;}
	.st108{opacity:0;}
	.st109{fill:none;stroke:#682068;stroke-width:0.22;stroke-miterlimit:10;}
</style>
<g class="st0">
	
		<linearGradient id="SVGID_1_" gradientUnits="userSpaceOnUse" x1="76.4999" y1="484.5881" x2="823.4976" y2="484.5881" gradientTransform="matrix(1 0 0 -1 0 933.3228)">
		<stop  offset="0" style="stop-color:#B13D86"/>
		<stop  offset="0.97" style="stop-color:#B15F3D"/>
		<stop  offset="1" style="stop-color:#B16036"/>
	</linearGradient>
	<path class="st1" d="M257.5,276.4c-26,12.7-58.3,17.2-86,23.6c-10.7,2.5-20.9,5.4-30.4,9.5c-15.4,6.5-27.9,15-38.2,26.7
		c-18.2,20.8-26.7,52.1-25.9,83.7c1.4,52,27.2,105.5,47,149.9c5.1,11.5,9.8,22.1,14.9,31.8c5.2,9.9,11,18.6,17.4,28.4
		c3.5,5.4,7.3,11,11,17.3c16,26.3,32.3,58.2,57.2,79.8c17.3,14.9,41.8,24.3,62.5,23.6c10.4-0.4,17.5-1.1,29.1,2.2
		c12.8,3.6,25.3,9.6,37.4,16c19.2,10.1,38.3,20.7,58.4,28.5c37.6,14.6,78.6,23.2,114.5,16.6c32.5-5.9,58.3-20.5,88.9-35.3
		c3.4-1.7,6.8-3.3,10.4-5c39.4-18.4,84.5-34.2,120.2-59.7c41.7-29.7,72.4-74.2,76.5-119.6c0.3-3,0.4-5.9,0.4-8.8
		c0.6-42.4-20.2-78.1-46.8-114.6c-24.4-33.5-60.4-68.9-93.5-93.7c-8.4-6.3-16.4-12.1-23.6-18.4c-8.4-7.4-15.7-15-21.6-24.7
		c-12.5-20.3-17.3-48.3-21-76.2c-4.6-35-13-71.3-32.3-101.5c-3.8-5.9-8-11.6-12.5-16.9C544,106.7,503,85.5,460.2,81.9
		c-26.3-2.2-53.9,2.6-75.6,17.2c-13.6,9.2-23.8,21.3-31.5,35.2c-11.3,20.4-17.1,44.5-25.3,64.7c-0.4,0.9-0.8,1.8-1.1,2.7
		C312.8,234.7,291.7,259.6,257.5,276.4L257.5,276.4z"/>
</g>
<path class="st2" d="M579.4,788c29.9-11.9,61.6-20.5,88.7-37.9c27.2-17.3,49.9-46.1,49-78.3c-0.9-32.3-24.7-60.2-27.6-92.4
	c-3.2-35.8,19.6-68,36.3-99.9c23.8-45.4,36.7-97.4,30.5-148.2s-32.9-100.1-75.7-128.2c-42.8-28.1-101.8-32.4-145.5-5.6
	c-24,14.7-43.1,37.7-69.6,47.1c-30.3,10.7-64,1.4-93-12.3c-29-13.7-56.4-31.9-87.5-39.9c-43.3-11.3-91.7-0.9-126.5,27.2
	s-55.3,73.1-53.5,117.8c1.1,26.8,9.6,53.1,7.7,79.8c-2.9,41.4-30,76.5-54,110.4c-24,33.9-46.8,73.7-39.6,114.6
	c9.1,51.3,61.1,82.5,110.1,100.3s103.3,31,137.1,70.6c17.5,20.5,27.8,46.5,45.7,66.8c26.1,29.7,68.2,44.4,107.1,37.4
	c33-5.9,67.6-28.9,81.9-60.1c7.5-16.4,10.2-27,25.3-39.5C541.9,804.7,560.6,795.5,579.4,788L579.4,788z"/>
<path class="st3" d="M154.6,214.4c-16.8,13.7-30.4,31.4-39.2,51.2c-9.7,21.6-13.6,45.3-11.6,68.6c0.8,9.6,2.6,19.1,4.4,28.5
	c3.3,16.9,7.2,33.9,6.6,51.1c-0.5,16.1-4.6,31.4-11,46.1c-10.3,23.5-26.7,45.1-41.9,66.1c-24.1,33.3-47,72.2-40.9,112.5
	c0.4,2.6,0.9,5.2,1.5,7.7c11.3,46.1,58.4,75.7,103.5,93.5c47.8,18.8,101.6,32.7,136,70.8c17.8,19.8,28.8,44.6,47,63.7
	c7.2,7.6,15.4,14,24.4,19.3c24.3,14.3,54.1,19.8,82.4,14.8c20.9-3.6,42.5-12.5,60-26.1c11.2-8.7,20.8-19.2,27.3-31.1
	c6.5-11.9,10.2-20.9,18.4-29.8c2.7-2.9,5.8-5.8,9.7-8.8c16.6-13,36-22.5,55.4-30.7c30.9-12.9,62.9-23.3,90.5-42
	c26.6-18,49.2-46.7,48.8-78.9c-0.3-32.3-22.8-60.5-25.7-92.7c-3.2-35,18.4-66.4,34-97.6c22.2-44.3,33.9-94.9,27.1-144.2
	c-6.8-49.3-33-97.1-75.1-123.9c-34.9-22.3-80.1-28-119.6-16.4c-10.2,3-20.1,7.2-29.3,12.5c-24.8,14.4-45,36.3-72,44.4
	c-2,0.6-4,1.1-6,1.5c-29.1,6.2-59.9-4.3-87.2-18c-29.2-14.6-57.2-32.9-88.9-40.9c-6.2-1.6-12.5-2.7-18.9-3.4
	C225.5,178.1,184.9,189.6,154.6,214.4L154.6,214.4z"/>
<path class="st4" d="M150.7,209.3c-17.1,14-30.8,32.2-39.2,52.4c-9.2,22.1-12.1,46-9,69.4c1.2,9.6,3.4,19,5.7,28.5
	c4.1,16.9,8.6,33.8,8.8,51.1c0.2,16.2-3.3,31.7-9.4,46.8c-9.8,24.1-26.7,46-42.4,67.2c-24.2,32.7-47.3,70.8-42.2,110.5
	c0.3,2.6,0.8,5.1,1.3,7.6c9.9,45.6,54.9,75.8,98.6,94.5c46.7,19.9,99.9,34.4,134.9,71.1c18.2,19,29.8,42.6,48.3,60.5
	c7.3,7.1,15.6,13.1,24.6,18c24.4,13.2,53.7,17.7,82,12.8c21.8-3.8,44.4-11.5,62.9-24.4c11.9-8.3,22.4-18.3,29.7-29.8
	s11.8-20.3,20.7-29.1c2.9-2.9,6.3-5.8,10.3-8.8c17.5-13,37.7-22.9,57.7-31.7c31.8-13.9,64.3-26.1,92.4-46.1
	c26.1-18.7,48.5-47.2,48.7-79.4c0.2-32.3-20.8-60.7-23.7-93.1c-3.1-34.1,17.2-64.8,31.7-95.2c20.7-43.3,31.1-92.4,23.8-140.1
	c-7.3-47.7-33.1-94-74.5-119.7c-35.9-22.2-81.9-26.4-122.3-14.6c-10.4,3.1-20.5,7.2-30.1,12.5c-25.6,14-47,35-74.4,41.7
	c-2,0.5-4.1,0.9-6.1,1.2c-29.5,4.8-59.8-7.3-87.2-21.9c-29.3-15.5-58-33.9-90.4-41.9c-6.3-1.6-12.8-2.7-19.3-3.4
	C222.8,171.9,181.5,183.9,150.7,209.3L150.7,209.3z"/>
<path class="st5" d="M146.8,204.1c-17.3,14.4-31.2,32.9-39.2,53.6c-8.8,22.7-10.5,46.7-6.3,70.1c1.7,9.6,4.2,19,6.9,28.4
	c4.8,16.8,10,33.7,10.9,51c0.9,16.3-2,32-7.8,47.5c-9.4,24.6-26.7,47-42.9,68.3c-24.3,32.1-47.5,69.3-43.6,108.5
	c0.3,2.5,0.6,5,1.1,7.5c8.5,45.1,51.3,75.9,93.8,95.4c45.6,21,98.2,36.2,133.8,71.4c18.5,18.3,30.8,40.6,49.6,57.4
	c7.4,6.6,15.8,12.2,24.8,16.7c24.4,12.1,53.4,15.6,81.5,10.8c22.7-3.8,46.2-10.6,65.8-22.7c12.7-7.8,23.9-17.4,32.2-28.5
	s13.3-19.6,22.9-28.3c3.2-2.8,6.7-5.7,10.9-8.7c18.5-13,39.3-23.3,60-32.7c32.8-14.9,65.7-28.9,94.2-50.3
	c25.7-19.3,47.8-47.8,48.5-79.9c0.8-32.3-18.9-61-21.8-93.4c-3-33.2,16-63.2,29.4-92.9c19.1-42.2,28.2-89.9,20.5-136
	c-7.8-46.1-33.3-91-73.9-115.4c-36.9-22.2-83.8-24.8-125-12.7c-10.6,3.1-21,7.3-30.8,12.4c-26.5,13.7-48.9,33.6-76.8,39.1
	c-2.1,0.4-4.2,0.7-6.2,0.9c-29.9,3.3-59.7-10.3-87.3-25.8c-29.4-16.4-58.9-35-91.9-42.9c-6.5-1.6-13-2.6-19.7-3.3
	C220,165.7,178,178.2,146.8,204.1L146.8,204.1z"/>
<path class="st6" d="M142.9,199c-17.5,14.7-31.6,33.7-39.2,54.8c-8.3,23.2-8.8,47.4-3.7,70.9c2.1,9.6,5.1,19,8.1,28.3
	c5.5,16.6,11.4,33.6,13,51c1.5,16.4-0.7,32.3-6.3,48.2c-8.9,25.2-26.8,47.9-43.4,69.5C47,553.2,23.6,589.6,26.5,628.2
	c0.2,2.5,0.5,5,0.9,7.4c7.1,44.5,47.8,76,89,96.4c44.5,22.1,96.5,37.9,132.7,71.7c18.8,17.5,31.8,38.6,50.9,54.2
	c7.5,6.2,16,11.3,25,15.4c24.5,10.9,53.1,13.5,81.1,8.8c23.7-3.9,48-9.6,68.8-21c13.4-7.4,25.5-16.4,34.6-27.2s14.9-19,25.1-27.5
	c3.4-2.8,7.2-5.7,11.6-8.6c19.4-13,41-23.7,62.3-33.7c33.7-15.9,67.1-31.6,96-54.4c25.2-19.8,47.1-48.4,48.4-80.5
	c1.4-32.3-16.9-61.3-19.9-93.8c-2.9-32.3,14.8-61.6,27.1-90.6c17.6-41.2,25.4-87.5,17.1-132c-8.4-44.6-33.5-87.9-73.3-111.2
	s-85.6-23.2-127.7-10.9c-10.8,3.2-21.4,7.3-31.6,12.3c-27.3,13.4-50.8,32.3-79.2,36.4c-2.1,0.3-4.2,0.5-6.3,0.6
	c-30.3,1.9-59.6-13.3-87.4-29.6c-29.5-17.3-59.7-36.1-93.3-43.9c-6.6-1.5-13.3-2.6-20-3.3C217.2,159.5,174.6,172.4,142.9,199
	L142.9,199z"/>
<path class="st7" d="M139,193.9c-17.7,15-32,34.4-39.2,56.1c-7.9,23.7-7.3,48.1-1,71.6c2.5,9.5,5.9,18.9,9.3,28.2
	c6.2,16.5,12.8,33.5,15.1,51c2.2,16.5,0.7,32.7-4.7,48.9c-8.5,25.8-26.8,48.9-43.9,70.6c-24.4,30.9-48,66.4-46.2,104.4
	c0.1,2.5,0.3,4.9,0.6,7.3c5.7,44,44.3,76.1,84.1,97.4c43.3,23.2,94.7,39.7,131.6,71.9c19.1,16.7,32.9,36.6,52.2,51.1
	c7.6,5.7,16.1,10.5,25.2,14.1c24.5,9.8,52.7,11.4,80.7,6.8c24.6-4,49.9-8.6,71.7-19.4c14.1-6.9,27-15.5,37-25.9s16.5-18.4,27.3-26.7
	c3.6-2.8,7.7-5.6,12.2-8.5c20.4-13.1,42.7-24,64.6-34.7c34.7-17,68.5-34.3,97.9-58.5c24.7-20.4,46.3-48.9,48.2-81
	c1.9-32.3-15-61.6-17.9-94.2c-2.8-31.4,13.6-60.1,24.8-88.3c16-40.1,22.6-85,13.8-127.9c-8.9-43-33.7-84.8-72.7-106.9
	c-38.8-22-87.4-21.6-130.4-9c-11,3.2-21.9,7.4-32.3,12.2c-28.1,13.1-52.8,31-81.6,33.7c-2.1,0.2-4.3,0.3-6.4,0.4
	c-30.7,0.4-59.5-16.3-87.5-33.5c-29.6-18.2-60.5-37.1-94.8-44.9c-6.7-1.5-13.5-2.6-20.4-3.2C214.4,153.2,171.1,166.7,139,193.9
	L139,193.9z"/>
<path class="st8" d="M135.1,188.7c-17.9,15.3-32.4,35.2-39.2,57.3c-7.4,24.3-5.7,48.9,1.6,72.4c3,9.5,6.7,18.9,10.6,28.1
	c6.9,16.5,14.2,33.4,17.2,50.9c2.8,16.6,2,33-3.1,49.6c-8,26.4-26.8,49.8-44.4,71.7c-24.5,30.3-48.2,65-47.6,102.4
	c0,2.4,0.2,4.8,0.4,7.2c4.2,43.5,40.7,76.2,79.3,98.4c42.2,24.3,93,41.4,130.5,72.2c19.4,16,33.9,34.6,53.5,47.9
	c7.8,5.3,16.3,9.6,25.3,12.8c24.5,8.7,52.4,9.3,80.2,4.8c25.5-4.1,51.7-7.6,74.6-17.7c14.8-6.5,28.5-14.6,39.5-24.7
	c10.4-9.6,18.2-17.8,29.6-25.9c3.9-2.8,8.1-5.5,12.9-8.5c21.3-13,44.4-24.4,66.8-35.7c35.6-18,69.9-37,99.7-62.7
	c24.3-20.9,45.6-49.5,48.1-81.6c2.5-32.3-13.1-61.8-16-94.5c-2.7-30.6,12.4-58.5,22.6-85.9c14.4-39.1,19.8-82.5,10.5-123.8
	c-9.4-41.4-33.9-81.6-72.1-102.6c-39.9-21.9-89.3-20-133.1-7.2c-11.2,3.3-22.3,7.4-33,12.2c-28.9,12.8-54.7,29.6-83.9,31.1
	c-2.2,0.1-4.3,0.1-6.5,0.1c-31.1-1-59.5-19.3-87.5-37.4c-29.7-19.1-61.3-38.2-96.3-45.9c-6.8-1.5-13.8-2.6-20.8-3.1
	C211.6,147,167.6,160.9,135.1,188.7L135.1,188.7z"/>
<path class="st9" d="M131.2,183.6c-18.1,15.6-32.8,35.9-39.2,58.5c-7,24.8-4.1,49.6,4.2,73.1c3.4,9.5,7.6,18.9,11.8,28
	c7.6,16.4,15.6,33.2,19.3,50.9c3.5,16.7,3.3,33.3-1.5,50.3c-7.6,27-26.8,50.8-44.9,72.8C56.3,547,32.4,580.8,32,617.6
	c0,2.4,0,4.8,0.2,7.1c2.8,42.9,37.2,76.3,74.4,99.4c41.1,25.5,91.3,43.1,129.3,72.5c19.7,15.2,34.9,32.6,54.8,44.8
	c7.9,4.8,16.5,8.7,25.5,11.5c24.5,7.6,52.1,7.2,79.8,2.9s53.6-6.7,77.5-16c15.5-6,30-13.7,41.9-23.4c11.1-9.1,19.8-17.1,31.8-25.2
	c4.1-2.7,8.6-5.5,13.5-8.4c22.2-13,46.1-24.8,69.1-36.7c36.6-19,71.4-39.7,101.5-66.8c23.8-21.4,44.9-50.1,47.9-82.1
	c3-32.3-11.1-62.1-14-94.9c-2.7-29.7,11.2-56.9,20.3-83.6c12.9-38.1,17-80,7.1-119.8c-10-39.9-34.2-78.5-71.4-98.4
	c-40.9-21.8-91.1-18.4-135.8-5.3c-11.4,3.4-22.8,7.4-33.8,12.1c-29.8,12.5-56.7,28.3-86.3,28.4c-2.2,0-4.4-0.1-6.6-0.2
	c-31.5-2.5-59.4-22.2-87.6-41.2c-29.8-19.9-62.2-39.2-97.8-46.9c-7-1.5-14-2.5-21.2-3.1C208.8,140.8,164.2,155.1,131.2,183.6
	L131.2,183.6z"/>
<path class="st10" d="M127.3,178.5c-18.3,16-33.3,36.7-39.2,59.8c-6.6,25.4-2.5,50.3,6.9,73.9c3.8,9.5,8.4,18.8,13,27.9
	c8.3,16.3,17,33.1,21.5,50.9c4.2,16.8,4.6,33.7,0.1,51c-7.1,27.6-26.7,51.8-45.4,73.9c-24.5,29.1-48.7,62-50.2,98.3
	c-0.1,2.3-0.1,4.7,0,7c1.4,42.4,33.7,76.5,69.6,100.3c40,26.6,89.6,44.9,128.2,72.7c20,14.4,35.9,30.6,56.1,41.6
	c8,4.3,16.7,7.8,25.7,10.2c24.6,6.5,51.7,5.1,79.4,0.9c27.7-4.3,55.4-5.7,80.5-14.3c16.2-5.6,31.5-12.7,44.3-22.1
	c11.8-8.6,21.4-16.5,34-24.4c4.4-2.7,9-5.5,14.1-8.3c23.2-13,47.7-25.1,71.4-37.7c37.5-20,72.8-42.3,103.4-71
	c23.4-21.9,44.2-50.6,47.8-82.7c3.6-32.3-9.2-62.4-12.1-95.2c-2.6-28.8,10-55.3,18-81.3c11.3-37,14.2-77.5,3.8-115.7
	c-10.5-38.3-34.4-75.3-70.8-94.1c-41.9-21.7-92.9-16.9-138.5-3.5c-11.6,3.4-23.2,7.5-34.5,12c-30.6,12.2-58.6,26.9-88.8,25.7
	c-2.2-0.1-4.5-0.3-6.7-0.6c-31.9-3.9-59.3-25.2-87.7-45.1c-30-20.8-63-40.3-99.2-47.9c-7.1-1.5-14.3-2.5-21.5-3
	C206.1,134.5,160.7,149.4,127.3,178.5L127.3,178.5z"/>
<path class="st11" d="M123.4,173.4c-18.6,16.3-33.7,37.5-39.3,61c-6.1,25.9-0.9,51,9.5,74.6c4.2,9.5,9.2,18.8,14.2,27.8
	c9,16.2,18.5,33,23.6,50.8c5.1,17.8,5.9,34,1.7,51.7c-6.7,28.1-26.7,52.7-46,75.1c-24.6,28.6-48.9,60.6-51.6,96.3
	c-0.2,2.3-0.2,4.6-0.2,6.9c0,41.8,30.1,76.6,64.7,101.3c38.9,27.8,87.9,46.6,127.1,73c20.3,13.7,36.9,28.6,57.4,38.5
	c8.1,3.9,16.8,6.9,25.9,8.9c24.6,5.4,51.4,3.1,79-1.1c28.2-4.3,57.2-4.7,83.4-12.7c16.9-5.1,33-11.8,46.8-20.8
	c12.6-8.2,23-15.8,36.2-23.6c4.6-2.7,9.5-5.4,14.8-8.2c24.1-13,49.4-25.5,73.7-38.7c38.4-21,74.3-45,105.2-75.1
	c23-22.4,43.5-51.2,47.6-83.2c4.1-32.3-7.2-62.7-10.2-95.6c-2.5-27.9,8.8-53.7,15.7-79c9.8-36,11.4-75,0.5-111.6
	c-11-36.7-34.7-72.1-70.2-89.9c-43-21.5-94.8-15.3-141.2-1.6c-11.8,3.5-23.7,7.5-35.2,11.9c-31.4,11.9-60.5,25.6-91.2,23.1
	c-2.3-0.2-4.5-0.5-6.8-0.9c-32.3-5.4-59.2-28.2-87.8-49c-30.1-21.7-63.8-41.3-100.7-48.9c-7.2-1.5-14.5-2.5-21.9-3
	C203.2,128.3,157.2,143.6,123.4,173.4L123.4,173.4z"/>
<path class="st12" d="M119.5,168.2c-18.8,16.6-34.1,38.2-39.3,62.2c-5.7,26.4,0.7,51.7,12.2,75.3c4.6,9.5,10.1,18.8,15.5,27.7
	c9.7,16.1,19.9,32.9,25.7,50.8c5.8,17.9,7.2,34.3,3.3,52.4c-6.2,28.7-26.7,53.7-46.5,76.2c-24.6,28-49.2,59.1-52.9,94.2
	c-0.2,2.3-0.4,4.5-0.5,6.8c-1.4,41.3,26.6,76.8,59.9,102.3c37.7,28.9,86.2,48.4,126,73.3c20.6,12.9,37.9,26.6,58.7,35.3
	c8.2,3.4,17,6,26.1,7.6c24.6,4.2,51.1,1,78.6-3.1c29.1-4.3,59.1-3.7,86.3-11c17.6-4.7,34.5-11,49.2-19.5
	c13.3-7.8,24.6-15.2,38.5-22.8c4.8-2.7,9.9-5.3,15.4-8.2c25.1-13,51.1-25.9,76-39.7c39.4-22,75.8-47.6,107-79.2
	c22.6-22.9,42.8-51.8,47.4-83.8c4.7-32.3-5.3-63-8.2-96c-2.4-27,7.6-52.1,13.4-76.6c8.2-34.9,8.6-72.5-2.9-107.6
	c-11.6-35.2-35-68.8-69.6-85.6c-44-21.4-96.6-13.7-143.9,0.2c-12.1,3.5-24.2,7.6-36,11.9c-32.2,11.6-62.5,24.3-93.5,20.4
	c-2.3-0.3-4.6-0.7-6.9-1.1c-32.7-6.8-59.1-31.2-87.8-52.8c-30.2-22.6-64.7-42.4-102.2-49.8c-7.3-1.5-14.8-2.4-22.3-2.9
	C200.5,122.1,153.8,137.9,119.5,168.2L119.5,168.2z"/>
<path class="st13" d="M115.6,163.1c-19,16.9-34.5,39-39.3,63.4c-5.2,26.9,2.2,52.5,14.8,76.1c5.1,9.5,10.9,18.7,16.7,27.6
	c10.4,16,21.3,32.8,27.8,50.7c6.2,17.1,8.5,34.6,4.9,53.1c-5.7,29.3-26.7,54.7-47,77.3c-24.6,27.5-49.4,57.7-54.2,92.2
	c-0.3,2.2-0.5,4.5-0.7,6.7c-2.8,40.8,23,77,55,103.3c36.6,30.1,84.4,50.1,124.9,73.5c20.9,12.2,38.9,24.6,60,32.2
	c8.4,3,17.2,5.1,26.2,6.2c24.7,3.1,50.7-1.1,78.1-5.1c30-4.4,60.9-2.7,89.2-9.3c18.3-4.2,36-10.1,51.6-18.2
	c14-7.3,26.2-14.5,40.7-22c5.1-2.6,10.4-5.3,16-8.1c26-13,52.8-26.2,78.2-40.8c40.3-23,77.3-50.2,108.9-83.4
	c22.2-23.3,42.1-52.3,47.3-84.3c5.2-32.3-3.3-63.2-6.3-96.3c-2.3-26.1,6.4-50.5,11.1-74.3c6.7-33.9,5.8-70-6.2-103.5
	c-12.1-33.6-35.3-65.5-69-81.3c-45.1-21.1-98.4-12.1-146.6,2.1c-12.3,3.6-24.6,7.6-36.7,11.8c-33.1,11.3-64.4,22.9-95.9,17.7
	c-2.3-0.4-4.7-0.9-7-1.4c-33.2-8.3-59.1-34.2-87.9-56.7c-30.3-23.5-65.5-43.4-103.6-50.8c-7.5-1.5-15.1-2.4-22.7-2.9
	C197.7,115.9,150.3,132.1,115.6,163.1L115.6,163.1z"/>
<path class="st14" d="M111.7,158c-19.2,17.2-34.9,39.7-39.3,64.7c-4.8,27.5,3.8,53.2,17.5,76.8c5.5,9.5,11.7,18.7,17.9,27.5
	c11.1,15.9,22.7,32.7,29.9,50.7s9.8,35,6.5,53.8c-5.3,29.9-26.6,55.6-47.5,78.4c-24.6,26.9-49.6,56.2-55.6,90.2
	c-0.4,2.2-0.7,4.4-0.9,6.6c-4.3,40.2,19.5,77.1,50.2,104.3c35.4,31.3,82.7,51.8,123.8,73.8c21.2,11.4,39.9,22.6,61.3,29
	c8.5,2.5,17.4,4.2,26.4,4.9c24.7,2,50.4-3.2,77.7-7.1c30.9-4.5,62.7-1.8,92.2-7.6c19-3.8,37.5-9.2,54.1-17
	c14.7-6.9,27.8-13.9,42.9-21.2c5.3-2.6,10.9-5.2,16.7-8c27-13,54.4-26.6,80.5-41.8c41.3-24,78.8-52.8,110.7-87.5
	c21.9-23.8,41.4-52.9,47.1-84.8c5.8-32.3-1.4-63.5-4.3-96.7c-2.2-25.3,5.2-48.9,8.8-72c5.1-32.9,2.9-67.6-9.5-99.4
	c-12.6-32-35.6-62.2-68.4-77.1c-46.2-20.9-100.3-10.5-149.2,3.9c-12.5,3.7-25.1,7.7-37.5,11.7c-33.9,11-66.4,21.6-98.3,15.1
	c-2.4-0.5-4.7-1.1-7.1-1.8c-33.6-9.7-59-37.2-88-60.6c-30.4-24.4-66.3-44.5-105.1-51.8c-7.6-1.4-15.3-2.4-23-2.8
	C194.9,109.6,146.9,126.4,111.7,158L111.7,158z"/>
<path class="st15" d="M107.8,152.8c-19.4,17.6-35.3,40.5-39.3,65.9c-4.4,28,5.4,53.9,20.1,77.6c5.9,9.5,12.6,18.6,19.1,27.5
	c11.8,15.8,24.1,32.6,32,50.7s11.1,35.3,8.1,54.5c-4.8,30.5-26.6,56.6-48,79.5c-24.6,26.4-49.8,54.8-56.9,88.1
	c-0.5,2.2-0.8,4.3-1.1,6.5c-5.7,39.7,15.9,77.3,45.3,105.2c34.3,32.5,81,53.6,122.7,74.1c21.5,10.6,40.9,20.6,62.6,25.9
	c8.6,2,17.5,3.3,26.6,3.6c24.7,0.9,50.1-5.2,77.3-9.1c31.8-4.5,64.6-0.8,95.1-6c19.7-3.3,38.9-8.3,56.5-15.7
	c15.5-6.5,29.4-13.2,45.2-20.5c5.6-2.6,11.3-5.2,17.3-8c27.9-13,56.1-27,82.8-42.8c42.2-25,80.3-55.3,112.5-91.6
	c21.5-24.2,40.7-53.5,47-85.4c6.4-32.3,0.5-63.8-2.4-97c-2.2-24.4,4-47.3,6.6-69.6c3.6-31.8,0.1-65.1-12.9-95.4
	c-13.2-30.5-35.9-58.9-67.8-72.8c-47.3-20.6-102.1-8.9-151.9,5.8c-12.7,3.7-25.5,7.7-38.2,11.7c-34.7,10.7-68.3,20.2-100.7,12.4
	c-2.4-0.6-4.8-1.3-7.2-2.1c-34-11.2-58.9-40.2-88-64.4c-30.5-25.3-67.1-45.5-106.6-52.8c-7.7-1.4-15.6-2.3-23.4-2.7
	C192.1,103.4,143.4,120.6,107.8,152.8L107.8,152.8z"/>
<path class="st16" d="M103.9,147.7c-19.6,17.9-35.7,41.2-39.3,67.1c-3.9,28.5,7,54.6,22.7,78.3c6.3,9.5,13.4,18.6,20.4,27.4
	c12.5,15.7,25.6,32.5,34.2,50.6s12.4,35.6,9.7,55.2c-4.4,31.1-26.5,57.6-48.5,80.6c-24.6,25.8-50.1,53.3-58.2,86.1
	c-0.5,2.1-1,4.2-1.4,6.4c-7.1,39.2,12.3,77.5,40.5,106.2C117,739.4,163.2,761,205.5,780c21.8,9.9,41.9,18.6,63.9,22.7
	c8.7,1.6,17.7,2.4,26.8,2.3c24.8-0.2,49.7-7.3,76.8-11.1c32.7-4.6,66.4,0.2,98-4.3c20.4-2.9,40.4-7.5,58.9-14.4
	c16.2-6,31-12.6,47.4-19.7c5.8-2.5,11.8-5.1,17.9-7.9c28.9-13,57.8-27.3,85.1-43.8c43.2-26,81.9-57.9,114.4-95.8
	c21.2-24.7,40-54,46.8-85.9c6.9-32.3,2.5-64.1-0.4-97.4c-2.1-23.5,2.8-45.8,4.3-67.3c2-30.8-2.7-62.6-16.2-91.3
	c-13.7-28.9-36.3-55.6-67.2-68.6c-48.4-20.3-103.9-7.3-154.6,7.6c-12.9,3.8-26,7.8-39,11.6c-35.6,10.4-70.2,18.9-103.1,9.7
	c-2.4-0.7-4.9-1.5-7.3-2.4c-34.4-12.6-58.8-43.2-88.1-68.3c-30.6-26.2-68-46.6-108.1-53.8c-7.8-1.4-15.8-2.3-23.8-2.7
	C189.3,97.2,139.9,114.8,103.9,147.7L103.9,147.7z"/>
<path class="st17" d="M100,142.6c-19.9,18.2-36.1,42-39.3,68.3C57.2,240,69.2,266.2,86,290c6.7,9.5,14.2,18.6,21.6,27.3
	c13.2,15.6,27,32.4,36.3,50.6c8.9,17.5,13.7,36,11.2,55.9c-3.9,31.6-26.5,58.6-49,81.8c-24.6,25.3-50.3,51.9-59.5,84.1
	c-0.6,2.1-1.1,4.2-1.6,6.3c-8.5,38.6,8.7,77.7,35.6,107.2c31.9,35,77.6,57.1,120.5,74.6c22.2,9.1,43,16.6,65.2,19.5
	c8.8,1.1,17.9,1.5,27,1c24.8-1.3,49.4-9.4,76.4-13.1c33.6-4.6,68.2,1.2,100.9-2.6c21.2-2.5,41.9-6.6,61.4-13.1
	c16.9-5.6,32.7-11.9,49.6-18.9c6.1-2.5,12.2-5.1,18.6-7.8c29.8-12.9,59.5-27.7,87.4-44.8c44.1-27,83.5-60.4,116.2-99.9
	c20.8-25.1,39.3-54.6,46.7-86.5c7.5-32.3,4.4-64.4,1.5-97.8c-2-22.6,1.7-44.2,2-65c0.4-29.7-5.5-60.1-19.5-87.2
	c-14.2-27.3-36.6-52.2-66.6-64.3c-49.6-20-105.8-5.7-157.3,9.4c-13.1,3.8-26.4,7.8-39.7,11.5c-36.4,10.1-72.2,17.6-105.5,7.1
	c-2.5-0.8-4.9-1.7-7.4-2.6c-34.8-14.1-58.7-46.1-88.2-72.2c-30.8-27.1-68.8-47.6-109.5-54.8c-8-1.4-16.1-2.3-24.2-2.6
	C186.5,91,136.5,109.1,100,142.6L100,142.6z"/>
<path class="st18" d="M96,137.4C76,155.9,59.5,180.2,56.7,207c-3,29.6,10.1,56.1,28,79.8c7.1,9.5,15.1,18.5,22.8,27.2
	c13.9,15.5,28.4,32.2,38.4,50.5c9.6,17.5,15,36.3,12.8,56.6c-3.5,32.2-26.4,59.6-49.5,82.9c-24.6,24.8-50.5,50.4-60.9,82
	c-0.7,2-1.3,4.1-1.8,6.2c-9.9,38.1,5.1,78,30.8,108.2c30.7,36.2,75.8,58.8,119.3,74.9c22.5,8.3,44,14.6,66.5,16.4
	c9,0.7,18.1,0.6,27.2-0.3c24.8-2.5,49.1-11.4,76-15.1c34.5-4.7,70.1,2.2,103.9-1c21.9-2,43.4-5.8,63.8-11.8
	c17.6-5.2,34.3-11.3,51.8-18.1c6.3-2.5,12.7-5,19.2-7.7c30.8-12.9,61.2-28.1,89.6-45.8c45.1-28,85.1-63,118-104
	c20.5-25.5,38.6-55.1,46.5-87c8-32.3,6.4-64.6,3.4-98.1c-1.9-21.8,0.5-42.6-0.3-62.7c-1.1-28.7-8.3-57.6-22.9-83.2
	c-14.8-25.8-36.9-48.8-66-60c-50.7-19.6-107.6-4.1-160,11.3c-13.3,3.9-26.9,7.9-40.4,11.4c-37.2,9.8-74.1,16.2-107.9,4.4
	c-2.5-0.9-5-1.9-7.5-2.9c-35.2-15.5-58.7-49.1-88.3-76.1c-30.9-28-69.6-48.7-111-55.8c-8.1-1.4-16.3-2.3-24.5-2.6
	C183.7,84.7,133,103.3,96,137.4L96,137.4z"/>
<path class="st19" d="M92.1,132.3c-20.3,18.8-36.9,43.5-39.3,70.8c-2.6,30.1,11.6,56.8,30.7,80.6c7.6,9.5,15.9,18.5,24,27.1
	c14.6,15.4,29.9,32.1,40.5,50.5c10.3,17.6,16.3,36.6,14.4,57.3c-3,32.8-26.4,60.6-50,84c-24.5,24.3-50.8,48.9-62.2,80
	c-0.7,2-1.4,4-2,6.1c-11.3,37.6,1.5,78.2,25.9,109.2c29.5,37.4,74.1,60.5,118.2,75.2c22.8,7.6,45,12.7,67.8,13.2
	c9.1,0.2,18.3-0.3,27.3-1.6c24.8-3.6,48.8-13.5,75.6-17c35.4-4.7,71.9,3.1,106.8,0.7c22.6-1.5,44.9-4.9,66.2-10.5
	c18.3-4.8,35.9-10.6,54.1-17.3c6.6-2.4,13.2-5,19.8-7.7c31.8-12.9,62.8-28.4,91.9-46.8c46-29,86.7-65.5,119.9-108.2
	c20.2-26,37.9-55.7,46.3-87.6c8.6-32.3,8.3-64.9,5.4-98.5c-1.8-20.9-0.7-41-2.6-60.3c-2.7-27.6-11.1-55.1-26.2-79.1
	c-15.3-24.2-37.3-45.4-65.4-55.8c-51.9-19.1-109.4-2.5-162.7,13.1c-13.5,4-27.3,7.9-41.2,11.4c-38,9.4-76.1,14.9-110.3,1.7
	c-2.5-1-5.1-2.1-7.6-3.2c-35.6-17-58.6-52.1-88.3-79.9c-31-28.9-70.5-49.7-112.5-56.8c-8.2-1.4-16.6-2.2-24.9-2.5
	C180.9,78.4,129.5,97.5,92.1,132.3L92.1,132.3z"/>
<path class="st20" d="M88.2,127.2c-20.5,19.2-37.3,44.2-39.3,72c-2.2,30.7,13.2,57.6,33.3,81.3c8,9.5,16.7,18.5,25.3,27
	c15.3,15.3,31.3,32,42.6,50.5c10.9,17.7,17.6,37,16,58c-2.5,33.4-26.3,61.6-50.5,85.1c-24.5,23.8-51,47.5-63.5,78
	c-0.8,2-1.6,4-2.2,6c-12.8,37-2.1,78.4,21.1,110.2c28.3,38.7,72.4,62.3,117.1,75.4c23.1,6.8,46,10.7,69.1,10.1
	c9.2-0.2,18.4-1.2,27.5-2.9c24.9-4.7,48.4-15.5,75.2-19c36.3-4.7,73.7,4.1,109.7,2.4c23.3-1.1,46.4-4.1,68.7-9.2
	c19.1-4.4,37.5-10,56.3-16.5c6.8-2.4,13.6-4.9,20.5-7.6c32.7-12.8,64.5-28.8,94.2-47.8c46.9-30,88.3-68,121.7-112.3
	c19.9-26.4,37.2-56.3,46.2-88.1c9.2-32.3,10.2-65.2,7.3-98.9c-1.8-20-1.9-39.4-4.9-58c-4.2-26.6-13.9-52.7-29.6-75.1
	c-15.8-22.6-37.7-42-64.8-51.5c-53.1-18.6-111.3-0.9-165.4,15c-13.7,4-27.8,8-41.9,11.3c-38.8,9.1-78,13.5-112.7-0.9
	c-2.6-1.1-5.1-2.3-7.7-3.6c-36-18.4-58.5-55.1-88.4-83.8c-31.1-29.7-71.3-50.8-114-57.8c-8.4-1.4-16.8-2.2-25.3-2.5
	C178.1,72.3,126,91.9,88.2,127.2L88.2,127.2z"/>
<path class="st21" d="M84.3,122c-20.7,19.5-37.8,45-39.3,73.2c-1.7,31.2,14.8,58.3,36,82c8.4,9.5,17.5,18.4,26.5,26.9
	c16,15.2,32.7,31.9,44.7,50.4c11.6,17.8,18.9,37.3,17.6,58.7c-2.1,34-26.2,62.7-51,86.2c-24.5,23.3-51.2,46-64.9,75.9
	c-0.9,1.9-1.7,3.9-2.5,5.9c-14.2,36.5-5.8,78.6,16.2,111.1c27,39.9,70.7,64,116,75.7c23.4,6,47,8.7,70.4,6.9
	c9.3-0.7,18.6-2.1,27.7-4.2c24.9-5.8,48.1-17.6,74.7-21c37.3-4.7,75.6,5.1,112.7,4.1c24-0.7,47.9-3.2,71.1-8
	c19.8-4,39.1-9.3,58.5-15.8c7-2.3,14.1-4.8,21.1-7.5c33.7-12.8,66.2-29.2,96.5-48.8c47.9-31,90-70.5,123.5-116.5
	c19.6-26.8,36.5-56.8,46-88.7c9.7-32.3,12.2-65.5,9.2-99.2c-1.7-19.1-3.1-37.8-7.2-55.7c-5.8-25.6-16.7-50.2-32.9-71
	c-16.4-21.1-38-38.6-64.1-47.3c-54.3-18.1-113.1,0.7-168.1,16.8c-13.9,4.1-28.2,8-42.7,11.2c-39.7,8.8-79.9,12.2-115.1-3.6
	c-2.6-1.2-5.2-2.5-7.7-3.9c-36.4-19.9-58.4-58.1-88.5-87.7C337.7,98,296.8,76.8,253.5,69.9c-8.5-1.4-17-2.2-25.7-2.4
	C175.3,66.1,122.6,86.1,84.3,122L84.3,122z"/>
<path class="st22" d="M80.4,116.9c-20.9,19.8-38.2,45.8-39.3,74.5c-1.3,31.7,16.4,59,38.6,82.8c8.8,9.5,18.4,18.4,27.7,26.8
	c16.7,15.1,34.1,31.8,46.8,50.4c12.3,17.9,20.2,37.6,19.2,59.4c-1.6,34.6-26.1,63.7-51.5,87.4S70.5,542.7,55.7,572
	c-1,1.9-1.8,3.8-2.7,5.8c-15.6,36-9.4,78.8,11.4,112.1c25.7,41.2,69,65.8,114.9,76c23.7,5.3,48,6.7,71.7,3.8
	c9.4-1.2,18.8-3,27.9-5.5c24.9-6.9,47.8-19.7,74.3-23c38.2-4.8,77.4,6.1,115.6,5.8c24.7-0.2,49.3-2.4,73.5-6.7
	c20.5-3.7,40.7-8.6,60.7-15c7.3-2.3,14.5-4.8,21.8-7.5c34.6-12.8,67.9-29.5,98.8-49.8c48.8-32,91.7-73,125.4-120.6
	c19.3-27.2,35.8-57.4,45.9-89.2c10.3-32.3,14.1-65.8,11.2-99.6c-1.6-18.2-4.3-36.2-9.5-53.4c-7.3-24.5-19.6-47.7-36.2-66.9
	c-16.9-19.5-38.3-35.1-63.5-43c-55.5-17.4-114.9,2.3-170.8,18.7c-14.1,4.1-28.7,8.1-43.4,11.2c-40.5,8.5-81.9,10.9-117.5-6.3
	c-2.7-1.3-5.3-2.6-7.8-4.1c-36.8-21.3-58.3-61.1-88.6-91.5c-31.3-31.5-73-52.9-116.9-59.7c-8.6-1.3-17.3-2.1-26-2.3
	C172.6,59.8,119.1,80.3,80.4,116.9L80.4,116.9z"/>
<path class="st23" d="M607.4,720.1c100.9-30.4,190.9-96,250.6-182.9c38.3-55.7,64.7-122.4,58.8-189.7
	c-5.8-67.3-49.4-133.6-114.2-152.7c-56.7-16.6-116.8,3.9-173.5,20.5c-56.7,16.6-121.6,28.6-172-2.3c-37.2-22.8-58.3-64.1-88.6-95.4
	c-37.6-38.8-90.8-61.9-144.8-63c-54-1.1-108.1,19.9-147.2,57.1c-21.2,20.1-38.6,46.5-39.3,75.7c-1.2,45.1,36,80.8,70.2,110.3
	s71.2,65.4,69.7,110.4c-1.2,35.1-26,64.8-52,88.5c-26,23.7-55.2,45.8-70.5,77.5c-17,35.4-13.1,79.1,6.5,113.1
	c42.1,73,138.5,94.7,214.9,70c25-8,47.4-21.7,73.9-25c39.1-4.8,79.2,7,118.5,7.4C515.4,740.2,562.4,733.7,607.4,720.1L607.4,720.1z"
	/>
<g class="st0">
	
		<linearGradient id="SVGID_2_" gradientUnits="userSpaceOnUse" x1="76.4999" y1="484.5881" x2="823.4976" y2="484.5881" gradientTransform="matrix(1 0 0 -1 0 933.3228)">
		<stop  offset="0" style="stop-color:#B13D86"/>
		<stop  offset="0.97" style="stop-color:#B15F3D"/>
		<stop  offset="1" style="stop-color:#B16036"/>
	</linearGradient>
	<path class="st24" d="M257.5,276.4c-26,12.7-58.3,17.2-86,23.6c-10.7,2.5-20.9,5.4-30.4,9.5c-15.4,6.5-27.9,15-38.2,26.7
		c-18.2,20.8-26.7,52.1-25.9,83.7c1.4,52,27.2,105.5,47,149.9c5.1,11.5,9.8,22.1,14.9,31.8c5.2,9.9,11,18.6,17.4,28.4
		c3.5,5.4,7.3,11,11,17.3c16,26.3,32.3,58.2,57.2,79.8c17.3,14.9,41.8,24.3,62.5,23.6c10.4-0.4,17.5-1.1,29.1,2.2
		c12.8,3.6,25.3,9.6,37.4,16c19.2,10.1,38.3,20.7,58.4,28.5c37.6,14.6,78.6,23.2,114.5,16.6c32.5-5.9,58.3-20.5,88.9-35.3
		c3.4-1.7,6.8-3.3,10.4-5c39.4-18.4,84.5-34.2,120.2-59.7c41.7-29.7,72.4-74.2,76.5-119.6c0.3-3,0.4-5.9,0.4-8.8
		c0.6-42.4-20.2-78.1-46.8-114.6c-24.4-33.5-60.4-68.9-93.5-93.7c-8.4-6.3-16.4-12.1-23.6-18.4c-8.4-7.4-15.7-15-21.6-24.7
		c-12.5-20.3-17.3-48.3-21-76.2c-4.6-35-13-71.3-32.3-101.5c-3.8-5.9-8-11.6-12.5-16.9C544,106.7,503,85.5,460.2,81.9
		c-26.3-2.2-53.9,2.6-75.6,17.2c-13.6,9.2-23.8,21.3-31.5,35.2c-11.3,20.4-17.1,44.5-25.3,64.7c-0.4,0.9-0.8,1.8-1.1,2.7
		C312.8,234.7,291.7,259.6,257.5,276.4L257.5,276.4z"/>
</g>
<g class="st25">
	
		<linearGradient id="SVGID_3_" gradientUnits="userSpaceOnUse" x1="92219.6172" y1="53708.7617" x2="107834.0703" y2="53708.7617" gradientTransform="matrix(-5.000000e-02 0 0 5.000000e-02 5251.7148 -2235.0637)">
		<stop  offset="0" style="stop-color:#B43E87"/>
		<stop  offset="0.97" style="stop-color:#B4623B"/>
		<stop  offset="1" style="stop-color:#B46334"/>
	</linearGradient>
	<path class="st26" d="M143,307.8c-16,6.5-29.5,14.8-40.4,26.8c-3.1,3.5-6,7.2-8.6,11.3c-13.4,21-18.2,48.6-16.8,75.9
		c2.5,49.5,26,100.4,44.3,143.9c0.8,1.9,1.6,3.8,2.4,5.7c4.8,11.5,9.1,22.1,13.9,31.8c4.8,9.9,10.2,18.7,16.3,28.5
		c0.7,1.1,1.4,2.3,2.1,3.4c2.7,4.4,5.5,9,8.4,14c15.3,26.5,31.6,58.4,56.6,79.8c17.7,15.1,42.8,24.4,63.9,23.2
		c10.7-0.6,17.8-1.5,29.6,1.7c0.6,0.2,1.2,0.3,1.9,0.5c12.5,3.6,24.6,9.4,36.3,15.5c0.4,0.2,0.8,0.5,1.3,0.7
		c19.2,10,38.2,20.6,58.4,28.2c37.2,14.2,77.8,22.2,113.1,15c31.8-6.5,56.7-21.6,86.3-36.8c3.3-1.7,6.7-3.4,10.1-5.1
		c2.1-1,4.1-2,6.2-3c37.1-17.6,79-32.6,112.7-56c40.2-27.8,70.8-69,77.9-112.2c0.3-1.8,0.6-3.7,0.8-5.5c0.3-2.9,0.6-5.8,0.7-8.8
		c1.7-42-17.5-78.1-43.2-115c-23.5-33.6-58.9-68.9-91.8-93.4c-8.3-6.2-16.3-12-23.5-18.1c-3.3-2.8-6.5-5.7-9.4-8.7
		c-4.6-4.6-8.7-9.5-12.4-15.2c-12.4-18.8-18.2-44.3-22.5-70.4c-0.2-1-0.3-1.9-0.5-2.9c-5.6-34-14.4-69.8-33.1-99.9
		c-3.8-6.1-7.9-11.9-12.3-17.5c-8.8-11-18.9-20.8-30.1-29.2c-23.6-17.6-52.2-28.8-81.8-31.4c-26-2.2-53.2,2.5-74.7,16.7
		c-13.4,8.9-23.8,20.7-31.6,34.3c-6.7,11.6-11.6,24.5-16.1,37.2c-3.2,9-6.3,17.9-9.7,26.1c-0.4,0.9-0.8,1.8-1.1,2.7
		c-9.5,21.8-22,40.2-39.7,55c-8.4,7-18,13.2-28.9,18.5c-25.7,12.6-57.5,17.1-84.9,23.3C162.5,301.1,152.4,304,143,307.8L143,307.8z"
		/>
</g>
<g class="st27">
	
		<linearGradient id="SVGID_4_" gradientUnits="userSpaceOnUse" x1="48641.168" y1="28330.916" x2="56425.2695" y2="28330.916" gradientTransform="matrix(-0.1 0 0 0.1 5490.8135 -2381.0942)">
		<stop  offset="0" style="stop-color:#B84089"/>
		<stop  offset="0.97" style="stop-color:#B86539"/>
		<stop  offset="1" style="stop-color:#B86631"/>
	</linearGradient>
	<path class="st28" d="M144.8,306.1c-16.7,6.5-31.1,14.7-42.6,26.9c-3.3,3.5-6.4,7.4-9.1,11.6c-14.1,21.9-17.9,50.9-15.8,79
		c3.7,49.2,27,99.8,44.1,143.5c0.8,1.9,1.5,3.8,2.2,5.7c4.5,11.5,8.4,22.1,12.8,31.9s9.5,18.8,15.1,28.6c0.7,1.1,1.3,2.3,2,3.4
		c2.5,4.5,5.2,9.1,8,14c14.7,26.7,30.9,58.5,56,79.8c18.1,15.3,43.9,24.5,65.4,22.9c10.9-0.8,18-1.9,30.1,1.2
		c0.6,0.2,1.3,0.3,1.9,0.5c12.8,3.5,25.1,9.3,37.1,15.5c0.4,0.2,0.9,0.5,1.3,0.7c19.6,10.2,39,20.9,59.6,28.5
		c36.9,13.7,77.1,21.3,111.6,13.4c31.1-7,55-22.8,83.8-38.2c3.2-1.7,6.5-3.5,9.9-5.2c2-1,4-2,6.1-3c36.3-18,77.9-32.6,111.6-55.2
		c40.4-27.1,71.7-67.5,80-110.3c0.3-1.8,0.7-3.6,0.9-5.5c0.4-2.9,0.7-5.8,0.9-8.7c2.8-41.7-14.8-78.2-39.6-115.3
		c-22.7-33.7-57.3-68.8-90.1-93.1c-8.3-6.1-16.2-11.8-23.4-17.7c-3.3-2.8-6.5-5.5-9.5-8.4c-4.6-4.4-8.7-9.2-12.5-14.6
		c-12.8-18.1-19.3-42.3-24.4-67.5c-0.2-0.9-0.4-1.8-0.6-2.8c-6.6-33-15.8-68.3-33.9-98.4c-3.8-6.2-7.8-12.3-12.1-18.1
		c-8.6-11.4-18.5-21.7-29.7-30.5c-23.4-18.6-52.5-30.5-82.7-33.2c-25.6-2.2-52.5,2.3-73.9,16.1c-13.3,8.7-23.7,20.1-31.6,33.3
		c-6.8,11.3-11.8,23.9-16.5,36.3c-3.3,8.8-6.4,17.5-9.9,25.6c-0.4,0.9-0.8,1.8-1.2,2.6c-9.5,21.4-22,39.6-39.4,54.1
		c-8.3,7-17.8,13.1-28.5,18.3c-25.3,12.4-56.7,16.9-83.8,23C164.1,299.6,154.2,302.5,144.8,306.1L144.8,306.1z"/>
</g>
<g class="st29">
	
		<linearGradient id="SVGID_5_" gradientUnits="userSpaceOnUse" x1="34508.2852" y1="21227.7129" x2="39684.0664" y2="21227.7129" gradientTransform="matrix(-0.14 0 0 0.14 5728.2158 -2518.2583)">
		<stop  offset="0" style="stop-color:#BB418A"/>
		<stop  offset="0.97" style="stop-color:#BB6837"/>
		<stop  offset="1" style="stop-color:#BB692F"/>
	</linearGradient>
	<path class="st30" d="M146.6,304.5c-17.3,6.5-32.6,14.5-44.7,27c-3.5,3.6-6.7,7.6-9.6,12c-14.9,22.8-17.6,53.1-14.8,82.1
		c4.8,48.9,27.9,99.3,43.9,143.2c0.7,1.9,1.4,3.8,2.1,5.8c4.1,11.4,7.7,22.1,11.7,31.9s8.7,18.9,14,28.8c0.6,1.1,1.2,2.3,1.8,3.5
		c2.4,4.5,5,9.2,7.5,14.1c14.1,27,30.3,58.7,55.3,79.8c18.4,15.4,44.9,24.7,66.8,22.5c11.1-1.1,18.3-2.3,30.7,0.6
		c0.7,0.2,1.3,0.3,2,0.5c13,3.4,25.7,9.3,37.9,15.5c0.4,0.2,0.9,0.5,1.3,0.7c20,10.3,39.8,21.2,60.8,28.9
		c36.5,13.3,76.3,20.3,110.2,11.8c30.3-7.7,53.3-23.9,81.3-39.7c3.1-1.8,6.3-3.6,9.6-5.3c1.9-1,3.9-2.1,5.9-3.1
		c35.5-18.3,76.8-32.5,110.5-54.4c40.7-26.4,72.7-65.9,82.1-108.4c0.4-1.8,0.7-3.6,1.1-5.4c0.5-2.9,0.9-5.7,1.1-8.6
		c4-41.3-12-78.3-36-115.6c-21.8-33.8-55.8-68.8-88.4-92.8c-8.2-6-16.1-11.5-23.3-17.4c-3.3-2.7-6.5-5.4-9.5-8.1
		c-4.6-4.3-8.8-8.9-12.7-14c-13.1-17.3-20.5-40.3-26.3-64.7c-0.2-0.9-0.4-1.8-0.6-2.7c-7.6-32-17.2-66.9-34.8-96.9
		c-3.8-6.4-7.7-12.7-11.9-18.6c-8.4-11.8-18.1-22.5-29.2-31.8c-23.3-19.5-52.8-32.2-83.5-35c-25.3-2.3-51.8,2.2-73,15.6
		c-13.2,8.4-23.6,19.5-31.6,32.4c-6.9,11-12.1,23.2-16.9,35.4c-3.4,8.6-6.6,17.1-10.1,25.1c-0.4,0.9-0.8,1.7-1.2,2.6
		c-9.6,21-21.9,39-39.1,53.3c-8.3,6.9-17.6,12.9-28.2,18.1c-25.1,12.3-56,16.8-82.8,22.7C165.8,298.2,155.9,301,146.6,304.5
		L146.6,304.5z"/>
</g>
<g class="st31">
	
		<linearGradient id="SVGID_6_" gradientUnits="userSpaceOnUse" x1="27067.9082" y1="16418.834" x2="30940.8477" y2="16418.834" gradientTransform="matrix(-0.19 0 0 0.19 5967.3242 -2664.2888)">
		<stop  offset="0" style="stop-color:#BF428C"/>
		<stop  offset="0.97" style="stop-color:#BF6B35"/>
		<stop  offset="1" style="stop-color:#BF6C2D"/>
	</linearGradient>
	<path class="st32" d="M148.4,302.9c-18,6.5-34.2,14.3-46.9,27.1c-3.7,3.7-7.1,7.8-10,12.3c-15.7,23.7-17.4,55.4-13.8,85.3
		c5.9,48.6,28.8,98.8,43.7,142.9c0.7,1.9,1.3,3.9,1.9,5.8c3.8,11.4,7,22.1,10.6,32c3.7,10,7.9,19,12.8,28.9c0.6,1.2,1.1,2.3,1.7,3.5
		c2.2,4.5,4.7,9.2,7.1,14.2c13.5,27.2,29.6,58.9,54.7,79.9c18.8,15.6,45.9,24.8,68.3,22.2c11.3-1.3,18.6-2.8,31.2,0.1
		c0.7,0.2,1.3,0.3,2,0.5c13.3,3.3,26.2,9.2,38.7,15.5c0.5,0.2,0.9,0.5,1.4,0.7c20.4,10.4,40.6,21.6,62,29.2
		c36.1,12.9,75.6,19.4,108.7,10.1c29.6-8.3,51.7-25,78.8-41.2c3.1-1.8,6.2-3.7,9.4-5.5c1.9-1.1,3.8-2.1,5.8-3.2
		c34.8-18.7,75.8-32.4,109.4-53.5c40.9-25.7,73.7-64.3,84.1-106.6c0.4-1.8,0.8-3.6,1.2-5.4c0.6-2.8,1-5.7,1.4-8.5
		c5.1-41-9.3-78.4-32.4-115.9c-20.9-33.9-54.2-68.8-86.7-92.5c-8.1-5.9-16-11.4-23.2-17c-3.3-2.6-6.5-5.2-9.5-7.9
		c-4.7-4.1-8.9-8.5-12.9-13.4c-13.5-16.6-21.6-38.3-28.2-61.8c-0.2-0.9-0.5-1.7-0.7-2.6c-8.6-31-18.5-65.4-35.6-95.3
		c-3.7-6.6-7.6-13-11.8-19.2c-8.3-12.2-17.7-23.4-28.7-33.1c-23.1-20.4-53.1-33.9-84.4-36.8c-25-2.3-51.1,2-72.2,15
		c-13.1,8.1-23.5,18.9-31.6,31.4c-7,10.7-12.3,22.6-17.2,34.5c-3.5,8.4-6.7,16.8-10.3,24.6c-0.4,0.9-0.8,1.7-1.2,2.5
		c-9.6,20.6-21.8,38.4-38.8,52.5c-8.2,6.8-17.4,12.7-27.8,17.8c-24.7,12.1-55.2,16.6-81.7,22.4C167.4,296.8,157.7,299.5,148.4,302.9
		L148.4,302.9z"/>
</g>
<g class="st33">
	
		<linearGradient id="SVGID_7_" gradientUnits="userSpaceOnUse" x1="22629.0684" y1="13613.8711" x2="25721.3281" y2="13613.8711" gradientTransform="matrix(-0.24 0 0 0.24 6206.4229 -2810.3191)">
		<stop  offset="0" style="stop-color:#C2448D"/>
		<stop  offset="0.97" style="stop-color:#C26E33"/>
		<stop  offset="1" style="stop-color:#C26F2A"/>
	</linearGradient>
	<path class="st34" d="M150.3,301.2c-18.6,6.4-35.8,14.2-49.1,27.2c-3.9,3.8-7.4,8-10.5,12.7c-16.4,24.6-17.2,57.6-12.8,88.4
		c6.9,48.3,29.8,98.2,43.6,142.6c0.6,1.9,1.2,3.9,1.8,5.8c3.5,11.4,6.3,22.1,9.5,32s7.1,19,11.7,29c0.5,1.2,1,2.3,1.6,3.5
		c2.1,4.6,4.3,9.3,6.7,14.3c12.8,27.4,28.9,59.1,54,79.9c19.1,15.8,46.9,24.9,69.7,21.9c11.5-1.5,18.9-3.2,31.7-0.4
		c0.7,0.2,1.4,0.3,2,0.5c13.6,3.3,26.8,9.2,39.5,15.6c0.5,0.2,0.9,0.5,1.4,0.7c20.8,10.5,41.3,21.9,63.2,29.6
		c35.7,12.5,74.8,18.4,107.3,8.5c28.9-8.8,50-26.1,76.2-42.6c3-1.9,6-3.7,9.1-5.6c1.8-1.1,3.7-2.2,5.6-3.2
		c34-19.1,74.8-32.4,108.3-52.7c41.2-25,74.6-62.8,86.2-104.7c0.5-1.8,0.9-3.5,1.3-5.3c0.6-2.8,1.2-5.6,1.6-8.5
		c6.2-40.7-6.6-78.5-28.8-116.2c-20-34-52.7-68.7-85.1-92.2c-8-5.9-15.9-11.1-23.1-16.6c-3.3-2.5-6.5-5-9.6-7.6
		c-4.7-4-9-8.1-13.1-12.8c-13.9-15.8-22.8-36.2-30.1-59c-0.3-0.8-0.5-1.7-0.8-2.5c-9.6-30-19.9-64-36.4-93.8
		c-3.7-6.7-7.5-13.4-11.6-19.8c-8.1-12.6-17.3-24.3-28.2-34.5c-22.9-21.4-53.4-35.6-85.3-38.6c-24.7-2.4-50.4,1.9-71.3,14.4
		c-13,7.9-23.4,18.3-31.7,30.4c-7.1,10.4-12.6,22-17.6,33.6c-3.5,8.2-6.9,16.4-10.5,24.1c-0.4,0.8-0.8,1.7-1.2,2.5
		c-9.7,20.2-21.7,37.8-38.5,51.7c-8.1,6.7-17.2,12.6-27.4,17.6c-24.4,12-54.3,16.4-80.7,22.1C169,295.4,159.4,298.1,150.3,301.2
		L150.3,301.2z"/>
</g>
<g class="st35">
	
		<linearGradient id="SVGID_8_" gradientUnits="userSpaceOnUse" x1="19679.7969" y1="11776.1104" x2="22252.4355" y2="11776.1104" gradientTransform="matrix(-0.29 0 0 0.29 6445.5205 -2956.3591)">
		<stop  offset="0" style="stop-color:#C6458F"/>
		<stop  offset="0.97" style="stop-color:#C67131"/>
		<stop  offset="1" style="stop-color:#C67228"/>
	</linearGradient>
	<path class="st36" d="M152.1,299.6c-19.3,6.4-37.3,14-51.3,27.3c-4.1,3.9-7.8,8.2-11,13c-17.2,25.5-16.9,59.8-11.7,91.5
		c7.9,48,30.8,97.7,43.4,142.3c0.5,1.9,1.1,3.9,1.6,5.8c3.1,11.4,5.6,22.1,8.5,32.1s6.4,19.1,10.5,29.2c0.5,1.2,1,2.3,1.5,3.5
		c1.9,4.6,4.1,9.4,6.3,14.4c12.2,27.7,28.2,59.3,53.4,79.9c19.5,16,47.9,25,71.2,21.5c11.8-1.8,19.2-3.6,32.2-0.9
		c0.7,0.1,1.4,0.3,2.1,0.5c13.9,3.2,27.3,9.1,40.3,15.6c0.5,0.2,0.9,0.5,1.4,0.7c21.2,10.6,42.1,22.3,64.4,30
		c35.3,12.1,74.1,17.5,105.8,6.9c28.2-9.4,48.3-27.3,73.7-44.1c2.9-1.9,5.8-3.8,8.8-5.7c1.8-1.1,3.6-2.2,5.5-3.3
		c33.3-19.5,73.7-32.3,107.1-51.9c41.5-24.3,75.5-61.2,88.2-102.8c0.5-1.7,1-3.5,1.5-5.2c0.7-2.8,1.3-5.6,1.8-8.4
		c7.4-40.3-3.9-78.6-25.2-116.6c-19.1-34.1-51.2-68.7-83.4-91.9c-8-5.8-15.8-11-23-16.3c-3.3-2.4-6.5-4.8-9.6-7.3
		c-4.7-3.8-9.1-7.8-13.2-12.2c-14.3-15.1-24-34.2-32-56.1c-0.3-0.8-0.6-1.6-0.9-2.4c-10.5-29-21.2-62.6-37.2-92.3
		c-3.7-6.9-7.4-13.8-11.4-20.4c-7.9-13-16.9-25.1-27.8-35.8c-22.8-22.3-53.7-37.3-86.2-40.5c-24.3-2.4-49.7,1.7-70.5,13.9
		c-12.9,7.6-23.3,17.7-31.7,29.5c-7.2,10.1-12.8,21.4-18,32.7c-3.6,8-7,16-10.7,23.6c-0.4,0.8-0.8,1.6-1.2,2.4
		c-9.7,19.8-21.6,37.1-38.2,50.9c-8,6.7-17,12.4-27.1,17.4c-24.1,11.8-53.6,16.3-79.6,21.8C170.6,294,161.1,296.6,152.1,299.6
		L152.1,299.6z"/>
</g>
<g class="st37">
	
		<linearGradient id="SVGID_9_" gradientUnits="userSpaceOnUse" x1="17651.4844" y1="10769.5947" x2="19853.6523" y2="10769.5947" gradientTransform="matrix(-0.33 0 0 0.33 6682.9233 -3093.5137)">
		<stop  offset="0" style="stop-color:#C94690"/>
		<stop  offset="0.97" style="stop-color:#C9742F"/>
		<stop  offset="1" style="stop-color:#C97526"/>
	</linearGradient>
	<path class="st38" d="M153.9,297.9c-19.9,6.3-38.9,13.8-53.5,27.4c-4.3,4-8.1,8.4-11.5,13.4c-17.9,26.4-16.8,62.1-10.7,94.6
		c8.8,47.7,31.7,97.1,43.2,141.9c0.5,2,1,3.9,1.5,5.8c2.8,11.4,4.9,22.1,7.4,32.1c2.5,10,5.6,19.2,9.4,29.3c0.4,1.2,0.9,2.3,1.3,3.5
		c1.8,4.6,3.8,9.4,5.8,14.5c11.5,27.9,27.5,59.5,52.8,79.9c19.9,16.1,48.9,25.2,72.6,21.2c12-2,19.5-4,32.8-1.4
		c0.7,0.1,1.4,0.3,2.1,0.4c14.2,3.1,27.9,9,41.1,15.6c0.5,0.2,1,0.5,1.4,0.7c21.6,10.8,42.9,22.6,65.6,30.3
		c34.9,11.8,73.3,16.6,104.4,5.3c27.5-10,46.6-28.4,71.2-45.6c2.8-2,5.6-3.9,8.6-5.8c1.8-1.1,3.6-2.3,5.4-3.4
		c32.5-19.9,72.7-32.2,106-51.1c41.7-23.7,76.4-59.6,90.3-101c0.6-1.7,1.1-3.5,1.6-5.2c0.8-2.8,1.5-5.5,2.1-8.3
		c8.5-40-1.2-78.6-21.6-116.9c-18.3-34.2-49.6-68.6-81.7-91.6c-7.9-5.7-15.6-10.8-22.9-15.9c-3.3-2.3-6.5-4.7-9.6-7
		c-4.8-3.6-9.2-7.5-13.4-11.6c-14.7-14.3-25.2-32.2-33.9-53.2c-0.3-0.8-0.7-1.5-1-2.3c-11.5-28-22.5-61.2-38-90.7
		c-3.7-7.1-7.3-14.1-11.2-20.9c-7.8-13.4-16.5-26-27.3-37.1c-22.6-23.2-54-38.9-87.1-42.3c-24-2.4-49,1.6-69.7,13.3
		c-12.8,7.3-23.2,17.1-31.7,28.5c-7.3,9.8-13.1,20.7-18.4,31.8c-3.7,7.8-7.2,15.7-10.9,23.1c-0.4,0.8-0.8,1.6-1.2,2.4
		c-9.8,19.4-21.6,36.5-37.9,50.1c-7.9,6.6-16.8,12.3-26.7,17.1c-23.8,11.6-52.8,16.1-78.6,21.5C172.2,292.5,162.9,295.1,153.9,297.9
		L153.9,297.9z"/>
</g>
<g class="st39">
	
		<linearGradient id="SVGID_10_" gradientUnits="userSpaceOnUse" x1="16059.3115" y1="9741.4639" x2="17984.2109" y2="9741.4639" gradientTransform="matrix(-0.38 0 0 0.38 6922.022 -3239.554)">
		<stop  offset="0" style="stop-color:#CD4891"/>
		<stop  offset="0.97" style="stop-color:#CD772D"/>
		<stop  offset="1" style="stop-color:#CD7823"/>
	</linearGradient>
	<path class="st40" d="M155.7,296.3c-20.6,6.3-40.5,13.7-55.7,27.5c-4.5,4-8.5,8.6-12,13.7c-18.7,27.3-16.6,64.3-9.7,97.8
		c9.7,47.4,32.7,96.5,43,141.6c0.5,2,0.9,3.9,1.3,5.8c2.5,11.3,4.2,22,6.3,32.2c2.1,10.1,4.8,19.3,8.2,29.4c0.4,1.2,0.8,2.4,1.2,3.6
		c1.6,4.7,3.5,9.5,5.4,14.6c10.9,28.1,26.9,59.6,52.1,80c20.2,16.3,49.9,25.3,74.1,20.8c12.2-2.2,19.8-4.5,33.3-2
		c0.7,0.1,1.4,0.3,2.2,0.4c14.5,3,28.5,9,41.9,15.6c0.5,0.2,1,0.5,1.5,0.7c22,10.9,43.6,23,66.8,30.7c34.5,11.4,72.6,15.7,102.9,3.7
		c26.8-10.6,45-29.5,68.7-47c2.7-2,5.5-4,8.3-5.9c1.7-1.2,3.4-2.3,5.2-3.4c31.8-20.2,71.6-32.1,104.9-50.3
		c42-23,77.4-58.1,92.4-99.1c0.6-1.7,1.2-3.4,1.7-5.2c0.9-2.7,1.6-5.5,2.3-8.2c9.6-39.7,1.5-78.7-18-117.2
		c-17.4-34.3-48.1-68.6-80-91.3c-7.8-5.6-15.5-10.5-22.8-15.5c-3.3-2.3-6.5-4.5-9.7-6.8c-4.8-3.5-9.3-7.1-13.6-11
		c-15.1-13.6-26.3-30.2-35.8-50.4c-0.3-0.8-0.7-1.5-1.1-2.2c-12.5-27-23.9-59.8-38.8-89.2c-3.7-7.2-7.2-14.5-11-21.5
		c-7.6-13.8-16.1-26.9-26.8-38.4c-22.4-24.2-54.3-40.6-88-44.1c-23.7-2.4-48.3,1.4-68.8,12.8c-12.7,7.1-23.2,16.5-31.7,27.5
		c-7.4,9.5-13.3,20.1-18.8,30.9c-3.8,7.6-7.3,15.3-11.1,22.6c-0.4,0.8-0.8,1.6-1.2,2.4c-9.8,19-21.5,35.9-37.6,49.3
		c-7.8,6.5-16.6,12.1-26.4,16.9c-23.5,11.5-52,16-77.5,21.2C173.9,291.1,164.6,293.6,155.7,296.3L155.7,296.3z"/>
</g>
<g class="st41">
	
		<linearGradient id="SVGID_11_" gradientUnits="userSpaceOnUse" x1="14824.002" y1="8952.4395" x2="16533.7324" y2="8952.4395" gradientTransform="matrix(-0.43 0 0 0.43 7161.1201 -3385.584)">
		<stop  offset="0" style="stop-color:#D04993"/>
		<stop  offset="0.97" style="stop-color:#D07A2B"/>
		<stop  offset="1" style="stop-color:#D07B21"/>
	</linearGradient>
	<path class="st42" d="M157.5,294.7c-21.3,6.2-42,13.5-57.9,27.6c-4.7,4.1-8.8,8.8-12.5,14.1c-19.5,28.2-16.4,66.6-8.7,100.9
		c10.6,47.1,33.7,96,42.9,141.3c0.4,2,0.8,3.9,1.1,5.8c2.2,11.3,3.5,22,5.2,32.2c1.7,10.2,4,19.4,7.1,29.5c0.4,1.2,0.7,2.4,1.1,3.6
		c1.5,4.7,3.2,9.6,5,14.7c10.2,28.4,26.2,59.8,51.5,80c20.6,16.5,50.9,25.4,75.5,20.5c12.4-2.4,20.1-4.9,33.8-2.5
		c0.7,0.1,1.5,0.3,2.2,0.4c14.7,3,29,9,42.7,15.6c0.5,0.2,1,0.5,1.5,0.7c22.4,11,44.4,23.4,68,31c34.1,11,71.8,14.7,101.5,2
		c26.1-11.2,43.3-30.7,66.1-48.5c2.6-2,5.3-4.1,8.1-6.1c1.7-1.2,3.4-2.3,5.1-3.5c31-20.6,70.6-32,103.8-49.5
		c42.3-22.2,78.3-56.5,94.4-97.2c0.7-1.7,1.3-3.4,1.9-5.1c0.9-2.7,1.8-5.4,2.5-8.2c10.8-39.3,4.2-78.8-14.5-117.6
		c-16.6-34.4-46.5-68.6-78.3-91c-7.7-5.5-15.4-10.4-22.8-15.2c-3.3-2.2-6.5-4.3-9.7-6.5c-4.8-3.3-9.4-6.8-13.8-10.4
		c-15.5-12.8-27.5-28.2-37.7-47.5c-0.4-0.7-0.8-1.4-1.1-2.2c-13.5-26-25.2-58.3-39.6-87.7c-3.7-7.4-7.1-14.9-10.8-22.1
		c-7.4-14.2-15.8-27.8-26.4-39.7c-22.2-25.1-54.6-42.3-88.9-45.9c-23.3-2.4-47.6,1.3-68,12.2c-12.6,6.8-23.1,15.9-31.7,26.6
		c-7.5,9.2-13.6,19.5-19.1,30c-3.9,7.4-7.5,14.9-11.3,22.1c-0.4,0.8-0.8,1.5-1.2,2.3c-9.9,18.6-21.4,35.3-37.3,48.5
		c-7.7,6.4-16.4,12-26,16.7c-23.2,11.3-51.2,15.8-76.4,20.9C175.5,289.7,166.3,292.1,157.5,294.7L157.5,294.7z"/>
</g>
<g class="st43">
	
		<linearGradient id="SVGID_12_" gradientUnits="userSpaceOnUse" x1="13837.5176" y1="8327.9111" x2="15375.5674" y2="8327.9111" gradientTransform="matrix(-0.48 0 0 0.48 7400.2183 -3531.6245)">
		<stop  offset="0" style="stop-color:#D44A94"/>
		<stop  offset="0.97" style="stop-color:#D47D29"/>
		<stop  offset="1" style="stop-color:#D47E1F"/>
	</linearGradient>
	<path class="st44" d="M159.4,293c-21.9,6.1-43.6,13.3-60,27.7c-4.8,4.2-9.2,9-13,14.4c-20.2,29.1-16.3,68.8-7.7,104
		c11.4,46.8,34.6,95.4,42.7,141c0.3,2,0.7,3.9,1,5.8c1.8,11.3,2.8,22,4.2,32.2s3.2,19.5,5.9,29.7c0.3,1.2,0.6,2.4,1,3.6
		c1.3,4.8,2.9,9.7,4.6,14.7c9.6,28.6,25.6,60,50.8,80c21,16.6,51.9,25.5,77,20.2c12.6-2.7,20.4-5.3,34.3-3c0.7,0.1,1.5,0.3,2.3,0.4
		c15,2.9,29.6,8.9,43.5,15.6c0.5,0.2,1,0.5,1.5,0.7c22.8,11.1,45.1,23.7,69.2,31.4c33.7,10.7,71.1,13.8,100,0.4
		c25.4-11.7,41.6-31.8,63.6-50c2.5-2.1,5.1-4.2,7.8-6.2c1.6-1.2,3.3-2.4,4.9-3.6c30.3-21,69.5-31.9,102.7-48.7
		c42.6-21.5,79.2-54.9,96.5-95.3c0.7-1.7,1.4-3.3,2-5c1-2.7,1.9-5.4,2.8-8.1c11.9-39,6.9-78.8-10.9-117.9
		c-15.7-34.4-45-68.5-76.6-90.6c-7.7-5.4-15.3-10.2-22.7-14.8c-3.3-2.1-6.5-4.2-9.7-6.2c-4.9-3.2-9.5-6.4-14-9.8
		c-15.9-12.1-28.7-26.2-39.6-44.7c-0.4-0.7-0.8-1.4-1.2-2.1c-14.5-25-26.5-56.9-40.4-86.1c-3.6-7.6-7-15.2-10.7-22.6
		c-7.3-14.6-15.4-28.6-25.9-41c-22.1-26-54.9-44-89.8-47.7c-23-2.4-46.9,1.1-67.1,11.7c-12.4,6.5-23,15.3-31.8,25.6
		c-7.5,8.9-13.8,18.9-19.5,29.1c-4,7.2-7.7,14.6-11.5,21.6c-0.4,0.8-0.8,1.5-1.2,2.3c-9.9,18.1-21.3,34.6-37,47.7
		c-7.7,6.4-16.2,11.8-25.7,16.4c-22.9,11.2-50.4,15.6-75.4,20.6C177.1,288.3,168.1,290.6,159.4,293L159.4,293z"/>
</g>
<g class="st45">
	
		<linearGradient id="SVGID_13_" gradientUnits="userSpaceOnUse" x1="13061.4824" y1="7954.6313" x2="14459.4521" y2="7954.6313" gradientTransform="matrix(-0.52 0 0 0.52 7637.6313 -3668.7786)">
		<stop  offset="0" style="stop-color:#D74C96"/>
		<stop  offset="0.97" style="stop-color:#D78026"/>
		<stop  offset="1" style="stop-color:#D7821C"/>
	</linearGradient>
	<path class="st46" d="M161.2,291.4c-22.6,6-45.2,13.1-62.2,27.8c-5,4.3-9.6,9.2-13.5,14.8c-21,30-16.2,71.1-6.7,107.1
		c12.2,46.6,35.6,94.9,42.5,140.6c0.3,2,0.6,3.9,0.8,5.8c1.5,11.3,2.1,22,3.1,32.3s2.5,19.6,4.8,29.8c0.3,1.2,0.5,2.4,0.8,3.6
		c1.2,4.8,2.6,9.7,4.1,14.8c8.9,28.9,24.9,60.1,50.2,80c21.3,16.8,52.9,25.6,78.4,19.8c12.8-2.9,20.7-5.8,34.8-3.5
		c0.8,0.1,1.5,0.2,2.3,0.4c15.3,2.8,30.1,8.8,44.3,15.7c0.5,0.2,1,0.5,1.5,0.8c23.2,11.2,45.9,24.1,70.4,31.7
		c33.3,10.3,70.4,12.9,98.6-1.2c24.7-12.3,39.9-33,61.1-51.4c2.4-2.1,4.9-4.2,7.6-6.3c1.6-1.2,3.2-2.4,4.8-3.6
		c29.5-21.4,68.5-31.8,101.6-47.9c42.8-20.8,80.1-53.4,98.5-93.5c0.8-1.7,1.5-3.3,2.2-5c1.1-2.7,2.1-5.3,3-8
		c13-38.6,9.6-78.9-7.3-118.2c-14.8-34.5-43.5-68.5-74.9-90.4c-7.6-5.3-15.2-10-22.6-14.5c-3.3-2-6.6-4-9.7-5.9
		c-4.9-3-9.6-6-14.1-9.2c-16.3-11.3-29.9-24.2-41.4-41.8c-0.4-0.7-0.9-1.3-1.3-2c-15.5-23.9-27.8-55.5-41.3-84.6
		c-3.6-7.7-6.9-15.6-10.5-23.2c-7.1-15.1-15-29.5-25.4-42.4c-21.9-27-55.3-45.6-90.7-49.5c-22.7-2.5-46.2,1-66.3,11.1
		c-12.3,6.3-22.9,14.7-31.8,24.7c-7.6,8.6-14.1,18.2-19.9,28.2c-4,7-7.8,14.2-11.7,21.1c-0.4,0.7-0.8,1.5-1.2,2.2
		c-10,17.7-21.2,34-36.7,46.8c-7.6,6.3-16,11.7-25.3,16.2c-22.6,11-49.6,15.5-74.3,20.3C178.7,286.9,169.8,289.1,161.2,291.4
		L161.2,291.4z"/>
</g>
<g class="st47">
	
		<linearGradient id="SVGID_14_" gradientUnits="userSpaceOnUse" x1="12385.4062" y1="7516.2603" x2="13667.0068" y2="7516.2603" gradientTransform="matrix(-0.57 0 0 0.57 7876.729 -3814.8191)">
		<stop  offset="0" style="stop-color:#DB4D97"/>
		<stop  offset="0.97" style="stop-color:#DB8324"/>
		<stop  offset="1" style="stop-color:#DB851A"/>
	</linearGradient>
	<path class="st48" d="M163,289.8c-23.3,5.9-46.7,13-64.4,27.9c-5.2,4.4-9.9,9.4-13.9,15.1c-21.7,30.9-16.1,73.3-5.7,110.3
		c13,46.3,36.6,94.3,42.3,140.3c0.2,2,0.5,3.9,0.7,5.8c1.2,11.2,1.4,22,2,32.3c0.6,10.1,1.7,19.7,3.6,29.9c0.2,1.2,0.5,2.4,0.7,3.7
		c1,4.8,2.3,9.8,3.7,14.9c8.3,29.1,24.2,60.3,49.5,80c21.7,17,53.9,25.8,79.9,19.5c13.1-3.1,21-6.2,35.4-4c0.8,0.1,1.5,0.2,2.3,0.4
		c15.6,2.8,30.7,8.8,45.1,15.7c0.5,0.2,1,0.5,1.6,0.8c23.6,11.4,46.6,24.5,71.6,32.1c32.8,10,69.6,12,97.1-2.8
		c24-12.9,38.2-34.1,58.6-52.9c2.3-2.2,4.8-4.3,7.3-6.4c1.5-1.2,3.1-2.5,4.7-3.7c28.8-21.8,67.5-31.7,100.4-47.1
		c43.1-20.1,81-51.8,100.6-91.6c0.8-1.6,1.6-3.3,2.3-4.9c1.2-2.6,2.2-5.3,3.2-8c14.1-38.3,12.3-79-3.7-118.5
		c-14-34.6-41.9-68.4-73.2-90.1c-7.5-5.2-15.1-9.8-22.5-14.1c-3.3-1.9-6.6-3.8-9.8-5.7c-4.9-2.8-9.7-5.7-14.3-8.6
		c-16.8-10.5-31.1-22.2-43.3-39c-0.5-0.6-0.9-1.3-1.4-1.9c-16.5-22.9-29-54.2-42.1-83.1c-3.6-7.9-6.8-15.9-10.3-23.8
		c-6.9-15.5-14.6-30.4-24.9-43.7c-21.8-27.9-55.6-47.3-91.6-51.3c-22.3-2.5-45.6,0.8-65.5,10.5c-12.2,6-22.8,14.1-31.8,23.7
		c-7.7,8.2-14.3,17.6-20.3,27.3c-4.1,6.8-8,13.8-11.9,20.6c-0.4,0.7-0.8,1.4-1.3,2.2c-10,17.3-21.2,33.4-36.3,46
		c-7.5,6.2-15.8,11.5-24.9,16c-22.3,10.9-48.8,15.3-73.3,20C180.4,285.4,171.5,287.6,163,289.8L163,289.8z"/>
</g>
<g class="st49">
	
		<linearGradient id="SVGID_15_" gradientUnits="userSpaceOnUse" x1="11814.1162" y1="7148.6597" x2="12997.5566" y2="7148.6597" gradientTransform="matrix(-0.62 0 0 0.62 8115.8276 -3960.8494)">
		<stop  offset="0" style="stop-color:#DE4E99"/>
		<stop  offset="0.97" style="stop-color:#DE8622"/>
		<stop  offset="1" style="stop-color:#DE8818"/>
	</linearGradient>
	<path class="st50" d="M164.8,288.1c-24,5.8-48.3,12.8-66.6,28c-5.4,4.5-10.3,9.6-14.4,15.5c-22.5,31.8-16,75.6-4.7,113.4
		c13.8,46,37.6,93.7,42.2,140c0.2,2,0.4,3.9,0.5,5.9c0.8,11.2,0.7,22,0.9,32.4s0.9,19.8,2.5,30.1c0.2,1.2,0.4,2.5,0.6,3.7
		c0.8,4.9,2,9.9,3.3,15c7.6,29.4,23.6,60.5,48.9,80.1c22.1,17.1,54.9,25.9,81.3,19.1c13.3-3.4,21.3-6.6,35.9-4.5
		c0.8,0.1,1.6,0.2,2.4,0.4c15.9,2.7,31.2,8.7,45.9,15.7c0.5,0.2,1.1,0.5,1.6,0.8c24,11.5,47.4,24.9,72.8,32.4
		c32.4,9.6,68.9,11.1,95.7-4.4c23.3-13.5,36.6-35.3,56-54.4c2.3-2.2,4.6-4.4,7.1-6.5c1.5-1.3,3-2.5,4.5-3.8
		c28-22.2,66.4-31.6,99.3-46.3c43.4-19.3,81.9-50.3,102.7-89.8c0.8-1.6,1.7-3.2,2.4-4.9c1.2-2.6,2.4-5.2,3.4-7.9
		c15.3-38,15-79-0.1-118.9c-13.2-34.7-40.4-68.4-71.5-89.7c-7.4-5.1-15-9.6-22.4-13.7c-3.3-1.9-6.6-3.6-9.8-5.4
		c-5-2.7-9.8-5.3-14.5-8c-17.2-9.7-32.3-20.2-45.2-36.1c-0.5-0.6-1-1.2-1.5-1.8c-17.5-21.9-30.3-52.8-42.9-81.5
		c-3.5-8.1-6.7-16.3-10.1-24.3c-6.8-15.9-14.2-31.2-24.5-45c-21.6-28.8-55.9-49-92.4-53.1c-22-2.5-44.8,0.7-64.6,10
		c-12.1,5.7-22.7,13.5-31.8,22.7c-7.8,7.9-14.6,17-20.6,26.4c-4.2,6.6-8.1,13.4-12.1,20.1c-0.4,0.7-0.8,1.4-1.3,2.1
		c-10.1,16.9-21.1,32.8-36,45.2c-7.4,6.2-15.6,11.4-24.6,15.7c-22,10.7-48,15.2-72.2,19.7C181.9,284.1,173.2,286.1,164.8,288.1
		L164.8,288.1z"/>
</g>
<g class="st51">
	
		<linearGradient id="SVGID_16_" gradientUnits="userSpaceOnUse" x1="11324.9521" y1="6835.9282" x2="12424.5322" y2="6835.9282" gradientTransform="matrix(-0.67 0 0 0.67 8354.9258 -4106.8794)">
		<stop  offset="0" style="stop-color:#E2509A"/>
		<stop  offset="0.97" style="stop-color:#E28920"/>
		<stop  offset="1" style="stop-color:#E28B15"/>
	</linearGradient>
	<path class="st52" d="M166.6,286.5c-24.7,5.7-49.8,12.6-68.8,28.1c-5.6,4.5-10.6,9.8-14.9,15.8c-23.3,32.7-16,77.9-3.7,116.5
		c14.6,45.8,38.6,93.2,42,139.7c0.1,2,0.3,3.9,0.3,5.9c0.5,11.2,0,22-0.1,32.4s0.1,19.9,1.3,30.2c0.2,1.2,0.3,2.5,0.5,3.7
		c0.7,4.9,1.7,10,2.8,15.1c6.9,29.6,22.9,60.6,48.3,80.1c22.5,17.3,55.9,26,82.8,18.8c13.5-3.6,21.6-7,36.4-5.1
		c0.8,0.1,1.6,0.2,2.4,0.3c16.2,2.6,31.8,8.7,46.7,15.7c0.5,0.3,1.1,0.5,1.6,0.8c24.4,11.6,48.1,25.3,74,32.8
		c32,9.3,68.1,10.2,94.2-6.1c22.6-14,34.9-36.5,53.5-55.8c2.2-2.3,4.4-4.5,6.8-6.7c1.4-1.3,2.9-2.6,4.4-3.8
		c27.3-22.5,65.4-31.5,98.2-45.5c43.7-18.6,82.8-48.7,104.7-87.9c0.9-1.6,1.7-3.2,2.6-4.8c1.3-2.6,2.5-5.2,3.7-7.8
		c16.4-37.6,17.7-79.1,3.5-119.2c-12.3-34.8-38.8-68.4-69.8-89.4c-7.3-5-14.8-9.4-22.3-13.4c-3.3-1.8-6.6-3.5-9.8-5.1
		c-5-2.5-9.9-5-14.7-7.4c-17.6-9-33.5-18.1-47.1-33.2c-0.5-0.6-1-1.1-1.6-1.7c-18.4-20.9-31.6-51.4-43.7-80
		c-3.5-8.3-6.6-16.7-9.9-24.9c-6.6-16.3-13.8-32.1-24-46.3c-21.4-29.8-56.2-50.6-93.3-54.9c-21.7-2.5-44.2,0.5-63.8,9.4
		c-12,5.5-22.6,12.9-31.8,21.8c-7.9,7.6-14.8,16.3-21,25.6c-4.3,6.4-8.3,13.1-12.3,19.6c-0.4,0.7-0.8,1.4-1.3,2.1
		c-10.2,16.5-21,32.1-35.8,44.4c-7.3,6.1-15.4,11.2-24.2,15.5c-21.6,10.5-47.2,15-71.1,19.4C183.6,282.6,175,284.5,166.6,286.5
		L166.6,286.5z"/>
</g>
<g class="st53">
	
		<linearGradient id="SVGID_17_" gradientUnits="userSpaceOnUse" x1="10917.5176" y1="6646.6826" x2="11944.6777" y2="6646.6826" gradientTransform="matrix(-0.71 0 0 0.71 8592.3291 -4244.0439)">
		<stop  offset="0" style="stop-color:#E5519B"/>
		<stop  offset="0.97" style="stop-color:#E58C1E"/>
		<stop  offset="1" style="stop-color:#E58E13"/>
	</linearGradient>
	<path class="st54" d="M168.5,284.8c-25.3,5.5-51.4,12.5-71,28.2c-5.8,4.6-11,10-15.4,16.2c-24,33.6-16,80.2-2.7,119.6
		c15.3,45.5,39.5,92.6,41.8,139.4c0.1,2,0.2,3.9,0.2,5.9c0.2,11.2-0.6,22-1.2,32.5s-0.7,20,0.2,30.3c0.1,1.2,0.2,2.5,0.3,3.7
		c0.5,5,1.3,10,2.4,15.2c6.3,29.9,22.3,60.8,47.6,80.1c22.9,17.4,56.9,26.1,84.3,18.5c13.7-3.8,21.9-7.5,36.9-5.6
		c0.8,0.1,1.6,0.2,2.5,0.3c16.5,2.5,32.3,8.6,47.5,15.7c0.5,0.3,1.1,0.5,1.7,0.8c24.8,11.7,48.9,25.7,75.2,33.1
		c31.6,9,67.4,9.2,92.8-7.7c21.8-14.6,33.2-37.6,51-57.3c2.1-2.3,4.2-4.6,6.6-6.8c1.4-1.3,2.8-2.6,4.3-3.9
		c26.5-22.9,64.4-31.4,97.1-44.7c44-17.8,83.7-47.2,106.8-86c0.9-1.6,1.8-3.2,2.7-4.8c1.4-2.5,2.7-5.1,3.9-7.7
		c17.5-37.3,20.4-79.1,7.1-119.5c-11.5-34.9-37.3-68.3-68.2-89.1c-7.3-4.9-14.7-9.2-22.2-13c-3.3-1.7-6.6-3.3-9.9-4.8
		c-5-2.4-10-4.6-14.8-6.8c-18.1-8.2-34.7-16.1-49-30.4c-0.6-0.5-1.1-1.1-1.6-1.6c-19.4-19.9-32.8-50-44.5-78.5
		c-3.5-8.4-6.5-17-9.8-25.5c-6.4-16.7-13.4-33-23.5-47.6c-21.2-30.7-56.5-52.3-94.2-56.7c-21.4-2.5-43.4,0.4-62.9,8.9
		c-11.9,5.2-22.6,12.3-31.9,20.8c-8,7.3-15.1,15.7-21.4,24.7c-4.4,6.2-8.4,12.7-12.5,19.1c-0.4,0.7-0.9,1.4-1.3,2
		c-10.2,16.1-20.9,31.5-35.4,43.6c-7.2,6-15.2,11-23.9,15.3c-21.3,10.4-46.4,14.8-70.1,19.1C185.2,281.2,176.7,283,168.5,284.8
		L168.5,284.8z"/>
</g>
<g class="st55">
	
		<linearGradient id="SVGID_18_" gradientUnits="userSpaceOnUse" x1="10545.0195" y1="6404.0903" x2="11509.0391" y2="6404.0903" gradientTransform="matrix(-0.76 0 0 0.76 8831.4277 -4390.0742)">
		<stop  offset="0" style="stop-color:#E9529D"/>
		<stop  offset="0.97" style="stop-color:#E98F1C"/>
		<stop  offset="1" style="stop-color:#E99111"/>
	</linearGradient>
	<path class="st56" d="M170.3,283.2c-26,5.4-53,12.3-73.2,28.3c-6,4.7-11.3,10.2-15.9,16.5c-24.8,34.5-16,82.5-1.7,122.8
		c16,45.3,40.5,92.1,41.6,139c0,2,0,3.9,0,5.9c-0.1,11.2-1.3,21.9-2.3,32.5s-1.5,20.1-1,30.5c0.1,1.2,0.1,2.5,0.2,3.8
		c0.3,5,1,10.1,2,15.3c5.6,30.1,21.6,60.9,47,80.1c23.2,17.6,57.9,26.2,85.7,18.1c13.9-4.1,22.2-7.9,37.5-6.1
		c0.8,0.1,1.7,0.2,2.5,0.3c16.7,2.5,32.9,8.6,48.3,15.7c0.6,0.3,1.1,0.5,1.7,0.8c25.2,11.8,49.6,26,76.4,33.5
		c31.2,8.7,66.7,8.3,91.3-9.3c21.2-15.1,31.5-38.8,48.4-58.8c2-2.4,4.1-4.7,6.3-6.9c1.3-1.3,2.7-2.7,4.1-4
		c25.8-23.3,63.4-31.3,96-43.8c44.3-17.1,84.6-45.6,108.8-84.1c1-1.6,1.9-3.1,2.8-4.7c1.4-2.5,2.8-5.1,4.2-7.7
		c18.7-37,23-79.2,10.7-119.8c-10.6-34.9-35.8-68.3-66.5-88.8c-7.2-4.8-14.6-9-22.1-12.7c-3.3-1.6-6.6-3.1-9.9-4.6
		c-5.1-2.2-10.1-4.2-15-6.2c-18.5-7.4-35.9-14.1-50.9-27.5c-0.6-0.5-1.2-1-1.7-1.5c-20.4-18.9-34.1-48.6-45.3-76.9
		c-3.4-8.6-6.4-17.4-9.6-26c-6.3-17.1-13-33.9-23.1-48.9c-21.1-31.6-56.8-53.9-95.1-58.5c-21-2.5-42.8,0.2-62.1,8.3
		c-11.8,4.9-22.5,11.7-31.9,19.8c-8.1,7-15.3,15.1-21.8,23.8c-4.5,6-8.6,12.3-12.7,18.5c-0.4,0.7-0.9,1.3-1.3,2
		c-10.3,15.7-20.8,30.9-35.1,42.8c-7.2,5.9-15,10.9-23.5,15c-21,10.2-45.6,14.7-69,18.8C186.8,279.8,178.4,281.5,170.3,283.2
		L170.3,283.2z"/>
</g>
<g class="st57">
	
		<linearGradient id="SVGID_19_" gradientUnits="userSpaceOnUse" x1="10216.6064" y1="6191.4395" x2="11124.5957" y2="6191.4395" gradientTransform="matrix(-0.81 0 0 0.81 9070.5254 -4536.1147)">
		<stop  offset="0" style="stop-color:#EC549E"/>
		<stop  offset="0.97" style="stop-color:#EC921A"/>
		<stop  offset="1" style="stop-color:#EC940E"/>
	</linearGradient>
	<path class="st58" d="M172.1,281.6c-26.7,5.2-54.5,12.1-75.3,28.4c-6.2,4.8-11.7,10.4-16.4,16.9c-25.5,35.4-16,84.8-0.7,125.9
		c16.8,45.1,41.5,91.5,41.4,138.7c0,2,0,3.9-0.1,5.9c-0.4,11.1-2,21.9-3.4,32.5s-2.3,20.2-2.1,30.6c0,1.2,0,2.5,0.1,3.8
		c0.2,5.1,0.7,10.2,1.6,15.3c4.9,30.3,21,61.1,46.3,80.2c23.6,17.8,58.9,26.3,87.2,17.8c14.2-4.3,22.5-8.3,38-6.6
		c0.8,0.1,1.7,0.2,2.6,0.3c17,2.4,33.5,8.5,49.1,15.7c0.6,0.3,1.1,0.5,1.7,0.8c25.6,12,50.4,26.5,77.6,33.8
		c30.8,8.3,65.9,7.5,89.9-10.9c20.5-15.7,29.8-39.9,45.9-60.2c1.9-2.4,3.9-4.8,6-7c1.3-1.4,2.6-2.7,4-4c25-23.7,62.3-31.1,94.9-43
		c44.6-16.3,85.4-44.1,110.9-82.3c1-1.5,2-3.1,3-4.7c1.5-2.5,3-5,4.4-7.6c19.8-36.6,25.7-79.2,14.2-120.2
		c-9.8-35-34.2-68.3-64.8-88.5c-7.1-4.7-14.5-8.8-22-12.3c-3.3-1.5-6.6-3-9.9-4.3c-5.1-2-10.2-3.9-15.2-5.6
		c-18.9-6.5-37.1-12.1-52.8-24.7c-0.6-0.5-1.2-1-1.8-1.5c-21.4-17.9-35.3-47.2-46.1-75.4c-3.4-8.8-6.3-17.7-9.4-26.6
		c-6.1-17.5-12.6-34.7-22.6-50.3c-20.9-32.6-57.1-55.6-96-60.3c-20.7-2.5-42.1,0.1-61.2,7.7c-11.7,4.7-22.4,11.1-31.9,18.9
		c-8.2,6.7-15.6,14.5-22.1,22.9c-4.5,5.8-8.7,11.9-12.9,18c-0.4,0.6-0.9,1.3-1.3,1.9c-10.3,15.3-20.8,30.3-34.8,42
		c-7.1,5.9-14.8,10.7-23.2,14.8c-20.7,10.1-44.8,14.5-68,18.5C188.5,278.4,180.2,280,172.1,281.6L172.1,281.6z"/>
</g>
<g class="st59">
	
		<linearGradient id="SVGID_20_" gradientUnits="userSpaceOnUse" x1="9924.8799" y1="6003.5386" x2="10784.2295" y2="6003.5386" gradientTransform="matrix(-0.86 0 0 0.86 9309.6338 -4682.145)">
		<stop  offset="0" style="stop-color:#F055A0"/>
		<stop  offset="0.97" style="stop-color:#F09518"/>
		<stop  offset="1" style="stop-color:#F0970C"/>
	</linearGradient>
	<path class="st60" d="M173.9,279.9c-27.4,5-56.1,12-77.5,28.5c-6.3,4.9-12,10.6-16.9,17.2c-26.3,36.3-16,87.1,0.4,129
		c17.5,44.9,42.6,91,41.3,138.4c0,2-0.2,4-0.3,5.9c-0.7,11.1-2.7,21.9-4.4,32.6s-3.1,20.3-3.3,30.7c0,1.3,0,2.5,0,3.8
		c0,5.1,0.4,10.3,1.1,15.4c4.2,30.6,20.3,61.2,45.7,80.2c24,17.9,59.9,26.5,88.6,17.4c14.4-4.5,22.8-8.7,38.5-7.1
		c0.8,0.1,1.7,0.2,2.6,0.3c17.3,2.3,34,8.5,49.9,15.8c0.6,0.3,1.2,0.5,1.7,0.8c26,12.1,51.1,26.9,78.8,34.2
		c30.3,8,65.2,6.5,88.4-12.5c19.8-16.2,28.1-41.1,43.4-61.7c1.8-2.5,3.7-4.8,5.8-7.2c1.2-1.4,2.5-2.8,3.9-4.1
		c24.2-24.1,61.3-31,93.8-42.2c44.9-15.5,86.3-42.5,112.9-80.4c1.1-1.5,2.1-3.1,3.1-4.6c1.6-2.5,3.1-5,4.6-7.5
		c20.9-36.3,28.4-79.3,17.8-120.5c-9-35.1-32.7-68.2-63.1-88.2c-7-4.6-14.4-8.6-21.9-11.9c-3.3-1.5-6.6-2.8-9.9-4
		c-5.1-1.9-10.2-3.5-15.4-5c-19.3-5.7-38.3-10-54.7-21.8c-0.6-0.5-1.3-0.9-1.9-1.4C604.6,333,590.4,304,580,276
		c-3.3-9-6.2-18.1-9.2-27.2c-5.9-17.9-12.2-35.6-22.1-51.6c-20.8-33.5-57.4-57.1-96.9-62.1c-20.4-2.5-41.4,0-60.4,7.2
		c-11.6,4.4-22.3,10.5-31.9,17.9c-8.3,6.4-15.8,13.8-22.5,22c-4.6,5.6-8.9,11.6-13.1,17.5c-0.4,0.6-0.9,1.2-1.3,1.9
		c-10.4,14.9-20.7,29.6-34.5,41.2c-7,5.8-14.6,10.6-22.8,14.6c-20.4,9.9-44,14.4-66.9,18.2C190.1,277,181.9,278.4,173.9,279.9
		L173.9,279.9z"/>
</g>
<g class="st61">
	
		<linearGradient id="SVGID_21_" gradientUnits="userSpaceOnUse" x1="9674.123" y1="5891.3398" x2="10489.6133" y2="5891.3398" gradientTransform="matrix(-0.9 0 0 0.9 9547.0371 -4819.3091)">
		<stop  offset="0" style="stop-color:#F356A1"/>
		<stop  offset="0.97" style="stop-color:#F39816"/>
		<stop  offset="1" style="stop-color:#F39A0A"/>
	</linearGradient>
	<path class="st62" d="M175.7,278.3c-28.1,4.8-57.7,11.8-79.7,28.6c-6.5,5-12.4,10.8-17.3,17.6c-27.1,37.2-16,89.4,1.4,132.1
		c18.2,44.7,43.7,90.4,41.1,138.1c-0.1,2-0.2,4-0.4,5.9c-1,11.1-3.4,21.9-5.5,32.6c-2,10.2-3.9,20.4-4.4,30.8
		c-0.1,1.3-0.1,2.5-0.2,3.8c-0.1,5.2,0.1,10.3,0.7,15.5c3.5,30.8,19.7,61.4,45.1,80.2c24.4,18,60.9,26.6,90.1,17.1
		c14.6-4.8,23.1-9.2,39-7.7c0.9,0.1,1.7,0.2,2.7,0.3c17.6,2.2,34.6,8.4,50.7,15.8c0.6,0.3,1.2,0.5,1.8,0.8
		c26.4,12.2,51.9,27.3,80,34.5c29.9,7.7,64.5,5.7,87-14.2c19.1-16.8,26.4-42.3,40.9-63.2c1.7-2.5,3.6-4.9,5.5-7.3
		c1.2-1.4,2.4-2.8,3.7-4.1c23.5-24.5,60.3-30.9,92.6-41.4c45.2-14.8,87.2-41,115-78.5c1.1-1.5,2.2-3,3.3-4.6
		c1.7-2.4,3.3-4.9,4.8-7.4c22.1-35.9,30.9-79.3,21.4-120.8c-8.2-35.2-31.1-68.2-61.4-87.9c-7-4.5-14.3-8.4-21.8-11.6
		c-3.3-1.4-6.6-2.6-10-3.7c-5.2-1.7-10.3-3.1-15.6-4.4c-19.8-4.9-39.5-8-56.6-19c-0.7-0.4-1.3-0.9-2-1.3
		c-23.4-15.9-37.8-44.5-47.8-72.3c-3.3-9.1-6.1-18.5-9-27.7c-5.8-18.3-11.8-36.5-21.7-52.9c-20.6-34.5-57.7-58.8-97.8-63.9
		c-20.1-2.5-40.7-0.2-59.6,6.6c-11.5,4.1-22.2,9.9-32,16.9c-8.4,6.1-16.1,13.2-22.9,21.1c-4.7,5.4-9,11.2-13.3,17
		c-0.4,0.6-0.9,1.2-1.3,1.8c-10.4,14.4-20.6,29-34.2,40.3c-6.9,5.7-14.4,10.4-22.4,14.3c-20.1,9.8-43.2,14.2-65.8,17.9
		C191.7,275.6,183.7,277,175.7,278.3L175.7,278.3z"/>
</g>
<g class="st63">
	
		<linearGradient id="SVGID_22_" gradientUnits="userSpaceOnUse" x1="9438.3604" y1="5737.0762" x2="10214.5605" y2="5737.0762" gradientTransform="matrix(-0.95 0 0 0.95 9786.1348 -4965.3394)">
		<stop  offset="0" style="stop-color:#F758A3"/>
		<stop  offset="0.97" style="stop-color:#F79B14"/>
		<stop  offset="1" style="stop-color:#F79D07"/>
	</linearGradient>
	<path class="st64" d="M177.6,276.6c-28.8,4.6-59.2,11.6-81.9,28.7c-6.7,5-12.7,11-17.8,17.9C50,361.4,61.8,415,80.2,458.5
		c18.8,44.5,44.6,89.8,40.9,137.8c-0.2,2-0.3,4-0.6,5.9c-1.3,11.1-4,21.9-6.6,32.7c-2.4,10.3-4.7,20.5-5.6,31
		c-0.1,1.3-0.2,2.6-0.3,3.8c-0.3,5.2-0.2,10.4,0.3,15.6c2.8,31.1,19,61.5,44.4,80.2c24.8,18.2,61.9,26.7,91.5,16.7
		c14.8-5,23.4-9.6,39.5-8.2c0.9,0.1,1.8,0.2,2.7,0.3c17.9,2.2,35.1,8.4,51.5,15.8c0.6,0.3,1.2,0.5,1.8,0.8
		c26.8,12.3,52.6,27.8,81.2,34.9c29.5,7.5,63.8,4.8,85.5-15.8c18.4-17.3,24.7-43.5,38.3-64.6c1.6-2.5,3.4-5,5.3-7.4
		c1.1-1.4,2.3-2.8,3.6-4.2c22.8-24.8,59.3-30.7,91.5-40.6c45.5-13.9,88.1-39.5,117.1-76.7c1.2-1.5,2.3-3,3.4-4.5
		c1.8-2.4,3.4-4.9,5.1-7.4c23.2-35.6,33.6-79.4,25-121.1c-7.3-35.2-29.6-68.1-59.7-87.6c-6.9-4.5-14.2-8.2-21.7-11.2
		c-3.3-1.3-6.6-2.5-10-3.5c-5.2-1.5-10.4-2.8-15.7-3.8c-20.2-4.1-40.7-5.9-58.5-16.1c-0.7-0.4-1.4-0.8-2-1.2
		c-24.4-14.9-39-43.1-48.6-70.8c-3.2-9.3-6-18.8-8.8-28.3c-5.6-18.7-11.4-37.3-21.2-54.2c-20.4-35.4-58-60.5-98.7-65.7
		c-19.7-2.5-40-0.3-58.7,6.1c-11.4,3.9-22.1,9.3-32,16c-8.5,5.8-16.3,12.6-23.3,20.2c-4.8,5.2-9.2,10.8-13.5,16.5
		c-0.5,0.6-0.9,1.2-1.3,1.8c-10.5,14-20.5,28.4-33.9,39.5c-6.8,5.6-14.2,10.3-22.1,14.1c-19.8,9.6-42.4,14.1-64.8,17.6
		C193.3,274.2,185.4,275.4,177.6,276.6L177.6,276.6z"/>
</g>
<linearGradient id="SVGID_23_" gradientUnits="userSpaceOnUse" x1="9225.1699" y1="5598.2192" x2="9965.9619" y2="5598.2192" gradientTransform="matrix(-1 0 0 1 10025.2324 -5111.3696)">
	<stop  offset="0" style="stop-color:#FA59A4"/>
	<stop  offset="0.97" style="stop-color:#FA9E12"/>
	<stop  offset="1" style="stop-color:#FAA005"/>
</linearGradient>
<path class="st65" d="M339.1,792.1c27.2,12.4,53.3,28.2,82.4,35.2c29.1,7.1,63,3.9,84.1-17.4c21.1-21.3,24.5-55.3,44.3-77.9
	c22-25.2,58.2-30.6,90.4-39.8c45.8-13.2,89-37.9,119.1-74.8s46.1-86.4,37.4-133.2c-8.6-46.8-43.7-89.2-89.7-101.4
	c-25.3-6.7-53-4.7-76.3-16.5c-26.7-13.4-42.1-42.1-51.5-70.4s-14.8-58.3-29.4-84.4c-20.2-36.3-58.3-62.1-99.6-67.5
	s-84.7,9.9-113.5,39.8c-17.3,17.9-29.5,40.6-48.6,56.5c-29.7,24.6-70.7,29-108.9,34.7c-38.2,5.7-79.6,15.9-102.4,47.1
	c-28.6,39-16.2,94.1,3.4,138.4s45.6,89.3,40.7,137.5c-2.5,25-13.4,48.6-15.6,73.6c-3.2,36.6,14,74.3,43.7,96
	c25.1,18.3,62.9,26.8,93,16.4c15.8-5.5,24.6-10.5,42.8-8.4C303.8,777.6,321.9,784.2,339.1,792.1L339.1,792.1z"/>
<g class="st66">
	
		<linearGradient id="SVGID_24_" gradientUnits="userSpaceOnUse" x1="-271060.0625" y1="448.2255" x2="-221018.7031" y2="448.2255" gradientTransform="matrix(1.000000e-02 0 0 -1.000000e-02 4938.6411 -2048.2874)">
		<stop  offset="0" style="stop-color:#B03C86"/>
		<stop  offset="0.97" style="stop-color:#B05E3E"/>
		<stop  offset="1" style="stop-color:#B05F37"/>
	</linearGradient>
	<path class="st67" d="M258.7,276.4c-26,12.9-58.4,17.3-86.1,23.6c-10.7,2.4-21,5.3-30.5,9.3c-15.5,6.4-28.1,14.8-38.5,26.4
		c-18.4,20.6-27.3,52-26.6,83.6c1.1,52.1,27,105.7,47.1,150.1c5.2,11.5,10,22.1,15.3,31.7s11.3,18.5,17.8,28.2
		c3.6,5.4,7.4,11,11.2,17.2c16.2,26.2,32.5,58.2,57.5,79.8c17.2,14.9,41.5,24.3,62,23.7c10.4-0.3,17.3-0.9,28.9,2.3
		c12.7,3.6,25.1,9.7,37.1,16c19.1,10.1,38.1,20.6,58.1,28.4c37.8,14.7,78.8,23.4,115,17.1c32.7-5.7,58.9-20.1,89.6-34.8
		c3.4-1.6,6.9-3.3,10.5-4.9c39.6-18.3,84.9-34.3,120.6-60c41.6-29.9,72.2-74.7,75.9-120.3c0.2-3,0.4-5.9,0.4-8.9
		c0.2-42.5-21-78-47.9-114.5c-24.6-33.3-60.7-68.6-93.6-93.6c-8.4-6.4-16.3-12.3-23.4-18.6c-8.4-7.5-15.5-15.2-21.3-24.9
		c-12.3-20.4-16.9-48.4-20.6-76.3c-4.5-35.1-13-71.4-32.4-101.7c-3.8-5.9-8-11.6-12.5-17c-27.8-32.8-68.9-54-111.8-57.6
		c-26.3-2.2-53.9,2.6-75.6,17.3c-13.5,9.2-23.8,21.4-31.4,35.4c-11.2,20.5-16.9,44.6-25,64.9c-0.4,0.9-0.7,1.8-1.1,2.7
		C313.7,234.2,292.8,259.5,258.7,276.4L258.7,276.4z"/>
</g>
<g class="st68">
	
		<linearGradient id="SVGID_25_" gradientUnits="userSpaceOnUse" x1="-75220.1797" y1="-39173.7656" x2="-63096.4727" y2="-39173.7656" gradientTransform="matrix(6.000000e-02 0 0 -6.000000e-02 4702.9824 -1903.7671)">
		<stop  offset="0" style="stop-color:#AD3B85"/>
		<stop  offset="0.97" style="stop-color:#AD5B40"/>
		<stop  offset="1" style="stop-color:#AD5C39"/>
	</linearGradient>
	<path class="st69" d="M151.3,307.7c-15,6.6-28,14.1-39,24c-0.8,0.7-1.6,1.5-2.4,2.2c-9.7,9.2-17.4,20.5-23.1,33.8
		c-6.3,14.8-9.9,32.1-10,49.6C76.7,469.9,103,524,124.5,568.2c5.1,10.6,9.9,20.5,15.1,29.4c0.4,0.6,0.7,1.3,1.1,1.9
		c5.7,9.7,11.9,18.1,18.6,27.7c3.8,5.3,7.7,10.8,11.7,17c1,1.5,1.9,3,2.9,4.5c15.9,25.2,31.8,55,55.5,75.7
		c16.9,14.7,40.5,24.1,60.6,24c10.1-0.1,17-0.5,28.2,2.8c12.5,3.7,24.6,9.7,36.3,16c18.7,10,37.4,20.3,57,28.1
		c38.2,15.2,79.7,24.4,116.6,18.7c33.1-5.1,60.2-18.8,91.5-33.1c1.7-0.8,3.5-1.6,5.2-2.4c1.8-0.8,3.6-1.6,5.5-2.5
		c40.6-17.9,86.4-34.4,122.4-61c41.6-30.7,71.5-76.7,73.8-122.7c0.1-1.2,0.1-2.4,0.1-3.6c0-1.8,0-3.6,0-5.3
		C825.3,541,802.6,506,774.9,470c-24.9-32.4-60.5-67-92.8-92c-8.2-6.3-16-12.2-22.9-18.6c-8.2-7.5-15.1-15.1-20.8-24.8
		c-4-6.7-7.1-14.1-9.7-22.1c-5.2-16.3-8-34.8-10.2-53.3c-4.2-34.7-12.5-70.3-30.4-100.7c-3.7-6.3-7.6-12.4-12.1-18.2
		c-11.4-14.8-25.5-27.5-41.3-37.5c-22.1-14-47.6-22.7-73.7-24.8c-26-2.2-53.4,2.6-74.8,17c-6.9,4.7-13,10.2-18.4,16.3
		c-5,5.7-9.2,11.9-12.9,18.6c-11.2,20.2-16.8,44-24.6,64.2c-0.3,0.9-0.7,1.8-1.1,2.7c-8.3,20.8-19.3,38.6-34.6,53.3
		c-8.7,8.4-18.9,15.8-30.7,22.2c-24.7,13.4-55.8,18.8-82.7,25.7C170.7,300.6,160.7,303.6,151.3,307.7L151.3,307.7z"/>
</g>
<g class="st70">
	
		<linearGradient id="SVGID_26_" gradientUnits="userSpaceOnUse" x1="-40292.3867" y1="-20040" x2="-33371.418" y2="-20040" gradientTransform="matrix(0.11 0 0 -0.11 4467.3242 -1759.2567)">
		<stop  offset="0" style="stop-color:#A93983"/>
		<stop  offset="0.97" style="stop-color:#A95842"/>
		<stop  offset="1" style="stop-color:#A9593C"/>
	</linearGradient>
	<path class="st71" d="M160.5,306.2c-15.5,7.2-29.6,14.6-41.7,23.9c-0.9,0.7-1.8,1.4-2.6,2.1c-10.7,8.6-19.6,19.2-26.4,32.2
		c-7.7,14.7-12.6,32.6-13.1,51c-1.3,53.1,25.6,107.6,48.2,151.7c5.4,10.5,10.5,20.2,15.9,29.1c0.4,0.6,0.8,1.2,1.2,1.9
		c6,9.5,12.5,17.8,19.5,27.1c3.9,5.2,8,10.7,12.2,16.7c1,1.5,2,3,3,4.5c16.5,25.1,32.5,55.2,56.3,76.2c16.5,14.5,39.5,24,59.1,24.3
		c9.8,0.2,16.6-0.1,27.5,3.3c12.2,3.8,24,9.8,35.6,16c18.3,9.9,36.7,20,55.9,27.8c38.6,15.6,80.5,25.3,118.1,20.4
		c33.6-4.5,61.4-17.5,93.3-31.4c1.8-0.8,3.5-1.5,5.3-2.3c1.8-0.8,3.7-1.6,5.6-2.4c41.5-17.6,88-34.4,124.1-62
		c41.5-31.5,70.8-78.6,71.6-125.1c0-1.2,0-2.4,0-3.6c0-1.8-0.1-3.6-0.2-5.4c-2.3-42.7-26.5-77.2-55-112.8
		c-25.2-31.5-60.3-65.5-92.1-90.4c-8.1-6.3-15.7-12.2-22.5-18.5c-8-7.4-14.8-15.1-20.4-24.6c-3.9-6.6-7-14-9.5-21.9
		c-5.1-16.2-7.8-34.4-9.8-52.7c-3.9-34.3-11.9-69.2-28.4-99.6c-3.6-6.6-7.3-13.2-11.7-19.4c-11.2-15.8-25.3-29.6-41.6-40.4
		c-22.7-15.1-49.3-24.6-76.7-26.7c-25.8-2.1-52.8,2.6-74.1,16.7c-6.9,4.6-12.9,10-18.2,16c-4.9,5.6-9.2,11.8-12.8,18.3
		c-11.1,19.9-16.7,43.4-24.2,63.6c-0.3,0.9-0.7,1.8-1,2.7c-8,20.6-18.4,38.4-32.9,53.1c-8.3,8.5-17.9,16-29.1,22.6
		c-23.6,13.8-53.2,20.3-79.3,27.8C179.5,298.9,169.7,301.9,160.5,306.2L160.5,306.2z"/>
</g>
<g class="st72">
	
		<linearGradient id="SVGID_27_" gradientUnits="userSpaceOnUse" x1="-26556.8965" y1="-12865.0234" x2="-21701.7461" y2="-12865.0234" gradientTransform="matrix(0.16 0 0 -0.16 4231.666 -1614.7365)">
		<stop  offset="0" style="stop-color:#A63882"/>
		<stop  offset="0.97" style="stop-color:#A65544"/>
		<stop  offset="1" style="stop-color:#A6563E"/>
	</linearGradient>
	<path class="st73" d="M169.8,304.7c-16,7.9-31.2,15.1-44.4,23.8c-1,0.6-1.9,1.3-2.9,1.9c-11.8,8-21.8,17.9-29.8,30.7
		c-9.1,14.5-15.3,33.1-16.2,52.4c-2.4,53.5,24.9,108.6,48.8,152.5c5.7,10.4,11,20,16.8,28.7c0.4,0.6,0.8,1.2,1.2,1.8
		c6.3,9.3,13.1,17.4,20.4,26.6c4.1,5.1,8.4,10.5,12.6,16.5c1,1.5,2.1,2.9,3.1,4.4c17.2,25,33.2,55.4,57,76.6
		c16.1,14.3,38.5,23.9,57.7,24.7c9.6,0.4,16.2,0.3,26.8,3.7c11.9,3.8,23.5,9.8,34.8,16c18,9.8,36,19.8,54.8,27.5
		c39,16.1,81.3,26.3,119.7,22c34.1-3.9,62.7-16.2,95.2-29.7c1.8-0.7,3.6-1.5,5.4-2.2c1.9-0.8,3.8-1.5,5.7-2.3
		c42.4-17.2,89.5-34.6,125.9-63c41.4-32.3,69.9-80.6,69.5-127.5c0-1.2,0-2.4-0.1-3.6c-0.1-1.8-0.2-3.6-0.3-5.4
		c-3.6-42.8-29.3-76.8-58.5-112c-25.4-30.6-60.2-63.9-91.4-88.8c-7.9-6.3-15.3-12.2-22-18.5c-7.8-7.4-14.4-15-19.9-24.5
		c-3.8-6.6-6.8-13.9-9.2-21.7c-5-16-7.5-34-9.4-52c-3.6-33.9-11.2-68.2-26.4-98.6c-3.5-7-6.9-14-11.2-20.6
		c-10.9-16.8-25.2-31.6-41.9-43.3c-23.3-16.3-51.1-26.4-79.7-28.6c-25.5-2-52.3,2.5-73.4,16.4c-6.8,4.5-12.8,9.8-18.1,15.8
		c-4.9,5.5-9.1,11.6-12.8,18.1c-11,19.6-16.6,42.9-23.8,62.9c-0.3,0.9-0.7,1.8-1,2.7c-7.7,20.4-17.6,38.1-31.2,53
		c-7.8,8.6-16.9,16.2-27.6,23c-22.4,14.3-50.5,21.8-75.8,29.9C188.4,297.1,178.8,300.3,169.8,304.7L169.8,304.7z"/>
</g>
<g class="st74">
	
		<linearGradient id="SVGID_28_" gradientUnits="userSpaceOnUse" x1="-19410.9844" y1="-9606.3301" x2="-15664.1455" y2="-9606.3301" gradientTransform="matrix(0.2 0 0 -0.2 3997.7034 -1479.0922)">
		<stop  offset="0" style="stop-color:#A23780"/>
		<stop  offset="0.97" style="stop-color:#A25246"/>
		<stop  offset="1" style="stop-color:#A25340"/>
	</linearGradient>
	<path class="st75" d="M179,303.2c-16.6,8.5-32.8,15.6-47.1,23.7c-1,0.6-2.1,1.2-3.1,1.8c-12.8,7.5-24,16.6-33.1,29.2
		c-10.5,14.4-17.9,33.6-19.2,53.8c-3.5,54,24.2,109.6,49.3,153.4c5.9,10.3,11.6,19.8,17.7,28.3c0.4,0.6,0.8,1.2,1.3,1.8
		c6.6,9.1,13.7,17.1,21.2,26c4.2,5,8.7,10.3,13.1,16.2c1.1,1.4,2.1,2.9,3.2,4.4c17.8,24.9,33.9,55.6,57.8,77
		c15.8,14.2,37.5,23.7,56.2,25c9.3,0.6,15.9,0.8,26.2,4.2c11.6,3.9,23,9.8,34,16c17.6,9.7,35.3,19.5,53.7,27.2
		c39.4,16.5,82.1,27.3,121.2,23.6c34.6-3.3,64-14.9,97-28c1.8-0.7,3.7-1.5,5.6-2.2c1.9-0.8,3.9-1.5,5.8-2.3
		c43.4-16.9,91-34.7,127.6-64c41.3-33.1,69.2-82.5,67.4-129.9c-0.1-1.2-0.1-2.4-0.2-3.6c-0.1-1.8-0.3-3.6-0.5-5.4
		c-4.9-43-32-76.4-62.1-111.2c-25.7-29.7-60-62.3-90.7-87.1c-7.7-6.2-15-12.1-21.6-18.5c-7.6-7.4-14.1-15-19.4-24.4
		c-3.7-6.5-6.7-13.7-9-21.4c-4.9-15.9-7.3-33.7-9.1-51.4c-3.3-33.5-10.5-67.2-24.4-97.6c-3.4-7.3-6.6-14.8-10.8-21.8
		c-10.7-17.9-25.1-33.7-42.2-46.2C521,82.3,492,71.5,462.3,69.3c-25.2-1.9-51.7,2.5-72.6,16.1c-6.8,4.4-12.8,9.6-18,15.5
		c-4.9,5.4-9.1,11.4-12.7,17.8c-11,19.4-16.5,42.3-23.4,62.3c-0.3,0.9-0.6,1.8-0.9,2.7c-7.3,20.2-16.7,37.9-29.5,52.9
		c-7.4,8.6-16,16.4-26,23.4c-21.2,14.8-47.9,23.3-72.4,32C197.2,295.4,187.8,298.7,179,303.2L179,303.2z"/>
</g>
<g class="st76">
	
		<linearGradient id="SVGID_29_" gradientUnits="userSpaceOnUse" x1="-14770.4346" y1="-7101.1304" x2="-11714.6045" y2="-7101.1304" gradientTransform="matrix(0.25 0 0 -0.25 3762.0449 -1334.5718)">
		<stop  offset="0" style="stop-color:#9F357F"/>
		<stop  offset="0.97" style="stop-color:#9F4F48"/>
		<stop  offset="1" style="stop-color:#9F5043"/>
	</linearGradient>
	<path class="st77" d="M188.2,301.7c-17.1,9.2-34.4,16.1-49.8,23.6c-1.1,0.5-2.2,1.1-3.3,1.7c-13.8,6.9-26.1,15.2-36.5,27.6
		c-11.9,14.2-20.6,34-22.3,55.1c-4.5,54.4,23.4,110.5,49.9,154.2c6.2,10.2,12.1,19.5,18.5,28c0.5,0.6,0.9,1.2,1.3,1.8
		c6.9,9,14.3,16.7,22.1,25.4c4.4,4.9,9,10.1,13.6,16c1.1,1.4,2.2,2.9,3.3,4.4c18.4,24.8,34.6,55.7,58.6,77.5
		c15.4,14,36.5,23.6,54.8,25.3c9,0.8,15.5,1.2,25.5,4.7c11.3,4,22.4,9.9,33.3,15.9c17.2,9.6,34.6,19.2,52.7,27
		c39.8,17,82.9,28.2,122.8,25.2c35-2.7,65.3-13.7,98.9-26.3c1.9-0.7,3.8-1.4,5.7-2.1c2-0.7,3.9-1.5,5.9-2.2
		c44.3-16.5,92.6-34.8,129.4-65c41.2-33.9,68.5-84.5,65.2-132.3c-0.1-1.2-0.2-2.4-0.3-3.6c-0.2-1.8-0.4-3.6-0.7-5.4
		c-6.1-43.1-34.7-76-65.6-110.4c-25.9-28.9-59.9-60.8-90-85.5c-7.6-6.2-14.7-12.1-21.1-18.4c-7.4-7.3-13.8-14.9-18.9-24.2
		c-3.6-6.5-6.5-13.6-8.8-21.2c-4.8-15.8-7-33.3-8.7-50.8c-3-33.1-9.7-66.3-22.4-96.5c-3.2-7.7-6.2-15.6-10.3-23
		c-10.4-18.9-25-35.8-42.6-49.1c-24.4-18.6-54.6-30-85.6-32.3c-24.9-1.8-51.1,2.4-71.9,15.8c-6.7,4.3-12.7,9.5-17.9,15.2
		c-4.9,5.4-9.1,11.3-12.7,17.5c-10.9,19.1-16.3,41.7-23,61.6c-0.3,0.9-0.6,1.8-0.9,2.6c-7,20-15.8,37.7-27.7,52.8
		c-6.9,8.7-15,16.6-24.4,23.9c-20,15.3-45.3,24.8-69,34.1C206.1,293.6,196.9,297.1,188.2,301.7L188.2,301.7z"/>
</g>
<g class="st78">
	
		<linearGradient id="SVGID_30_" gradientUnits="userSpaceOnUse" x1="-11612.8154" y1="-5431.2256" x2="-9028.875" y2="-5431.2256" gradientTransform="matrix(0.3 0 0 -0.3 3526.3865 -1190.0616)">
		<stop  offset="0" style="stop-color:#9B347D"/>
		<stop  offset="0.97" style="stop-color:#9B4C4A"/>
		<stop  offset="1" style="stop-color:#9B4D45"/>
	</linearGradient>
	<path class="st79" d="M197.4,300.2c-17.6,9.9-36,16.6-52.5,23.5c-1.2,0.5-2.4,1-3.6,1.5c-14.9,6.4-28.3,13.9-39.8,26.1
		c-13.3,14.1-23.2,34.5-25.4,56.5c-5.5,54.9,22.7,111.5,50.5,155c6.4,10,12.7,19.3,19.4,27.6c0.5,0.6,0.9,1.2,1.4,1.7
		c7.2,8.8,14.9,16.4,23,24.9c4.6,4.8,9.4,10,14,15.7c1.1,1.4,2.3,2.9,3.4,4.3c19,24.7,35.3,55.9,59.4,77.9
		c15.1,13.8,35.5,23.5,53.3,25.6c8.7,1.1,15.1,1.6,24.8,5.1c11.1,4.1,21.9,10,32.5,15.9c16.9,9.5,33.9,19,51.6,26.7
		c40.2,17.5,83.8,29.2,124.4,26.8c35.5-2.1,66.6-12.4,100.7-24.6c1.9-0.7,3.8-1.4,5.8-2.1c2-0.7,4-1.4,6.1-2.2
		c45.2-16.2,94.1-34.9,131.1-66c41.2-34.7,67.7-86.4,63.1-134.7c-0.1-1.2-0.2-2.4-0.4-3.7c-0.2-1.8-0.5-3.7-0.8-5.5
		c-7.4-43.2-37.4-75.6-69.1-109.6c-26.1-28-59.7-59.2-89.3-83.9c-7.4-6.2-14.4-12.1-20.6-18.4c-7.2-7.3-13.4-14.9-18.5-24
		c-3.5-6.4-6.3-13.5-8.6-21c-4.7-15.6-6.8-32.9-8.2-50.2c-2.7-32.7-8.9-65.4-20.4-95.5c-3.1-8.1-5.9-16.4-9.9-24.2
		c-10.2-19.9-24.9-37.9-42.9-52c-25-19.7-56.4-31.9-88.5-34.2c-24.7-1.8-50.6,2.4-71.2,15.6c-6.7,4.3-12.6,9.3-17.8,15
		c-4.8,5.3-9,11.1-12.6,17.3c-10.8,18.8-16.2,41.2-22.6,61c-0.3,0.9-0.6,1.8-0.9,2.6c-6.7,19.8-14.8,37.5-26,52.7
		c-6.5,8.8-14,16.8-22.8,24.3c-18.8,15.9-42.7,26.3-65.6,36.2C214.9,291.9,205.9,295.5,197.4,300.2L197.4,300.2z"/>
</g>
<g class="st80">
	
		<linearGradient id="SVGID_31_" gradientUnits="userSpaceOnUse" x1="-9394.5967" y1="-4389.084" x2="-7153.2871" y2="-4389.084" gradientTransform="matrix(0.34 0 0 -0.34 3292.4238 -1054.4174)">
		<stop  offset="0" style="stop-color:#98337C"/>
		<stop  offset="0.97" style="stop-color:#98494C"/>
		<stop  offset="1" style="stop-color:#984A47"/>
	</linearGradient>
	<path class="st81" d="M206.6,298.7c-18.1,10.6-37.7,17.1-55.2,23.4c-1.3,0.5-2.5,0.9-3.8,1.4c-15.9,5.8-30.5,12.6-43.2,24.5
		c-14.7,13.9-25.8,35-28.5,57.9c-6.5,55.4,22,112.5,51,155.8c6.7,9.9,13.2,19.1,20.2,27.2c0.5,0.6,1,1.1,1.5,1.7
		c7.5,8.6,15.5,16,23.8,24.3c4.8,4.8,9.7,9.8,14.5,15.5c1.2,1.4,2.4,2.8,3.5,4.3c19.6,24.6,36,56,60.2,78.3
		c14.7,13.6,34.5,23.3,51.9,26c8.5,1.3,14.8,2,24.1,5.6c10.8,4.1,21.3,10,31.7,15.9c16.5,9.4,33.2,18.7,50.5,26.4
		c40.6,18,84.6,30.1,125.9,28.5c35.9-1.5,67.9-11.1,102.6-22.9c2-0.7,3.9-1.3,5.9-2c2-0.7,4.1-1.4,6.2-2.1
		c46.2-15.8,95.7-34.9,132.9-67c41.1-35.4,67-88.3,61-137.1c-0.2-1.2-0.3-2.5-0.5-3.7c-0.3-1.8-0.6-3.7-1-5.5
		c-8.6-43.4-40.1-75.2-72.6-108.8c-26.3-27.2-59.6-57.6-88.6-82.3c-7.2-6.1-14.1-12-20.1-18.4c-7.1-7.3-13.1-14.8-18-23.9
		c-3.4-6.4-6.2-13.3-8.4-20.7c-4.5-15.5-6.6-32.5-7.8-49.6c-2.4-32.2-8-64.5-18.4-94.4c-3-8.5-5.5-17.2-9.4-25.4
		c-10-20.9-24.8-39.9-43.2-54.9c-25.6-20.9-58.2-33.7-91.5-36c-24.4-1.7-50,2.3-70.4,15.3c-6.6,4.2-12.5,9.1-17.6,14.7
		c-4.8,5.2-9,10.9-12.5,17.1c-10.8,18.5-16.1,40.6-22.2,60.3c-0.3,0.9-0.5,1.7-0.8,2.6c-6.3,19.6-14,37.3-24.3,52.6
		c-6,8.9-13,17.1-21.3,24.7c-17.6,16.4-40.1,27.7-62.2,38.3C223.7,290.1,215,293.9,206.6,298.7L206.6,298.7z"/>
</g>
<g class="st82">
	
		<linearGradient id="SVGID_32_" gradientUnits="userSpaceOnUse" x1="-7644.2207" y1="-3452.2725" x2="-5661.9243" y2="-3452.2725" gradientTransform="matrix(0.39 0 0 -0.39 3056.7656 -909.897)">
		<stop  offset="0" style="stop-color:#95317B"/>
		<stop  offset="0.97" style="stop-color:#95464E"/>
		<stop  offset="1" style="stop-color:#95474A"/>
	</linearGradient>
	<path class="st83" d="M215.9,297.2c-18.7,11.3-39.3,17.6-57.9,23.2c-1.3,0.4-2.7,0.8-4,1.2c-16.9,5.2-32.7,11.2-46.6,23
		c-16.2,13.8-28.4,35.5-31.6,59.2c-7.5,55.8,21.2,113.5,51.6,156.6c6.9,9.8,13.8,18.8,21.1,26.9c0.5,0.6,1,1.1,1.5,1.7
		c7.8,8.4,16.1,15.6,24.7,23.8c5,4.7,10,9.6,15,15.2c1.2,1.4,2.4,2.8,3.6,4.3c20.3,24.5,36.7,56.2,61,78.8
		c14.4,13.4,33.5,23.2,50.4,26.3c8.2,1.5,14.4,2.5,23.4,6.1c10.5,4.2,20.8,10,31,15.9c16.2,9.3,32.5,18.5,49.4,26.1
		c41,18.5,85.4,31.1,127.5,30.1c36.4-0.9,69.2-9.9,104.4-21.2c2-0.6,4-1.3,6-1.9c2.1-0.7,4.2-1.4,6.3-2.1
		c47.1-15.5,97.2-35,134.6-68c41-36.2,66.3-90.3,58.8-139.5c-0.2-1.2-0.4-2.5-0.6-3.7c-0.3-1.8-0.7-3.7-1.1-5.5
		c-9.9-43.5-42.7-74.8-76.2-108c-26.5-26.3-59.4-56-87.9-80.7c-7.1-6.1-13.7-12-19.7-18.3c-6.9-7.3-12.7-14.8-17.5-23.8
		c-3.4-6.3-6-13.2-8.2-20.5c-4.4-15.4-6.3-32.1-7.4-49c-2.1-31.8-7-63.7-16.5-93.4c-2.8-8.9-5.2-17.9-9-26.6
		c-9.7-22-24.6-42-43.5-57.8c-26.2-22-59.9-35.6-94.5-37.9c-24.1-1.6-49.4,2.3-69.7,15c-6.5,4.1-12.4,8.9-17.5,14.4
		c-4.8,5.1-8.9,10.8-12.5,16.8c-10.7,18.3-16,40-21.9,59.7c-0.2,0.9-0.5,1.7-0.8,2.6c-6,19.4-13,37.1-22.6,52.4
		c-5.5,8.9-12.1,17.3-19.7,25.1c-16.5,16.9-37.4,29.2-58.8,40.4C232.5,288.4,224,292.3,215.9,297.2L215.9,297.2z"/>
</g>
<g class="st84">
	
		<linearGradient id="SVGID_33_" gradientUnits="userSpaceOnUse" x1="-6273.5117" y1="-2728.395" x2="-4496.2017" y2="-2728.395" gradientTransform="matrix(0.44 0 0 -0.44 2821.1072 -765.3867)">
		<stop  offset="0" style="stop-color:#913079"/>
		<stop  offset="0.97" style="stop-color:#914350"/>
		<stop  offset="1" style="stop-color:#91444C"/>
	</linearGradient>
	<path class="st85" d="M225.1,295.7c-19.2,12-40.9,18.1-60.6,23.1c-1.4,0.4-2.9,0.7-4.3,1.1c-18,4.6-34.9,9.9-49.9,21.5
		c-17.6,13.6-31,36-34.7,60.6c-8.4,56.3,20.5,114.5,52.1,157.4c7.2,9.7,14.3,18.6,21.9,26.5c0.5,0.5,1,1.1,1.6,1.6
		c8.1,8.2,16.7,15.3,25.5,23.2c5.1,4.6,10.4,9.4,15.4,15c1.2,1.4,2.5,2.8,3.7,4.2c20.9,24.4,37.4,56.3,61.8,79.2
		c14,13.2,32.5,23,49,26.6c7.9,1.7,14,2.9,22.7,6.5c10.2,4.3,20.3,10.1,30.2,15.9c15.8,9.2,31.8,18.2,48.3,25.8
		c41.4,19,86.2,32,129.1,31.7c36.9-0.3,70.4-8.6,106.3-19.5c2-0.6,4.1-1.2,6.1-1.9c2.1-0.7,4.3-1.3,6.4-2
		c48.1-15.1,98.8-35.1,136.4-69c41-37,65.6-92.2,56.7-142c-0.2-1.2-0.4-2.5-0.7-3.7c-0.4-1.9-0.8-3.7-1.3-5.5
		c-11.2-43.6-45.4-74.4-79.7-107.2c-26.7-25.5-59.2-54.5-87.2-79.1c-6.9-6.1-13.4-12-19.2-18.3c-6.7-7.2-12.4-14.7-17-23.6
		c-3.3-6.2-5.9-13.1-7.9-20.3c-4.3-15.2-6.1-31.8-7.1-48.3c-1.8-31.4-6-62.9-14.5-92.4c-2.7-9.3-4.8-18.8-8.5-27.8
		c-9.5-23-24.5-44.1-43.8-60.7c-26.8-23.2-61.7-37.4-97.4-39.8c-23.8-1.6-48.9,2.3-68.9,14.7c-6.5,4-12.3,8.8-17.4,14.2
		c-4.8,5.1-8.9,10.6-12.4,16.5c-10.7,18-15.9,39.4-21.5,59c-0.2,0.9-0.5,1.7-0.7,2.6c-5.7,19.2-12.1,36.9-20.9,52.3
		c-5.1,9-11.1,17.5-18.1,25.5c-15.3,17.4-34.8,30.7-55.4,42.5C241.3,286.6,233.1,290.7,225.1,295.7L225.1,295.7z"/>
</g>
<g class="st86">
	
		<linearGradient id="SVGID_34_" gradientUnits="userSpaceOnUse" x1="-5206.1743" y1="-2215.6118" x2="-3593.1443" y2="-2215.6118" gradientTransform="matrix(0.48 0 0 -0.48 2587.1445 -629.7425)">
		<stop  offset="0" style="stop-color:#8E2F78"/>
		<stop  offset="0.97" style="stop-color:#8E4052"/>
		<stop  offset="1" style="stop-color:#8E414E"/>
	</linearGradient>
	<path class="st87" d="M234.3,294.2c-19.7,12.8-42.5,18.6-63.3,23c-1.5,0.3-3,0.7-4.5,1c-19,4-37.2,8.5-53.3,19.9
		c-19,13.4-33.6,36.5-37.8,62c-9.3,56.7,19.7,115.5,52.7,158.3c7.4,9.6,14.8,18.4,22.8,26.1c0.5,0.5,1.1,1.1,1.6,1.6
		c8.4,8.1,17.3,14.9,26.4,22.6c5.3,4.5,10.7,9.3,15.9,14.8c1.3,1.4,2.6,2.8,3.8,4.2c21.5,24.3,38.1,56.5,62.5,79.6
		c13.7,13,31.5,22.9,47.5,26.9c7.7,1.9,13.7,3.3,22,7c10,4.4,19.7,10.2,29.4,15.9c15.4,9.1,31.1,18,47.3,25.5
		c41.8,19.5,87,33,130.6,33.3c37.3,0.3,71.7-7.3,108.1-17.8c2.1-0.6,4.2-1.2,6.3-1.8c2.2-0.6,4.3-1.3,6.5-2
		c49-14.8,100.4-35.2,138.1-70c40.9-37.8,64.8-94.2,54.6-144.4c-0.3-1.2-0.5-2.5-0.8-3.7c-0.4-1.9-0.9-3.7-1.4-5.6
		c-12.4-43.8-48-74.1-83.2-106.4c-26.9-24.7-59-53-86.5-77.5c-6.8-6-13.1-11.9-18.7-18.2c-6.5-7.2-12.1-14.7-16.6-23.5
		c-3.2-6.2-5.7-12.9-7.7-20c-4.2-15.1-5.8-31.4-6.7-47.7c-1.5-31-5-62.1-12.5-91.3c-2.5-9.7-4.4-19.5-8.1-29
		c-9.2-24.1-24.4-46.2-44.1-63.6C538,69.1,501.9,54.2,465,51.8c-23.6-1.5-48.3,2.2-68.2,14.4c-6.4,3.9-12.2,8.6-17.3,13.9
		c-4.8,5-8.8,10.4-12.3,16.3c-10.6,17.7-15.8,38.9-21.1,58.4c-0.2,0.8-0.5,1.7-0.7,2.5c-5.3,19-11.2,36.6-19.2,52.2
		c-4.6,9.1-10.1,17.7-16.6,26c-14.1,18-32.2,32.2-52,44.6C250.2,284.9,242.1,289.1,234.3,294.2L234.3,294.2z"/>
</g>
<g class="st88">
	
		<linearGradient id="SVGID_35_" gradientUnits="userSpaceOnUse" x1="-4293.8525" y1="-1731.4871" x2="-2815.9226" y2="-1731.4871" gradientTransform="matrix(0.53 0 0 -0.53 2351.4863 -485.2222)">
		<stop  offset="0" style="stop-color:#8A2D76"/>
		<stop  offset="0.97" style="stop-color:#8A3E54"/>
		<stop  offset="1" style="stop-color:#8A3E51"/>
	</linearGradient>
	<path class="st89" d="M243.5,292.7c-20.2,13.5-44.1,19.1-66,23c-1.6,0.3-3.2,0.6-4.8,0.8c-20,3.5-39.4,7.2-56.7,18.4
		c-20.4,13.2-36.2,37-40.9,63.4c-10.1,57.2,19,116.4,53.2,159.1c7.6,9.5,15.4,18.2,23.6,25.8c0.6,0.5,1.1,1,1.7,1.6
		c8.7,7.9,17.9,14.5,27.3,22.1c5.5,4.4,11,9.1,16.4,14.5c1.3,1.3,2.7,2.7,4,4.2c22.1,24.2,38.8,56.6,63.3,80.1
		c13.3,12.8,30.5,22.7,46.1,27.2c7.4,2.1,13.3,3.8,21.3,7.5c9.7,4.5,19.2,10.2,28.7,15.9c15,9,30.4,17.8,46.2,25.3
		c42.1,20,87.8,33.9,132.2,34.9c37.8,0.9,73-6,110-16.1c2.1-0.6,4.2-1.2,6.4-1.8c2.2-0.6,4.4-1.2,6.6-1.9
		c49.9-14.4,101.9-35.2,139.9-71c40.9-38.5,64.1-96.1,52.4-146.8c-0.3-1.3-0.6-2.5-0.9-3.8c-0.5-1.9-1-3.7-1.6-5.6
		c-13.7-43.9-50.7-73.7-86.8-105.6c-27-23.8-58.9-51.4-85.8-75.9c-6.6-6-12.8-11.9-18.3-18.2c-6.3-7.2-11.7-14.6-16.1-23.3
		c-3.1-6.1-5.6-12.8-7.5-19.8c-4.1-14.9-5.6-31-6.2-47.1c-1.2-30.6-3.9-61.3-10.5-90.3c-2.3-10.1-4.1-20.3-7.6-30.2
		c-9-25.1-24.3-48.3-44.4-66.6c-28-25.5-65.2-41.1-103.3-43.5c-23.3-1.5-47.8,2.2-67.5,14.1c-6.3,3.8-12.1,8.4-17.2,13.7
		c-4.7,4.9-8.8,10.3-12.3,16c-10.6,17.4-15.7,38.3-20.7,57.7c-0.2,0.8-0.4,1.7-0.7,2.5c-5,18.8-10.3,36.4-17.4,52.1
		c-4.2,9.2-9.1,17.9-15,26.4c-12.9,18.6-29.6,33.6-48.6,46.7C259,283.1,251.2,287.6,243.5,292.7L243.5,292.7z"/>
</g>
<g class="st90">
	
		<linearGradient id="SVGID_36_" gradientUnits="userSpaceOnUse" x1="-3531.3027" y1="-1330.7921" x2="-2166.4226" y2="-1330.7921" gradientTransform="matrix(0.58 0 0 -0.58 2115.8279 -340.7018)">
		<stop  offset="0" style="stop-color:#872C75"/>
		<stop  offset="0.97" style="stop-color:#873B56"/>
		<stop  offset="1" style="stop-color:#873B53"/>
	</linearGradient>
	<path class="st91" d="M252.7,291.2c-20.6,14.3-45.7,19.6-68.6,22.8c-1.7,0.2-3.3,0.5-5,0.7c-21.1,2.9-41.6,5.8-60,16.9
		c-21.9,13.1-38.8,37.5-44,64.7c-11,57.7,18.2,117.5,53.8,159.9c7.9,9.4,15.9,17.9,24.5,25.4c0.6,0.5,1.2,1,1.8,1.5
		c9,7.7,18.5,14.2,28.1,21.5c5.7,4.3,11.4,8.9,16.8,14.3c1.4,1.3,2.7,2.7,4.1,4.1c22.8,24.1,39.5,56.7,64.1,80.5
		c13,12.6,29.5,22.5,44.6,27.6c7.1,2.3,12.9,4.2,20.7,7.9c9.4,4.6,18.7,10.3,27.9,15.9c14.7,8.9,29.7,17.5,45.1,25
		c42.5,20.5,88.7,34.8,133.8,36.5c38.3,1.5,74.3-4.7,111.8-14.4c2.2-0.6,4.3-1.1,6.5-1.7c2.2-0.6,4.5-1.2,6.8-1.8
		c50.9-14,103.5-35.3,141.6-72c40.8-39.3,63.4-98.1,50.3-149.2c-0.3-1.3-0.7-2.5-1-3.8c-0.6-1.9-1.1-3.8-1.8-5.6
		c-14.9-44-53.3-73.4-90.3-104.8c-27.2-23-58.7-49.8-85.1-74.3c-6.4-6-12.4-11.9-17.8-18.2c-6.1-7.2-11.4-14.6-15.6-23.2
		c-3-6.1-5.4-12.7-7.3-19.6c-4-14.8-5.4-30.6-5.8-46.5c-0.9-30.2-2.8-60.5-8.5-89.2c-2.1-10.5-3.8-21.1-7.2-31.4
		c-8.8-26.1-24.2-50.3-44.7-69.5c-28.6-26.6-67-43-106.3-45.4c-23-1.4-47.2,2.2-66.8,13.8c-6.3,3.8-12,8.2-17.1,13.4
		c-4.7,4.8-8.8,10.1-12.2,15.8c-10.5,17.2-15.6,37.7-20.3,57.1c-0.2,0.8-0.4,1.7-0.6,2.5c-4.6,18.6-9.4,36.2-15.7,52
		c-3.7,9.2-8.2,18.2-13.4,26.8c-11.7,19.1-27,35.1-45.2,48.8C267.8,281.3,260.3,286,252.7,291.2L252.7,291.2z"/>
</g>
<g class="st92">
	
		<linearGradient id="SVGID_37_" gradientUnits="userSpaceOnUse" x1="-2905.6138" y1="-1024.1898" x2="-1636.6937" y2="-1024.1898" gradientTransform="matrix(0.62 0 0 -0.62 1881.8654 -205.0675)">
		<stop  offset="0" style="stop-color:#832B73"/>
		<stop  offset="0.97" style="stop-color:#833858"/>
		<stop  offset="1" style="stop-color:#833855"/>
	</linearGradient>
	<path class="st93" d="M261.9,289.7c-21.1,15.1-47.3,20.1-71.3,22.7c-1.7,0.2-3.5,0.4-5.2,0.6c-22.1,2.3-43.8,4.5-63.4,15.3
		c-23.3,12.9-41.3,38-47,66.1c-11.8,58.2,17.4,118.5,54.4,160.7c8.1,9.3,16.5,17.7,25.3,25c0.6,0.5,1.2,1,1.8,1.5
		c9.3,7.5,19.1,13.8,29,20.9c5.8,4.2,11.7,8.7,17.3,14c1.4,1.3,2.8,2.7,4.2,4.1c23.4,24,40.3,56.8,64.9,80.9
		c12.7,12.4,28.5,22.4,43.2,27.9c6.8,2.6,12.6,4.6,20,8.4c9.1,4.7,18.1,10.3,27.1,15.8c14.3,8.8,29,17.3,44,24.7
		c42.9,21.1,89.5,35.8,135.3,38.2c38.8,2,75.6-3.4,113.7-12.7c2.2-0.5,4.4-1.1,6.6-1.6c2.3-0.6,4.6-1.2,6.9-1.8
		c51.8-13.7,105.1-35.4,143.4-73c40.8-40,62.7-100,48.2-151.6c-0.4-1.3-0.7-2.5-1.1-3.8c-0.6-1.9-1.2-3.8-1.9-5.6
		c-16.2-44.1-55.9-73.1-93.8-104c-27.3-22.2-58.6-48.2-84.4-72.7c-6.3-5.9-12.1-11.9-17.3-18.1c-6-7.1-11-14.5-15.1-23
		c-2.9-6-5.3-12.5-7.1-19.4c-3.9-14.6-5.1-30.2-5.4-45.9c-0.6-29.8-1.7-59.8-6.5-88.2c-1.9-10.9-3.4-21.9-6.7-32.6
		c-8.5-27.2-24.1-52.4-45-72.4c-29.2-27.8-68.7-44.8-109.2-47.2c-22.8-1.4-46.6,2.1-66,13.5c-6.2,3.7-11.9,8-16.9,13.1
		c-4.7,4.7-8.7,9.9-12.2,15.5c-10.4,16.9-15.5,37.1-19.9,56.4c-0.2,0.8-0.4,1.6-0.6,2.5c-4.3,18.4-8.5,36-14,51.9
		c-3.2,9.3-7.2,18.4-11.8,27.2c-10.4,19.7-24.3,36.6-41.8,50.9C276.6,279.6,269.4,284.4,261.9,289.7L261.9,289.7z"/>
</g>
<g class="st94">
	
		<linearGradient id="SVGID_38_" gradientUnits="userSpaceOnUse" x1="-2346.9185" y1="-730.2287" x2="-1160.4685" y2="-730.2287" gradientTransform="matrix(0.67 0 0 -0.67 1646.2169 -60.5473)">
		<stop  offset="0" style="stop-color:#802972"/>
		<stop  offset="0.97" style="stop-color:#80355A"/>
		<stop  offset="1" style="stop-color:#803558"/>
	</linearGradient>
	<path class="st95" d="M271.2,288.2c-21.6,15.9-49,20.6-74,22.6c-1.8,0.1-3.6,0.3-5.5,0.4c-23.2,1.7-46,3.1-66.7,13.8
		c-24.7,12.7-43.9,38.5-50.1,67.5C62.2,451.2,91.5,512,129.8,554.1c8.3,9.2,17,17.5,26.2,24.6c0.6,0.5,1.2,1,1.9,1.5
		c9.6,7.3,19.8,13.4,29.8,20.4c6,4.1,12,8.5,17.8,13.8c1.4,1.3,2.9,2.7,4.3,4.1c24,23.8,41,57,65.7,81.3
		c12.3,12.2,27.5,22.2,41.7,28.2c6.6,2.8,12.2,5,19.3,8.8c8.8,4.7,17.6,10.4,26.3,15.8c14,8.7,28.3,17,42.9,24.4
		c43.2,21.6,90.3,36.7,136.9,39.8c39.2,2.6,76.9-2.1,115.6-11c2.2-0.5,4.5-1,6.7-1.6c2.3-0.6,4.7-1.1,7-1.7
		c52.8-13.3,106.6-35.5,145.2-74c40.7-40.8,62-102,46-154c-0.4-1.3-0.8-2.6-1.2-3.8c-0.7-1.9-1.3-3.8-2.1-5.7
		c-17.5-44.3-58.5-72.8-97.4-103.2c-27.5-21.5-58.4-46.6-83.7-71.1c-6.1-5.9-11.8-11.8-16.9-18.1c-5.8-7.1-10.7-14.5-14.7-22.9
		c-2.8-6-5.1-12.4-6.9-19.1c-3.7-14.5-4.9-29.9-5.1-45.2c-0.3-29.4-0.5-59-4.5-87.2c-1.6-11.3-3-22.7-6.3-33.8
		c-8.3-28.2-23.9-54.5-45.3-75.3c-29.8-28.9-70.5-46.7-112.2-49.1c-22.5-1.3-46.1,2.1-65.3,13.2c-6.2,3.6-11.8,7.9-16.8,12.9
		c-4.7,4.7-8.7,9.8-12.1,15.3c-10.4,16.6-15.4,36.6-19.5,55.8c-0.2,0.8-0.3,1.6-0.5,2.4c-4,18.2-7.6,35.8-12.3,51.7
		c-2.8,9.4-6.2,18.6-10.3,27.6c-9.2,20.2-21.7,38-38.4,53.1C285.4,277.8,278.4,282.9,271.2,288.2L271.2,288.2z"/>
</g>
<g class="st96">
	
		<linearGradient id="SVGID_39_" gradientUnits="userSpaceOnUse" x1="-1862.0172" y1="-477.197" x2="-747.1772" y2="-477.197" gradientTransform="matrix(0.72 0 0 -0.72 1410.5586 83.9731)">
		<stop  offset="0" style="stop-color:#7D2871"/>
		<stop  offset="0.97" style="stop-color:#7D325C"/>
		<stop  offset="1" style="stop-color:#7D325A"/>
	</linearGradient>
	<path class="st97" d="M280.4,286.7c-22,16.7-50.6,21.1-76.7,22.5c-1.9,0.1-3.8,0.2-5.7,0.3c-24.2,1.1-48.2,1.8-70.1,12.2
		c-26.2,12.5-46.4,39-53.2,68.9C61.2,449.8,90.5,511.2,130.2,553c8.6,9.1,17.6,17.3,27,24.3c0.7,0.5,1.3,1,1.9,1.4
		c9.9,7.2,20.4,13.1,30.7,19.8c6.2,4,12.4,8.4,18.2,13.5c1.5,1.3,2.9,2.6,4.4,4c24.6,23.8,41.7,57.1,66.5,81.8
		c12,12,26.5,22,40.3,28.5c6.3,3,11.8,5.5,18.6,9.3c8.6,4.8,17,10.4,25.6,15.8c13.6,8.6,27.5,16.8,41.9,24.1
		c43.6,22.2,91.1,37.6,138.5,41.4c39.7,3.2,78.2-0.8,117.4-9.3c2.3-0.5,4.6-1,6.8-1.5c2.4-0.5,4.7-1.1,7.1-1.7
		c53.7-13,108.2-35.5,146.9-75c40.7-41.5,61.3-103.9,43.9-156.4c-0.4-1.3-0.9-2.6-1.3-3.8c-0.7-1.9-1.4-3.8-2.2-5.7
		c-18.7-44.4-61.1-72.5-100.9-102.4c-27.6-20.7-58.3-45-82.9-69.5c-5.9-5.9-11.5-11.8-16.4-18c-5.6-7.1-10.3-14.5-14.2-22.7
		c-2.8-5.9-5-12.2-6.7-18.9c-3.6-14.4-4.7-29.5-4.7-44.6c0-28.9,0.7-58.2-2.6-86.1c-1.4-11.7-2.7-23.5-5.8-34.9
		c-8.1-29.2-23.8-56.6-45.7-78.2c-30.4-30.1-72.2-48.5-115.2-51c-22.2-1.3-45.5,2-64.5,12.9c-6.1,3.5-11.7,7.7-16.7,12.6
		c-4.7,4.6-8.6,9.6-12.1,15c-10.3,16.4-15.3,36-19.1,55.2c-0.2,0.8-0.3,1.6-0.5,2.4c-3.6,18-6.7,35.6-10.6,51.6
		c-2.3,9.5-5.2,18.9-8.7,28.1c-8,20.8-19.1,39.5-35,55.2C294.3,276,287.5,281.3,280.4,286.7L280.4,286.7z"/>
</g>
<g class="st98">
	
		<linearGradient id="SVGID_40_" gradientUnits="userSpaceOnUse" x1="-1437.1653" y1="-257.1016" x2="-385.0952" y2="-257.1016" gradientTransform="matrix(0.77 0 0 -0.77 1174.9004 228.4834)">
		<stop  offset="0" style="stop-color:#79276F"/>
		<stop  offset="0.97" style="stop-color:#792F5E"/>
		<stop  offset="1" style="stop-color:#792F5C"/>
	</linearGradient>
	<path class="st99" d="M289.6,285.2c-22.4,17.5-52.2,21.6-79.4,22.4c-2,0.1-4,0.1-5.9,0.2c-25.2,0.5-50.4,0.4-73.4,10.7
		c-27.6,12.3-48.9,39.5-56.3,70.2c-14.3,59.6,15.1,121.5,56,163.2c8.8,9,18.1,17,27.9,23.9c0.7,0.5,1.3,0.9,2,1.4
		c10.2,7,21,12.7,31.6,19.3c6.4,4,12.7,8.2,18.7,13.3c1.5,1.3,3,2.6,4.5,4c25.2,23.6,42.5,57.2,67.3,82.2
		c11.7,11.7,25.5,21.8,38.8,28.8c6,3.2,11.5,5.9,17.9,9.8c8.3,4.9,16.5,10.5,24.8,15.8c13.2,8.5,26.8,16.6,40.8,23.8
		c44,22.8,91.9,38.5,140,43c40.2,3.8,79.5,0.5,119.3-7.6c2.3-0.5,4.6-1,6.9-1.5c2.4-0.5,4.8-1.1,7.2-1.6
		c54.6-12.6,109.8-35.6,148.7-76c40.6-42.3,60.6-105.9,41.8-158.8c-0.5-1.3-0.9-2.6-1.4-3.9c-0.8-1.9-1.6-3.8-2.4-5.7
		c-20-44.5-63.6-72.2-104.4-101.5c-27.7-19.9-58.1-43.5-82.2-67.9c-5.8-5.8-11.2-11.8-15.9-18c-5.4-7-10-14.4-13.7-22.6
		c-2.7-5.9-4.8-12.1-6.4-18.7c-3.5-14.2-4.4-29.1-4.2-44c0.3-28.5,1.9-57.4-0.6-85.1c-1.1-12.1-2.3-24.3-5.4-36.2
		c-7.8-30.2-23.7-58.6-46-81.1c-31-31.2-74-50.4-118.1-52.8c-21.9-1.2-44.9,2-63.8,12.6c-6,3.4-11.6,7.5-16.6,12.4
		c-4.6,4.5-8.6,9.5-12,14.8c-10.3,16.1-15.2,35.4-18.7,54.5c-0.2,0.8-0.3,1.6-0.4,2.4c-3.3,17.8-5.8,35.4-8.8,51.5
		c-1.8,9.6-4.2,19.1-7.1,28.5c-6.7,21.4-16.5,41-31.6,57.3C303.1,274.3,296.6,279.8,289.6,285.2L289.6,285.2z"/>
</g>
<g class="st100">
	
		<linearGradient id="SVGID_41_" gradientUnits="userSpaceOnUse" x1="-1074.9904" y1="-75.6141" x2="-78.3504" y2="-75.6141" gradientTransform="matrix(0.81 0 0 -0.81 940.9376 364.1277)">
		<stop  offset="0" style="stop-color:#76256E"/>
		<stop  offset="0.97" style="stop-color:#762C60"/>
		<stop  offset="1" style="stop-color:#762C5F"/>
	</linearGradient>
	<path class="st101" d="M298.8,283.8c-22.8,18.3-53.8,22.1-82.1,22.3c-2,0-4.1,0-6.2,0c-26.2-0.1-52.6-1-76.8,9.2
		c-29,12.1-51.5,40-59.4,71.6C59.3,447,88.6,509.4,131,550.9c9.1,8.9,18.7,16.8,28.8,23.5c0.7,0.5,1.4,0.9,2.1,1.4
		c10.5,6.8,21.6,12.3,32.4,18.7c6.6,3.9,13.1,8,19.2,13c1.6,1.3,3.1,2.6,4.6,4c25.9,23.5,43.2,57.3,68,82.7
		c11.3,11.5,24.5,21.7,37.4,29.2c5.8,3.4,11.1,6.4,17.2,10.2c8,5,16,10.5,24,15.8c12.9,8.4,26.1,16.4,39.7,23.5
		c44.3,23.4,92.8,39.3,141.6,44.6c40.6,4.2,80.8,1.8,121.1-5.9c2.4-0.5,4.7-0.9,7.1-1.4c2.4-0.5,4.9-1,7.3-1.6
		c55.6-12.3,111.4-35.5,150.4-77c40.7-43,59.9-107.8,39.6-161.2c-0.5-1.3-1-2.6-1.6-3.9c-0.8-1.9-1.7-3.8-2.6-5.7
		c-21.3-44.6-66.2-72-107.9-100.7c-27.8-19.2-58-41.9-81.5-66.3c-5.6-5.8-10.8-11.7-15.5-18c-5.2-7-9.7-14.4-13.2-22.4
		c-2.6-5.8-4.7-12-6.2-18.4c-3.4-14.1-4.2-28.7-3.8-43.4c0.7-28.1,3.2-56.6,1.4-84c-0.8-12.5-2-25.1-5-37.4
		c-7.6-31.3-23.6-60.7-46.3-84c-31.6-32.4-75.8-52.3-121.1-54.7c-21.6-1.2-44.4,2-63.1,12.3c-6,3.3-11.5,7.3-16.4,12.1
		c-4.6,4.4-8.6,9.3-11.9,14.5c-10.2,15.8-15.1,34.8-18.3,53.8c-0.1,0.8-0.3,1.6-0.4,2.4c-3,17.6-4.8,35.2-7.1,51.4
		c-1.4,9.6-3.2,19.4-5.5,28.9c-5.5,21.9-13.9,42.4-28.2,59.4C311.9,272.5,305.7,278.2,298.8,283.8L298.8,283.8z"/>
</g>
<g class="st102">
	
		<linearGradient id="SVGID_42_" gradientUnits="userSpaceOnUse" x1="-739.0696" y1="98.053" x2="207.4909" y2="98.053" gradientTransform="matrix(0.86 0 0 -0.86 705.2793 508.6479)">
		<stop  offset="0" style="stop-color:#72246C"/>
		<stop  offset="0.97" style="stop-color:#722962"/>
		<stop  offset="1" style="stop-color:#722961"/>
	</linearGradient>
	<path class="st103" d="M308,282.3c-23.2,19.2-55.4,22.6-84.8,22.2c-2.1,0-4.3-0.1-6.4-0.1c-27.3-0.7-54.8-2.3-80.2,7.6
		c-30.4,11.9-54,40.5-62.5,73c-15.9,60.6,13.5,123.6,57.2,164.8c9.3,8.8,19.2,16.6,29.6,23.2c0.7,0.5,1.4,0.9,2.1,1.3
		c10.8,6.6,22.2,11.9,33.3,18.1c6.8,3.8,13.4,7.8,19.7,12.8c1.6,1.2,3.2,2.6,4.7,3.9c26.5,23.4,43.9,57.5,68.8,83.1
		c11,11.3,23.5,21.5,35.9,29.5c5.5,3.6,10.7,6.8,16.5,10.7c7.7,5.1,15.4,10.6,23.3,15.8c12.5,8.3,25.4,16.2,38.6,23.3
		c44.7,24,93.6,40.3,143.2,46.2c41.1,4.8,82.1,3.1,123-4.2c2.4-0.4,4.8-0.9,7.2-1.3c2.5-0.5,5-1,7.4-1.5
		c56.5-11.9,113-35.6,152.2-78c40.6-43.7,59.4-109.8,37.5-163.6c-0.5-1.3-1.1-2.6-1.7-3.9c-0.9-2-1.8-3.9-2.7-5.8
		c-22.5-44.8-68.8-71.8-111.5-99.9c-28-18.4-57.8-40.3-80.8-64.7c-5.5-5.8-10.5-11.7-15-17.9c-5-7-9.3-14.3-12.8-22.3
		c-2.5-5.8-4.5-11.9-6-18.2c-3.3-14-3.9-28.3-3.4-42.8c0.9-27.7,4.5-55.8,3.4-83c-0.5-12.9-1.6-25.9-4.5-38.6
		c-7.4-32.3-23.5-62.8-46.6-86.9c-32.2-33.5-77.5-54.2-124.1-56.6c-21.4-1.1-43.8,1.9-62.3,12c-5.9,3.2-11.4,7.2-16.3,11.8
		c-4.6,4.3-8.5,9.1-11.9,14.3c-10.2,15.5-15.1,34.3-18,53.2c-0.1,0.8-0.2,1.6-0.4,2.4c-2.6,17.4-3.9,35-5.4,51.3
		c-0.9,9.7-2.2,19.6-4,29.3c-4.2,22.5-11.3,43.9-24.8,61.5C320.7,270.8,314.8,276.7,308,282.3L308,282.3z"/>
</g>
<g class="st104">
	
		<linearGradient id="SVGID_43_" gradientUnits="userSpaceOnUse" x1="-438.7664" y1="252.5582" x2="464.3836" y2="252.5582" gradientTransform="matrix(0.91 0 0 -0.91 469.621 653.1683)">
		<stop  offset="0" style="stop-color:#6F236B"/>
		<stop  offset="0.97" style="stop-color:#6F2664"/>
		<stop  offset="1" style="stop-color:#6F2663"/>
	</linearGradient>
	<path class="st105" d="M317.2,280.8c-23.6,20-57,23.1-87.5,22.1c-2.2-0.1-4.4-0.2-6.6-0.2c-28.3-1.2-57-3.7-83.5,6.1
		c-31.9,11.7-56.5,41-65.6,74.3c-16.7,61.1,12.7,124.6,57.7,165.6c9.5,8.7,19.7,16.4,30.5,22.8c0.7,0.4,1.5,0.9,2.2,1.3
		c11.1,6.5,22.8,11.6,34.2,17.6c6.9,3.7,13.7,7.7,20.1,12.5c1.6,1.2,3.2,2.5,4.8,3.9c27.1,23.3,44.7,57.6,69.6,83.5
		c10.7,11.1,22.5,21.2,34.5,29.8c5.2,3.8,10.3,7.3,15.9,11.2c7.4,5.2,14.9,10.6,22.5,15.8c12.1,8.2,24.7,16,37.5,23
		c45,24.6,94.4,41.2,144.7,47.9c41.6,5.4,83.4,4.4,124.8-2.5c2.4-0.4,4.9-0.8,7.3-1.3c2.5-0.5,5-1,7.6-1.5
		c57.4-11.6,114.6-35.7,153.9-79c40.6-44.5,58.7-111.8,35.4-166c-0.6-1.3-1.2-2.6-1.8-3.9c-0.9-2-1.9-3.9-2.9-5.8
		c-23.8-44.9-71.3-71.6-115-99.1c-28.1-17.7-57.7-38.7-80.1-63.1c-5.3-5.7-10.2-11.7-14.5-17.9c-4.8-7-9-14.3-12.3-22.1
		c-2.4-5.7-4.3-11.7-5.8-18c-3.2-13.8-3.7-28-3.1-42.2c1.3-27.3,5.8-54.9,5.4-82c-0.2-13.3-1.3-26.7-4.1-39.7
		c-7.1-33.3-23.4-64.9-46.9-89.8c-32.8-34.7-79.3-56.1-127-58.5c-21.1-1.1-43.3,1.9-61.6,11.8c-5.9,3.1-11.3,7-16.2,11.6
		c-4.6,4.3-8.5,9-11.8,14c-10.1,15.3-15,33.7-17.6,52.6c-0.1,0.8-0.2,1.6-0.3,2.3c-2.3,17.3-3,34.8-3.7,51.2
		c-0.4,9.8-1.1,19.8-2.4,29.7c-2.9,23.1-8.7,45.3-21.4,63.6C329.5,269,323.9,275.1,317.2,280.8L317.2,280.8z"/>
</g>
<g class="st106">
	
		<linearGradient id="SVGID_44_" gradientUnits="userSpaceOnUse" x1="-177.4775" y1="385.6641" x2="685.8825" y2="385.6641" gradientTransform="matrix(0.95 0 0 -0.95 235.6583 788.8025)">
		<stop  offset="0" style="stop-color:#6B2169"/>
		<stop  offset="0.97" style="stop-color:#6B2366"/>
		<stop  offset="1" style="stop-color:#6B2366"/>
	</linearGradient>
	<path class="st107" d="M326.5,279.3c-24,20.9-58.6,23.6-90.2,22c-2.3-0.1-4.6-0.2-6.9-0.4c-29.3-1.8-59.2-5.1-86.9,4.5
		c-33.3,11.5-59,41.5-68.7,75.7c-17.4,61.7,11.8,125.7,58.3,166.4c9.8,8.6,20.3,16.2,31.3,22.4c0.7,0.4,1.5,0.8,2.2,1.2
		c11.4,6.3,23.5,11.2,35,17c7.1,3.6,14.1,7.5,20.6,12.3c1.7,1.2,3.3,2.5,4.9,3.9c27.8,23.2,45.5,57.6,70.4,83.9
		c10.3,10.9,21.5,21,33,30.1c5,4,10,7.7,15.2,11.6c7.1,5.3,14.4,10.7,21.7,15.8c11.8,8.1,23.9,15.7,36.4,22.7
		c45.3,25.2,95.2,42.1,146.3,49.5c42,6,84.7,5.7,126.7-0.8c2.5-0.4,4.9-0.8,7.4-1.2c2.6-0.4,5.1-0.9,7.7-1.4
		c58.4-11.2,116.1-35.8,155.7-80c40.5-45.3,57.9-113.7,33.2-168.4c-0.6-1.3-1.2-2.6-1.9-4c-1-2-2-3.9-3-5.8
		c-25.1-45-73.8-71.4-118.6-98.3c-28.2-17-57.5-37.2-79.4-61.5c-5.1-5.7-9.9-11.6-14.1-17.9c-4.7-6.9-8.6-14.2-11.8-22
		c-2.3-5.7-4.2-11.6-5.6-17.7c-3.1-13.7-3.5-27.6-2.7-41.5c1.6-26.9,7.1-54.1,7.4-80.9c0.2-13.7-0.9-27.5-3.6-40.9
		c-6.9-34.4-23.2-67-47.2-92.7c-33.3-35.8-81-58-130-60.3c-20.8-1-42.7,1.9-60.9,11.5c-5.8,3.1-11.2,6.8-16.1,11.3
		c-4.6,4.2-8.4,8.8-11.8,13.8c-10,15-14.8,33.1-17.2,51.9c-0.1,0.8-0.2,1.5-0.3,2.3c-2,17.1-2,34.6-2,51c0,9.9-0.1,20-0.8,30.1
		c-1.6,23.6-6.2,46.8-18,65.7C338.4,267.2,333,273.6,326.5,279.3L326.5,279.3z"/>
</g>
<g class="st108">
	<path class="st109" d="M402.6,767.2c85.3,48.3,187.2,66.5,283.9,50.8c62-10.1,123.8-35.2,165.2-82.4c41.4-47.2,58-119.1,29.1-174.8
		c-25.3-48.8-77.7-75.9-125.3-103.3s-97.3-63.3-109-117c-8.6-39.6,5.6-80.3,7.1-120.8c1.9-50.1-16.8-100.8-50.7-137.7
		s-82.8-59.8-132.9-62.2c-27.1-1.3-56,4-76.1,22.2c-31,28.2-31.1,76.1-29,118s1.9,89.8-29.4,117.8c-24.4,21.8-60.2,24.1-92.8,21.9
		s-66.3-7.7-97.3,2.5c-34.7,11.4-61.5,42-71.8,77.1c-22,75.2,25.4,153.9,91,189.3c21.5,11.6,45.1,17.9,64.3,33.5
		c28.4,23.1,46.2,57.8,71.2,84.4C330,718.3,364.6,745.7,402.6,767.2L402.6,767.2z"/>
</g>
</svg>
