<?xml version="1.0" encoding="utf-8"?>
<!-- Generator: Adobe Illustrator 24.0.1, SVG Export Plug-In . SVG Version: 6.00 Build 0)  -->
<svg version="1.1" id="uuid-f0523709-d820-4a58-8756-c1b3a2ff857e"
	 xmlns="http://www.w3.org/2000/svg" xmlns:xlink="http://www.w3.org/1999/xlink" x="0px" y="0px" viewBox="0 0 82.5 120.3"
	 style="enable-background:new 0 0 82.5 120.3;" xml:space="preserve">
<style type="text/css">
	.st0{fill:url(#SVGID_1_);}
	.st1{fill:#FFFFFF;}
	.st2{fill:url(#SVGID_2_);}
	.st3{fill:url(#SVGID_3_);}
	.st4{fill:url(#SVGID_4_);}
	.st5{fill:url(#SVGID_5_);}
	.st6{fill:url(#SVGID_6_);}
	.st7{fill:url(#SVGID_7_);}
	.st8{fill:url(#SVGID_8_);}
</style>
<linearGradient id="SVGID_1_" gradientUnits="userSpaceOnUse" x1="12.19" y1="49.9448" x2="41.51" y2="49.9448" gradientTransform="matrix(1 0 0 -1 0 119.8898)">
	<stop  offset="0.21" style="stop-color:#00FFB4"/>
	<stop  offset="1" style="stop-color:#00E6FF"/>
</linearGradient>
<path class="st0" d="M12.2,69.9l16.7,9.4l12.7-9.4l-12.9-9.3C28.6,60.6,12.2,69.9,12.2,69.9z"/>
<path class="st1" d="M41.2,69.9l16.7,9.4l12.7-9.4l-12.9-9.3C57.6,60.6,41.1,69.9,41.2,69.9z M27.6,91.6l14.8,8.5l14.5-8.5
	l-15.6-7.5C41.3,84.1,27.6,91.6,27.6,91.6z"/>
<linearGradient id="SVGID_2_" gradientUnits="userSpaceOnUse" x1="9.6599" y1="31.019" x2="74.8305" y2="31.019" gradientTransform="matrix(1 0 0 -1 0 119.8898)">
	<stop  offset="0.21" style="stop-color:#0071B4"/>
	<stop  offset="1" style="stop-color:#795DFD"/>
</linearGradient>
<path class="st2" d="M43.3,117.4L43.3,117.4c-0.8,0.3-1.7,0.2-2.4-0.2c0,0,0,0,0,0c-4.2-2.2-9.7-5.3-13.9-7.4c-1.3-0.6-2-1.9-2-3.3
	c0.1-3.7,0-7.4,0.1-11.1c0-1.2-0.3-1.8-1.4-2.4c-4.1-2.1-8.2-4.2-12.2-6.3c-1.1-0.5-1.7-1.2-1.7-2.5c0-4.7,0-9.4,0-14.2
	c0-1.2,0.5-1.9,1.6-2.4c4.7-2.3,9.4-4.6,14-7c1.2-0.6,2.2-0.6,3.4,0c4,2.1,8.1,4,12.2,6.1c1,0.5,1.8,0.6,2.9,0.1
	c4.2-2.1,8.3-4.1,12.6-6c0.8-0.4,2.1-0.4,2.9-0.1c4.8,2.2,9.5,4.7,14.2,7c1.1,0.5,1.5,1.2,1.5,2.4c-0.1,4.5-0.1,9.1,0,13.6
	c0,1.5-0.5,2.3-1.8,3c-4.1,2.1-8.1,4.3-12.2,6.3c-1,0.5-1.3,1.1-1.3,2.1c0.1,2.7,0.1,5.4,0,8.1c-0.1,6.5,1,4.8-4.9,8
	C50.9,113.3,47.1,115.4,43.3,117.4 M53.4,92.6c-3.7-1.9-7.2-3.7-10.7-5.4c-0.4-0.2-1.1,0-1.6,0.3c-2.5,1.2-4.9,2.5-7.4,3.8
	c-0.8,0.4-1.6,0.9-2.7,1.4c3.7,1.9,7,3.7,10.4,5.4c0.3,0.2,0.9,0.2,1.2,0.1C46.3,96.4,49.7,94.6,53.4,92.6 M38.1,69.6
	c-2.2-1.1-4.3-1.8-6-3.1c-3.5-2.3-6.6-2.5-10.1,0c-1.8,1.2-3.9,2-6.1,3.1c3.7,1.9,7,3.6,10.4,5.3c0.4,0.2,0.9,0.3,1.2,0.1
	C30.9,73.3,34.4,71.5,38.1,69.6 M68.8,69.6c-3.7-1.8-7.2-3.6-10.7-5.3c-0.2-0.1-0.6-0.1-0.8,0c-3.5,1.7-7,3.4-10.8,5.3
	c3.7,1.9,7.1,3.7,10.5,5.4c0.3,0.2,0.9,0.1,1.2,0C61.7,73.3,65.1,71.5,68.8,69.6 M44.2,72.8c0,2.7,0.2,5.1-0.1,7.4
	c-0.3,2.5,0.7,3.8,3,4.8c2.9,1.2,5.6,2.8,8.6,4.4c0-3.5,0-6.7,0-9.9c0-0.4-0.3-0.9-0.7-1C51.6,76.6,48.1,74.8,44.2,72.8 M25,89.4
	c0-3.5,0-6.7,0-9.9c0-0.3-0.2-0.8-0.5-1c-3.6-1.9-7.1-3.8-11-5.8c0,3.5,0,6.7,0,9.9c0,0.3,0.2,0.8,0.5,1
	C17.6,85.6,21.2,87.4,25,89.4 M40.3,72.8c-3.8,2-7.4,3.8-10.9,5.7c-0.2,0.1-0.5,0.5-0.5,0.8c0,3.3,0,6.6,0,10.1
	c3.8-2,7.3-3.8,10.8-5.7c0.3-0.2,0.6-0.6,0.6-0.9C40.4,79.6,40.3,76.4,40.3,72.8 M71,72.8c-3.8,2-7.2,3.8-10.7,5.6
	c-0.3,0.2-0.7,0.6-0.8,1c0,3.2,0,6.5,0,10c3.8-2,7.4-3.8,10.9-5.8c0.3-0.2,0.5-0.6,0.5-0.9C71,79.5,71,76.3,71,72.8 M40.3,112.4
	c0-2.7-0.2-5.1,0.1-7.4c0.3-2.5-0.7-3.8-2.9-4.8c-2.9-1.2-5.6-2.8-8.6-4.4c0,3.5,0,6.7,0,9.9c0,0.4,0.4,0.9,0.7,1
	C33,108.6,36.5,110.4,40.3,112.4 M55.7,95.8c-3.9,2-7.4,3.9-11,5.8c-0.3,0.2-0.5,0.6-0.5,1c0,3.2,0,6.4,0,9.9c3.8-2,7.5-3.9,11-5.8
	c0.3-0.1,0.5-0.7,0.5-1C55.7,102.5,55.7,99.3,55.7,95.8"/>
<linearGradient id="SVGID_3_" gradientUnits="userSpaceOnUse" x1="14.44" y1="53.7098" x2="41.51" y2="53.7098" gradientTransform="matrix(1 0 0 -1 0 119.8898)">
	<stop  offset="0.21" style="stop-color:#0071B4"/>
	<stop  offset="1" style="stop-color:#795DFD"/>
</linearGradient>
<path class="st3" d="M15.8,69.6l11.6-4.8l10.7,4.8l3.5,0.3l-12.7-7.5l-14.4,6.2C14.4,68.6,15.8,69.6,15.8,69.6z"/>
<linearGradient id="SVGID_4_" gradientUnits="userSpaceOnUse" x1="42.95" y1="68.9848" x2="72.27" y2="68.9848" gradientTransform="matrix(1 0 0 -1 0 119.8898)">
	<stop  offset="0.21" style="stop-color:#00FFB4"/>
	<stop  offset="1" style="stop-color:#00E6FF"/>
</linearGradient>
<path class="st4" d="M72.3,50.9l-16.7-9.4l-12.7,9.4l12.9,9.3L72.3,50.9z"/>
<path class="st1" d="M43.3,50.9l-16.6-9.4L14,50.9l12.9,9.3L43.3,50.9z M56.9,29.2L42,20.7l-14.5,8.5l15.6,7.5L56.9,29.2z"/>
<linearGradient id="SVGID_5_" gradientUnits="userSpaceOnUse" x1="9.6295" y1="87.9496" x2="74.8001" y2="87.9496" gradientTransform="matrix(1 0 0 -1 0 119.8898)">
	<stop  offset="0.21" style="stop-color:#0071B4"/>
	<stop  offset="1" style="stop-color:#795DFD"/>
</linearGradient>
<path class="st5" d="M41.8,3.2c1.3,0,1.4,0.3,1.4,0.3c0.5,0.3,1,0.7,1.6,1C49,6.6,53.2,8.9,57.5,11c1.5,0.8,2.1,1.7,2,3.4
	c-0.1,3.7,0,7.4-0.1,11c0,1.2,0.3,1.8,1.4,2.4c4.1,2.1,8.2,4.2,12.3,6.3c1.1,0.5,1.7,1.2,1.7,2.5c0,4.7,0,9.4,0,14.1
	c0,1.2-0.5,1.9-1.6,2.4c-4.7,2.3-9.4,4.6-14,7c-1.2,0.6-2.2,0.6-3.4,0c-4-2.1-8.1-4-12.2-6.1c-1-0.5-1.8-0.6-2.9,0
	c-4.2,2.1-8.3,4.1-12.6,6c-0.8,0.4-2.1,0.4-2.9,0.1c-4.8-2.2-9.5-4.7-14.2-7c-1.1-0.5-1.5-1.2-1.5-2.4c0.1-4.5,0.1-9.1,0-13.6
	c0-1.5,0.5-2.3,1.8-3c4.1-2.1,8.1-4.3,12.2-6.3c1-0.5,1.3-1,1.3-2.1c-0.1-2.7-0.1-5.4,0-8.1c0.1-6.5-1-4.8,4.9-8
	c3.8-2,11.3-6.1,11.3-6.1 M31,28.2c3.7,1.9,7.2,3.7,10.7,5.4c0.4,0.2,1.1,0,1.6-0.3c2.5-1.2,4.9-2.5,7.4-3.8
	c0.8-0.4,1.6-0.9,2.7-1.4c-3.7-1.9-7-3.7-10.4-5.4c-0.3-0.2-0.9-0.2-1.2-0.1C38.2,24.4,34.8,26.3,31,28.2 M46.4,51.3
	c2.2,1.1,4.3,1.8,6,3c3.5,2.3,6.7,2.5,10.1,0c1.8-1.2,3.9-2,6.1-3.1c-3.7-1.9-7-3.6-10.4-5.3c-0.3-0.2-0.9-0.3-1.2-0.1
	C53.5,47.5,50.1,49.3,46.4,51.3 M15.7,51.3c3.7,1.8,7.2,3.6,10.6,5.3c0.2,0.1,0.6,0.1,0.8,0c3.5-1.7,7-3.5,10.8-5.3
	c-3.7-1.9-7.1-3.7-10.5-5.4c-0.3-0.2-0.9-0.1-1.2,0C22.8,47.6,19.4,49.4,15.7,51.3 M40.2,48c0-2.7-0.2-5.1,0.1-7.4
	c0.3-2.5-0.7-3.8-3-4.8c-2.9-1.2-5.6-2.8-8.6-4.4c0,3.5,0,6.7,0,9.9c0,0.4,0.3,0.9,0.7,1C32.9,44.2,36.4,46,40.2,48 M59.4,31.4
	c0,3.5,0,6.7,0,9.9c0,0.3,0.2,0.8,0.5,1c3.6,1.9,7.1,3.8,11,5.8c0-3.5,0-6.7,0-9.9c0-0.3-0.2-0.8-0.5-1
	C66.8,35.3,63.3,33.4,59.4,31.4 M44.1,48c3.8-2,7.4-3.8,10.9-5.7c0.2-0.1,0.5-0.5,0.5-0.8c0-3.3,0-6.6,0-10.1
	c-3.8,2-7.3,3.8-10.8,5.7c-0.3,0.2-0.6,0.6-0.6,0.9C44.1,41.3,44.1,44.5,44.1,48 M13.4,48.1c3.8-2,7.2-3.8,10.7-5.6
	c0.3-0.2,0.7-0.6,0.8-1c0.1-3.2,0-6.5,0-10c-3.8,2-7.4,3.8-10.9,5.8c-0.3,0.2-0.5,0.6-0.5,1C13.4,41.4,13.4,44.6,13.4,48.1
	 M44.1,8.4c0,2.7,0.2,5.1-0.1,7.4c-0.3,2.5,0.7,3.8,2.9,4.8c2.9,1.2,5.6,2.8,8.6,4.4c0-3.5,0-6.7,0-9.9c0-0.4-0.3-0.9-0.7-1
	C51.5,12.2,48,10.4,44.1,8.4 M28.8,25.1c3.9-2,7.4-3.9,10.9-5.8c0.3-0.1,0.5-0.6,0.5-1c0-3.2,0-6.4,0-9.9c-3.8,2-7.5,3.9-11,5.8
	c-0.3,0.1-0.5,0.7-0.5,1C28.7,18.4,28.8,21.5,28.8,25.1"/>
<linearGradient id="SVGID_6_" gradientUnits="userSpaceOnUse" x1="42.95" y1="65.2198" x2="70.02" y2="65.2198" gradientTransform="matrix(1 0 0 -1 0 119.8898)">
	<stop  offset="0.21" style="stop-color:#0071B4"/>
	<stop  offset="1" style="stop-color:#795DFD"/>
</linearGradient>
<path class="st6" d="M68.7,51.3l-11.6,4.8l-10.7-4.8L43,50.9l12.7,7.5L70,52.2L68.7,51.3z"/>
<linearGradient id="SVGID_7_" gradientUnits="userSpaceOnUse" x1="4.09" y1="71.3998" x2="19.2" y2="71.3998" gradientTransform="matrix(1 0 0 -1 0 119.8898)">
	<stop  offset="0.21" style="stop-color:#0071B4"/>
	<stop  offset="1" style="stop-color:#795DFD"/>
</linearGradient>
<path class="st7" d="M6.4,36.7v18l12.8,5.6L4.1,55.4C4.1,55.4,6.5,36.7,6.4,36.7z"/>
<linearGradient id="SVGID_8_" gradientUnits="userSpaceOnUse" x1="66.39" y1="50.0198" x2="78.83" y2="50.0198" gradientTransform="matrix(1 0 0 -1 0 119.8898)">
	<stop  offset="0.21" style="stop-color:#0071B4"/>
	<stop  offset="1" style="stop-color:#795DFD"/>
</linearGradient>
<path class="st8" d="M66.4,60.4l11.3,7v11.9l1.2-12.9L66.4,60.4z"/>
</svg>
