<?xml version="1.0" encoding="UTF-8"?>
<svg id="Layer_1" xmlns="http://www.w3.org/2000/svg" version="1.1" viewBox="0 0 1920 935.2">
  <!-- Generator: Adobe Illustrator 29.1.0, SVG Export Plug-In . SVG Version: 2.1.0 Build 142)  -->
  <defs>
    <style>
      .st0 {
        fill: #fff;
      }
    </style>
  </defs>
  <g id="cOOwub.tif">
    <g>
      <path class="st0" d="M1243.4,927.5c-9.1-3-34.8-12.2-58.2-36.3-20.1-20.7-33.2-47.6-39.9-79.3-14-65.6,15.9-134.5,72-167.1,47-27.4,106.4-23.2,149.7,10.1,1.8,1.5,4,2.7,8.2,5.5v-164h102.5v427.2h-101.8c-.3-8.5-.9-16.8-1.5-28.7-6.4,7.9-17.4,19.2-33.5,27.7-42.7,22.6-86.6,8.5-97.6,4.9h.3ZM1378.8,781.5c0-38.7-25.6-64.6-64.6-64.6s-65.3,25.9-65.9,64.6c-.6,36.3,26.8,63.4,64.6,63.7,39.6,0,65.6-24.7,65.9-63.4v-.3Z"/>
      <path class="st0" d="M1011.1,662.3c.6-9.1.9-16.2,1.5-24.1h100v284.2h-99.7c-.6-8.5-1.2-16.8-1.8-26.5-41.8,42.7-90.6,46.7-140.9,26.5-53.4-21.3-81.4-64.6-88.7-121-6.1-47,5.5-89,36.3-125.6,47-56.1,137.8-65.3,193.6-13.4h-.3ZM949.2,844.3c39.6,0,66.2-25,66.5-63.1,0-36.6-27.4-64-64.3-64.3-38.4,0-65.9,26.5-66.2,64,0,37.8,25.6,63.4,64,63.7v-.3Z"/>
      <path class="st0" d="M1821.8,796.7h-210.4c-2.7,33.8,18,58.5,50,61.3,22.3,1.8,42.7-.6,57.3-20.1,1.8-2.4,5.5-3.7,8.8-4.6,2.7-.9,6.1,0,9.1,0h83.2c-6.7,28.7-21,50.3-43.3,67.1-63.7,48.5-176.2,41.2-229.9-16.2-43-46-47.9-101.5-30.5-158.9,16.5-54.6,56.4-86.3,111.9-94.5,28.4-4.3,59.2-4.3,87.2,1.8,83.2,18,114.3,95.1,106.4,164.3v-.3ZM1613.3,735.4h114c-7.9-28.7-28.1-42.7-59.2-42.4-28.4.3-47.9,14.9-54.9,42.4Z"/>
      <path class="st0" d="M2.1,428.4s18.6-33.2,27.7-49.7c3-5.2,5.8-10.7,7.3-13.4,25.9,8.2,50.3,16.5,75,24.4,2.7.9,11,2.1,14,2.1,12.8,0,22-4.9,24.4-20.4,2.4-16.5-11.9-20.7-24.1-24.4s-24.7-5.8-36.9-8.8c-31.1-7.6-57.3-20.7-63.7-56.4-7-39.9,4.3-73.2,38.1-97,36.3-25.6,77.8-27.1,119.8-22.3,20.1,2.4,39.9,8.8,62.8,14-12.8,24.4-23.5,45.4-34.8,66.8-11-3.4-20.7-7-30.8-9.5-7.3-1.8-14.9-2.7-22.6-3-18.9-.6-32,6.7-33.2,17.1-2.4,16.5,15.2,19.5,27.7,22.6,12.8,3.4,25.9,5.2,38.4,9.1,65.3,20.4,84.5,97.3,36.6,147-24.4,25.3-56.1,35.4-90.3,38.4-44.5,3.7-86.6-4.6-125.9-26.2-3-1.5-11.9-6.1-11.9-6.1l2.1-4v-.3Z"/>
      <path class="st0" d="M504.6,200v-29.3h100v427.2h-99.4v-163.7c-2.7.3-4.3,0-5.2.6-43.6,36.9-92.4,39.9-142.4,18.6-52.1-22.3-79.3-65.6-84.5-120.7-6.7-74.1,27.1-134.2,87.2-161,51.2-22.9,103.1-13.1,144.2,28.4h0ZM441.8,376.6c39.3,0,65.3-24.4,65.9-61.9.3-38.7-25.6-65.6-63.7-65.9-38.4-.3-65.9,25.9-66.5,63.7-.6,36.6,26.8,63.7,64.3,63.7v.3Z"/>
      <path class="st0" d="M1227.3,194.5c.6-9.1.9-16.2,1.5-24.1h100v284.2h-99.7c-.6-8.5-1.2-16.8-1.8-26.5-41.8,42.7-90.6,46.7-140.9,26.5-53.4-21.3-81.4-64.6-88.7-121-6.1-47,5.5-89,36.3-125.6,47-56.1,137.8-65.3,193.6-13.4h-.3ZM1165.4,376.6c39.6,0,66.2-25,66.5-63.1,0-36.6-27.4-64-64.3-64.3-38.4,0-65.9,26.5-66.2,64,0,37.8,25.6,63.4,64,63.7v-.3Z"/>
      <path class="st0" d="M651.9,463.5V171.1h100.3v209.2h104.3v-209.2h100.9v292.1h-305.5v.3Z"/>
      <path class="st0" d="M1918.8,330.8h-210.4c-2.7,33.8,18,58.5,50,61.3,22.3,1.8,42.7-.6,57.3-20.1,1.8-2.4,5.5-3.7,8.8-4.6,2.7-.9,6.1,0,9.1,0h83.2c-6.7,28.7-21,50.3-43.3,67.1-63.7,48.5-176.2,41.2-229.9-16.2-43-46-47.9-101.5-30.5-158.9,16.5-54.6,56.4-86.3,111.9-94.5,28.4-4.3,59.2-4.3,87.2,1.8,83.2,18,114.3,95.1,106.4,164.3v-.3ZM1710.2,269.5h114c-7.9-28.7-28.1-42.7-59.2-42.4-28.4.3-47.9,14.9-54.9,42.4Z"/>
      <path class="st0" d="M362.2,923.9v-203.1h-57.3v-83.5h56.4v-93.3h103.1v92.7h57.3v83.2h-56.7v203.7h-102.8v.3Z"/>
      <path class="st0" d="M551,925.7v-289.7c32,0,101.5.6,101.5.6v43.9c29.3-40.9,67.1-51.5,112.2-47.3v94.2c-15.6-1.8-31.1-5.2-46.3-4.9-39.6.6-62.8,22-64.6,61.6-2.1,41.5-1.5,82.9-.9,124.4,0,14.6-4.6,18-18,17.4-27.7-.9-55.5,0-83.9,0v-.3Z"/>
      <path class="st0" d="M1376.7,170.1h101.2v41.5c28.7-38.4,67.1-49.1,112.8-44.8v94.2c-10.4-2.1-20.1-5.2-29.9-5.8-53.7-3.7-80.8,21.3-81.4,75-.6,36,0,72,0,107.6v17.1h-102.5V170.1h-.3Z"/>
      <path class="st0" d="M907.7,113.1c-38.4,22.9-75,44.2-113.1,66.8-22.3-37.5-44.2-74.4-67.1-112.8,37.8-22.3,74.7-44.2,113.1-67.1,22.3,37.5,44.2,74.7,67.1,113.1Z"/>
    </g>
  </g>
</svg>