<?xml version="1.0" encoding="utf-8"?>
<!-- Generator: Adobe Illustrator 28.0.0, SVG Export Plug-In . SVG Version: 6.00 Build 0)  -->
<svg version="1.1" id="Capa_1" xmlns="http://www.w3.org/2000/svg" xmlns:xlink="http://www.w3.org/1999/xlink" x="0px" y="0px"
	 viewBox="0 0 74.7 69.3" style="enable-background:new 0 0 74.7 69.3;" xml:space="preserve">
<style type="text/css">
	.st0{fill:#FFFFFF;}
</style>
<g id="uuid-04fc427a-4829-47a1-b32f-f36ea920f91a">
	<path class="st0" d="M74.1,62.9l-5.5-3.8c-0.4-0.3-1-0.5-1.5-0.5h-3.8c-3.9,4.7-9,8.4-14.8,10.7H67c0.5,0,1.1-0.2,1.5-0.5l5.5-3.8
		C74.8,64.6,74.8,63.4,74.1,62.9z"/>
	<path class="st0" d="M5.3,36.9l5.5-4.7c1.2-11.7,10.8-21,22.7-21.5l-3.9-4.5c-0.4-0.5-0.4-1.2,0-1.7L33.4,0
		C15.6,0.6,1.1,14.7,0,32.4L5.3,36.9z"/>
	<path class="st0" d="M32.4,5.3l4.7,5.4C48.8,12,58,21.6,58.6,33.5l4.5-3.9c0.5-0.4,1.2-0.4,1.7,0l4.5,3.8
		C68.7,15.6,54.6,1.1,36.9,0L32.4,5.3z"/>
	<path class="st0" d="M4.5,39.7l-4.4-3.8C0.3,43.5,3,50.4,7.4,56h16.3c-7.4-3.8-12.6-11.4-13-20.2l-4.5,3.9
		C5.7,40.1,5,40.1,4.5,39.7L4.5,39.7z"/>
	<path class="st0" d="M36.9,64l-4.6-5.3H2.7c-1.5,0-2.7,1.2-2.7,2.7v5.3c0,1.5,1.2,2.7,2.7,2.7h29.7L36.9,64L36.9,64z"/>
	<path class="st0" d="M64,32.4l-5.5,4.7C57.3,48.8,47.7,58,35.8,58.6l3.9,4.5c0.4,0.5,0.4,1.2,0,1.7l-3.8,4.5
		c17.8-0.6,32.2-14.7,33.3-32.4L64,32.4L64,32.4z"/>
</g>
</svg>
