<?xml version="1.0" encoding="utf-8"?>
<!-- Generator: Adobe Illustrator 28.0.0, SVG Export Plug-In . SVG Version: 6.00 Build 0)  -->
<svg version="1.1" id="Capa_1" xmlns="http://www.w3.org/2000/svg" xmlns:xlink="http://www.w3.org/1999/xlink" x="0px" y="0px"
	 viewBox="0 0 88.6 84.3" style="enable-background:new 0 0 88.6 84.3;" xml:space="preserve">
<style type="text/css">
	.st0{fill:#FFFFFF;}
</style>
<g id="uuid-dec5ec56-1540-4431-bc6d-f1e1abb5756d">
	<path class="st0" d="M88.2,32l-31.8-0.8c0,0-0.9,0-1.2-0.9l-10.6-30c0,0-0.3-0.9-0.6,0l-10.6,30c0,0-0.3,0.9-1.2,0.9L0.5,32
		c0,0-0.9,0-0.2,0.5l24.5,18.8l1.1-3L9.1,35.5C8.5,35,9.2,35,9.2,35l25.4-0.7c0.7,0,1-0.7,1-0.7l8.5-24c0.2-0.7,0.5,0,0.5,0l8.5,24
		c0.2,0.7,1,0.7,1,0.7L79.4,35c0.7,0,0.2,0.4,0.2,0.4L59.4,50.9C58.9,51.3,59,52,59,52l7.2,24.4c0.2,0.7-0.4,0.3-0.4,0.3l-18-12.4
		l-2.6,1.9l26,17.9c0,0,0.7,0.5,0.5-0.3l-9-30.5c0,0-0.3-0.8,0.4-1.4l25.2-19.3C88.4,32.6,89.1,32,88.2,32"/>
	<path class="st0" d="M30.7,41.7c0,0-0.3-0.8-0.6,0l-5.2,14.6c0,0-0.3,0.8-1.2,0.8L8.2,57.6c0,0-0.9,0-0.2,0.5l12.3,9.4
		c0,0,0.7,0.6,0.4,1.4l-4.4,14.9c0,0-0.3,0.8,0.5,0.3l12.8-8.8c0,0,0.7-0.5,1.5,0l12.8,8.8c0,0,0.7,0.5,0.5-0.3L39.9,69
		c0,0-0.3-0.8,0.4-1.4l12.3-9.5c0,0,0.7-0.5-0.2-0.5L37,57.2c0,0-0.9,0-1.2-0.8C35.8,56.3,30.7,41.7,30.7,41.7z"/>
</g>
</svg>
