<?xml version="1.0" encoding="utf-8"?>
<!-- Generator: Adobe Illustrator 28.0.0, SVG Export Plug-In . SVG Version: 6.00 Build 0)  -->
<svg version="1.1" id="Capa_1" xmlns="http://www.w3.org/2000/svg" xmlns:xlink="http://www.w3.org/1999/xlink" x="0px" y="0px"
	 viewBox="0 0 56.4 56.4" style="enable-background:new 0 0 56.4 56.4;" xml:space="preserve">
<style type="text/css">
	.st0{fill:#FFFFFF;}
</style>
<g id="uuid-13c35ac3-a813-4d1d-bfdd-b824829f9fd4">
	<path class="st0" d="M16.1,48.3c0,4.5-3.6,8-8.1,8S0,52.8,0,48.3s3.6-8,8.1-8S16.1,43.9,16.1,48.3z"/>
	<path class="st0" d="M56.4,1v12.1c0,0.6-0.5,1-1,1H43.3c-0.6,0-1-0.4-1-1V1c0-0.6,0.5-1,1-1h12.1C55.9,0,56.4,0.4,56.4,1z"/>
	<path class="st0" d="M15.1,29.2l-7,7l-7-7c-0.4-0.4-0.1-1,0.4-1H6V12.1C6,7.6,9.6,4,14.1,4h23.1c0.6,0,1,0.4,1,1v2c0,0.6-0.5,1-1,1
		H14.1c-2.2,0-4,1.8-4,4v16.1h4.6C15.2,28.2,15.4,28.8,15.1,29.2L15.1,29.2z"/>
	<path class="st0" d="M54.9,26.2h-4.6v16.1c0,4.5-3.6,8-8,8H21.1c-0.6,0-1-0.5-1-1v-2c0-0.6,0.5-1,1-1h21.1c2.2,0,4-1.8,4-4V26.2
		h-4.6c-0.5,0-0.8-0.6-0.4-1l7-7l7,7C55.7,25.5,55.5,26.2,54.9,26.2L54.9,26.2z"/>
</g>
</svg>
