<?xml version="1.0" encoding="utf-8"?>
<!-- Generator: Adobe Illustrator 28.0.0, SVG Export Plug-In . SVG Version: 6.00 Build 0)  -->
<svg version="1.1" id="Capa_1" xmlns="http://www.w3.org/2000/svg" xmlns:xlink="http://www.w3.org/1999/xlink" x="0px" y="0px"
	 viewBox="0 0 84.5 58" style="enable-background:new 0 0 84.5 58;" xml:space="preserve">
<style type="text/css">
	.st0{fill:#FFFFFF;}
</style>
<g id="uuid-9e58d48d-1fb3-4f8f-a2e5-d65d269a6567">
	<g>
		<defs>
			<rect id="SVGID_1_" x="-792.3" y="-1290.9" width="1918.6" height="1072.9"/>
		</defs>
		<clipPath id="SVGID_00000148658685101457484140000005205543506821779842_">
			<use xlink:href="#SVGID_1_"  style="overflow:visible;"/>
		</clipPath>
	</g>
</g>
<g id="uuid-f0dcc560-862c-4189-bd76-73f22cb77945">
	<path class="st0" d="M68.4,0H42.6c-8.9,0-16.1,7.2-16.1,16.1v9.1H3.8C1.7,25.2,0,26.9,0,29s1.7,3.8,3.8,3.8h22.7v9.1
		c0,8.9,7.2,16.1,16.1,16.1h25.8c8.9,0,16.1-7.2,16.1-16.1V16.1C84.5,7.2,77.3,0,68.4,0L68.4,0z M76.9,41.9c0,4.7-3.8,8.5-8.4,8.5
		H42.6c-4.7,0-8.5-3.8-8.5-8.5v-9.1h21.4c2.1,0,3.8-1.7,3.8-3.8s-1.7-3.8-3.8-3.8H34.2v-9.1c0-4.7,3.8-8.4,8.5-8.4h25.9
		c4.7,0,8.4,3.8,8.4,8.4L76.9,41.9L76.9,41.9z"/>
</g>
</svg>
