<?xml version="1.0" encoding="utf-8"?>
<!-- Generator: Adobe Illustrator 28.0.0, SVG Export Plug-In . SVG Version: 6.00 Build 0)  -->
<svg version="1.1" id="Capa_1" xmlns="http://www.w3.org/2000/svg" xmlns:xlink="http://www.w3.org/1999/xlink" x="0px" y="0px"
	 viewBox="0 0 71.1 60" style="enable-background:new 0 0 71.1 60;" xml:space="preserve">
<style type="text/css">
	.st0{fill:#FFFFFF;}
</style>
<g id="uuid-927377a7-a2ae-42ad-9345-57df08bd9d46">
	<path class="st0" d="M59.8,9.6C52.7,2.8,43-0.6,33.2,0.1C14.3,1.7-0.2,17.6,0,36.5C0,49.5,10.5,60,23.5,60h24.1
		c13,0,23.5-10.5,23.5-23.5v-1C71.1,25.7,67,16.4,59.8,9.6L59.8,9.6z M55.7,19.3L42.2,32.7c1.6,3.7-0.2,8-3.9,9.6
		c-3.7,1.6-8-0.2-9.6-3.9c-1.6-3.7,0.2-8,3.9-9.6c1.8-0.8,3.9-0.8,5.7,0l13.5-13.4c1.1-1,2.8-1,3.9,0.1
		C56.7,16.6,56.7,18.2,55.7,19.3L55.7,19.3z"/>
</g>
</svg>
