<?xml version="1.0" encoding="utf-8"?>
<!-- Generator: Adobe Illustrator 28.0.0, SVG Export Plug-In . SVG Version: 6.00 Build 0)  -->
<svg version="1.1" id="Capa_1" xmlns="http://www.w3.org/2000/svg" xmlns:xlink="http://www.w3.org/1999/xlink" x="0px" y="0px"
	 viewBox="0 0 83.1 96.4" style="enable-background:new 0 0 83.1 96.4;" xml:space="preserve">
<style type="text/css">
	.st0{fill:#FFFFFF;}
</style>
<g id="uuid-292523e9-53a5-42a8-8ec3-4c2e816b5250">
	<path class="st0" d="M10.1,11.1C4.5,11.2-0.1,15.8,0,21.4s4.7,10.2,10.3,10.1c1.6,0,3.1-0.4,4.5-1.1l3.6,2.9
		c-3.6,4.5-5.6,10-5.8,15.8L5.1,68.3c-1,2.6,0.2,5.5,2.8,6.5c0.4,0.2,0.8,0.3,1.3,0.3l2.6,0.3v5.2c0.1,4.4,3.6,7.9,8,7.9h3.5
		c1.1,0,2,0.9,2,2l0,0v2.9c0,1.7,1.3,3,3,3s3-1.3,3-3v-3c0-4.4-3.6-8-8-8h-3.4c-1.1,0-2-0.9-2-2v-7.8c0-1.5-1.2-2.8-2.7-2.9
		l-3.9-0.4l7.2-18.5c0.1-0.3,0.2-0.7,0.2-1.1c0-4.6,1.6-9,4.4-12.6l7.1,5.8c-3,6.3-0.2,13.9,6.1,16.9s13.9,0.2,16.9-6.1
		c1.6-3.4,1.6-7.4,0-10.8l7.1-5.8c1.3,1.7,2.3,3.5,3,5.5V43c1.9,4.1,0.7,14.1-0.1,21.3c-0.3,2.9-0.7,5.6-0.8,7.9v21.3
		c0,1.7,1.3,3,3,3c1.7,0,3-1.3,3-3v-21c0.2-2.2,0.5-4.8,0.8-7.5c1-8.8,2.2-18.7-0.3-24.4c-0.9-2.6-2.3-5-4-7.2l3.4-2.8
		c5.1,2.5,11.3,0.4,13.8-4.7c2.5-5.1,0.4-11.3-4.7-13.8s-11.3-0.4-13.8,4.7c-1.5,3.1-1.4,6.7,0.3,9.7L60.7,29
		c-4.3-3.6-9.5-5.9-15.1-6.7v-2.4c5.4-1.7,8.4-7.4,6.8-12.8C50.7,1.8,45-1.2,39.6,0.4c-5.4,1.7-8.4,7.4-6.8,12.8
		c1,3.2,3.5,5.8,6.8,6.8v2.2C33.3,22.6,27.3,25,22.5,29l-3.4-2.8c2.7-4.9,0.9-11.1-4.1-13.9C13.5,11.6,11.8,11.1,10.1,11.1
		L10.1,11.1z M5.9,21.3c0-2.3,1.9-4.2,4.2-4.2s4.2,1.9,4.2,4.2s-1.9,4.2-4.2,4.2S5.9,23.7,5.9,21.3L5.9,21.3z M41.7,54.9
		c-3.7,0-6.7-3-6.7-6.7s3-6.7,6.7-6.7s6.7,3,6.7,6.7S45.4,54.9,41.7,54.9L41.7,54.9z M72.9,17.1c2.3,0,4.2,1.9,4.2,4.2
		s-1.9,4.2-4.2,4.2s-4.2-1.9-4.2-4.2l0,0C68.7,19,70.6,17.1,72.9,17.1z M56,32.8l-6.5,5.4c-1.1-0.9-2.4-1.5-3.8-2v-7.9
		C49.5,29,53,30.6,56,32.8z M39.7,7.2c1.7-1.6,4.3-1.6,5.9,0.1s1.6,4.3-0.1,5.9c-1.6,1.6-4.2,1.6-5.9,0C38,11.5,38,8.9,39.7,7.2
		C39.7,7.2,39.7,7.2,39.7,7.2z M39.7,28.1v7.6c-2.1,0.3-4.1,1.2-5.8,2.5L27.4,33C31,30.2,35.2,28.5,39.7,28.1
		C39.7,28.1,39.7,28.2,39.7,28.1z"/>
</g>
</svg>
