<?xml version="1.0" encoding="UTF-8"?>
<svg id="Layer_1" xmlns="http://www.w3.org/2000/svg" version="1.1" viewBox="0 0 1920 339.3">
  <!-- Generator: Adobe Illustrator 29.1.0, SVG Export Plug-In . SVG Version: 2.1.0 Build 142)  -->
  <defs>
    <style>
      .st0 {
        fill: #fff;
      }
    </style>
  </defs>
  <g>
    <polyline class="st0" points="480.1 82.2 396.9 82.2 396.9 30.9 624.5 30.9 624.5 82.2 541.2 82.2 541.2 308.6 480.1 308.6 480.1 82.2"/>
    <path class="st0" d="M598,308.6h61.8l21.8-61.8h103.8l21,61.8h63.4L766.1,30.9h-62.6l-105.4,277.7M733.8,99.3h.8l35,101.9h-71.9l36.1-101.9h0Z"/>
    <path class="st0" d="M893.9,308.6h61.1v-108.5h61c30.8,0,42,12.8,46.3,42,3.2,22.2,2.4,49,9.7,66.6h61c-10.9-15.5-10.4-48.2-11.7-65.8-1.9-28.1-10.4-57.2-40.4-65v-.8c30.8-12.5,43.9-36.9,43.9-69.6s-31.5-76.6-81.3-76.6h-149.7v277.7M955,78.3h66.9c27.2,0,42,11.7,42,38.5s-14.8,39.6-42,39.6h-66.9v-78.1Z"/>
    <path class="st0" d="M1367.7,277c-21.4,27.6-49.4,38.2-76.2,38.2-86,0-136.6-64.3-136.6-144.5s50.6-146.6,136.6-146.6,110.4,35,117.1,98h-58.4c-7-30.8-30-46.7-58.8-46.7-54.8,0-75.5,46.7-75.5,95.3s20.6,93,75.5,93,62.6-21.4,66.1-59.9h-61.4v-45.4h116.7v150.2h-38.9l-6.2-31.5"/>
    <polyline class="st0" points="1454.4 30.9 1662.1 30.9 1662.1 82.2 1515.5 82.2 1515.5 141.6 1650 141.6 1650 189.2 1515.5 189.2 1515.5 257.2 1665.2 257.2 1665.2 308.6 1454.4 308.6 1454.4 30.9"/>
    <polyline class="st0" points="1775.6 82.2 1692.4 82.2 1692.4 30.9 1920 30.9 1920 82.2 1836.7 82.2 1836.7 308.6 1775.6 308.6 1775.6 82.2"/>
  </g>
  <path class="st0" d="M169.6,282.9c-62.4,0-113.2-50.6-113.2-113.1s50.7-113.2,113.2-113.2,113.1,50.6,113.1,113.2-50.6,113.1-113.1,113.1M169.6,0C76,0,0,76,0,169.7s76,169.6,169.6,169.6,169.8-76,169.8-169.6S263.3,0,169.6,0Z"/>
  <path class="st0" d="M169.6,104.5c-32.1,0-58.1,26-58.1,58.1s26,58.1,58.1,58.1,58.2-26,58.2-58.1-26-58.1-58.2-58.1"/>
</svg>