<svg id="uuid-986b1f78-03db-4b99-8098-f34fdd31be4c" xmlns="http://www.w3.org/2000/svg" xmlns:xlink="http://www.w3.org/1999/xlink" viewBox="0 0 90.7 84.31"><defs><linearGradient id="uuid-cab28ec9-2f21-4a5f-ae74-7f40da8e57f5" x1="5.51" y1="37.31" x2="83.51" y2="37.31" gradientUnits="userSpaceOnUse"><stop offset=".21" stop-color="#00ffb4"/><stop offset="1" stop-color="#00e6ff"/></linearGradient><linearGradient id="uuid-883c92c8-b9e9-4f48-a231-3c1fd727cfc9" x1="11.51" y1="37.31" x2="74.51" y2="37.31" gradientUnits="userSpaceOnUse"><stop offset=".21" stop-color="#0071b4"/><stop offset="1" stop-color="#795dfd"/></linearGradient><linearGradient id="uuid-a11c8316-7868-4d42-9a02-3260cb1e4c4e" x1="23.79" y1="75.31" x2="61.23" y2="75.31" xlink:href="#uuid-883c92c8-b9e9-4f48-a231-3c1fd727cfc9"/><linearGradient id="uuid-91c10e40-366b-498e-badf-ea17873a8e4a" x1="1.85" y1="36.91" x2="3.51" y2="36.91" xlink:href="#uuid-883c92c8-b9e9-4f48-a231-3c1fd727cfc9"/><style>.uuid-e3e038d6-a949-471b-a24e-746aaac8c220{fill:#fff}</style></defs><path d="m78.65 73.81-58.3-10c-5.42 0-9.85-5.4-9.85-12v-29c0-6.6 4.43-12 9.85-12l58.3-10c5.42 0 9.85 5.4 9.85 12v49c0 6.6-4.43 12-9.85 12" style="fill:#00c1da"/><path d="m73.65 73.81-58.29-10c-5.42 0-9.85-5.4-9.85-12v-29c0-6.6 4.43-12 9.85-12l58.29-10c5.42 0 9.85 5.4 9.85 12v49c0 6.6-4.43 12-9.85 12" style="fill:url(#uuid-cab28ec9-2f21-4a5f-ae74-7f40da8e57f5)"/><path d="m66.55 66.79-47.08-8.08c-4.38 0-7.96-4.36-7.96-9.69V25.6c0-5.33 3.58-9.69 7.96-9.69l47.08-8.08c4.38 0 7.96 4.36 7.96 9.69V57.1c0 5.33-3.58 9.69-7.96 9.69" style="fill:url(#uuid-883c92c8-b9e9-4f48-a231-3c1fd727cfc9)"/><path d="m64.17 63.81-42.32-7.26c-3.93 0-7.15-3.92-7.15-8.71V26.79c0-4.79 3.22-8.71 7.15-8.71l42.32-7.26c3.93 0 7.15 3.92 7.15 8.71V55.1c0 4.79-3.22 8.71-7.15 8.71" style="fill:#eaeaea"/><path class="uuid-e3e038d6-a949-471b-a24e-746aaac8c220" d="M64.51 13.69s3.7-1.56 3.08-7.48c.62 5.3.62 6.54 4.92 6.55 0 0-4.92 3.07-4.3 7.29 0 0 0-4.84-3.7-6.36M70.51 7.72s1.93-.82 1.61-3.91c.32 2.77.32 3.42 2.57 3.42 0 0-2.57 1.6-2.25 3.81 0 0 0-2.53-1.93-3.32"/><path d="m55.85 82.56-28.44-5.67c-2.43-.48-4.02-2.87-3.53-5.29.49-2.43 2.87-4.02 5.29-3.53l28.44 5.67c2.43.48 4.02 2.87 3.53 5.29-.48 2.43-2.87 4.02-5.29 3.53" style="fill:url(#uuid-a11c8316-7868-4d42-9a02-3260cb1e4c4e)"/><path d="m3.23 24.01.27 25.81S-.04 30.2 3.23 24.01" style="fill:url(#uuid-91c10e40-366b-498e-badf-ea17873a8e4a)"/></svg>